<?xml version="1.0" standalone="no"?>
<!DOCTYPE svg PUBLIC "-//W3C//DTD SVG 1.1//EN" "http://www.w3.org/Graphics/SVG/1.1/DTD/svg11.dtd" >
<svg xmlns="http://www.w3.org/2000/svg">
<metadata></metadata>
<defs>
<font id="formatabold_italic" horiz-adv-x="1280" >
<font-face units-per-em="2048" ascent="1524" descent="-524" />
<missing-glyph horiz-adv-x="598" />
<glyph horiz-adv-x="2048" />
<glyph horiz-adv-x="2048" />
<glyph unicode="&#xd;" horiz-adv-x="598" />
<glyph unicode=" "  horiz-adv-x="598" />
<glyph unicode="&#x09;" horiz-adv-x="598" />
<glyph unicode="&#xa0;" horiz-adv-x="598" />
<glyph unicode="!" horiz-adv-x="641" d="M49 8l72 322l18 14l377 8l12 -14l-77 -324l-15 -12l-377 -8zM219 532l43 224l45 231l82 549l17 14l413 23l10 -14l-90 -306l-67 -237l-127 -477l-17 -15l-299 -6z" />
<glyph unicode="&#x22;" horiz-adv-x="811" d="M143 1397q0 35 13.5 60.5t35 43t49 25.5t54.5 8q55 0 97 -33t42 -94q0 -10 -1 -18.5t-1 -16.5l-108 -536h-66l-111 512q-2 14 -3 26t-1 23zM569 1397q0 70 49.5 103.5t104.5 33.5q53 0 95 -33t42 -94v-18.5t-2 -16.5l-108 -536h-64l-113 512q-2 14 -3 26t-1 23z" />
<glyph unicode="#" horiz-adv-x="1366" d="M131 381v252h229l27 196h-205v254h240l51 363h256l-53 -363h205l49 363h256l-49 -363h186v-254h-221l-27 -196h201v-252h-238l-53 -381h-256l53 381h-202l-54 -381h-254l52 381h-193zM614 633h203l29 196h-203z" />
<glyph unicode="$" horiz-adv-x="1150" d="M18 96l72 291l23 8q31 -35 57.5 -56.5t52 -35.5t51 -24.5t54.5 -18.5l145 297l-33 25q-57 43 -104 83t-80 83t-50.5 95t-17.5 122q0 82 29 163.5t93.5 148t169 108.5t255.5 42q66 0 144 -6l51 119l16 10l164 -4l6 -12l-74 -143q25 -8 43.5 -14.5t34 -12.5t31.5 -13.5 t41 -19.5l6 -18q-16 -47 -27.5 -81t-20.5 -62.5t-18.5 -57.5t-21.5 -68l-18 -6q-29 23 -49.5 37.5t-38 24.5t-38 18t-48.5 19l-138 -289l29 -23q59 -47 108.5 -89t84 -88t54 -101t19.5 -127q0 -129 -66.5 -227.5t-160.5 -151.5q-43 -25 -94.5 -39t-100.5 -22.5t-93 -11.5 t-75 -3q-59 0 -120 6l-58 -133l-14 -12l-162 -4l-8 16l80 162q-33 12 -55.5 20.5t-41 15.5t-37 17t-42.5 25zM487 238q27 -2 53.5 -1t53.5 11q35 12 58.5 37.5t23.5 60.5q0 47 -26.5 73.5t-53.5 45.5zM588 1061q0 -41 23.5 -65.5t50.5 -43.5l104 211q-25 2 -50.5 2 t-49.5 -10q-6 -4 -19.5 -10t-27 -18.5t-22.5 -29t-9 -36.5z" />
<glyph unicode="%" horiz-adv-x="1878" d="M139 772q0 12 3 64.5t17.5 122t42 149.5t78 145.5t125 109.5t181.5 44q27 0 83 -9t109 -59q57 -53 71.5 -120.5t14.5 -128.5q0 -74 -12 -144q-10 -78 -34.5 -158.5t-65.5 -146.5q-35 -57 -75 -92t-83 -54.5t-85 -26.5t-81 -7q-137 0 -213 78.5t-76 232.5zM393 719 q0 -8 1 -22.5t6.5 -29t15.5 -25.5t30 -11q27 0 40.5 16.5t19.5 26.5q16 31 39 101.5t43 174.5q16 76 22 125t6 82q0 31 -10 54.5t-41 23.5q-18 0 -31.5 -10.5t-22.5 -23.5t-16.5 -28.5t-9.5 -23.5q-18 -47 -34.5 -109.5t-28.5 -125t-20.5 -116t-8.5 -79.5zM428 18 q18 29 58 89.5t88.5 132t98.5 147.5t91 135q82 123 162 244t161 242q47 72 78 116.5t54.5 81.5t46 74t55.5 92l18 12h66h48.5t44 1t50.5 1l4 -18q-16 -25 -60 -89.5t-94 -137t-95.5 -138t-63.5 -92.5q-59 -86 -133 -199.5t-151.5 -235.5t-152.5 -240.5t-134 -215.5l-17 -12 l-31 -2q-32 -2 -72 -3t-74 -2t-40 -1zM1098 291q0 37 6 89t18.5 111.5t33 120t50.5 113.5q53 90 136 145.5t202 55.5q14 0 36 -2t47.5 -8.5t53 -19.5t54.5 -38q57 -55 71.5 -122.5t14.5 -127.5q-1 -75 -13 -145q-10 -76 -34.5 -157t-65.5 -146q-35 -55 -74 -90t-80 -55.5 t-84 -27.5t-84 -7q-139 0 -213.5 78.5t-74.5 232.5zM1352 236q0 -6 1 -20.5t6 -29t15 -25.5t31 -11q25 0 39 16t18 27q18 29 40 99.5t42 174.5q16 78 22.5 127t6.5 80t-10.5 55.5t-40.5 24.5q-18 0 -31.5 -10.5t-23 -23.5t-15.5 -28.5t-10 -25.5q-16 -47 -32.5 -108.5 t-29 -124t-20.5 -116t-8 -81.5z" />
<glyph unicode="&#x26;" horiz-adv-x="1492" d="M35 348q0 115 51 197t119.5 138t139.5 89t112 49q-29 59 -53.5 124t-24.5 149q0 57 22.5 124.5t75.5 125t142.5 95.5t224.5 38q106 0 184 -25t129 -68t77 -100t26 -123q0 -68 -29 -124t-75 -103t-103.5 -87t-116.5 -75q18 -37 32.5 -62.5t29 -48t29.5 -47t38 -59.5 l48.5 48.5t64.5 66.5q37 37 60.5 65.5t40.5 53t28.5 45t23.5 43.5l23 2q12 -23 23.5 -42.5t23.5 -39.5q6 -8 23.5 -37t36 -59.5t34.5 -56.5t18 -28l-2 -16q-31 -35 -55 -61.5t-55 -57t-75 -70.5t-112 -98l189 -295l-8 -18h-209q-61 0 -124 -2t-124 -4l-18 12l-46 78 q-39 -20 -80.5 -40.5t-91 -37t-106.5 -27t-127 -10.5q-104 0 -185 32t-136.5 84t-84 120.5t-28.5 142.5zM461 395q0 -10 4 -28.5t18.5 -37t40 -32.5t66.5 -14q43 0 77.5 13.5t69.5 29.5q-23 39 -37 65.5t-28.5 50t-28.5 50t-37 63.5q-16 -8 -40.5 -21.5t-48 -34t-40 -46 t-16.5 -58.5zM764 1147q0 -35 15.5 -72t33.5 -74q20 14 44 32t43.5 37.5t31.5 42t12 46.5q0 35 -26.5 59.5t-57.5 24.5q-35 0 -65.5 -22.5t-30.5 -73.5z" />
<glyph unicode="'" horiz-adv-x="425" d="M164 1397q0 70 49 103.5t104 33.5t97.5 -33t42.5 -94q0 -14 -4 -35l-109 -536h-63l-113 512q-2 14 -3 26t-1 23z" />
<glyph unicode="(" horiz-adv-x="681" d="M104 254q0 123 19.5 249t64.5 260t119 275.5t180 292.5q72 98 122 157.5t55 63.5l18 15h225l11 -19q-78 -127 -163 -282.5t-156 -343t-118 -410.5t-47 -483q0 -115 8.5 -225.5t18.5 -229.5l-15 -18l-196 -2l-17 16q-29 94 -52 177t-39.5 165t-27 165t-10.5 177z" />
<glyph unicode=")" horiz-adv-x="681" d="M-209 -426q76 127 162 282.5t156.5 343t117.5 412t47 488.5q0 113 -8 222.5t-18 225.5l14 19h197l16 -15q27 -92 50.5 -176t41 -167t27.5 -167t10 -176q0 -188 -42 -355t-104.5 -308.5t-134 -254t-128.5 -192.5q-10 -12 -32 -41.5t-46.5 -60.5t-45 -56.5t-26.5 -29.5 l-18 -12h-228z" />
<glyph unicode="*" horiz-adv-x="980" d="M188 1051l11 16l256 86l-213 102l-2 17l147 211h16q25 -27 41.5 -44.5t34 -33.5t39 -35.5t55.5 -50.5q4 35 6.5 60.5t4.5 50t4 53t4 71.5l12 13h242l8 -13l-94 -239l227 155l17 -6l94 -200l-11 -17l-272 -96q39 -16 66.5 -26.5t51 -18.5t49.5 -16.5t62 -20.5l5 -16 q-25 -39 -42.5 -65.5t-31.5 -50.5t-28.5 -49.5t-35.5 -60.5l-16 -4q-31 29 -52.5 48.5t-42 37t-45 36t-61.5 46.5l-6 -231l-12 -15l-242 -4l-6 15l78 241q-35 -25 -59.5 -42t-46 -34.5t-44 -36t-53.5 -44.5l-14 4z" />
<glyph unicode="+" horiz-adv-x="1366" d="M121 467v260h469v467h260v-467h465v-260h-465v-467h-260v467h-469z" />
<glyph unicode="," horiz-adv-x="555" d="M-158 -190l62 135q35 74 55.5 117.5t36.5 80.5t33.5 79t46.5 114l16 10q74 2 124 3t93 2t86 3t105 6l8 -18q-16 -27 -36.5 -58.5t-44.5 -65.5t-45.5 -65.5t-39.5 -56.5q-45 -72 -90 -141.5t-92 -138.5l-15 -11l-295 -10z" />
<glyph unicode="-" horiz-adv-x="811" d="M53 436l78 285l16 14h637l7 -10l-80 -285l-17 -14q-80 0 -159.5 1t-159.5 1q-92 0 -163 -1t-153 -3z" />
<glyph unicode="." horiz-adv-x="555" d="M-39 6l68 326l14 14l385 4l10 -12l-73 -324l-15 -12l-377 -8z" />
<glyph unicode="/" horiz-adv-x="980" d="M-262 -291l49 68q12 18 44 67.5t67.5 104.5t68.5 105t45 71q41 57 90.5 132t96.5 146l241 365q127 197 251 391.5t245 392.5l16 13l271 4l6 -21l-455 -688l-223 -340q-10 -16 -33.5 -52t-53.5 -82t-62.5 -96t-63.5 -97.5t-54.5 -84t-35.5 -55.5q-10 -16 -40 -62 t-62.5 -96.5t-60.5 -95.5t-36 -57q-4 -8 -8 -15.5t-8 -15.5l-15 -10l-268 -8z" />
<glyph unicode="0" horiz-adv-x="1193" d="M84 457q0 63 12.5 154t37 189.5t62 195t91.5 171.5q27 39 68.5 83t101 82t137.5 62.5t176 24.5q86 0 146.5 -21.5t101.5 -49.5q55 -39 89 -87.5t53.5 -102.5t25.5 -113.5t6 -120.5q0 -53 -4 -105.5t-12 -105.5q-18 -135 -60.5 -268.5t-117 -239t-188.5 -172t-278 -66.5 q-35 0 -85 4t-104 23.5t-107.5 60.5t-92.5 113q-25 47 -42 118.5t-17 170.5zM475 367q0 -10 1 -33t9.5 -46.5t23.5 -42t46 -18.5q27 0 46.5 13.5t34.5 34t25.5 47t20.5 51.5q12 31 23.5 72.5t23.5 88t22.5 93.5t18.5 90q6 31 13.5 71.5t13.5 85t10 84t4 68.5q0 47 -5 64.5 t-9 23.5q-4 4 -19.5 22.5t-44.5 18.5q-31 0 -52.5 -17.5t-37.5 -45t-28.5 -60.5t-22.5 -63q-20 -59 -41 -145.5t-38 -174.5t-27.5 -164.5t-10.5 -117.5z" />
<glyph unicode="1" horiz-adv-x="1193" d="M289 8l110 447l35 141l115 496q-33 0 -55.5 -1t-42 -3.5t-42 -4.5t-55.5 -6l-12 13l72 247l14 13q70 10 138.5 17t140.5 15q59 6 97 10.5t70.5 8.5t66.5 9t87 13l12 -14l-118 -489l-58 -244q-23 -98 -44 -194.5t-44 -194.5q-14 -68 -26.5 -135.5t-26.5 -135.5l-14 -16 q-68 0 -115 1t-90 0t-90 -3t-115 -4z" />
<glyph unicode="2" horiz-adv-x="1193" d="M-70 20l183 189l149 160q43 47 70.5 76.5t52.5 55t52.5 57.5t72.5 81q53 59 87 103t54.5 78t27.5 61.5t7 52.5q0 66 -50 111t-142 45q-23 0 -63 -4.5t-85 -20.5q-61 -20 -98 -47t-78 -66l-20 13l77 340l15 18q18 10 49 25.5t78 31t109.5 26.5t142.5 11q170 0 271 -48 t154.5 -112.5t68.5 -131t15 -105.5q0 -80 -25.5 -148.5t-67.5 -132t-97 -124t-115 -121.5l-163 -166h87.5t79.5 2t92.5 4t125.5 6l10 -16q-16 -51 -27.5 -86t-21 -68t-18.5 -70t-21 -90l-17 -10h-551l-462 -6z" />
<glyph unicode="3" horiz-adv-x="1193" d="M10 78l70 293l20 4q14 -16 28.5 -30.5t39.5 -31.5q82 -51 188 -51q74 0 126.5 25.5t84 62.5t46 78t14.5 72q0 23 -9.5 52.5t-30 55t-54 43t-82.5 17.5q-27 0 -48.5 -7.5t-50.5 -17.5l-14 14l260 418l-393 -12l-10 14l81 295l15 14q47 -2 93 -3t93 -1q47 -2 93 -2h94 q133 0 265 4.5t265 8.5l8 -25l-364 -522q31 -2 57.5 -7t60.5 -30q39 -29 65 -65.5t40 -75.5t19 -77t5 -71q0 -39 -8 -90t-29.5 -106.5t-60.5 -111.5t-100 -106q-72 -59 -181.5 -98t-279.5 -39q-106 0 -208.5 21.5t-199.5 68.5z" />
<glyph unicode="4" horiz-adv-x="1193" d="M2 270l51 232l13 22q78 102 156.5 222t156.5 237q66 102 132.5 199.5t137.5 195.5l19 13h506l10 -15q-43 -176 -71 -289.5t-48.5 -200.5t-37.5 -166t-40 -183l156 4l12 -17q-12 -41 -21.5 -69.5t-16.5 -56t-15 -58.5t-19 -76l-16 -10h-145q-10 -43 -16.5 -71.5 t-11.5 -54.5t-10 -52.5t-12 -65.5l-16 -12h-107t-84 -2t-83 -4t-107 -4l-12 14l69 252h-241h-275zM383 539l217 -2l64 241l98 344q-6 -10 -24.5 -38.5t-39 -60.5t-39 -60.5t-26.5 -40.5z" />
<glyph unicode="5" horiz-adv-x="1193" d="M23 70l73 288l19 7q23 -18 48 -37t57 -34t73 -24.5t94 -9.5q78 0 127 22.5t76.5 56.5t38 72t10.5 66q0 66 -39 111q-37 43 -89 55t-95 12q-61 0 -120.5 -16t-109.5 -53l-22 14l125 412l102 358l17 14h91t140 -1t140.5 -1h94.5q78 0 149 2t171 9l12 -15l-94 -295l-14 -10 l-213 4l-232 4l-51 -153q31 6 55.5 10t55.5 4q59 0 125.5 -20.5t122 -66.5t92.5 -121t37 -185q0 -35 -6.5 -79t-24 -94t-47 -103.5t-74.5 -102.5q-86 -96 -210 -148.5t-314 -52.5q-70 0 -122 6.5t-96 17.5t-82 25.5t-81 32.5z" />
<glyph unicode="6" horiz-adv-x="1193" d="M84 496q0 49 9 136t38 189.5t81 208t137 192.5t209 141t294 54q92 0 180 -17.5t168 -58.5l8 -18l-78 -287l-22 -4q-20 23 -40.5 40.5t-61.5 33.5q-57 23 -117 22q-78 0 -146.5 -34.5t-115.5 -96.5q-27 -35 -46.5 -73.5t-37.5 -79.5l43 24q55 31 111.5 43.5t103.5 12.5 q68 0 131 -23.5t113.5 -72t80 -123t29.5 -179.5q0 -80 -25.5 -176t-90 -181t-176 -141.5t-281.5 -56.5q-88 0 -174 20.5t-162 80.5q-88 72 -125 177t-37 247zM461 408q0 -68 18.5 -105t41 -53.5t44 -19.5t25.5 -3q33 0 62.5 18.5t53 50.5t37 76t13.5 95q0 86 -42 120t-87 34 q-35 0 -61.5 -12.5t-45.5 -26.5q-23 -19 -39 -39q-4 -8 -8 -25.5t-7 -38t-4 -40t-1 -31.5z" />
<glyph unicode="7" horiz-adv-x="1193" d="M139 10q10 20 21.5 40t31 54.5t51 91t85.5 148.5l417 729l-526 -8l-10 14l92 293l16 14h345l342 7l307 6l10 -21q-31 -61 -70 -136t-81 -153.5t-81.5 -153.5t-70.5 -134q-27 -53 -68 -132t-85 -168t-89 -180.5t-78 -164.5q-16 -35 -30.5 -71t-30.5 -71l-19 -14 q-72 0 -123 1t-101 0t-106.5 -3t-137.5 -4z" />
<glyph unicode="8" horiz-adv-x="1193" d="M43 354q0 68 19.5 131.5t52.5 110.5q31 43 64.5 70.5t65 45t60.5 27t47 15.5q-23 14 -49.5 32.5t-49 47t-38.5 67.5t-16 92q0 35 11 91.5t52 117.5q68 104 188.5 160.5t301.5 56.5q59 0 118.5 -8t112.5 -26.5t100 -50t82 -79.5q39 -53 48.5 -104t9.5 -86q0 -20 -2 -39.5 t-9 -40.5q-14 -55 -42.5 -94t-63.5 -66.5t-72.5 -46.5t-72.5 -33q18 -8 46.5 -25.5t56.5 -49t48.5 -83.5t20.5 -128q0 -70 -25 -155t-89.5 -159.5t-177 -125t-288.5 -50.5q-254 0 -382 105.5t-128 279.5zM469 358q0 -57 30.5 -85.5t61.5 -28.5q4 0 20.5 2t37 17.5t41 48.5 t32.5 94q12 51 13 88q0 33 -10.5 54t-25 32.5t-29.5 15.5t-24 4q-35 0 -62.5 -22.5t-46 -57.5t-28.5 -78t-10 -84zM592 958q0 -31 10 -50t24.5 -31.5t31 -16.5t26.5 -4q12 0 30.5 5t37 22.5t35 48.5t26.5 82q6 27 6 55q0 39 -12 59.5t-27.5 30.5t-30 12.5t-16.5 2.5 q-53 0 -97 -56.5t-44 -159.5z" />
<glyph unicode="9" horiz-adv-x="1193" d="M74 66l78 286l20 4q18 -20 39 -39q29 -25 80 -41t104 -16q78 0 147.5 39t116.5 100q31 41 47.5 76t32.5 70q-35 -20 -98 -50t-162 -30q-74 0 -138.5 27.5t-112.5 79t-74.5 125t-26.5 165.5q0 100 33 200.5t103.5 178.5t180 127t263.5 49q94 0 183 -25.5t161 -88.5 q72 -66 109.5 -163.5t37.5 -244.5q0 -61 -11 -152.5t-42 -194t-85 -205.5t-138 -186t-205 -134.5t-283 -51.5q-92 0 -182 16.5t-170 59.5zM526 922q0 -82 38 -118t89 -36q27 0 57.5 9t53.5 30q10 10 18.5 19.5t18.5 19.5q2 4 6 22.5t7 41t5 45t2 34.5q0 78 -36.5 124 t-92.5 46q-37 0 -67.5 -20.5t-52 -53t-34 -75.5t-12.5 -88z" />
<glyph unicode=":" horiz-adv-x="641" d="M47 8l68 326l14 12l383 6l10 -14l-69 -324l-17 -12l-377 -8zM215 750l70 319l16 14l389 7l8 -15q-12 -53 -21 -89t-17.5 -69.5t-15.5 -71.5t-19 -93l-17 -13h-96t-81 -1t-88 -2t-118 -3z" />
<glyph unicode=";" horiz-adv-x="641" d="M-92 -186q41 88 68.5 148.5t51 115.5t47 113.5t56.5 142.5l16 14q70 0 119 1t93 3t91.5 3t112.5 5l6 -18q-8 -12 -29.5 -44t-46 -67.5t-47 -68.5t-30.5 -47q-49 -74 -97.5 -149t-95.5 -148l-16 -13l-291 -6zM248 745l74 324l16 12l385 9l10 -15l-78 -323l-18 -15l-379 -6 z" />
<glyph unicode="&#x3c;" horiz-adv-x="1366" d="M45 592v254l1366 606v-285l-1001 -448l1001 -440v-285z" />
<glyph unicode="=" horiz-adv-x="1366" d="M35 254v260h1366v-260h-1366zM35 680v260h1366v-260h-1366z" />
<glyph unicode="&#x3e;" horiz-adv-x="1366" d="M45 -6v285l1002 440l-1002 448v285l1366 -606v-254z" />
<glyph unicode="?" horiz-adv-x="937" d="M96 8l70 326l14 14h106.5h86.5t85 1t103 3l8 -14l-75 -324l-15 -12l-373 -8zM166 1174l82 311l10 12q39 16 76 30.5t78 26t87 18.5t103 7q131 0 216 -38t136.5 -94t72 -123t20.5 -122q0 -49 -13.5 -96t-40 -94t-67.5 -99.5t-99 -111.5l-59 -62q-41 -41 -81 -88t-62 -90 q-4 -10 -7.5 -19.5t-7.5 -19.5l-16 -12l-361 -6l-8 14q8 37 22.5 65.5t36 59.5t54.5 66.5t80 87.5l47 51q57 63 105 129.5t48 138.5q0 76 -53 119t-127 43q-35 0 -61 -8q-72 -16 -115 -47t-78 -64z" />
<glyph unicode="@" horiz-adv-x="1835" d="M176 487q0 195 71.5 371t197.5 309t298 212t375 79q143 0 256 -45t192 -125t121 -189.5t42 -238.5q0 -139 -40 -269t-106.5 -231.5t-155 -163t-184.5 -61.5q-59 0 -94 17.5t-55.5 41t-27.5 47t-9 33.5q-47 -55 -108.5 -97t-149.5 -42q-57 0 -109.5 21.5t-91.5 64.5 t-61.5 108.5t-22.5 153.5q0 106 33 211t92 189t140 136t179 52q51 0 88 -13.5t62 -32.5t41 -40.5t27 -36.5l18 80h186l-69 -323q-6 -29 -15.5 -75t-18.5 -95.5t-15.5 -94.5t-6.5 -69q0 -18 6.5 -40t32.5 -22q33 0 79 44t86 118t68.5 172t28.5 209q0 123 -40.5 208 t-106.5 137t-146.5 75.5t-162.5 23.5q-147 0 -283.5 -63.5t-241 -174t-168 -258t-63.5 -315.5q0 -170 61.5 -281.5t154.5 -177t201.5 -92t203.5 -26.5q135 0 275 46t269 144q78 61 121 109l96 -125q-47 -43 -115.5 -101.5t-162.5 -110.5t-212 -88t-261 -36q-78 0 -167 14.5 t-178 49t-171 90t-144.5 138.5t-100.5 193.5t-38 255.5zM727 494q0 -63 17.5 -98.5t39 -52.5t43 -21.5t29.5 -4.5q37 0 80 27t78 72q25 33 43 72.5t29.5 80.5t16.5 79t5 67q-2 84 -41 128t-98 44q-55 0 -100.5 -39t-77 -97.5t-48 -127t-16.5 -129.5z" />
<glyph unicode="A" horiz-adv-x="1409" d="M-117 18q61 109 126 230t128 237l242 453q49 92 83 157.5t61.5 119t53 104.5t58.5 115l16 12l533 8l12 -12q8 -141 15.5 -251t13.5 -207t12 -192.5t14.5 -207t18.5 -249.5t24 -321l-10 -12l-430 -8l-10 12v211l-2 137h-383l-158 -340l-14 -14h-115h-89t-86 -2t-106 -4z M598 647h244v518z" />
<glyph unicode="B" horiz-adv-x="1409" d="M0 8l78 311l61 261q29 129 50.5 222t38 164.5t27.5 127t21.5 107.5t19.5 106.5t21 126.5l13 12l155 2l209 4q84 0 144 1q30 0 55.5 0.5t47.5 -0.5q44 -1 77 -3t65 -4q156 -18 240 -98t84 -215q0 -59 -18.5 -109.5t-46 -90.5t-62.5 -68.5t-68 -47.5q-27 -14 -52 -22.5 t-52 -18.5q31 -10 60.5 -21.5t56.5 -31.5q14 -10 33.5 -30.5t36 -49.5t28.5 -66.5t12 -84.5q0 -29 -6 -66t-18.5 -77t-30.5 -80t-45 -72q-18 -23 -43 -46.5t-60.5 -46t-84 -43t-113.5 -34.5q-47 -10 -87 -15.5t-100.5 -8.5t-156.5 -3h-254h-133l-193 -4zM485 268l72 -2 q47 0 98.5 3t92.5 24q33 14 55 36.5t34.5 47t17.5 48.5t5 42q0 29 -10 49.5t-22.5 33.5t-23.5 20.5t-16 9.5q-23 12 -55.5 15t-91.5 3h-80zM627 879l47 -2q16 -1 31 -1q31 0 62 3q46 4 91 26q47 25 75 69t28 97q0 14 -9.5 47t-56.5 56q-25 12 -56.5 15t-86.5 3l-52 -2z" />
<glyph unicode="C" d="M119 610q0 156 50 311.5t152.5 278.5t258 200t368.5 77q121 0 230 -27q35 -8 60.5 -15.5t47 -16.5t41 -20.5t41.5 -23.5l8 -16l-90 -316l-16 -6q-14 12 -36 30.5t-53.5 35t-77.5 28t-108 11.5q-117 0 -197.5 -53.5t-133 -131t-76 -164.5t-23.5 -155q0 -164 84 -251 t232 -87q113 0 183.5 34t119.5 66l16 -10q-10 -41 -22.5 -84t-22.5 -84t-19.5 -84t-19.5 -84l-12 -16q-59 -29 -139 -48.5t-203 -19.5q-170 0 -291 48.5t-199.5 134.5t-115.5 203.5t-37 254.5z" />
<glyph unicode="D" horiz-adv-x="1449" d="M0 6l125 526l78 353q20 98 34.5 164.5t25.5 125t21.5 118t22.5 143.5l17 12h168h188q52 1 108 1h57q87 -1 173 -15.5t162.5 -46t136 -93t94.5 -157t35 -234.5q0 -178 -52.5 -337.5t-129.5 -268.5q-72 -98 -156 -156.5t-181.5 -90.5t-208 -42t-233.5 -10q-41 0 -83 1 t-83 1h-149l-162 -6zM514 319h21q39 0 79.5 2.5t81.5 14.5t82 36.5t78 69.5q33 43 59.5 100.5t45 119t28.5 123t10 110.5q0 86 -23.5 134t-61 71.5t-88 28t-103.5 4.5h-29l-67 -297z" />
<glyph unicode="E" horiz-adv-x="1150" d="M0 6l100 410l82 336q27 119 44.5 199.5t32.5 151.5t29.5 145.5t37.5 183.5l14 14h541l364 6l12 -12l-79 -281l-15 -14h-461l-61 -260l451 8l8 -16l-78 -267l-14 -12h-428l-25 -100l-43 -181h223l312 11l12 -13l-90 -301l-15 -14h-567l-379 -6z" />
<glyph unicode="F" horiz-adv-x="1067" d="M0 6l61 254l95 393q27 119 46 202t36.5 164t38 175t49.5 238l12 12l213 2h311l369 6l10 -12l-76 -281l-16 -14h-455l-63 -287l440 12l8 -14q-16 -49 -26.5 -83t-18.5 -62.5t-16 -59t-21 -73.5l-14 -11l-422 -4l-53 -250l-64 -299l-12 -12l-424 -8z" />
<glyph unicode="G" horiz-adv-x="1449" d="M113 580q0 57 12 147t45 189.5t93.5 200t155.5 180t231 130t323 50.5q88 0 158.5 -10.5t127 -28t100.5 -37t83 -37.5l6 -21l-98 -323l-23 -6q-16 20 -31.5 37.5t-44.5 35.5q-55 35 -117.5 50.5t-127.5 15.5q-127 0 -213 -59.5t-139.5 -146.5t-76 -186t-22.5 -177 q0 -88 20.5 -135.5t47.5 -73.5q35 -39 78.5 -53.5t91.5 -14.5q27 0 48 4t46 8l41 191l43 215l14 14h109.5h89.5t92 2t117 4l10 -14q-20 -86 -41 -170t-39 -170q-18 -80 -35.5 -157.5t-34.5 -155.5l-12 -17q-35 -23 -88 -40t-116.5 -28t-130 -16.5t-124.5 -5.5 q-41 0 -112.5 4.5t-154.5 29t-165 75.5t-143 145q-35 53 -64.5 141.5t-29.5 213.5z" />
<glyph unicode="H" horiz-adv-x="1536" d="M-2 6l59 248l111 457q16 70 31.5 137t31.5 135q10 47 22.5 105.5t25 120t24.5 119.5t23 106l12 12h106t91.5 1t101.5 2t135 3l10 -10l-63 -277l-57 -239h407l41 182l70 326l12 12h124t94 1t93 2t123 3l10 -10l-84 -355l-79 -339q-29 -117 -56.5 -234t-52.5 -233 q-16 -66 -28.5 -133.5t-26.5 -133.5l-15 -12l-436 -8l-6 12l147 606h-413l-135 -598l-13 -12h-126t-97 -1t-93 -3t-116 -4z" />
<glyph unicode="I" horiz-adv-x="681" d="M0 6l68 283l106 446q25 104 42 179t33.5 149t34 159t44.5 212l10 12h123t95 1t98.5 2t129.5 3l7 -12q-23 -84 -40.5 -149.5t-31.5 -124t-27.5 -114t-28 -119t-32 -138t-39.5 -172.5l-72 -328l-55 -283l-14 -10l-443 -8z" />
<glyph unicode="J" horiz-adv-x="768" d="M-117 31l76 291l14 8q23 -10 47.5 -17.5t49.5 -7.5q31 0 53 10.5t36.5 24.5t21.5 28.5t12 20.5q16 33 31.5 94.5t37.5 157.5l64 287l100 506l14 12l432 6l11 -12l-86 -377l-82 -361q-37 -164 -61.5 -267t-47 -170.5t-50.5 -108.5t-69 -76q-59 -51 -149 -78t-201 -27 q-76 0 -132 11.5t-111 25.5z" />
<glyph unicode="K" horiz-adv-x="1409" d="M0 6q27 106 46.5 181t35.5 140.5t31.5 133t38.5 160.5l38 176q25 106 40.5 181t29.5 141.5t26.5 138t30.5 176.5l15 12h117t92 1t95 2t126 3l10 -12l-162 -627l273 361q43 57 68.5 91.5t45 60.5t38 49.5t42.5 58.5l17 12l444 6l10 -16q-12 -12 -22 -22.5t-25.5 -28 t-40 -44t-63.5 -69.5l-398 -449l166 -438l142 -358l-13 -19l-450 -14l-15 12l-75 258l-160 481l-78 -374l-72 -359l-12 -10h-118t-93 -1t-94 -3t-119 -4z" />
<glyph unicode="L" horiz-adv-x="1110" d="M4 6l98 416l125 555q18 76 29.5 128t22 100t20.5 100.5t27 128.5l12 12l444 6l13 -12l-109 -422l-74 -305l-94 -394h47h146.5t105.5 1.5t95.5 3.5t117.5 6l12 -13l-88 -305l-14 -12h-510l-418 -6z" />
<glyph unicode="M" horiz-adv-x="1921" d="M-31 6l125 451l142 522l118 455l13 12h160.5t123 1t122 2t155.5 3l12 -12l10 -324l8 -149l21 -400l258 553q12 25 34.5 73t46 98t42 91t24.5 52l15 12h151.5t120 1t124 2t161.5 3l10 -12l-78 -459l-90 -553l-61 -416l-17 -10l-393 -8l-10 12l72 367l47 250l102 497 l-356 -737l-172 -371l-17 -10l-323 -6l-15 12l-12 271l-39 841l-55 -219l-84 -336l-133 -553l-15 -10h-97t-75.5 -1t-73.5 -3t-91 -4z" />
<glyph unicode="N" horiz-adv-x="1492" d="M2 6l104 436l93 414q25 106 41 179t28.5 133.5t23.5 121t27 144.5l15 12h100t79 1t79 2t100 3l15 -10l104 -225l107 -218q16 -35 36.5 -77.5t42 -89t42 -89.5t38.5 -77l90 428l72 340l10 12h88t72 1t74 2t98 3l10 -12l-135 -584l-51 -223l-137 -621l-15 -10l-290 -8 l-13 8l-106 219l-307 647l-109 -559l-55 -297l-13 -10l-348 -8z" />
<glyph unicode="O" horiz-adv-x="1536" d="M109 549q0 33 4 88t15 123.5t33.5 145.5t59.5 153t90.5 146.5t124.5 125.5q184 145 494 146q55 0 116.5 -7.5t122 -26t114.5 -48t97 -72.5q47 -49 77 -104.5t46.5 -110.5t22.5 -109.5t6 -101.5q0 -76 -11.5 -151.5t-31.5 -151.5q-16 -55 -36.5 -113.5t-49.5 -116 t-68 -111.5t-88 -99q-23 -20 -63.5 -52t-103 -61t-151.5 -50.5t-206 -21.5q-45 0 -89 3t-87 14q-43 8 -85 19t-83 32q-86 43 -139.5 101.5t-82 126t-38.5 140t-10 144.5zM553 520q0 -12 2 -45t12 -63q14 -49 42 -76t55.5 -39t50 -14t28.5 -2q80 0 135.5 52t92.5 128 t57.5 161.5t32.5 151.5q8 41 13 84t5 84q0 25 -5 65t-23.5 77.5t-55.5 64.5t-102 27q-18 0 -43 -6.5t-53.5 -21.5t-57 -43t-55.5 -71q-27 -45 -50.5 -111.5t-42 -139t-28.5 -142.5t-10 -121z" />
<glyph unicode="P" horiz-adv-x="1323" d="M-6 6l98 387l62 252q35 147 58.5 245.5t41.5 180.5t34.5 165t41.5 198l12 10l203 2l213 4q46 1 92 1l92 -1q92 -2 172 -23q84 -23 138.5 -64.5t85 -96t43 -113.5t12.5 -115q0 -68 -14.5 -127t-35 -106t-43 -82t-36.5 -55q-59 -72 -133 -113t-159 -60.5t-177.5 -25.5 t-184.5 -8h-73l-35 -142l-66 -305l-12 -12h-122t-94 -1t-91 -3t-115 -4zM608 766h39q51 0 99.5 4t95.5 31q57 33 85.5 91t28.5 124q0 29 -8 50t-19 35.5t-21.5 21.5t-12.5 10q-31 20 -70 23t-82 3h-45l-26 -119z" />
<glyph unicode="Q" horiz-adv-x="1536" d="M109 545q0 80 13 175t43 190.5t77 185.5t112 161q35 37 84 76t117 71t157 52.5t203 20.5q43 0 94.5 -4.5t105.5 -15.5t109.5 -32.5t104.5 -56.5q109 -78 156 -203t47 -270q0 -84 -13.5 -170t-38 -168t-58 -154.5t-72.5 -130.5q-41 -55 -78 -93t-71 -63.5t-64.5 -42 t-57.5 -28.5q18 -4 37 -10t37 -10q37 -12 83 -26.5t93 -31t93 -32t83 -27.5l2 -14q-41 -51 -64.5 -83t-41 -52.5t-29.5 -37t-26 -36.5q-23 -33 -34.5 -47.5t-27.5 -34.5l-16 -4q-53 31 -123 72.5t-184 103.5q-18 10 -70.5 37.5t-111 59.5t-112 60.5t-73.5 40.5l-10 2 q-39 8 -83 18.5t-85 26.5q-104 41 -166 107t-92.5 139.5t-39.5 146t-9 132.5zM553 522q0 -16 3 -55t21.5 -80t57.5 -72.5t110 -31.5q76 0 129.5 47t91.5 119.5t60.5 159.5t36.5 167q8 41 13 82t5 82q0 18 -3 57t-20.5 79t-54 70t-106.5 30q-41 0 -75 -14.5t-59.5 -35 t-44 -43t-26.5 -36.5q-31 -49 -56.5 -121t-44 -148t-28.5 -144.5t-10 -111.5z" />
<glyph unicode="R" horiz-adv-x="1323" d="M-4 6l102 414l60 252q33 133 53 223t36.5 169t32 163t35.5 207l11 12l434 4q158 -2 263 -10t179 -51q63 -37 110.5 -111t47.5 -197q0 -78 -19.5 -150.5t-62.5 -135.5q-61 -88 -131 -125t-133 -60l112 -327l95 -256l-9 -17l-432 -16l-12 12l-55 197l-90 332l-76 -3 q-18 -76 -30.5 -129t-24 -107t-22.5 -119.5t-30 -164.5l-14 -10h-121t-93 -1t-91 -3t-113 -4zM612 813h33q29 0 60.5 1t63.5 10.5t61.5 26.5t54.5 52q27 37 34 80t7 53q0 29 -13.5 55.5t-38.5 43.5q-23 16 -53 20t-84 4h-41l-24 -104z" />
<glyph unicode="S" horiz-adv-x="1193" d="M31 104l84 306l22 6q20 -23 36.5 -38.5t47.5 -35.5q68 -41 134.5 -54.5t109.5 -13.5q61 0 102 14.5t65.5 36t35 46t10.5 45.5q0 57 -46 92t-118 76l-68 39q-41 23 -85 52.5t-82.5 72.5t-63.5 101t-25 138q0 63 13.5 114.5t32 91.5t39 67.5t32.5 42.5q47 51 102.5 84.5 t115 54t120 28t115.5 7.5q84 0 153.5 -12.5t125 -30t97.5 -36t70 -32.5l11 -14l-87 -308l-20 -6q-18 18 -36.5 35t-39.5 31q-57 41 -121.5 57.5t-105.5 16.5q-76 0 -121 -36t-45 -89q0 -47 39 -84t137 -90l41 -23q37 -20 85 -50t91 -75t73 -107.5t30 -144.5q0 -111 -42 -204 t-122 -160.5t-197 -106.5t-266 -39q-82 0 -163 11.5t-161 35.5q-53 16 -82.5 30.5t-66.5 37.5z" />
<glyph unicode="T" horiz-adv-x="1110" d="M147 1145l80 289l17 12h706l359 6l12 -12l-78 -291l-16 -14l-191 6h-106l-80 -332l-90 -395l-86 -402l-15 -12l-428 -6l-10 12l70 277l104 428l101 426l-127 -2l-213 -7z" />
<glyph unicode="U" horiz-adv-x="1409" d="M100 406q0 92 18.5 189t39.5 187l90 400l51 252l14 12l432 8l11 -12l-84 -346l-74 -324q-16 -72 -26.5 -123t-17.5 -90t-10 -68.5t-3 -56.5q0 -45 14 -75.5t36.5 -49t50.5 -26t54 -7.5q39 0 68 10.5t48 25t30.5 29.5t17.5 24q18 27 31.5 56.5t28 80.5t34 131t50.5 207 l73 321l60 273l12 12h106t82 1t81 3t104 4l8 -12l-60 -262l-86 -381q-35 -158 -64.5 -271.5t-61 -195.5t-70.5 -138.5t-94 -99.5q-47 -39 -101.5 -62.5t-112 -36.5t-114.5 -18.5t-113 -5.5q-246 0 -372 82q-68 43 -105 95.5t-53.5 102.5t-19.5 92t-3 63z" />
<glyph unicode="V" horiz-adv-x="1323" d="M213 1427l14 13q70 0 117 1t91 3t94.5 5t125.5 7l15 -14l12 -502l16 -518l150 340l139 317q27 61 45.5 104.5t33.5 80t30.5 76.5t38.5 96l14 10h103t81 1t83 2t110 3l10 -14q-25 -47 -47 -95q-18 -35 -40 -77.5t-44.5 -89t-44 -89.5t-37.5 -77l-307 -611l-187 -387 l-18 -10l-461 -8l-12 12l-29 363l-63 714z" />
<glyph unicode="W" horiz-adv-x="2048" d="M211 1425l14 15l430 16l13 -10l-9 -291l-10 -293l-16 -424l258 652q25 63 42 107t31.5 81t28 74t29.5 84l18 10l449 6l14 -12l-10 -336l-6 -221l-17 -453l234 576q27 70 47.5 121t38.5 98t37.5 95t44.5 114l14 12l365 6l10 -16q-20 -45 -54 -119t-69 -149.5t-64.5 -140 t-41.5 -91.5l-260 -584l-68 -153q-20 -47 -39.5 -94.5t-40.5 -94.5l-16 -12q-51 2 -100.5 2h-98.5q-82 0 -152.5 -1t-152.5 -5l-14 16l10 256l22 652l-118 -302l-103 -251l-137 -355l-16 -12q-53 2 -107.5 2h-108.5q-72 0 -136 -1t-144 -5l-14 16l-2 344l-13 682 q0 80 -1 133.5t-3 94.5t-4 77.5t-4 83.5z" />
<glyph unicode="X" d="M-92 14q10 14 38.5 50t60.5 76t59.5 76t39.5 52l363 475l-133 361l-119 317l12 17l449 18l12 -16q12 -53 21.5 -92t18.5 -78t22.5 -86t31.5 -117q4 6 20.5 30.5t35 52.5t36 55.5t25.5 39.5q6 8 12.5 18.5t18.5 30t31.5 51t54.5 87.5l18 14h106.5h83.5t85 2t112 4l9 -22 q-20 -25 -45 -56t-49.5 -62.5l-49 -63t-43.5 -56.5l-348 -459l156 -407q31 -78 61.5 -155t61.5 -155l-15 -18h-125t-97 -1t-96 -3t-124 -4l-12 12l-52 178l-63 207l-129 -186q-23 -35 -37 -57.5t-26.5 -41t-26 -40t-33.5 -54.5l-16 -10q-41 0 -80 1t-80 1q-66 0 -123 -2 t-123 -4z" />
<glyph unicode="Y" horiz-adv-x="1366" d="M219 1425l10 15l457 16l12 -12q23 -92 38.5 -154.5t29.5 -115t31.5 -106.5t42.5 -134l149 233q43 68 67.5 107t40 64.5t29 46t31.5 51.5l14 12h107.5h85.5t86 2t111 4l8 -16q-18 -25 -43 -56.5t-49.5 -64.5t-48 -65.5t-42.5 -57.5l-432 -588l-77 -342l-52 -250l-14 -12 h-122t-96 -1t-96.5 -2t-121.5 -3l-10 10q27 96 52 189.5t48 187.5q14 59 27.5 118.5t25.5 119.5l-145 393q-23 63 -42.5 114.5t-37 98.5t-35.5 94t-39 104z" />
<glyph unicode="Z" horiz-adv-x="1193" d="M-84 16l162 230l612 891h-133t-101 -1t-101.5 -3.5t-133.5 -6.5l-12 17l88 291l16 14l328 -2h270l428 6l13 -25q-33 -45 -58.5 -80.5t-50 -71.5t-51.5 -76t-64 -93l-534 -793l246 4l252 11l10 -15l-45 -155l-39 -144l-17 -14h-735l-336 -6z" />
<glyph unicode="[" horiz-adv-x="681" d="M-96 -432l192 833l66 295l184 852l14 13l535 8l14 -17l-47 -188l-14 -10h-184q-10 -35 -18.5 -70t-16.5 -70q-16 -68 -30.5 -136t-31.5 -136q-10 -47 -22.5 -93t-22.5 -93l-63 -279l-152 -702h205l14 -15l-47 -188l-14 -12q-109 0 -167 1t-85 1q-16 0 -56 -1t-85 -2 t-88 -3t-68 -2z" />
<glyph unicode="\" horiz-adv-x="980" d="M248 1552l8 13h74.5h57.5t58.5 1t75.5 1l23 -19q4 -29 12 -86t19.5 -128.5t23.5 -149.5t23.5 -144.5t19.5 -116t10 -63.5l52 -340q8 -55 20 -125.5t24.5 -142.5t24.5 -141.5t21 -124.5q10 -70 23 -143.5t30 -131.5l-8 -10q-33 0 -66 -1t-65 -3q-33 0 -65 -1t-64 -3 l-25 14q-4 29 -6 52.5t-6 48t-9.5 54t-11.5 70.5q-18 111 -35.5 224.5t-37.5 244.5l-56 367q-35 217 -70.5 416.5t-74.5 367.5z" />
<glyph unicode="]" horiz-adv-x="681" d="M-186 -432l45 190l16 11h182q10 35 18.5 69.5t18.5 69.5q12 47 25.5 107.5t28 122t27.5 121.5t24 108l63 276l154 703h-207l-12 14l47 188l14 13q109 0 167 -1t85 -1q16 0 56 1t85 2t88 3t68 2l10 -15q-16 -70 -31.5 -138t-31.5 -138q-29 -119 -46.5 -191.5t-29.5 -128 t-24.5 -107.5t-28.5 -130l-66 -295l-182 -850l-15 -12l-536 -8z" />
<glyph unicode="^" horiz-adv-x="1492" d="M309 635l416 811h213l397 -811h-282l-226 475l-237 -475h-281z" />
<glyph unicode="_" horiz-adv-x="1024" d="M-20 -154h1064v-102h-1064v102z" />
<glyph unicode="`" horiz-adv-x="598" d="M80 1620l10 14h354l13 -10q6 -53 11 -90t11 -74t15.5 -81t23.5 -111l-10 -13h-260l-17 9q-18 51 -32.5 88t-29.5 73.5t-35.5 81.5t-53.5 113z" />
<glyph unicode="a" d="M47 381q0 94 20.5 174t51.5 146.5t67.5 116.5t71.5 83q74 74 158 114t168 58.5t165.5 22.5t153.5 4h389l13 -17l-95 -387q-27 -109 -51 -216t-45 -216q-25 -121 -43 -250l-12 -12l-379 -8l-10 12l16 94q-61 -61 -141 -92t-166 -31q-72 0 -120 21.5t-73 40.5 q-51 39 -78.5 88t-41 97t-16.5 90t-3 67zM481 418q0 -78 34 -122t95 -44q35 0 59.5 13.5t47.5 29.5l125 536h-22q-38 0 -84 -5q-60 -7 -115 -52q-23 -18 -46.5 -51t-45 -78t-35 -102.5t-13.5 -124.5z" />
<glyph unicode="b" d="M-6 12l72 291l106 455q33 137 55.5 231t40 176t33.5 169t39 212l14 17l424 71l13 -16l-54 -207l-96 -377q66 37 122 62.5t140 25.5q86 0 150.5 -31.5t109.5 -87t67.5 -130t22.5 -160.5q0 -76 -16 -153t-46 -147.5t-72 -132t-91 -108.5q-70 -66 -147.5 -100.5t-163.5 -50 t-178.5 -18.5t-192.5 -3h-160l-180 -2zM463 262l18 -2q53 0 106.5 9.5t112.5 64.5q33 31 57.5 73t40 88t23.5 93t8 86q0 45 -13 76.5t-33.5 51t-43 28t-43.5 8.5q-33 0 -58.5 -11.5t-49.5 -25.5z" />
<glyph unicode="c" horiz-adv-x="980" d="M59 479q0 115 40 229.5t121 206t203 148.5t286 57q72 0 124 -9t91 -21.5t65.5 -26.5t44.5 -27l4 -16l-80 -277l-20 -2q-37 47 -80 72t-102 25q-53 0 -101.5 -23.5t-86.5 -69t-60.5 -109t-22.5 -144.5q0 -43 11.5 -84t36 -73t64.5 -51.5t97 -19.5q74 0 120 24.5t77 47.5 l20 -8q-16 -55 -25 -91l-16.5 -66t-13.5 -60.5t-16 -75.5l-17 -15q-57 -18 -115.5 -31.5t-136.5 -13.5q-129 0 -225 37t-159.5 103.5t-95.5 159t-32 204.5z" />
<glyph unicode="d" d="M45 387q0 70 13.5 136.5t34 125t46 107.5t49.5 86q72 100 158 153.5t178 77t188 25.5q48 1 95 1t92 -1l47 215l47 233l15 15l415 73l13 -16l-86 -334l-133 -545q-20 -84 -36 -148.5t-27 -119.5t-21.5 -103.5t-20.5 -101.5t-20.5 -113.5t-24.5 -138.5l-14 -12l-377 -8 l-10 12l16 94q-20 -18 -48 -39.5t-65 -40t-82 -32t-102 -13.5q-47 0 -97 13.5t-93 44.5q-25 18 -51.5 44.5t-48 68.5t-36 100.5t-14.5 140.5zM479 424q0 -86 36 -126t87 -40q33 0 59.5 13.5t53.5 29.5l119 530h-24q-42 0 -88 -5q-58 -7 -112 -52q-33 -27 -57.5 -67.5 t-40.5 -89t-24.5 -98.5t-8.5 -95z" />
<glyph unicode="e" horiz-adv-x="1193" d="M70 487q0 143 45 260t126 200t191.5 128t241.5 45q104 0 190 -25.5t147.5 -78.5t95.5 -137t34 -201q0 -55 -6.5 -105.5t-14.5 -99.5l-16 -12h-204t-148.5 -1t-134 -3t-158.5 -4q2 -27 10 -60t32.5 -61.5t74 -48t135.5 -19.5q63 0 112 9.5t89 23.5t73 32.5t64 37.5l16 -13 q-10 -41 -21.5 -78.5t-21.5 -76.5q-10 -35 -17.5 -72t-17.5 -72l-10 -12q-14 -6 -27.5 -13t-29.5 -12q-33 -12 -113 -27.5t-178 -15.5q-111 0 -195 20.5t-135 47.5q-59 33 -107.5 85t-76.5 114q-16 33 -24.5 69.5t-13.5 69.5t-6 60.5t-1 45.5zM483 684l297 4q4 18 6 35.5 t2 36.5q0 35 -12 58.5t-30.5 36.5t-40 19.5t-39.5 6.5q-45 0 -84 -25q-51 -35 -69.5 -83t-29.5 -89z" />
<glyph unicode="f" horiz-adv-x="768" d="M39 6l78 309l123 510l-154 -6l-10 15l74 249l16 15l135 -4l25 100q18 82 33.5 142.5t37 107.5t53 82t78.5 65q61 39 132 50.5t141 11.5q76 0 129 -9.5t106 -21.5l6 -18l-75 -258l-23 -9q-20 4 -40.5 9.5t-43.5 5.5q-66 0 -91.5 -45t-47.5 -158l-12 -55l172 4l8 -17 l-76 -247l-14 -13h-152q-33 -135 -53.5 -227t-38.5 -175t-35.5 -175t-44.5 -230l-18 -12h-116t-93 -1t-90 -3t-107 -4z" />
<glyph unicode="g" d="M-59 -383l108 272l23 5q20 -20 45.5 -45t61.5 -45.5t82 -34t108 -13.5q72 0 127 27t86 67q29 35 43 77t24 79l13 51q-63 -35 -120 -57.5t-141 -22.5q-96 0 -163.5 34t-109.5 89.5t-61.5 124t-19.5 140.5q0 115 36 234.5t99 215.5q68 100 151 155.5t173 83t186 34t193 8.5 l415 4l11 -15q-25 -94 -42.5 -160.5t-32.5 -131t-33.5 -140t-43.5 -186.5l-63 -287q-25 -113 -44.5 -198.5t-46 -153.5t-61.5 -120t-90 -95q-29 -25 -71 -48.5t-98 -44t-129 -32.5t-161 -12q-133 0 -258 32q-72 20 -109.5 41t-80.5 52zM477 432q0 -35 6 -72 q8 -41 27.5 -63.5t40 -32.5t37 -12t20.5 -2q35 0 57.5 12t45.5 29l123 534h-31q-25 0 -51.5 -2t-56 -9t-58.5 -23.5t-55 -45.5q-25 -27 -44.5 -64.5t-32.5 -80.5t-20.5 -87t-7.5 -81z" />
<glyph unicode="h" d="M-4 6l176 752q29 125 56.5 250t50.5 252q10 51 16 90t11 70.5t7 61t6 64.5l15 15l434 73l12 -16l-147 -619q31 18 66.5 40t75.5 40.5t85 30.5t92 12q45 0 94.5 -13t88.5 -46t64.5 -85t25.5 -128q0 -53 -11.5 -117.5t-25.5 -132.5l-53 -229l-70 -357l-14 -12l-408 -8 l-8 12l53 232l66 284q12 57 23 113.5t11 87.5q0 39 -11 59.5t-26.5 29.5t-29.5 11t-21 2q-35 0 -64.5 -17t-45.5 -30l-60 -266q-16 -72 -27 -123t-21.5 -104.5t-23 -116t-28.5 -154.5l-14 -12l-410 -8z" />
<glyph unicode="i" horiz-adv-x="641" d="M-18 8q27 98 43 161.5t30.5 119t28.5 117t35 153.5l20 86q16 74 26.5 122t17.5 90t12.5 84t13.5 103l14 17q78 10 130.5 17t98.5 14.5t94 16.5t118 21l12 -14l-141 -598l-25 -119q-16 -76 -26.5 -125t-17.5 -90t-13.5 -79.5t-14.5 -92.5l-12 -10l-436 -8zM264 1210 l70 328l16 14l412 56l12 -15l-76 -323l-16 -15l-403 -59z" />
<glyph unicode="j" horiz-adv-x="641" d="M-256 -512l14 254l13 16q57 4 96 18.5t66.5 59.5t51 129t54.5 228l102 473q12 63 21.5 107t16.5 84t14.5 83t17.5 107l14 14q76 8 126 15t95.5 14.5t93.5 16.5t119 23l15 -14l-74 -299l-90 -393q-20 -98 -42 -195.5t-44 -195.5q-18 -80 -42 -162t-67 -150t-104 -112.5 t-134 -74.5t-154 -43t-165 -15zM252 1208l74 332l14 14l412 54l12 -15l-76 -325l-16 -15l-406 -59z" />
<glyph unicode="k" horiz-adv-x="1236" d="M-12 8l123 492l51 231q18 80 30.5 134.5t24.5 114.5t28.5 142t43.5 217q8 41 13 67t8 46.5t6 40.5t8 53l14 17q78 10 131 18t99 15.5t93.5 16.5t114.5 21l10 -16l-73 -293l-168 -698q45 57 85 107t77.5 102.5t79.5 112t92 136.5l16 11h107.5t85 1t88 3t114.5 4l10 -21 q-31 -35 -54 -60.5t-42.5 -47t-35 -38.5t-31.5 -36l-211 -250q16 -49 26.5 -82.5t18.5 -60.5t14 -51.5t16 -55.5q16 -59 27.5 -99t24 -78t27 -84t38.5 -115l-18 -21l-410 -10l-18 14q-16 78 -35 158t-35 158q-10 43 -16 72.5t-13.5 58t-15.5 60.5t-20 77 q-25 -109 -42.5 -181.5t-29.5 -134t-23.5 -122t-25.5 -140.5l-15 -10l-403 -10z" />
<glyph unicode="l" horiz-adv-x="641" d="M-16 8l125 502l90 385q14 61 27.5 123.5t27.5 124.5q14 63 23.5 105t17.5 84t14 90t17 124l14 15l438 73l13 -16q-31 -121 -51.5 -204t-38 -154.5t-35 -145.5t-41.5 -176l-93 -397l-112 -529l-12 -10l-414 -8z" />
<glyph unicode="m" horiz-adv-x="1878" d="M-8 8l84 344l57 234q18 82 29.5 137t19.5 103t15.5 98.5t17.5 122.5l14 14q74 10 122 17t91 14.5t90.5 16.5t116.5 21l13 -14l-29 -133q23 20 46 37.5t50 32.5q14 8 39 20t55.5 22.5t66.5 18.5t73 8q27 0 58.5 -5t62 -20.5t56 -44t42.5 -75.5q27 18 62.5 44t80.5 48.5 t98.5 37.5t112.5 15q51 0 102.5 -13t93.5 -45t68.5 -83t26.5 -127q0 -47 -9.5 -95t-21.5 -95l-49 -220l-86 -430l-14 -12l-408 -8l-10 14l84 354l33 144q12 59 20 96t12 60.5t5 35t1 21.5q0 57 -28.5 74.5t-52.5 17.5q-35 0 -60.5 -13.5t-48.5 -27.5l-37 -211l-41 -186 l-74 -359l-14 -12l-403 -8l-11 14l78 334l33 141q8 41 16.5 82t16.5 82q4 16 7 37t3 41q0 31 -10 48.5t-23.5 25.5t-27 10t-17.5 2q-39 0 -62.5 -13.5t-39.5 -27.5l-70 -311l-92 -445l-14 -12l-410 -8z" />
<glyph unicode="n" d="M-6 8l86 357l31 129q20 100 34.5 167.5t24.5 125t18.5 117t18.5 143.5l16 16q68 8 115 14t91 13.5t92 16.5t120 23l12 -14l-24 -115q16 12 46 32t70.5 39.5t92 33.5t110.5 14q27 0 73 -8t91 -35.5t78 -81t33 -143.5q0 -39 -8.5 -94.5t-19.5 -115.5t-25.5 -122.5 t-26.5 -113.5l-29 -140l-47 -254l-16 -10l-404 -8l-10 14l76 334l43 201q2 14 7 38.5t10 50t8 48t3 35.5q0 51 -27.5 72.5t-60.5 21.5q-29 0 -55.5 -11.5t-54.5 -25.5q-31 -139 -52.5 -238.5t-38 -181.5t-33 -160.5t-34.5 -177.5l-12 -12l-414 -8z" />
<glyph unicode="o" horiz-adv-x="1236" d="M57 430q0 61 11.5 128t33 131.5t53 126t72.5 110.5q55 63 117 102t124 59.5t121.5 26.5t110.5 6q104 0 180 -19.5t111 -39.5q76 -41 117 -99.5t60.5 -117t22.5 -106.5t3 -66q0 -55 -5.5 -108.5t-17.5 -106.5q-16 -68 -41.5 -128.5t-52.5 -101.5q-59 -92 -136 -143 t-152.5 -75.5t-140 -30t-99.5 -5.5q-229 0 -360.5 114t-131.5 343zM469 373q0 -12 1 -37t10 -47.5t28.5 -40t56.5 -17.5q39 0 71 25t55.5 68t41 100.5t29.5 120.5q16 74 19 127t3 61q0 59 -24.5 95t-71.5 36q-31 0 -53.5 -13t-38.5 -31.5t-25.5 -36t-13.5 -23.5 q-18 -37 -34.5 -90.5t-29 -108.5t-18.5 -106.5t-6 -81.5z" />
<glyph unicode="p" d="M-127 -504l123 492l35 153q23 100 49 219t51 240t45.5 236.5t30.5 212.5l14 12l428 72l13 -17l-27 -96q12 8 36.5 25.5t59.5 34t80 28.5t98 12q72 0 133.5 -25.5t107.5 -77.5t71.5 -129t25.5 -181q0 -168 -68.5 -318.5t-191.5 -247.5q-61 -49 -126.5 -77.5t-136.5 -44 t-147.5 -20.5t-158.5 -5l-101 -496l-14 -12q-41 2 -82 2h-82q-66 0 -126 -1t-130 -5zM479 262q6 0 12.5 -1t16.5 -1q63 0 119.5 27.5t95.5 77.5q29 35 47 77.5t29.5 85.5t16.5 82t5 68q0 61 -26.5 109.5t-89.5 48.5q-18 0 -44 -7.5t-61 -25.5z" />
<glyph unicode="q" d="M45 383q0 166 59.5 300t143.5 220q68 68 138.5 107t148 57t160.5 23.5t175 7.5h156l274 4l11 -15q-23 -78 -38.5 -138t-32.5 -126.5t-36.5 -153.5t-50.5 -218l-72 -330q-25 -117 -41 -191.5t-29.5 -138t-25.5 -129t-31 -160.5l-14 -12l-412 -8l-10 12l135 559 q-125 -78 -274 -78q-49 0 -107.5 17.5t-108.5 63.5t-84 125t-34 202zM477 426q0 -66 17.5 -100.5t40 -51t43 -19.5t26.5 -3q33 0 57.5 11t47.5 28l122 532h-32q-43 0 -98.5 -8t-108.5 -57q-18 -18 -39 -51t-37 -76t-27.5 -95.5t-11.5 -109.5z" />
<glyph unicode="r" horiz-adv-x="894" d="M-12 8l75 299l41 168q25 98 40.5 165t26.5 125t20.5 122.5t21.5 159.5l16 14q76 10 126.5 17t95.5 14.5t93 16.5t120 21l10 -14l-68 -258q41 86 85 138.5t86 80t79 35.5t62 8q35 0 56 -8t44 -18l8 -21l-176 -403l-21 -4q-23 23 -48 40t-64 17q-47 0 -90 -33 q-23 -16 -37.5 -36.5t-26.5 -53.5t-24.5 -80t-26.5 -119l-45 -213l-37 -174l-14 -12l-418 -8z" />
<glyph unicode="s" horiz-adv-x="1024" d="M-4 98l74 258l18 6q12 -14 34.5 -36.5t57.5 -45t81 -39t108 -16.5q25 0 49 4t45.5 14.5t35 26t13.5 39.5q0 41 -34 65.5t-93 53.5l-43 23q-35 18 -72 40.5t-66.5 55.5t-48 78t-18.5 108q0 70 26.5 133.5t74.5 116.5q55 59 151 98t244 39q61 0 110.5 -6t92.5 -17.5 t81.5 -26.5t79.5 -34l11 -18q-12 -41 -21.5 -70.5t-16.5 -57.5t-15.5 -57.5t-18.5 -72.5l-21 -4q-12 16 -24 30.5t-29 28.5q-35 29 -87 47.5t-101 18.5q-37 0 -61.5 -8.5t-39 -19.5t-19.5 -23.5t-5 -22.5q0 -35 32.5 -56.5t71.5 -39.5l41 -21q43 -23 87 -49.5t78 -63 t55.5 -87t21.5 -119.5q0 -90 -33 -149.5t-59 -88.5q-51 -57 -112.5 -89t-121 -47t-112 -18.5t-84.5 -3.5q-88 0 -153.5 10.5t-115 26t-85 33.5t-60.5 33z" />
<glyph unicode="t" horiz-adv-x="768" d="M57 836l70 247l16 13h127l62 268l14 14q70 16 117 27.5t90 23t88 24.5t111 32l12 -12l-45 -181l-49 -202l200 4l9 -15q-14 -41 -23.5 -69.5t-18 -53t-15.5 -53.5t-19 -69l-19 -15l-176 4l-71 -299q-8 -31 -15.5 -62.5t-13.5 -62.5q-4 -16 -6 -29.5t-2 -29.5q0 -27 9 -43 t23.5 -25.5t32 -12.5t31.5 -3q41 0 65.5 7t47.5 18l14 -13l-72 -254l-16 -14q-59 -12 -107.5 -19.5t-109.5 -7.5q-27 0 -84.5 4.5t-114.5 27t-100 71.5t-43 141q0 31 6 72t15 85t19.5 88t18.5 79l72 282l-135 -4z" />
<glyph unicode="u" d="M66 246q0 59 13 121.5t36 162.5l47 201q12 57 21.5 97t17.5 76t14 74t16 93l15 12l397 21l14 -17q-25 -104 -48 -205.5t-50 -203.5q-27 -104 -42 -176t-15 -113q0 -33 9 -52.5t23.5 -30.5t32 -15t31.5 -4q41 0 67.5 14t49.5 29l90 424l65 317l15 12q61 2 104 4.5t85 3.5 t91 4t123 9l10 -17l-133 -571l-45 -192l-65 -310l-15 -12l-389 -8l-10 12l25 105q-37 -35 -60.5 -51.5t-64.5 -34.5q-63 -29 -110.5 -39.5t-84.5 -10.5q-43 0 -93 12.5t-91 43t-68.5 83t-27.5 132.5z" />
<glyph unicode="v" horiz-adv-x="1110" d="M113 1073l12 19q68 0 114 2t89 4t88 5t110 7l15 -14l14 -291l4 -103l6 -282l172 391l117 272l18 13l336 6l9 -19q-31 -55 -52.5 -92t-41 -72.5t-42 -78.5t-57.5 -113l-207 -397l-158 -316l-16 -12l-387 -8l-16 12l-41 373l-33 287z" />
<glyph unicode="w" horiz-adv-x="1705" d="M106 1075l15 17q63 0 107 1t84 3t83 5t107 9l12 -14l-2 -285v-383l139 340l129 317l17 13q43 -2 86 -3t86 -1q61 0 118.5 3t129.5 7l14 -17l-10 -235l-19 -440l117 278q25 61 43 104.5t34.5 84.5t35 88t47.5 116l16 13h95t70 1t64.5 3t81.5 4l13 -17q-27 -53 -60 -121.5 t-65.5 -139t-64.5 -138t-58 -121.5l-150 -323l-100 -230l-18 -12l-416 -8l-15 12l2 187l7 475l-156 -371l-117 -283l-14 -12l-408 -8l-12 12l-20 342l-25 387z" />
<glyph unicode="x" horiz-adv-x="1110" d="M-113 10l193 221l272 314q-16 39 -27.5 65.5t-22.5 52t-25.5 55.5t-34.5 75q-27 57 -43.5 94t-29.5 65.5t-25.5 56t-28.5 64.5l14 19q68 0 116 1t91 3t91 5t116 9l16 -14q16 -49 27.5 -82t21.5 -60.5t20.5 -55.5t26.5 -64l47 69q33 47 62 92t57 88l17 15q61 0 102 -1 q20 0 39.5 -0.5t37.5 0.5q36 1 76 2t99 5l8 -23q-23 -25 -49.5 -56.5t-54 -65t-55 -65.5t-48.5 -56l-229 -275q35 -78 60.5 -134t52 -112.5t60.5 -127t87 -175.5l-12 -12h-125t-95 -1t-93.5 -4t-120.5 -7l-17 12l-53 160l-41 108l-74 -98q-6 -8 -13 -20.5t-14.5 -22.5 t-13.5 -19l-6 -8q-8 -12 -18.5 -26.5t-19.5 -28.5t-15 -23.5t-8 -11.5l-19 -12q-59 0 -102 1q-22 0 -42 0.5t-40 -0.5q-39 -1 -82 -3t-104 -6z" />
<glyph unicode="y" horiz-adv-x="1110" d="M-47 -504q20 33 48 76t56.5 86t55 85t49.5 77q2 6 15 26.5t27.5 44t26 43t11.5 21.5l-37 315l-45 359q-10 82 -17.5 139t-13.5 104.5t-13 93.5t-18 107l15 19q68 0 117 1t93 3t91 5t114 9l13 -14l8 -256l16 -373l129 268q37 78 59.5 125t38 82t30 65.5t32.5 73.5l18 15 l342 8l9 -19q-20 -33 -33.5 -54t-26 -41.5t-26 -45t-35.5 -65.5q-12 -23 -23.5 -43.5t-34 -59.5t-63.5 -107.5t-111 -191.5l-157 -278q-25 -45 -53.5 -98.5t-58.5 -108.5t-57.5 -107.5t-49.5 -95.5q-14 -31 -33 -67.5t-38.5 -75.5t-38.5 -76t-34 -68l-18 -12l-373 -8z" />
<glyph unicode="z" horiz-adv-x="1024" d="M-86 14l215 310l121 176q55 80 88 129t54.5 80.5t36.5 55t34 54.5h-199l-149 -2l-11 19l89 254l18 8q90 0 179 -1t179 -1q68 0 129.5 1t124 2t128 2t143.5 3l8 -25q-59 -84 -119.5 -167t-120.5 -169q-35 -49 -77 -111.5t-86 -127t-86 -126t-74 -110.5l397 11l10 -13 q-10 -31 -20.5 -61.5t-20.5 -61.5q-10 -33 -19 -64.5t-20 -64.5l-16 -12h-281h-241h-110.5t-95.5 -1t-92 -3t-104 -4z" />
<glyph unicode="{" horiz-adv-x="724" d="M127 489v142q57 16 96 60t53 102q4 14 6.5 27.5t3.5 33.5t2 50t1 79v180q0 98 8 172t57 131q33 39 77 59.5t103.5 30t138.5 11.5t181 2v-142q-37 -10 -68.5 -20t-58.5 -26.5t-46 -42t-32 -66.5q-12 -37 -14 -79t-2 -110v-77q0 -70 -1 -116t-4 -80t-8.5 -57.5t-15.5 -45.5 q-16 -41 -41.5 -67t-52.5 -42t-52.5 -24.5t-41.5 -12.5q16 -6 41.5 -14t52.5 -24.5t52.5 -43t41.5 -65.5q10 -23 15.5 -46.5t8.5 -57.5t4 -80t1 -115v-76q0 -68 2 -110t14 -79q12 -41 31.5 -66.5t46.5 -41.5t58.5 -26.5t68.5 -20.5v-141q-102 0 -181 2t-138.5 11 t-103.5 29.5t-77 59.5q-49 57 -57 131t-8 172v178q0 49 -1 79t-2 50.5t-3 33.5t-7 28q-14 57 -53 101t-96 60z" />
<glyph unicode="|" horiz-adv-x="468" d="M150 -512v2048h260v-2048h-260z" />
<glyph unicode="}" horiz-adv-x="724" d="M8 -305q37 10 69 20.5t57.5 26.5t45 42t33.5 66q12 37 14 79t2 110v76q0 70 1 115.5t4.5 79.5t8.5 57.5t15 46.5q16 39 42 65.5t52.5 43t52 24.5t41.5 12q-16 6 -41.5 14.5t-52 24.5t-52.5 42t-42 67q-10 23 -15 46t-8.5 57t-4.5 80t-1 116v77q0 68 -2 110t-14 79 q-12 41 -31.5 66.5t-46 42t-58.5 26.5t-69 20v142q102 0 181 -2t138.5 -11.5t103.5 -30t77 -59.5q49 -57 57 -130.5t8 -172.5v-180q0 -49 1 -79t2.5 -50t3.5 -33.5t6 -27.5q14 -57 53 -101.5t96 -60.5v-142q-57 -16 -96 -60t-53 -101q-4 -14 -6 -27.5t-3.5 -34t-2.5 -50.5 t-1 -79v-178q0 -98 -8 -172t-57 -131q-33 -39 -77 -59.5t-103.5 -29.5t-138 -11t-181.5 -2v141z" />
<glyph unicode="~" horiz-adv-x="1492" d="M246 614q18 25 45.5 59t65.5 64.5t89.5 51t118.5 20.5q53 0 102.5 -16.5t108.5 -44.5l74 -35q33 -14 74 -30.5t82 -16.5q33 0 63.5 13t56 31.5t47 41t37.5 41.5l107 -215q-51 -55 -99.5 -89t-89.5 -51.5t-74.5 -23.5t-56.5 -6q-57 0 -108 19t-107 44l-61 31 q-49 23 -82 34t-68 11q-33 0 -56 -7.5t-47 -23.5t-49.5 -44t-60.5 -69z" />
<glyph unicode="&#xa1;" horiz-adv-x="641" d="M-59 8q16 49 27.5 84t20.5 66.5t18 67.5t24 87l67 238q25 90 49.5 177t47.5 173q8 33 15 63.5t15 63.5l15 14l299 9l12 -15l-43 -225l-45 -229l-82 -551l-16 -15l-414 -22zM242 1229l77 323l15 13l375 8l12 -12l-74 -324l-16 -14l-377 -6z" />
<glyph unicode="&#xa2;" horiz-adv-x="1024" d="M55 444q0 115 40 234t125 215t215 157.5t308 61.5h23.5t24 -1t29 -2t42.5 -3q8 20 14.5 34.5t12.5 29t13 31t18 40.5l18 14h42h32.5t32 1t40.5 1l9 -14q-16 -31 -27.5 -50t-20 -36.5t-17.5 -37t-23 -46.5q18 -6 30.5 -10t23.5 -9t23.5 -11.5t28.5 -16.5l4 -18 q-16 -45 -28.5 -76t-22.5 -59.5t-21.5 -61.5t-25.5 -80l-19 -4q-55 41 -79.5 50t-45.5 16l-247 -527q27 -6 61 -6q92 0 149.5 31t86.5 53l18 -10q-16 -51 -26.5 -84t-18.5 -61.5t-17.5 -60.5t-23.5 -79l-10 -12q-78 -37 -149.5 -51.5t-143.5 -14.5q-27 0 -40 1t-28 5 q-12 -25 -19 -43t-14.5 -33.5t-14.5 -30.5t-17 -38l-14 -14q-29 0 -46.5 -1t-35 -1t-37 -1t-49.5 -3l-11 14q18 33 30.5 54.5t23 40t21.5 40t28 53.5q-20 8 -65.5 32t-91.5 73t-82 128t-36 197zM434 498q0 -29 9.5 -72t45.5 -88l228 471q-51 2 -102.5 -21.5t-91.5 -66.5 t-64.5 -100.5t-24.5 -122.5z" />
<glyph unicode="&#xa3;" horiz-adv-x="1067" d="M-31 16q14 25 24.5 43.5t21 39t20.5 45t24 59.5q31 70 50.5 121t33 94t24.5 84t26 94l-138 -4l-8 14l57 201l17 12l119 -4q18 92 31.5 157.5t28.5 116t34.5 89.5t50.5 73q49 59 113.5 92t130 49.5t125 20.5t100.5 4q137 0 216 -22.5t120 -38.5l12 -19l-78 -262l-18 -8 q-35 23 -81 44.5t-124 21.5q-68 0 -110.5 -18.5t-69.5 -57.5t-45.5 -98.5t-36.5 -139.5q41 -2 58.5 -2h39.5q57 0 113.5 2t112.5 6l12 -14l-64 -207l-14 -12h-313q-18 -66 -29.5 -108t-22 -75.5t-21.5 -67.5t-26 -81q63 0 112.5 -1t100 0t113.5 2t156 5l8 -16 q-14 -43 -23.5 -71.5t-16.5 -54.5t-14.5 -52.5t-15.5 -63.5l-16 -8h-344l-189 -2l-374 -4z" />
<glyph unicode="&#xa4;" horiz-adv-x="1366" d="M57 219l168 166q-12 20 -27.5 48t-28.5 65t-22.5 86t-9.5 110t9.5 110.5t21.5 86.5t27.5 64.5t27.5 48.5l-164 163l195 195l164 -164q18 10 47 25.5t66.5 29t87 23.5t110.5 10t109.5 -9t86.5 -23.5t65.5 -29t47.5 -26.5l164 164l197 -195l-166 -163q10 -18 25.5 -47 t28.5 -67t22.5 -86t9.5 -110q0 -61 -9.5 -110t-22.5 -87t-28.5 -66t-27.5 -48l168 -168l-199 -195l-164 168q-18 -10 -46.5 -25.5t-66.5 -28.5t-86.5 -22.5t-107.5 -9.5q-61 0 -110.5 9.5t-88 24t-66.5 29.5t-46 25l-166 -165zM393 694q0 -82 30 -144.5t78 -105.5 t108.5 -65.5t121.5 -22.5q68 0 128.5 25t105.5 70t71.5 107t26.5 136q0 80 -28.5 142.5t-76 105.5t-107.5 66.5t-122 23.5q-61 0 -121.5 -22.5t-107.5 -65.5t-77 -105.5t-30 -144.5z" />
<glyph unicode="&#xa5;" horiz-adv-x="1236" d="M106 295q8 29 14.5 50.5t12.5 43t12.5 47t14.5 62.5l16 12h53t83 -1t83 -1h56q2 6 5 19.5t6 28.5t6 28l3 12l-22 66q-14 0 -50.5 -1.5t-76 -1.5h-76.5h-51l-9 15q8 29 14.5 50t12.5 42.5t12 47.5t15 63l16 14q6 0 23.5 -1t36 -1h34h21.5l-31 86q-39 113 -62.5 180.5 t-38 107.5t-21.5 61.5t-15 43.5l10 14q76 2 124 3t89 2.5t88 3.5t119 6l12 -13q0 -8 4 -20q12 -59 25.5 -116.5t27.5 -114.5q2 -12 11.5 -46t19.5 -71t19.5 -71t13.5 -48l143 223q45 76 72 119t42 67.5t23.5 39t18.5 32.5l14 11h96t76 1t80 2t105 3l8 -15q-8 -10 -14.5 -17 t-14.5 -19.5t-20.5 -30t-32.5 -47.5q-23 -31 -44.5 -60.5t-43.5 -58.5l-184 -258h65h33t39 2l10 -12q-10 -35 -15 -57.5t-11.5 -43t-12.5 -44t-14 -62.5l-17 -13q-37 2 -51 2.5t-47 0.5h-141l-58 -80l-16 -74h107h79q39 0 61.5 1t45.5 3l10 -12q-10 -35 -15 -57.5t-11.5 -43 t-12.5 -44t-14 -62.5l-17 -12h-56t-85 1t-86 1h-57l-6 -29q-16 -72 -27.5 -126t-24.5 -114l-12 -12h-116t-87 -1t-86 -2t-112 -3l-8 10q8 39 17 72t17.5 64.5t17.5 65.5t19 75h-81t-89 -1t-74.5 -1h-35.5z" />
<glyph unicode="&#xa6;" horiz-adv-x="468" d="M150 389h260v-780h-260v780zM150 631v780h260v-780h-260z" />
<glyph unicode="&#xa7;" horiz-adv-x="1150" d="M-14 -223l80 270l20 4q49 -33 113.5 -63.5t162.5 -30.5q72 0 118 25.5t46 72.5q0 18 -7 31.5t-25.5 28t-51 31t-82.5 40.5l-49 23q-41 23 -84 49.5t-78.5 64t-59 91t-23.5 127.5q0 20 2 47.5t11 59.5t27.5 69t51.5 76q51 59 98 85.5t86 43.5q-12 16 -33.5 58t-21.5 114 q0 51 23.5 118.5t83 129t162.5 103.5t261 42q45 0 88 -4t88 -13q35 -6 60.5 -13t47 -15t42 -17.5t45.5 -19.5l8 -21l-82 -251l-16 -7q-47 33 -107.5 65t-142.5 32q-80 0 -116 -30t-36 -65q0 -16 6.5 -28.5t14.5 -20.5q4 -6 9 -10t17.5 -11t35 -18.5t65.5 -31.5l49 -25 q33 -16 76 -38.5t79.5 -58.5t62.5 -87t26 -125q0 -70 -21 -125q-18 -55 -47 -94t-62.5 -69t-70.5 -52.5t-74 -42.5q31 -43 50.5 -81t19.5 -104q0 -78 -34 -152.5t-103.5 -134t-178 -96t-256.5 -36.5q-61 0 -112 6t-94 16t-82 23.5t-78 27.5zM391 649q0 -47 38 -76.5 t101 -62.5l86 -43l91 -49q31 23 62.5 52.5t31.5 76.5q0 31 -15.5 52.5t-37.5 37.5q-2 2 -13.5 8t-27 14.5t-32 17.5t-28.5 15l-90 47l-74 39q-29 -20 -60.5 -50t-31.5 -79z" />
<glyph unicode="&#xa8;" horiz-adv-x="598" d="M-145 1270l65 315l12 10h89t70 1t72 2t95 6l10 -13l-71 -311l-13 -10l-319 -13zM338 1274l61 311l13 12l323 15l10 -13l-69 -317l-14 -12l-314 -8z" />
<glyph unicode="&#xa9;" horiz-adv-x="1705" d="M170 723q0 156 58.5 290t158.5 231t232.5 152.5t279.5 55.5q158 0 292 -58.5t231.5 -158.5t151.5 -233t54 -283q0 -152 -57.5 -284t-155.5 -230.5t-231 -154.5t-287 -56q-141 0 -273 53t-232.5 149.5t-161 230.5t-60.5 296zM236 723q0 -139 52 -261t142 -211t211 -140.5 t258 -51.5q141 0 262 52.5t210 141.5t140.5 209t51.5 257t-49.5 258t-138.5 212t-211 144t-263 53t-262 -52t-211 -142t-141 -211t-51 -258zM403 723q0 104 35 197.5t100.5 164t161 111.5t215.5 41q84 0 148.5 -18.5t113 -45t83 -56.5t57.5 -54l-178 -172 q-47 47 -100.5 73.5t-125.5 26.5q-68 0 -116.5 -23.5t-79.5 -60.5t-45.5 -85t-14.5 -97q0 -119 70 -191.5t191 -72.5q45 0 80.5 10t62 24.5t46 31t32.5 28.5l178 -166q-98 -102 -198.5 -137t-203.5 -35q-127 0 -222 41t-159.5 110.5t-97.5 161t-33 193.5z" />
<glyph unicode="&#xaa;" horiz-adv-x="854" d="M174 979q0 117 50 223.5t153 171.5q88 57 179 66.5t177 11.5h252l8 -10l-61 -252q-29 -119 -44.5 -191.5t-24.5 -117.5t-13 -74t-8 -62l-8 -8q-47 0 -111 -1t-135 -5l-8 8l10 62q-39 -39 -90 -59.5t-107 -20.5q-98 0 -158.5 67.5t-60.5 190.5zM457 1014q0 -12 2 -30.5 t10 -37t24.5 -32t45.5 -13.5q16 0 28.5 4t22.5 8q10 7 20 15q2 2 12.5 49t25 107.5t26.5 116.5t18 77q-29 0 -58.5 -2t-58.5 -19q-31 -16 -52 -44.5t-36.5 -62.5t-22.5 -70t-7 -66z" />
<glyph unicode="&#xab;" horiz-adv-x="1024" d="M33 582v20q12 12 30 39q14 23 36 50.5t38 49.5q66 90 106 144.5t62 89.5l17 6l309 -2l6 -16q-35 -43 -58.5 -74t-52 -69t-68.5 -92t-106 -144q20 -66 35.5 -112t30 -86t29 -82t34.5 -99l-10 -12h-289l-14 12zM471 586v20l279 363l18 10h313l6 -12q-14 -20 -25 -34.5 t-42 -55.5l-25.5 -34t-38 -48.5t-62.5 -80.5t-99 -130q23 -72 39 -124t30.5 -94t27.5 -80t32 -83l-13 -15h-295l-16 15z" />
<glyph unicode="&#xac;" horiz-adv-x="1366" d="M37 465v260h1104h260v-725h-260v465h-1104z" />
<glyph unicode="&#xad;" horiz-adv-x="811" d="M53 436l78 285l16 14h637l7 -10l-80 -285l-17 -14q-80 0 -159.5 1t-159.5 1q-92 0 -163 -1t-153 -3z" />
<glyph unicode="&#xae;" horiz-adv-x="1705" d="M170 723q0 158 58.5 291t158.5 230t232.5 152.5t279.5 55.5q158 0 292 -58.5t231.5 -158.5t151.5 -233t54 -283q0 -152 -56 -284t-154.5 -230.5t-231.5 -154.5t-287 -56q-143 0 -274 53t-232.5 149.5t-162 230.5t-60.5 296zM236 723q0 -139 52 -261t142 -211t211 -140.5 t258 -51.5q141 0 262 52.5t210 141.5t140.5 210t51.5 258q0 135 -49.5 257t-137.5 212t-210 143t-263 53t-263 -52t-212 -142t-141 -211t-51 -258zM559 262v938h334q59 0 116.5 -3t104.5 -19q45 -14 76 -40t51.5 -57.5t29.5 -66.5t9 -66q0 -53 -17.5 -90t-42 -61.5t-53 -40 t-51.5 -25.5q20 -14 36.5 -26.5t29 -31t21.5 -47t18 -71.5q14 -96 29.5 -162.5t49.5 -130.5h-258q-23 43 -32 92t-19 111q-10 66 -17 103.5t-23.5 56t-46.5 23.5t-81 7h-39v-393h-225zM784 834h99q51 0 80.5 3t50.5 15q23 12 32 35.5t9 46.5t-10.5 47.5t-38.5 36.5 q-10 4 -19.5 6t-26 3t-42 1h-66.5h-68v-194z" />
<glyph unicode="&#xaf;" horiz-adv-x="598" d="M-96 1303q14 37 23.5 62.5t16.5 47t15 45t18 55.5l21 17q14 0 25.5 -1t29 -2t44 -2t71.5 -1h315h72t50.5 1t40 2t38.5 3l10 -14q-14 -37 -22 -61.5t-16.5 -46.5t-16.5 -47.5t-21 -64.5l-18 -10h-33.5t-53.5 1t-58.5 1h-48.5h-310h-76t-106 -2z" />
<glyph unicode="&#xb0;" horiz-adv-x="724" d="M106 1178q0 70 27 134t74 112.5t111.5 77t140.5 28.5t140.5 -28.5t112.5 -78t74.5 -114t26.5 -133.5q0 -68 -26.5 -132.5t-73.5 -113.5t-112.5 -79t-143.5 -28q-72 0 -136.5 29t-111.5 77t-75 111.5t-28 137.5zM346 1176q0 -47 33 -80t78 -33q49 0 82.5 32.5t33.5 80.5 q0 47 -33.5 81.5t-80.5 34.5t-80 -32.5t-33 -83.5z" />
<glyph unicode="&#xb1;" horiz-adv-x="1366" d="M121 0v260h1194v-260h-1194zM121 760v260h469v428h260v-428h465v-260h-465v-428h-260v428h-469z" />
<glyph unicode="&#xb2;" horiz-adv-x="811" d="M41 496q18 20 54 56t65 66l98 105q41 43 69.5 73.5t48 53t34 39t26.5 31.5q43 47 71 89t28 83q0 39 -31 70.5t-98 31.5q-43 0 -78 -10t-60.5 -24.5t-43 -30t-27.5 -23.5l-13 6q8 39 15.5 64.5t12.5 48t10 47t14 61.5l8 13q25 14 85 37.5t169 23.5q86 0 148.5 -22.5 t101 -59.5t57 -83t18.5 -91q0 -53 -16 -98t-43 -87t-63.5 -81t-75.5 -80l-107 -109h25.5t36 1t68.5 2t122 6l6 -11q-10 -35 -17 -58.5t-13.5 -45t-12.5 -45t-14 -56.5l-12 -8q-10 0 -24.5 1t-41.5 1h-69h-105h-119q-76 0 -153.5 -1t-147.5 -3z" />
<glyph unicode="&#xb3;" horiz-adv-x="811" d="M92 532q8 35 13.5 57.5t10.5 43l10 41t11 51.5l15 2q6 -6 17 -18.5t31.5 -24.5t49.5 -21.5t65 -9.5q51 0 86 16.5t55.5 41t29 51t8.5 47.5q0 47 -31 78t-82 31q-25 0 -40 -5.5t-26 -11.5l-8 10q6 12 11.5 21.5t14.5 23t21.5 33t34.5 53.5q6 10 12.5 19.5t15.5 25t23.5 38 t36.5 59.5q-66 -2 -128 -3t-128 -3l-8 8q10 35 16.5 57.5t11.5 41t10 40t15 53.5l10 8q51 -4 103.5 -4h103.5q72 0 137.5 1t118.5 3q51 2 84 3.5t41 1.5l6 -17q-6 -8 -20 -28.5t-31.5 -45t-33 -46t-21.5 -29.5q-6 -10 -24.5 -37t-40 -57.5t-40 -57t-26.5 -39.5 q74 -2 118 -62.5t44 -150.5q0 -53 -20.5 -116.5t-70 -116.5t-130 -89t-201.5 -36q-117 0 -183.5 22.5t-91.5 34.5z" />
<glyph unicode="&#xb4;" horiz-adv-x="598" d="M2 1266q33 51 55.5 88t43 73.5t43 81.5l55.5 111l12 10h98h81t85 2t113 4l8 -16q-14 -16 -53 -60t-83 -94.5t-84 -96.5t-54 -64q-10 -10 -18.5 -21.5t-18.5 -23.5l-17 -7l-256 -4z" />
<glyph unicode="&#xb6;" horiz-adv-x="1366" d="M264 1004q0 27 3 66.5t17.5 84.5t40 91t72.5 89q43 41 88 63.5t88 33t83 12.5t71 2h512v-160h-74v-1628h-172v1628h-241v-1628h-172v940q-37 10 -80 25.5t-90 52.5q-74 59 -110 146t-36 182z" />
<glyph unicode="&#xb7;" horiz-adv-x="555" d="M59 416l68 327l14 13l387 4l9 -12l-72 -324l-16 -12l-377 -9z" />
<glyph unicode="&#xb8;" horiz-adv-x="598" d="M43 -428q14 18 42 56t61.5 85t69.5 97.5t67 97.5l18 8h246l8 -14q-41 -68 -90 -157t-96 -175l-17 -10h-299z" />
<glyph unicode="&#xb9;" horiz-adv-x="811" d="M274 487q8 31 17.5 69t20 77t19.5 77t15 68l25 92q23 94 35 147.5t19 85.5t10 49t9 42q-23 0 -38 -1t-27 -2t-26.5 -2t-35.5 -3l-8 8q8 31 14.5 50.5t11.5 35.5t10 32.5t11 41.5l11 8q125 14 195.5 22.5t108.5 13.5t54 7t33 6l8 -10q-4 -14 -6 -25.5t-7 -30t-12.5 -48 t-19.5 -78.5q-8 -35 -16.5 -69t-16.5 -69l-39 -157q-18 -80 -28.5 -129.5t-17.5 -81t-11 -50t-6 -36.5q0 -2 -5.5 -23.5t-9.5 -46.5t-8 -45l-4 -20l-10 -9h-67.5h-56.5t-60.5 -1t-81.5 -3z" />
<glyph unicode="&#xba;" horiz-adv-x="811" d="M166 1008q0 39 8 90t28.5 103t52.5 100.5t81 84.5q66 47 132.5 59.5t119.5 12.5q90 0 151.5 -23.5t98 -63.5t53 -94t16.5 -118q0 -61 -16.5 -135t-54.5 -137q-37 -61 -84 -96t-95.5 -52.5t-91 -21.5t-69.5 -4q-154 -4 -242 69.5t-88 225.5zM434 967q0 -6 1 -20.5t7.5 -30 t18.5 -26.5t37 -11q43 0 70.5 44t43 100t21.5 109.5t6 71.5q0 8 -1 22.5t-6 29t-17.5 24.5t-34.5 10q-47 0 -76 -48t-44.5 -107.5t-20.5 -110.5t-5 -57z" />
<glyph unicode="&#xbb;" horiz-adv-x="1024" d="M-29 205q29 41 73 95t75 93q37 49 73.5 97.5t73.5 97.5q-18 57 -31.5 99t-26.5 82t-29.5 86t-41.5 112l13 14h292l19 -14l129 -383l-2 -21l-277 -360l-20 -13h-314zM422 209q31 37 70.5 89t79.5 105.5t77 102.5t60 80q-16 51 -29.5 92t-28 82t-32 89t-41.5 116l12 14h287 l14 -14l137 -375l-2 -21q-10 -12 -28.5 -38.5t-40 -54t-40 -53.5t-24.5 -34q-41 -53 -71.5 -96t-65.5 -96l-17 -9l-311 5z" />
<glyph unicode="&#xbc;" horiz-adv-x="1878" d="M274 487q8 31 17.5 69t20 77t19.5 77t15 68l25 92q23 94 35 147.5t19 85.5t10 49t9 42q-23 0 -38 -1t-27 -2t-26.5 -2t-35.5 -3l-8 8q8 31 14.5 50.5t11.5 35.5t10 32.5t11 41.5l11 8q125 14 195.5 22.5t108.5 13.5t54 7t33 6l8 -10q-4 -14 -6 -25.5t-7 -30t-12.5 -48 t-19.5 -78.5q-8 -35 -16.5 -69t-16.5 -69l-39 -157q-18 -80 -28.5 -129.5t-17.5 -81t-11 -50t-6 -36.5q0 -2 -5.5 -23.5t-9.5 -46.5t-8 -45l-4 -20l-10 -9h-67.5h-56.5t-60.5 -1t-81.5 -3zM403 18q18 29 59.5 89.5t89.5 132t98 147.5t91 135q82 123 161 243t161 243 q47 72 77.5 116.5t54.5 81.5t46.5 74t54.5 92l19 12h65.5h48t44 1t51.5 1l6 -18q-12 -16 -36 -51t-54.5 -80t-65.5 -95t-66.5 -95.5t-56 -82t-37.5 -55.5q-59 -86 -132.5 -198.5t-150.5 -233.5t-151.5 -239.5t-134.5 -217.5l-16 -12l-33 -2t-72 -3t-72.5 -2t-39.5 -1z M1047 176l32 152l8 16q25 33 45.5 61.5t42 60.5t46 68.5t55.5 86.5q31 47 55.5 84.5t47 69.5t44 62.5t43.5 61.5l13 6q43 0 90 1t92 1h84h63l7 -10q-4 -18 -9.5 -40.5t-12.5 -54.5t-18.5 -76t-25.5 -105q-35 -135 -61 -271h30.5h22.5t21.5 1t27.5 3l8 -10q-10 -31 -16 -50.5 t-11.5 -36.5t-10.5 -36.5t-11 -48.5l-8 -6h-96q-6 -25 -10.5 -43.5t-7.5 -34.5t-6 -35.5t-7 -44.5l-12 -10h-67t-53.5 -1t-55 -2t-72.5 -3l-8 10q6 23 11 40t10 34.5t10 38t14 51.5h-158h-178zM1294 350h140l43 158q16 55 31.5 111.5t31.5 111.5q-4 -6 -16.5 -24.5 t-25.5 -40t-24.5 -40t-17.5 -26.5z" />
<glyph unicode="&#xbd;" horiz-adv-x="1878" d="M274 487q8 31 17.5 69t20 77t19.5 77t15 68l25 92q23 94 35 147.5t19 85.5t10 49t9 42q-23 0 -38 -1t-27 -2t-26.5 -2t-35.5 -3l-8 8q8 31 14.5 50.5t11.5 35.5t10 32.5t11 41.5l11 8q125 14 195.5 22.5t108.5 13.5t54 7t33 6l8 -10q-4 -14 -6 -25.5t-7 -30t-12.5 -48 t-19.5 -78.5q-8 -35 -16.5 -69t-16.5 -69l-39 -157q-18 -80 -28.5 -129.5t-17.5 -81t-11 -50t-6 -36.5q0 -2 -5.5 -23.5t-9.5 -46.5t-8 -45l-4 -20l-10 -9h-67.5h-56.5t-60.5 -1t-81.5 -3zM344 16q18 29 58 89.5t88.5 133t98.5 148.5t91 135l162 243t159 243q47 72 78 116.5 t54.5 81.5t46 74t55.5 92l18 12h66h49.5t44 1t51.5 1l4 -18q-16 -25 -60 -89.5t-94 -137t-95 -138t-64 -92.5q-59 -86 -134 -199.5t-151.5 -235.5t-151.5 -240.5t-134 -215.5l-17 -14l-33 -1q-32 -1 -71 -2t-73 -2t-40 -1zM997 12q18 23 54 58.5t65 64.5l98 105 q41 43 70 73.5t48.5 53t33.5 39t27 30.5q43 49 70.5 90t27.5 82q0 39 -30.5 71t-98.5 32q-43 0 -78 -10.5t-60.5 -24.5t-43 -29.5t-27.5 -23.5l-12 6q8 39 15 64.5t12.5 48t10.5 47t13 61.5l8 12q25 14 85.5 38t168.5 24q86 0 148.5 -22.5t101.5 -59.5t57.5 -83t18.5 -91 q0 -53 -16.5 -98.5t-43 -86.5t-63.5 -81t-76 -80l-106 -109h25t36 1t69 2t121 5l7 -10q-10 -33 -17.5 -56.5t-13.5 -45t-12.5 -46t-14.5 -57.5l-12 -6q-55 2 -119.5 1t-120.5 -1h-118h-151t-150 -4z" />
<glyph unicode="&#xbe;" horiz-adv-x="1878" d="M92 532q8 35 13.5 57.5t10.5 43l10 41t11 51.5l15 2q6 -6 17 -18.5t31.5 -24.5t49.5 -21.5t65 -9.5q51 0 86 16.5t55.5 41t29 51t8.5 47.5q0 47 -31 78t-82 31q-25 0 -40 -5.5t-26 -11.5l-8 10q6 12 11.5 21.5t14.5 23t21.5 33t34.5 53.5q6 10 12.5 19.5t15.5 25t23.5 38 t36.5 59.5q-66 -2 -128 -3t-128 -3l-8 8q10 35 16.5 57.5t11.5 41t10 40t15 53.5l10 8q51 -4 103.5 -4h103.5q72 0 137.5 1t118.5 3q51 2 84 3.5t41 1.5l6 -17q-6 -8 -20 -28.5t-31.5 -45t-33 -46t-21.5 -29.5q-6 -10 -24.5 -37t-40 -57.5t-40 -57t-26.5 -39.5 q74 -2 118 -62.5t44 -150.5q0 -53 -20.5 -116.5t-70 -116.5t-130 -89t-201.5 -36q-117 0 -183.5 22.5t-91.5 34.5zM463 18q18 29 59 89.5t89 132t98.5 147.5t91.5 135q82 123 160.5 243t160.5 243q47 72 78 116.5t54.5 81.5t46 74t55.5 92l18 12h65.5h49t44 1t52.5 1l4 -18 q-12 -16 -35.5 -51t-54.5 -80t-65.5 -95t-65.5 -95.5t-56.5 -82t-37.5 -55.5q-59 -86 -133 -198.5t-151 -233.5t-151.5 -239.5t-133.5 -217.5l-17 -12l-32 -2q-33 -2 -72 -3t-73 -2t-40 -1zM1044 176l33 152l8 16q25 31 46.5 60.5t43 61.5t46 68.5t55.5 86.5 q31 47 55.5 84.5t47 69.5t43 62.5t44.5 61.5l13 6q43 0 90 1t92 1h84h63l7 -10q-4 -18 -9.5 -40.5t-13.5 -54.5t-18.5 -76t-24.5 -105q-35 -135 -61 -271h30.5h22.5t21.5 1t27.5 3l6 -10q-10 -31 -15 -50.5t-10.5 -36.5t-10.5 -36.5t-11 -48.5l-10 -6h-94 q-6 -25 -10.5 -43.5t-7.5 -34.5t-7 -35.5t-8 -44.5l-10 -10h-67t-53.5 -1t-55 -2t-74.5 -3l-6 10q6 23 11 40t9 34.5t10 38t15 51.5h-158h-178zM1294 350h140l43 158q16 55 31.5 111.5t31.5 111.5q-4 -6 -16.5 -24.5t-25.5 -40t-24.5 -40t-17.5 -26.5z" />
<glyph unicode="&#xbf;" horiz-adv-x="937" d="M-2 365q0 61 18.5 114t49 101.5t69.5 94.5t82 91l59 59q23 23 58 61t57 72q16 23 25.5 43.5t19.5 42.5l15 13l360 6l8 -14q-10 -37 -22.5 -65t-34 -58.5t-54 -67.5t-81.5 -88l-49 -51q-25 -29 -52.5 -60.5t-49 -66.5t-36 -71t-14.5 -72q0 -72 53 -116t127 -44q45 0 84 12 t71 30.5t56.5 39t42.5 37.5l19 -15l-82 -311l-11 -12q-18 -8 -51 -22.5t-77 -28t-100 -22.5t-120 -9q-115 0 -198.5 32.5t-137 86t-79 121t-25.5 137.5zM475 1229l76 323l14 13l375 8l10 -14l-69 -326l-15 -14q-63 0 -108 1t-86 0t-84 -2t-103 -4z" />
<glyph unicode="&#xc0;" horiz-adv-x="1409" d="M-117 18q61 109 126 230t128 237l242 453q49 92 83 157.5t61.5 119t53 104.5t58.5 115l16 12l533 8l12 -12q8 -141 15.5 -251t13.5 -207t12 -192.5t14.5 -207t18.5 -249.5t24 -321l-10 -12l-430 -8l-10 12v211l-2 137h-383l-158 -340l-14 -14h-115h-89t-86 -2t-106 -4z M598 647h244v518zM651 1872l13 16h356l12 -12q2 -47 5 -81t6.5 -67.5t8.5 -71.5t13 -95l-12 -17h-232l-14 10q-29 57 -46.5 95.5t-32.5 71t-32.5 66.5t-44.5 85z" />
<glyph unicode="&#xc1;" horiz-adv-x="1409" d="M-117 18q61 109 126 230t128 237l242 453q49 92 83 157.5t61.5 119t53 104.5t58.5 115l16 12l533 8l12 -12q8 -141 15.5 -251t13.5 -207t12 -192.5t14.5 -207t18.5 -249.5t24 -321l-10 -12l-430 -8l-10 12v211l-2 137h-383l-158 -340l-14 -14h-115h-89t-86 -2t-106 -4z M598 647h244v518zM815 1561q37 68 59.5 109.5t39 73.5t30.5 61.5t35 74.5l14 10h387l9 -14q-20 -20 -61.5 -61t-86.5 -86.5t-87 -87.5t-64 -66q-12 -12 -19 -21l-18 -8h-232z" />
<glyph unicode="&#xc2;" horiz-adv-x="1409" d="M-117 18q61 109 126 230t128 237l242 453q49 92 83 157.5t61.5 119t53 104.5t58.5 115l16 12l533 8l12 -12q8 -141 15.5 -251t13.5 -207t12 -192.5t14.5 -207t18.5 -249.5t24 -321l-10 -12l-430 -8l-10 12v211l-2 137h-383l-158 -340l-14 -14h-115h-89t-86 -2t-106 -4z M567 1561q4 6 15.5 21t23.5 32.5t24.5 33t16.5 21.5q37 51 59.5 82t38 52.5t26.5 36.5t26 38l16 10h426l12 -10q12 -47 21.5 -80t20 -65.5t22.5 -70.5t31 -95l-13 -17l-301 -4l-14 15l-31 149q-12 -12 -22.5 -24.5t-22.5 -30t-30.5 -41t-45.5 -60.5l-14 -8h-277zM598 647 h244v518z" />
<glyph unicode="&#xc3;" horiz-adv-x="1409" d="M-117 18q61 109 126 230t128 237l242 453q49 92 83 157.5t61.5 119t53 104.5t58.5 115l16 12l533 8l12 -12q8 -141 15.5 -251t13.5 -207t12 -192.5t14.5 -207t18.5 -249.5t24 -321l-10 -12l-430 -8l-10 12v211l-2 137h-383l-158 -340l-14 -14h-115h-89t-86 -2t-106 -4z M590 1573l57 242l10 16q35 23 79 45t108 22q41 0 83 -11t83 -23l26 -11q35 -12 71 -21t71 -9q53 0 101 24.5t97 53.5l15 -11l-52 -248l-12 -16q-41 -29 -92 -54.5t-125 -25.5q-41 0 -75 9.5t-74 25.5l-35 12q-37 14 -66 21.5t-63 7.5q-61 0 -108.5 -18.5t-84.5 -36.5z M598 647h244v518z" />
<glyph unicode="&#xc4;" horiz-adv-x="1409" d="M-117 18q61 109 126 230t128 237l242 453q49 92 83 157.5t61.5 119t53 104.5t58.5 115l16 12l533 8l12 -12q8 -141 15.5 -251t13.5 -207t12 -192.5t14.5 -207t18.5 -249.5t24 -321l-10 -12l-430 -8l-10 12v211l-2 137h-383l-158 -340l-14 -14h-115h-89t-86 -2t-106 -4z M483 1556q14 51 22.5 86t15.5 66t14.5 63.5t17.5 81.5l12 13l332 4l6 -12l-76 -302l-12 -10h-321zM598 647h244v518zM999 1550l68 299l12 13l326 8l10 -12l-69 -308l-13 -10q-49 2 -84 2h-67.5t-72.5 -1t-99 -3z" />
<glyph unicode="&#xc5;" horiz-adv-x="1409" d="M-117 18q61 109 126 230t128 237l242 453q49 92 83 157.5t61.5 119t53 104.5t58.5 115l16 12l533 8l12 -12q8 -141 15.5 -251t13.5 -207t12 -192.5t14.5 -207t18.5 -249.5t24 -321l-10 -12l-430 -8l-10 12v211l-2 137h-383l-158 -340l-14 -14h-115h-89t-86 -2t-106 -4z M598 647h244v518zM682 1712q0 53 21.5 104.5t62.5 91.5t99.5 63.5t133.5 23.5q78 0 125 -22.5t73 -55.5t35 -67.5t9 -59.5q0 -49 -18.5 -101.5t-57.5 -95.5t-99 -69.5t-140 -26.5q-121 0 -182.5 61.5t-61.5 153.5zM881 1704q0 -4 1 -17.5t6 -27.5t17.5 -24.5t34.5 -10.5 q25 0 41 13.5t28.5 31t18.5 37t10 31.5q4 14 6.5 28.5t2.5 30.5q0 45 -19.5 59.5t-38.5 14.5q-45 0 -76.5 -51.5t-31.5 -114.5z" />
<glyph unicode="&#xc6;" horiz-adv-x="1878" d="M-111 10q49 80 85 135.5t68 107.5t67.5 112.5t89.5 146.5l290 477q70 117 113 187.5t70.5 114.5t45 74t40.5 67l16 14h1208l9 -6q-12 -45 -21.5 -77t-17.5 -60.5t-16.5 -62.5t-20.5 -83l-12 -12q-61 0 -122 1t-120 1h-92t-113 -4l-63 -258h196l228 6l8 -17l-80 -268 l-14 -12h-408l-25 -105l-43 -172h250l267 11l8 -15l-88 -301l-13 -12h-403l-109 -2l-387 -4l-10 12l47 187l45 182h-352l-70 -127q-6 -12 -24.5 -46t-40 -71t-40 -70.5t-26.5 -48.5l-14 -12l-399 -6zM682 676h254l117 471h-99z" />
<glyph unicode="&#xc7;" d="M119 606q0 168 52 324.5t156.5 277.5t259 195t359.5 74q20 0 68.5 -2t108 -12.5t125 -31t120.5 -57.5l8 -16q-12 -43 -22.5 -76t-19.5 -67.5t-21.5 -74.5t-26.5 -98l-16 -6q-43 43 -108.5 74t-162.5 31q-119 0 -200.5 -53.5t-134 -131t-76 -167t-23.5 -160.5 q0 -68 18.5 -128.5t57.5 -104.5t98.5 -70.5t139.5 -26.5q55 0 136 17.5t169 82.5l16 -10q-12 -47 -24.5 -93t-24.5 -93q-10 -37 -17.5 -74t-17.5 -76l-12 -16q-82 -41 -175 -54.5t-169 -13.5q-164 0 -285 47t-199.5 132t-117.5 202t-39 256zM340 -426q45 63 77 105t56.5 77 t48 70t56.5 82l18 10q37 0 62.5 -1t51 -1h56.5h76l8 -12q-37 -66 -62.5 -110t-45 -78.5t-37 -67.5t-41.5 -76l-15 -12q-51 0 -86 1t-66.5 1t-65.5 -1t-83 -1z" />
<glyph unicode="&#xc8;" horiz-adv-x="1150" d="M0 6l100 410l82 336q27 119 44.5 199.5t32.5 151.5t29.5 145.5t37.5 183.5l14 14h541l364 6l12 -12l-79 -281l-15 -14h-461l-61 -260l451 8l8 -16l-78 -267l-14 -12h-428l-25 -100l-43 -181h223l312 11l12 -13l-90 -301l-15 -14h-567l-379 -6zM522 1872l13 16h356l12 -12 q2 -47 5 -81t6.5 -67.5t8.5 -71.5t13 -95l-12 -17h-232l-14 10q-29 57 -46.5 95.5t-32.5 71t-32.5 66.5t-44.5 85z" />
<glyph unicode="&#xc9;" horiz-adv-x="1150" d="M0 6l100 410l82 336q27 119 44.5 199.5t32.5 151.5t29.5 145.5t37.5 183.5l14 14h541l364 6l12 -12l-79 -281l-15 -14h-461l-61 -260l451 8l8 -16l-78 -267l-14 -12h-428l-25 -100l-43 -181h223l312 11l12 -13l-90 -301l-15 -14h-567l-379 -6zM686 1561q37 68 59.5 109.5 t39 73.5t30.5 61.5t35 74.5l14 10h387l9 -14q-20 -20 -61.5 -61t-86.5 -86.5t-87 -87.5t-64 -66q-12 -12 -19 -21l-18 -8h-232z" />
<glyph unicode="&#xca;" horiz-adv-x="1150" d="M0 6l100 410l82 336q27 119 44.5 199.5t32.5 151.5t29.5 145.5t37.5 183.5l14 14h541l364 6l12 -12l-79 -281l-15 -14h-461l-61 -260l451 8l8 -16l-78 -267l-14 -12h-428l-25 -100l-43 -181h223l312 11l12 -13l-90 -301l-15 -14h-567l-379 -6zM438 1561q4 6 15.5 21 t23.5 32.5t24.5 33t16.5 21.5q37 51 59.5 82t38 52.5t26.5 36.5t26 38l16 10h426l12 -10q12 -47 21.5 -80t20 -65.5t22.5 -70.5t31 -95l-13 -17l-301 -4l-14 15l-31 149q-12 -12 -22.5 -24.5t-22.5 -30t-30.5 -41t-45.5 -60.5l-14 -8h-277z" />
<glyph unicode="&#xcb;" horiz-adv-x="1150" d="M0 6l100 410l82 336q27 119 44.5 199.5t32.5 151.5t29.5 145.5t37.5 183.5l14 14h541l364 6l12 -12l-79 -281l-15 -14h-461l-61 -260l451 8l8 -16l-78 -267l-14 -12h-428l-25 -100l-43 -181h223l312 11l12 -13l-90 -301l-15 -14h-567l-379 -6zM387 1556q14 51 22.5 86 t15.5 66t14 63.5t18 81.5l12 13l332 4l6 -12l-76 -302l-12 -10h-322zM903 1550l68 299l12 13l326 8l10 -12l-70 -308l-12 -10q-49 2 -84 2h-67.5t-72.5 -1t-100 -3z" />
<glyph unicode="&#xcc;" horiz-adv-x="681" d="M0 6l68 283l106 446q25 104 42 179t33.5 149t34 159t44.5 212l10 12h123t95 1t98.5 2t129.5 3l7 -12q-23 -84 -40.5 -149.5t-31.5 -124t-27.5 -114t-28 -119t-32 -138t-39.5 -172.5l-72 -328l-55 -283l-14 -10l-443 -8zM289 1872l12 16h356l13 -12q2 -47 5 -81t6 -67.5 t8 -71.5t13 -95l-12 -17h-231l-15 10q-29 57 -46 95.5t-32.5 71t-33 66.5t-43.5 85z" />
<glyph unicode="&#xcd;" horiz-adv-x="681" d="M0 6l68 283l106 446q25 104 42 179t33.5 149t34 159t44.5 212l10 12h123t95 1t98.5 2t129.5 3l7 -12q-23 -84 -40.5 -149.5t-31.5 -124t-27.5 -114t-28 -119t-32 -138t-39.5 -172.5l-72 -328l-55 -283l-14 -10l-443 -8zM453 1561q37 68 59.5 109.5t38.5 73.5t30.5 61.5 t34.5 74.5l15 10h387l8 -14l-61 -61t-86 -86.5t-87 -87.5t-65 -66q-12 -12 -18 -21l-19 -8h-231z" />
<glyph unicode="&#xce;" horiz-adv-x="681" d="M0 6l68 283l106 446q25 104 42 179t33.5 149t34 159t44.5 212l10 12h123t95 1t98.5 2t129.5 3l7 -12q-23 -84 -40.5 -149.5t-31.5 -124t-27.5 -114t-28 -119t-32 -138t-39.5 -172.5l-72 -328l-55 -283l-14 -10l-443 -8zM205 1561q4 6 15 21t23.5 32.5t25 33t16.5 21.5 q37 51 59.5 82t37.5 52.5t26.5 36.5t25.5 38l17 10h426l12 -10q12 -47 21.5 -80t19.5 -65.5t22.5 -70.5t30.5 -95l-12 -17l-301 -4l-15 15l-30 149q-12 -12 -22.5 -24.5t-23 -30t-31 -41t-44.5 -60.5l-15 -8h-276z" />
<glyph unicode="&#xcf;" horiz-adv-x="681" d="M0 6l68 283l106 446q25 104 42 179t33.5 149t34 159t44.5 212l10 12h123t95 1t98.5 2t129.5 3l7 -12q-23 -84 -40.5 -149.5t-31.5 -124t-27.5 -114t-28 -119t-32 -138t-39.5 -172.5l-72 -328l-55 -283l-14 -10l-443 -8zM154 1556q14 51 22 86t15.5 66t14.5 63.5t17 81.5 l13 13l331 4l6 -12l-75 -302l-13 -10h-321zM670 1550l67 299l13 13l325 8l10 -12l-69 -308l-12 -10q-49 2 -84 2h-68t-73 -1t-99 -3z" />
<glyph unicode="&#xd0;" horiz-adv-x="1449" d="M0 6q6 20 11 38.5t12.5 47.5t17.5 74t27 121q14 61 28.5 122.5t30.5 120.5l27 127q-18 0 -30.5 -1t-23 -2t-22.5 -2t-33 -1l-12 11q6 27 10 46t9 37.5t10.5 39t11.5 51.5l16 12q23 0 36 -1t24.5 -1h21.5h25l8 37q31 147 48 236t27.5 144.5t16.5 91.5t12 79l15 12h170h188 q154 2 287 -7t241 -67q133 -72 185.5 -193.5t52.5 -275.5q0 -80 -17.5 -192.5t-63.5 -228t-127 -220t-210 -170.5q-72 -37 -148.5 -56.5t-163.5 -28.5t-186.5 -10t-212.5 -1h-149l-160 -2zM514 319l23 -2q33 0 69.5 2.5t74.5 10.5t76 26.5t72 53.5q39 37 70 95t53.5 124.5 t34.5 137.5t12 134q0 86 -25.5 133t-66.5 68.5t-90 24.5t-94 3h-29l-61 -276q63 2 110.5 3t112.5 5l8 -12q-8 -27 -13 -46.5t-10 -37.5t-11.5 -38.5t-14.5 -51.5l-14 -12q-35 0 -58.5 1t-46 1t-47 -1t-59.5 -1q-6 -27 -18.5 -78t-23.5 -106.5t-21.5 -100.5t-12.5 -60z" />
<glyph unicode="&#xd1;" horiz-adv-x="1492" d="M2 6l104 436l93 414q25 106 41 179t28.5 133.5t23.5 121t27 144.5l15 12h100t79 1t79 2t100 3l15 -10l104 -225l107 -218q16 -35 36.5 -77.5t42 -89t42 -89.5t38.5 -77l90 428l72 340l10 12h88t72 1t74 2t98 3l10 -12l-135 -584l-51 -223l-137 -621l-15 -10l-290 -8 l-13 8l-106 219l-307 647l-109 -559l-55 -297l-13 -10l-348 -8zM633 1573l57 242l10 16q35 23 79 45t108 22q41 0 83 -11t83 -23l26 -11q35 -12 71 -21t71 -9q53 0 101 24.5t97 53.5l15 -11l-52 -248l-12 -16q-41 -29 -92 -54.5t-125 -25.5q-41 0 -75 9.5t-74 25.5l-35 12 q-37 14 -66 21.5t-63 7.5q-61 0 -108.5 -18.5t-84.5 -36.5z" />
<glyph unicode="&#xd2;" horiz-adv-x="1536" d="M109 549q0 33 4 88t15 123.5t33.5 145.5t59.5 153t90.5 146.5t124.5 125.5q184 145 494 146q55 0 116.5 -7.5t122 -26t114.5 -48t97 -72.5q47 -49 77 -104.5t46.5 -110.5t22.5 -109.5t6 -101.5q0 -76 -11.5 -151.5t-31.5 -151.5q-16 -55 -36.5 -113.5t-49.5 -116 t-68 -111.5t-88 -99q-23 -20 -63.5 -52t-103 -61t-151.5 -50.5t-206 -21.5q-45 0 -89 3t-87 14q-43 8 -85 19t-83 32q-86 43 -139.5 101.5t-82 126t-38.5 140t-10 144.5zM553 520q0 -12 2 -45t12 -63q14 -49 42 -76t55.5 -39t50 -14t28.5 -2q80 0 135.5 52t92.5 128 t57.5 161.5t32.5 151.5q8 41 13 84t5 84q0 25 -5 65t-23.5 77.5t-55.5 64.5t-102 27q-18 0 -43 -6.5t-53.5 -21.5t-57 -43t-55.5 -71q-27 -45 -50.5 -111.5t-42 -139t-28.5 -142.5t-10 -121zM715 1872l12 16h356l13 -12q2 -47 5 -81t6 -67.5t8 -71.5t13 -95l-12 -17h-231 l-15 10q-29 57 -46 95.5t-32.5 71t-33 66.5t-43.5 85z" />
<glyph unicode="&#xd3;" horiz-adv-x="1536" d="M109 549q0 33 4 88t15 123.5t33.5 145.5t59.5 153t90.5 146.5t124.5 125.5q184 145 494 146q55 0 116.5 -7.5t122 -26t114.5 -48t97 -72.5q47 -49 77 -104.5t46.5 -110.5t22.5 -109.5t6 -101.5q0 -76 -11.5 -151.5t-31.5 -151.5q-16 -55 -36.5 -113.5t-49.5 -116 t-68 -111.5t-88 -99q-23 -20 -63.5 -52t-103 -61t-151.5 -50.5t-206 -21.5q-45 0 -89 3t-87 14q-43 8 -85 19t-83 32q-86 43 -139.5 101.5t-82 126t-38.5 140t-10 144.5zM553 520q0 -12 2 -45t12 -63q14 -49 42 -76t55.5 -39t50 -14t28.5 -2q80 0 135.5 52t92.5 128 t57.5 161.5t32.5 151.5q8 41 13 84t5 84q0 25 -5 65t-23.5 77.5t-55.5 64.5t-102 27q-18 0 -43 -6.5t-53.5 -21.5t-57 -43t-55.5 -71q-27 -45 -50.5 -111.5t-42 -139t-28.5 -142.5t-10 -121zM879 1561q37 68 59.5 109.5t38.5 73.5t30.5 61.5t34.5 74.5l15 10h387l8 -14 l-61 -61t-86 -86.5t-87 -87.5t-65 -66q-12 -12 -18 -21l-19 -8h-231z" />
<glyph unicode="&#xd4;" horiz-adv-x="1536" d="M109 549q0 33 4 88t15 123.5t33.5 145.5t59.5 153t90.5 146.5t124.5 125.5q184 145 494 146q55 0 116.5 -7.5t122 -26t114.5 -48t97 -72.5q47 -49 77 -104.5t46.5 -110.5t22.5 -109.5t6 -101.5q0 -76 -11.5 -151.5t-31.5 -151.5q-16 -55 -36.5 -113.5t-49.5 -116 t-68 -111.5t-88 -99q-23 -20 -63.5 -52t-103 -61t-151.5 -50.5t-206 -21.5q-45 0 -89 3t-87 14q-43 8 -85 19t-83 32q-86 43 -139.5 101.5t-82 126t-38.5 140t-10 144.5zM553 520q0 -12 2 -45t12 -63q14 -49 42 -76t55.5 -39t50 -14t28.5 -2q80 0 135.5 52t92.5 128 t57.5 161.5t32.5 151.5q8 41 13 84t5 84q0 25 -5 65t-23.5 77.5t-55.5 64.5t-102 27q-18 0 -43 -6.5t-53.5 -21.5t-57 -43t-55.5 -71q-27 -45 -50.5 -111.5t-42 -139t-28.5 -142.5t-10 -121zM631 1561q4 6 15 21t23.5 32.5t25 33t16.5 21.5q37 51 59.5 82t37.5 52.5 t26.5 36.5t25.5 38l17 10h426l12 -10q12 -47 21.5 -80t19.5 -65.5t22.5 -70.5t30.5 -95l-12 -17l-301 -4l-15 15l-30 149q-12 -12 -22.5 -24.5t-23 -30t-31 -41t-44.5 -60.5l-15 -8h-276z" />
<glyph unicode="&#xd5;" horiz-adv-x="1536" d="M109 549q0 33 4 88t15 123.5t33.5 145.5t59.5 153t90.5 146.5t124.5 125.5q184 145 494 146q55 0 116.5 -7.5t122 -26t114.5 -48t97 -72.5q47 -49 77 -104.5t46.5 -110.5t22.5 -109.5t6 -101.5q0 -76 -11.5 -151.5t-31.5 -151.5q-16 -55 -36.5 -113.5t-49.5 -116 t-68 -111.5t-88 -99q-23 -20 -63.5 -52t-103 -61t-151.5 -50.5t-206 -21.5q-45 0 -89 3t-87 14q-43 8 -85 19t-83 32q-86 43 -139.5 101.5t-82 126t-38.5 140t-10 144.5zM553 520q0 -12 2 -45t12 -63q14 -49 42 -76t55.5 -39t50 -14t28.5 -2q80 0 135.5 52t92.5 128 t57.5 161.5t32.5 151.5q8 41 13 84t5 84q0 25 -5 65t-23.5 77.5t-55.5 64.5t-102 27q-18 0 -43 -6.5t-53.5 -21.5t-57 -43t-55.5 -71q-27 -45 -50.5 -111.5t-42 -139t-28.5 -142.5t-10 -121zM653 1573l58 242l10 16q35 23 79 45t107 22q41 0 83 -11t83 -23l27 -11 q35 -12 70.5 -21t70.5 -9q53 0 101.5 24.5t97.5 53.5l14 -11l-51 -248l-12 -16q-41 -29 -92.5 -54.5t-124.5 -25.5q-41 0 -75 9.5t-75 25.5l-35 12q-37 14 -65.5 21.5t-63.5 7.5q-61 0 -108 -18.5t-84 -36.5z" />
<glyph unicode="&#xd6;" horiz-adv-x="1536" d="M109 549q0 33 4 88t15 123.5t33.5 145.5t59.5 153t90.5 146.5t124.5 125.5q184 145 494 146q55 0 116.5 -7.5t122 -26t114.5 -48t97 -72.5q47 -49 77 -104.5t46.5 -110.5t22.5 -109.5t6 -101.5q0 -76 -11.5 -151.5t-31.5 -151.5q-16 -55 -36.5 -113.5t-49.5 -116 t-68 -111.5t-88 -99q-23 -20 -63.5 -52t-103 -61t-151.5 -50.5t-206 -21.5q-45 0 -89 3t-87 14q-43 8 -85 19t-83 32q-86 43 -139.5 101.5t-82 126t-38.5 140t-10 144.5zM553 520q0 -12 2 -45t12 -63q14 -49 42 -76t55.5 -39t50 -14t28.5 -2q80 0 135.5 52t92.5 128 t57.5 161.5t32.5 151.5q8 41 13 84t5 84q0 25 -5 65t-23.5 77.5t-55.5 64.5t-102 27q-18 0 -43 -6.5t-53.5 -21.5t-57 -43t-55.5 -71q-27 -45 -50.5 -111.5t-42 -139t-28.5 -142.5t-10 -121zM561 1556q14 51 22.5 86t15.5 66t14.5 63.5t17.5 81.5l12 13l332 4l6 -12 l-76 -302l-12 -10h-322zM1077 1550l68 299l12 13l326 8l10 -12l-70 -308l-12 -10q-49 2 -84 2h-67.5t-72.5 -1t-100 -3z" />
<glyph unicode="&#xd7;" horiz-adv-x="1366" d="M160 225l372 371l-372 375l184 182l373 -371l375 371l184 -182l-373 -375l373 -371l-184 -186l-375 373l-373 -373z" />
<glyph unicode="&#xd8;" horiz-adv-x="1536" d="M-61 104l2 21l209 166q-16 43 -28.5 96t-12.5 152q0 78 13 177t46 203.5t90 205t147.5 178t216.5 126t293 48.5q76 0 156 -13q59 -10 102.5 -22t77 -29.5t62 -39t61.5 -46.5q35 29 58.5 48.5t42 35.5t38 33.5t46.5 42.5l18 2l111 -123l-5 -18q-31 -25 -54 -44.5 t-45.5 -38t-48.5 -39t-58 -46.5q20 -49 38.5 -112.5t18.5 -178.5q0 -47 -10.5 -139.5t-44 -201t-98 -221t-173.5 -200.5q-61 -49 -123.5 -81t-126 -48t-125 -22.5t-118.5 -6.5q-113 0 -191 16.5t-131 41t-87 54.5t-60 56l-183 -162l-18 -2zM559 420q10 -31 23.5 -60.5 t54.5 -56.5q45 -29 104 -29q76 0 125 40t80 87t52.5 104.5t37 116t25.5 116t16 106.5zM559 643l510 418q-6 12 -16.5 33.5t-28.5 41t-48 34t-73 14.5q-86 0 -146.5 -54.5t-100.5 -135.5t-63.5 -175t-33.5 -176z" />
<glyph unicode="&#xd9;" horiz-adv-x="1409" d="M100 406q0 92 18.5 189t39.5 187l90 400l51 252l14 12l432 8l11 -12l-84 -346l-74 -324q-16 -72 -26.5 -123t-17.5 -90t-10 -68.5t-3 -56.5q0 -45 14 -75.5t36.5 -49t50.5 -26t54 -7.5q39 0 68 10.5t48 25t30.5 29.5t17.5 24q18 27 31.5 56.5t28 80.5t34 131t50.5 207 l73 321l60 273l12 12h106t82 1t81 3t104 4l8 -12l-60 -262l-86 -381q-35 -158 -64.5 -271.5t-61 -195.5t-70.5 -138.5t-94 -99.5q-47 -39 -101.5 -62.5t-112 -36.5t-114.5 -18.5t-113 -5.5q-246 0 -372 82q-68 43 -105 95.5t-53.5 102.5t-19.5 92t-3 63zM651 1872l13 16h356 l12 -12q2 -47 5 -81t6.5 -67.5t8.5 -71.5t13 -95l-12 -17h-232l-14 10q-29 57 -46.5 95.5t-32.5 71t-32.5 66.5t-44.5 85z" />
<glyph unicode="&#xda;" horiz-adv-x="1409" d="M100 406q0 92 18.5 189t39.5 187l90 400l51 252l14 12l432 8l11 -12l-84 -346l-74 -324q-16 -72 -26.5 -123t-17.5 -90t-10 -68.5t-3 -56.5q0 -45 14 -75.5t36.5 -49t50.5 -26t54 -7.5q39 0 68 10.5t48 25t30.5 29.5t17.5 24q18 27 31.5 56.5t28 80.5t34 131t50.5 207 l73 321l60 273l12 12h106t82 1t81 3t104 4l8 -12l-60 -262l-86 -381q-35 -158 -64.5 -271.5t-61 -195.5t-70.5 -138.5t-94 -99.5q-47 -39 -101.5 -62.5t-112 -36.5t-114.5 -18.5t-113 -5.5q-246 0 -372 82q-68 43 -105 95.5t-53.5 102.5t-19.5 92t-3 63zM815 1561 q37 68 59.5 109.5t39 73.5t30.5 61.5t35 74.5l14 10h387l9 -14q-20 -20 -61.5 -61t-86.5 -86.5t-87 -87.5t-64 -66q-12 -12 -19 -21l-18 -8h-232z" />
<glyph unicode="&#xdb;" horiz-adv-x="1409" d="M100 406q0 92 18.5 189t39.5 187l90 400l51 252l14 12l432 8l11 -12l-84 -346l-74 -324q-16 -72 -26.5 -123t-17.5 -90t-10 -68.5t-3 -56.5q0 -45 14 -75.5t36.5 -49t50.5 -26t54 -7.5q39 0 68 10.5t48 25t30.5 29.5t17.5 24q18 27 31.5 56.5t28 80.5t34 131t50.5 207 l73 321l60 273l12 12h106t82 1t81 3t104 4l8 -12l-60 -262l-86 -381q-35 -158 -64.5 -271.5t-61 -195.5t-70.5 -138.5t-94 -99.5q-47 -39 -101.5 -62.5t-112 -36.5t-114.5 -18.5t-113 -5.5q-246 0 -372 82q-68 43 -105 95.5t-53.5 102.5t-19.5 92t-3 63zM567 1561 q4 6 15.5 21t23.5 32.5t24.5 33t16.5 21.5q37 51 59.5 82t38 52.5t26.5 36.5t26 38l16 10h426l12 -10q12 -47 21.5 -80t20 -65.5t22.5 -70.5t31 -95l-13 -17l-301 -4l-14 15l-31 149q-12 -12 -22.5 -24.5t-22.5 -30t-30.5 -41t-45.5 -60.5l-14 -8h-277z" />
<glyph unicode="&#xdc;" horiz-adv-x="1409" d="M100 406q0 92 18.5 189t39.5 187l90 400l51 252l14 12l432 8l11 -12l-84 -346l-74 -324q-16 -72 -26.5 -123t-17.5 -90t-10 -68.5t-3 -56.5q0 -45 14 -75.5t36.5 -49t50.5 -26t54 -7.5q39 0 68 10.5t48 25t30.5 29.5t17.5 24q18 27 31.5 56.5t28 80.5t34 131t50.5 207 l73 321l60 273l12 12h106t82 1t81 3t104 4l8 -12l-60 -262l-86 -381q-35 -158 -64.5 -271.5t-61 -195.5t-70.5 -138.5t-94 -99.5q-47 -39 -101.5 -62.5t-112 -36.5t-114.5 -18.5t-113 -5.5q-246 0 -372 82q-68 43 -105 95.5t-53.5 102.5t-19.5 92t-3 63zM530 1556 q14 51 22.5 86t15.5 66t14.5 63.5t17.5 81.5l12 13l332 4l6 -12l-76 -302l-12 -10h-321zM1047 1550l67 299l12 13l326 8l10 -12l-69 -308l-13 -10q-49 2 -83.5 2h-67.5t-73 -1t-99 -3z" />
<glyph unicode="&#xdd;" horiz-adv-x="1366" d="M219 1425l10 15l457 16l12 -12q23 -92 38.5 -154.5t29.5 -115t31.5 -106.5t42.5 -134l149 233q43 68 67.5 107t40 64.5t29 46t31.5 51.5l14 12h107.5h85.5t86 2t111 4l8 -16q-18 -25 -43 -56.5t-49.5 -64.5t-48 -65.5t-42.5 -57.5l-432 -588l-77 -342l-52 -250l-14 -12 h-122t-96 -1t-96.5 -2t-121.5 -3l-10 10q27 96 52 189.5t48 187.5q14 59 27.5 118.5t25.5 119.5l-145 393q-23 63 -42.5 114.5t-37 98.5t-35.5 94t-39 104zM793 1561q37 68 59 109.5t38.5 73.5t31 61.5t34.5 74.5l15 10h387l8 -14l-61 -61t-86 -86.5t-87 -87.5t-65 -66 q-12 -12 -18 -21l-19 -8h-231z" />
<glyph unicode="&#xde;" horiz-adv-x="1323" d="M-4 6q2 12 5 21.5t6 24t8 37t14 58.5q8 35 16 71t18 71l107 446q41 174 79 347t73 352l10 10h126t98 1t93 3t113 4l8 -12q-4 -10 -10 -35t-13.5 -52.5t-13.5 -52t-8 -34.5h129t93 -3t72 -8.5t66 -13.5q129 -39 199 -137t70 -248q0 -59 -12.5 -118.5t-36 -117 t-57.5 -106.5t-77 -86q-59 -53 -130.5 -83t-149.5 -44t-160 -18t-162 -7h-73q-12 -63 -20.5 -102t-13.5 -64.5t-9 -47t-9 -48.5l-14 -12q-66 0 -114 -1t-93 -2t-96 -2t-123 -3zM563 582h45q51 0 118 8t118 55q35 31 54.5 82t19.5 98q0 57 -24 88t-57.5 45.5t-72.5 15.5 t-72 1h-39q-25 -104 -44 -188.5t-38 -163.5z" />
<glyph unicode="&#xdf;" horiz-adv-x="1366" d="M-2 6l135 580l70 323q16 68 30.5 135.5t32.5 139.5q16 61 37 123.5t62 115.5q68 96 191.5 150.5t315.5 54.5q168 0 262.5 -34.5t147.5 -86.5q47 -45 69.5 -93t22.5 -114q0 -51 -14 -92t-35.5 -74.5t-48.5 -62.5t-53 -53l-43 -39q-29 -27 -57.5 -56.5t-28.5 -62.5 q0 -23 12 -48.5t43 -78.5l57 -96q33 -53 59.5 -111.5t26.5 -136.5q0 -68 -30.5 -140.5t-97 -132t-168 -97t-242.5 -37.5q-68 0 -117 10t-107 26l-10 19l55 244l19 4q20 -16 46 -28.5t67 -12.5t69.5 13t47 32.5t27.5 44t9 47.5q0 49 -30.5 108.5t-65.5 114.5l-43 66 q-14 23 -25.5 47t-11.5 57q0 39 21.5 67.5t56.5 63.5l61 60q39 35 62.5 56t42.5 44q31 41 48 87t17 85q0 23 -7 47.5t-24.5 44t-44 32.5t-65.5 13q-35 0 -61.5 -11t-45 -28.5t-29.5 -39t-20 -40.5q-4 -12 -16 -66t-27.5 -119.5t-29 -126t-17.5 -85.5l-94 -428l-88 -414 l-16 -14l-398 -8z" />
<glyph unicode="&#xe0;" d="M47 381q0 94 20.5 174t51.5 146.5t67.5 116.5t71.5 83q74 74 158 114t168 58.5t165.5 22.5t153.5 4h389l13 -17l-95 -387q-27 -109 -51 -216t-45 -216q-25 -121 -43 -250l-12 -12l-379 -8l-10 12l16 94q-61 -61 -141 -92t-166 -31q-72 0 -120 21.5t-73 40.5 q-51 39 -78.5 88t-41 97t-16.5 90t-3 67zM481 418q0 -78 34 -122t95 -44q35 0 59.5 13.5t47.5 29.5l125 536q-47 2 -106.5 -5t-114.5 -52q-23 -18 -46.5 -51t-45 -78t-35 -102.5t-13.5 -124.5zM502 1620l10 14h354l13 -10q6 -53 11 -90t11 -74t15.5 -81t23.5 -111l-10 -13 h-260l-17 9q-18 51 -32.5 88t-30 73.5t-35.5 81.5t-53 113z" />
<glyph unicode="&#xe1;" d="M47 381q0 94 20.5 174t51.5 146.5t67.5 116.5t71.5 83q74 74 158 114t168 58.5t165.5 22.5t153.5 4h389l13 -17l-95 -387q-27 -109 -51 -216t-45 -216q-25 -121 -43 -250l-12 -12l-379 -8l-10 12l16 94q-61 -61 -141 -92t-166 -31q-72 0 -120 21.5t-73 40.5 q-51 39 -78.5 88t-41 97t-16.5 90t-3 67zM481 418q0 -78 34 -122t95 -44q35 0 59.5 13.5t47.5 29.5l125 536q-47 2 -106.5 -5t-114.5 -52q-23 -18 -46.5 -51t-45 -78t-35 -102.5t-13.5 -124.5zM684 1266q33 51 55.5 88t43 73.5t43 81.5l55.5 111l12 10h98h81t85 2t113 4 l8 -16q-14 -16 -53 -60t-83 -94.5t-84 -96.5t-54 -64q-10 -10 -18.5 -21.5t-18.5 -23.5l-17 -7l-256 -4z" />
<glyph unicode="&#xe2;" d="M47 381q0 94 20.5 174t51.5 146.5t67.5 116.5t71.5 83q74 74 158 114t168 58.5t165.5 22.5t153.5 4h389l13 -17l-95 -387q-27 -109 -51 -216t-45 -216q-25 -121 -43 -250l-12 -12l-379 -8l-10 12l16 94q-61 -61 -141 -92t-166 -31q-72 0 -120 21.5t-73 40.5 q-51 39 -78.5 88t-41 97t-16.5 90t-3 67zM424 1270q29 43 56.5 87t56.5 89q27 41 42 65.5t26 42t20.5 33t23.5 39.5l17 10h440l12 -10q12 -61 22.5 -103t20.5 -80t21.5 -77t29.5 -94l-10 -12q-49 0 -85 -1.5t-68.5 -2.5t-68.5 -3t-85 -6l-12 10l-41 218l-127 -211l-15 -9 h-266zM481 418q0 -78 34 -122t95 -44q35 0 59.5 13.5t47.5 29.5l125 536q-47 2 -106.5 -5t-114.5 -52q-23 -18 -46.5 -51t-45 -78t-35 -102.5t-13.5 -124.5z" />
<glyph unicode="&#xe3;" d="M47 381q0 94 20.5 174t51.5 146.5t67.5 116.5t71.5 83q74 74 158 114t168 58.5t165.5 22.5t153.5 4h389l13 -17l-95 -387q-27 -109 -51 -216t-45 -216q-25 -121 -43 -250l-12 -12l-379 -8l-10 12l16 94q-61 -61 -141 -92t-166 -31q-72 0 -120 21.5t-73 40.5 q-51 39 -78.5 88t-41 97t-16.5 90t-3 67zM436 1286l56 236l12 18q41 27 84 47.5t108 20.5q43 0 79 -10.5t75 -22.5l35 -12q35 -12 66.5 -21.5t66.5 -9.5q31 0 62.5 10t59 23.5t49 27t34.5 21.5l10 -10l-49 -252l-13 -17q-43 -29 -97 -55.5t-130 -26.5q-41 0 -73.5 10.5 t-71.5 26.5l-35 15q-29 12 -56.5 20t-62.5 8q-51 0 -99 -17.5t-97 -39.5zM481 418q0 -78 34 -122t95 -44q35 0 59.5 13.5t47.5 29.5l125 536q-47 2 -106.5 -5t-114.5 -52q-23 -18 -46.5 -51t-45 -78t-35 -102.5t-13.5 -124.5z" />
<glyph unicode="&#xe4;" d="M47 381q0 94 20.5 174t51.5 146.5t67.5 116.5t71.5 83q74 74 158 114t168 58.5t165.5 22.5t153.5 4h389l13 -17l-95 -387q-27 -109 -51 -216t-45 -216q-25 -121 -43 -250l-12 -12l-379 -8l-10 12l16 94q-61 -61 -141 -92t-166 -31q-72 0 -120 21.5t-73 40.5 q-51 39 -78.5 88t-41 97t-16.5 90t-3 67zM438 1272l66 315l12 10h89t70 1t71.5 2.5t95.5 5.5l10 -13l-72 -311l-12 -10l-319 -12zM481 418q0 -78 34 -122t95 -44q35 0 59.5 13.5t47.5 29.5l125 536q-47 2 -106.5 -5t-114.5 -52q-23 -18 -46.5 -51t-45 -78t-35 -102.5 t-13.5 -124.5zM922 1276l61 311l12 12l324 15l10 -12l-69 -318l-15 -12l-313 -8z" />
<glyph unicode="&#xe5;" d="M47 381q0 94 20.5 174t51.5 146.5t67.5 116.5t71.5 83q74 74 158 114t168 58.5t165.5 22.5t153.5 4h389l13 -17l-95 -387q-27 -109 -51 -216t-45 -216q-25 -121 -43 -250l-12 -12l-379 -8l-10 12l16 94q-61 -61 -141 -92t-166 -31q-72 0 -120 21.5t-73 40.5 q-51 39 -78.5 88t-41 97t-16.5 90t-3 67zM481 418q0 -78 34 -122t95 -44q35 0 59.5 13.5t47.5 29.5l125 536q-47 2 -106.5 -5t-114.5 -52q-23 -18 -46.5 -51t-45 -78t-35 -102.5t-13.5 -124.5zM600 1411q0 51 20.5 102.5t61.5 91.5t99.5 64.5t136.5 24.5q76 0 122.5 -21.5 t73.5 -53.5t36 -67.5t9 -62.5q0 -51 -19.5 -103.5t-58.5 -94.5t-98 -68.5t-139 -26.5q-121 0 -182.5 60.5t-61.5 154.5zM799 1405q0 -6 1 -19.5t6 -26.5t17.5 -24.5t34.5 -11.5q25 0 41 13.5t28.5 30.5t18.5 37t10 32q4 16 6.5 29.5t2.5 29.5q0 45 -19.5 59.5t-38.5 14.5 q-45 0 -76.5 -50.5t-31.5 -113.5z" />
<glyph unicode="&#xe6;" horiz-adv-x="1748" d="M8 309q0 86 34 163t120 136q88 59 206.5 72.5t252.5 17.5h61q4 12 6 24.5t2 27.5q0 57 -44 83.5t-126 26.5q-111 0 -185.5 -28.5t-127.5 -55.5l-17 10l66 244l16 14q43 14 83 28.5t82 25t89 16.5t105 6q78 0 130 -9t87 -23.5t55.5 -32t34.5 -31.5q29 18 59.5 35.5 t67.5 31t82 21.5t106 8q29 0 66 -3t76 -12t77.5 -25.5t73.5 -43.5q20 -16 46 -41.5t47.5 -68.5t37 -106.5t15.5 -155.5q0 -53 -5.5 -94.5t-15.5 -92.5l-16 -10h-198h-144.5t-130 -1t-154.5 -3q-2 -25 0 -53.5t25 -61.5q8 -12 22.5 -26.5t39 -26.5t63.5 -21.5t98 -9.5 q88 0 171 24.5t155 76.5l18 -11l-78 -293l-14 -16q-43 -18 -125 -44t-229 -26q-100 0 -171 16.5t-119 40t-78 47t-44 38.5q-18 -18 -49 -42t-75 -46.5t-103.5 -38t-139.5 -15.5q-70 0 -130 13.5t-105 40.5q-49 27 -79 63.5t-46.5 75.5t-21.5 76t-5 65zM391 350 q0 -45 32 -68.5t73 -23.5q57 0 93 22.5t64 45.5q-8 29 -11 49t-3 43q0 12 1 25.5t1 27.5h-61q-47 -2 -80 -7t-60 -26q-35 -27 -42 -52.5t-7 -35.5zM1053 688q35 0 69.5 -1t69.5 -1t71.5 1t84.5 3q0 10 1 21.5t1 21.5q0 18 -5.5 44t-18.5 48.5t-36.5 39t-62.5 16.5 q-8 0 -32 -3.5t-50.5 -21.5t-52 -57t-39.5 -111z" />
<glyph unicode="&#xe7;" horiz-adv-x="980" d="M59 475q0 117 40 231.5t121 207t203 149.5t286 57q27 0 65.5 -2t82.5 -11t90 -25.5t87 -45.5l4 -14q-14 -43 -23 -73.5t-17.5 -59.5t-17.5 -61.5t-22 -82.5l-20 -4q-70 96 -182 97q-63 0 -113.5 -29t-85.5 -76t-53.5 -108.5t-18.5 -124.5q0 -47 11.5 -90t36 -76 t64.5 -51.5t97 -18.5q80 0 127 27.5t68 44.5l20 -10q-12 -49 -21 -82t-16.5 -62.5t-14.5 -63.5t-17 -83l-17 -15q-127 -45 -260 -45q-240 0 -372 134.5t-132 365.5zM162 -426q45 63 76.5 105t56 77t48.5 70t56 82l19 10q37 0 62.5 -1t51 -1h56h76.5l8 -12 q-37 -66 -62.5 -110t-45 -78.5t-37 -67.5t-42.5 -76l-14 -12q-51 0 -86 1t-66.5 1t-65.5 -1t-83 -1z" />
<glyph unicode="&#xe8;" horiz-adv-x="1193" d="M70 487q0 143 45 260t126 200t191.5 128t241.5 45q104 0 190 -25.5t147.5 -78.5t95.5 -137t34 -201q0 -55 -6.5 -105.5t-14.5 -99.5l-16 -12h-204t-148.5 -1t-134 -3t-158.5 -4q2 -27 10 -60t32.5 -61.5t74 -48t135.5 -19.5q63 0 112 9.5t89 23.5t73 32.5t64 37.5l16 -13 q-10 -41 -21.5 -78.5t-21.5 -76.5q-10 -35 -17.5 -72t-17.5 -72l-10 -12q-14 -6 -27.5 -13t-29.5 -12q-33 -12 -113 -27.5t-178 -15.5q-111 0 -195 20.5t-135 47.5q-59 33 -107.5 85t-76.5 114q-16 33 -24.5 69.5t-13.5 69.5t-6 60.5t-1 45.5zM461 1620l10 14h354l13 -10 q6 -53 11 -90t11 -74t15.5 -81t23.5 -111l-10 -13h-260l-17 9q-18 51 -32.5 88t-29.5 73.5t-35.5 81.5t-53.5 113zM483 684l297 4q4 18 6 35.5t2 36.5q0 35 -12 58.5t-30.5 36.5t-40 19.5t-39.5 6.5q-45 0 -84 -25q-51 -35 -69.5 -83t-29.5 -89z" />
<glyph unicode="&#xe9;" horiz-adv-x="1193" d="M70 487q0 143 45 260t126 200t191.5 128t241.5 45q104 0 190 -25.5t147.5 -78.5t95.5 -137t34 -201q0 -55 -6.5 -105.5t-14.5 -99.5l-16 -12h-204t-148.5 -1t-134 -3t-158.5 -4q2 -27 10 -60t32.5 -61.5t74 -48t135.5 -19.5q63 0 112 9.5t89 23.5t73 32.5t64 37.5l16 -13 q-10 -41 -21.5 -78.5t-21.5 -76.5q-10 -35 -17.5 -72t-17.5 -72l-10 -12q-14 -6 -27.5 -13t-29.5 -12q-33 -12 -113 -27.5t-178 -15.5q-111 0 -195 20.5t-135 47.5q-59 33 -107.5 85t-76.5 114q-16 33 -24.5 69.5t-13.5 69.5t-6 60.5t-1 45.5zM483 684l297 4q4 18 6 35.5 t2 36.5q0 35 -12 58.5t-30.5 36.5t-40 19.5t-39.5 6.5q-45 0 -84 -25q-51 -35 -69.5 -83t-29.5 -89zM643 1266q33 51 55.5 88t43 73.5t43 81.5l55.5 111l12 10h98h81t85 2t113 4l8 -16q-14 -16 -53 -60t-83 -94.5t-84 -96.5t-54 -64q-10 -10 -18.5 -21.5t-18.5 -23.5l-17 -7 l-256 -4z" />
<glyph unicode="&#xea;" horiz-adv-x="1193" d="M70 487q0 143 45 260t126 200t191.5 128t241.5 45q104 0 190 -25.5t147.5 -78.5t95.5 -137t34 -201q0 -55 -6.5 -105.5t-14.5 -99.5l-16 -12h-204t-148.5 -1t-134 -3t-158.5 -4q2 -27 10 -60t32.5 -61.5t74 -48t135.5 -19.5q63 0 112 9.5t89 23.5t73 32.5t64 37.5l16 -13 q-10 -41 -21.5 -78.5t-21.5 -76.5q-10 -35 -17.5 -72t-17.5 -72l-10 -12q-14 -6 -27.5 -13t-29.5 -12q-33 -12 -113 -27.5t-178 -15.5q-111 0 -195 20.5t-135 47.5q-59 33 -107.5 85t-76.5 114q-16 33 -24.5 69.5t-13.5 69.5t-6 60.5t-1 45.5zM383 1270q29 43 56.5 87 t56.5 89q27 41 42 65.5t26 42t20.5 33t23.5 39.5l17 10h440l12 -10q12 -61 22.5 -103t20.5 -80t21.5 -77t29.5 -94l-10 -12q-49 0 -85 -1.5t-68.5 -2.5t-68.5 -3t-85 -6l-12 10l-41 218l-127 -211l-15 -9h-266zM483 684l297 4q4 18 6 35.5t2 36.5q0 35 -12 58.5t-30.5 36.5 t-40 19.5t-39.5 6.5q-45 0 -84 -25q-51 -35 -69.5 -83t-29.5 -89z" />
<glyph unicode="&#xeb;" horiz-adv-x="1193" d="M70 487q0 143 45 260t126 200t191.5 128t241.5 45q104 0 190 -25.5t147.5 -78.5t95.5 -137t34 -201q0 -55 -6.5 -105.5t-14.5 -99.5l-16 -12h-204t-148.5 -1t-134 -3t-158.5 -4q2 -27 10 -60t32.5 -61.5t74 -48t135.5 -19.5q63 0 112 9.5t89 23.5t73 32.5t64 37.5l16 -13 q-10 -41 -21.5 -78.5t-21.5 -76.5q-10 -35 -17.5 -72t-17.5 -72l-10 -12q-14 -6 -27.5 -13t-29.5 -12q-33 -12 -113 -27.5t-178 -15.5q-111 0 -195 20.5t-135 47.5q-59 33 -107.5 85t-76.5 114q-16 33 -24.5 69.5t-13.5 69.5t-6 60.5t-1 45.5zM352 1270l66 315l12 10h89 t70 1t71.5 2t95.5 6l10 -13l-72 -311l-12 -10l-320 -13zM483 684l297 4q4 18 6 35.5t2 36.5q0 35 -12 58.5t-30.5 36.5t-40 19.5t-39.5 6.5q-45 0 -84 -25q-51 -35 -69.5 -83t-29.5 -89zM836 1274l61 311l12 12l324 15l10 -13l-69 -317l-15 -12l-313 -8z" />
<glyph unicode="&#xec;" horiz-adv-x="641" d="M-18 8q27 98 43 161.5t30.5 119t28.5 117t35 153.5l20 86q16 74 26.5 122t17.5 90t12.5 84t13.5 103l14 17q78 10 130.5 17t98.5 14.5t94 16.5t118 21l12 -14l-141 -598l-25 -119q-16 -76 -26.5 -125t-17.5 -90t-13.5 -79.5t-14.5 -92.5l-12 -10l-436 -8zM182 1620l11 14 h354l12 -10q6 -53 11 -90t11.5 -74t15.5 -81t24 -111l-11 -13h-260l-16 9q-18 51 -32.5 88t-30 73.5t-36 81.5t-53.5 113z" />
<glyph unicode="&#xed;" horiz-adv-x="641" d="M-18 8q27 98 43 161.5t30.5 119t28.5 117t35 153.5l20 86q16 74 26.5 122t17.5 90t12.5 84t13.5 103l14 17q78 10 130.5 17t98.5 14.5t94 16.5t118 21l12 -14l-141 -598l-25 -119q-16 -76 -26.5 -125t-17.5 -90t-13.5 -79.5t-14.5 -92.5l-12 -10l-436 -8zM365 1266 q33 51 55 88t42.5 73.5t43 81.5l55.5 111l12 10h98.5h81.5t85 2t112 4l8 -16q-14 -16 -53 -60t-83 -94.5t-84 -96.5t-54 -64q-10 -10 -18.5 -21.5t-18.5 -23.5l-16 -7l-256 -4z" />
<glyph unicode="&#xee;" horiz-adv-x="641" d="M-18 8q27 98 43 161.5t30.5 119t28.5 117t35 153.5l20 86q16 74 26.5 122t17.5 90t12.5 84t13.5 103l14 17q78 10 130.5 17t98.5 14.5t94 16.5t118 21l12 -14l-141 -598l-25 -119q-16 -76 -26.5 -125t-17.5 -90t-13.5 -79.5t-14.5 -92.5l-12 -10l-436 -8zM104 1270 q29 43 56.5 87t56.5 89q27 41 42 65.5t26.5 42t20.5 33t24 39.5l16 10h440l13 -10q12 -61 22 -103t20.5 -80t21.5 -77t30 -94l-10 -12q-49 0 -85 -1.5t-69 -2.5t-68.5 -3t-85.5 -6l-12 10l-41 218l-127 -211l-14 -9h-266z" />
<glyph unicode="&#xef;" horiz-adv-x="641" d="M-18 8q27 98 43 161.5t30.5 119t28.5 117t35 153.5l20 86q16 74 26.5 122t17.5 90t12.5 84t13.5 103l14 17q78 10 130.5 17t98.5 14.5t94 16.5t118 21l12 -14l-141 -598l-25 -119q-16 -76 -26.5 -125t-17.5 -90t-13.5 -79.5t-14.5 -92.5l-12 -10l-436 -8zM74 1270l65 315 l13 10h88.5t69.5 1t72 2t95 6l10 -13l-71 -311l-13 -10l-319 -13zM557 1274l61 311l13 12l323 15l11 -13l-70 -317l-14 -12l-314 -8z" />
<glyph unicode="&#xf0;" horiz-adv-x="1236" d="M43 414q0 88 18.5 170t52 153.5t79 132t98.5 103.5q72 55 167 91t199 36q63 0 93 -11.5t53 -21.5q-10 55 -21.5 86t-29.5 76l-37 -8q-72 -16 -159 -36t-146 -40l-23 14q-10 29 -17.5 48.5t-15.5 37t-17 36.5t-24 48l13 21q27 4 53.5 9t60 12t76.5 16.5t105 21.5l28 8 q-51 74 -77.5 102.5t-49.5 47.5l8 18q41 6 83 13.5t83 15.5t80 16t80 19l29 -9q35 -37 58.5 -64.5t53.5 -74.5l25 6q57 14 89 22.5t69 22.5l22 -8q12 -31 20.5 -50t16.5 -37.5t17.5 -40t23.5 -52.5l-12 -18q-61 -12 -103.5 -21.5t-64.5 -13.5q49 -113 79.5 -238t30.5 -278 q0 -143 -30 -285q-8 -37 -22.5 -84t-39 -99.5t-60.5 -104.5t-87 -97q-78 -66 -190.5 -108t-254.5 -42q-223 0 -350 109q-45 37 -71.5 81t-40 88t-17.5 85t-4 76zM463 371q0 -61 24.5 -102.5t81.5 -37.5q49 2 85 40t60.5 92.5t39 118t22.5 118.5t10 93t2 42q0 72 -30.5 100.5 t-67.5 28.5q-33 0 -56.5 -11t-39.5 -27.5t-25.5 -34t-15.5 -27.5q-23 -45 -40 -102.5t-28.5 -113.5t-16.5 -104.5t-5 -72.5z" />
<glyph unicode="&#xf1;" d="M-6 8l86 357l31 129q20 100 34.5 167.5t24.5 125t18.5 117t18.5 143.5l16 16q68 8 115 14t91 13.5t92 16.5t120 23l12 -14l-24 -115q16 12 46 32t70.5 39.5t92 33.5t110.5 14q27 0 73 -8t91 -35.5t78 -81t33 -143.5q0 -39 -8.5 -94.5t-19.5 -115.5t-25.5 -122.5 t-26.5 -113.5l-29 -140l-47 -254l-16 -10l-404 -8l-10 14l76 334l43 201q2 14 7 38.5t10 50t8 48t3 35.5q0 51 -27.5 72.5t-60.5 21.5q-29 0 -55.5 -11.5t-54.5 -25.5q-31 -139 -52.5 -238.5t-38 -181.5t-33 -160.5t-34.5 -177.5l-12 -12l-414 -8zM436 1286l56 236l12 18 q41 27 84 47.5t108 20.5q43 0 79 -10.5t75 -22.5l35 -12q35 -12 66.5 -21.5t66.5 -9.5q31 0 62.5 10t59 23.5t49 27t34.5 21.5l10 -10l-49 -252l-13 -17q-43 -29 -97 -55.5t-130 -26.5q-41 0 -73.5 10.5t-71.5 26.5l-35 15q-29 12 -56.5 20t-62.5 8q-51 0 -99 -17.5 t-97 -39.5z" />
<glyph unicode="&#xf2;" horiz-adv-x="1236" d="M57 430q0 61 11.5 128t33 131.5t53 126t72.5 110.5q55 63 117 102t124 59.5t121.5 26.5t110.5 6q104 0 180 -19.5t111 -39.5q76 -41 117 -99.5t60.5 -117t22.5 -106.5t3 -66q0 -55 -5.5 -108.5t-17.5 -106.5q-16 -68 -41.5 -128.5t-52.5 -101.5q-59 -92 -136 -143 t-152.5 -75.5t-140 -30t-99.5 -5.5q-229 0 -360.5 114t-131.5 343zM469 373q0 -12 1 -37t10 -47.5t28.5 -40t56.5 -17.5q39 0 71 25t55.5 68t41 100.5t29.5 120.5q16 74 19 127t3 61q0 59 -24.5 95t-71.5 36q-31 0 -53.5 -13t-38.5 -31.5t-25.5 -36t-13.5 -23.5 q-18 -37 -34.5 -90.5t-29 -108.5t-18.5 -106.5t-6 -81.5zM479 1620l10 14h355l12 -10q6 -53 11 -90t11.5 -74t15.5 -81t24 -111l-11 -13h-260l-16 9q-18 51 -32.5 88t-30 73.5t-36 81.5t-53.5 113z" />
<glyph unicode="&#xf3;" horiz-adv-x="1236" d="M57 430q0 61 11.5 128t33 131.5t53 126t72.5 110.5q55 63 117 102t124 59.5t121.5 26.5t110.5 6q104 0 180 -19.5t111 -39.5q76 -41 117 -99.5t60.5 -117t22.5 -106.5t3 -66q0 -55 -5.5 -108.5t-17.5 -106.5q-16 -68 -41.5 -128.5t-52.5 -101.5q-59 -92 -136 -143 t-152.5 -75.5t-140 -30t-99.5 -5.5q-229 0 -360.5 114t-131.5 343zM469 373q0 -12 1 -37t10 -47.5t28.5 -40t56.5 -17.5q39 0 71 25t55.5 68t41 100.5t29.5 120.5q16 74 19 127t3 61q0 59 -24.5 95t-71.5 36q-31 0 -53.5 -13t-38.5 -31.5t-25.5 -36t-13.5 -23.5 q-18 -37 -34.5 -90.5t-29 -108.5t-18.5 -106.5t-6 -81.5zM662 1266q33 51 55 88t42.5 73.5t43 81.5l55.5 111l12 10h98.5h81.5t85 2t112 4l8 -16q-14 -16 -53 -60t-83 -94.5t-84 -96.5t-54 -64q-10 -10 -18.5 -21.5t-18.5 -23.5l-16 -7l-256 -4z" />
<glyph unicode="&#xf4;" horiz-adv-x="1236" d="M57 430q0 61 11.5 128t33 131.5t53 126t72.5 110.5q55 63 117 102t124 59.5t121.5 26.5t110.5 6q104 0 180 -19.5t111 -39.5q76 -41 117 -99.5t60.5 -117t22.5 -106.5t3 -66q0 -55 -5.5 -108.5t-17.5 -106.5q-16 -68 -41.5 -128.5t-52.5 -101.5q-59 -92 -136 -143 t-152.5 -75.5t-140 -30t-99.5 -5.5q-229 0 -360.5 114t-131.5 343zM401 1270q29 43 56.5 87t56.5 89q27 41 42 65.5t26.5 42t20.5 33t24 39.5l16 10h440l13 -10q12 -61 22 -103t20.5 -80t21.5 -77t30 -94l-10 -12q-49 0 -85 -1.5t-69 -2.5t-68.5 -3t-85.5 -6l-12 10l-41 218 l-127 -211l-14 -9h-266zM469 373q0 -12 1 -37t10 -47.5t28.5 -40t56.5 -17.5q39 0 71 25t55.5 68t41 100.5t29.5 120.5q16 74 19 127t3 61q0 59 -24.5 95t-71.5 36q-31 0 -53.5 -13t-38.5 -31.5t-25.5 -36t-13.5 -23.5q-18 -37 -34.5 -90.5t-29 -108.5t-18.5 -106.5 t-6 -81.5z" />
<glyph unicode="&#xf5;" horiz-adv-x="1236" d="M57 430q0 61 11.5 128t33 131.5t53 126t72.5 110.5q55 63 117 102t124 59.5t121.5 26.5t110.5 6q104 0 180 -19.5t111 -39.5q76 -41 117 -99.5t60.5 -117t22.5 -106.5t3 -66q0 -55 -5.5 -108.5t-17.5 -106.5q-16 -68 -41.5 -128.5t-52.5 -101.5q-59 -92 -136 -143 t-152.5 -75.5t-140 -30t-99.5 -5.5q-229 0 -360.5 114t-131.5 343zM414 1286l55 236l12 18q41 27 84 47.5t109 20.5q43 0 78.5 -10.5t74.5 -22.5l35 -12q35 -12 67 -21.5t66 -9.5q31 0 63 10t59.5 23.5t49 27t33.5 21.5l10 -10l-49 -252l-12 -17q-43 -29 -97.5 -55.5 t-129.5 -26.5q-41 0 -74 10.5t-72 26.5l-35 15q-29 12 -56.5 20t-61.5 8q-51 0 -99.5 -17.5t-97.5 -39.5zM469 373q0 -12 1 -37t10 -47.5t28.5 -40t56.5 -17.5q39 0 71 25t55.5 68t41 100.5t29.5 120.5q16 74 19 127t3 61q0 59 -24.5 95t-71.5 36q-31 0 -53.5 -13 t-38.5 -31.5t-25.5 -36t-13.5 -23.5q-18 -37 -34.5 -90.5t-29 -108.5t-18.5 -106.5t-6 -81.5z" />
<glyph unicode="&#xf6;" horiz-adv-x="1236" d="M57 430q0 61 11.5 128t33 131.5t53 126t72.5 110.5q55 63 117 102t124 59.5t121.5 26.5t110.5 6q104 0 180 -19.5t111 -39.5q76 -41 117 -99.5t60.5 -117t22.5 -106.5t3 -66q0 -55 -5.5 -108.5t-17.5 -106.5q-16 -68 -41.5 -128.5t-52.5 -101.5q-59 -92 -136 -143 t-152.5 -75.5t-140 -30t-99.5 -5.5q-229 0 -360.5 114t-131.5 343zM340 1268l66 315l12 10h89t69.5 1t71.5 2t95 6l11 -13l-72 -311l-12 -10l-320 -13zM469 373q0 -12 1 -37t10 -47.5t28.5 -40t56.5 -17.5q39 0 71 25t55.5 68t41 100.5t29.5 120.5q16 74 19 127t3 61 q0 59 -24.5 95t-71.5 36q-31 0 -53.5 -13t-38.5 -31.5t-25.5 -36t-13.5 -23.5q-18 -37 -34.5 -90.5t-29 -108.5t-18.5 -106.5t-6 -81.5zM823 1272l62 311l12 12l324 15l10 -13l-70 -317l-14 -12l-313 -8z" />
<glyph unicode="&#xf7;" horiz-adv-x="1366" d="M35 465v260h1366v-260h-1366zM553 227q0 66 45 116t121 50q35 0 65.5 -13t52 -37t34 -53.5t12.5 -62.5q0 -63 -44 -113.5t-120 -50.5q-70 0 -118 46.5t-48 117.5zM553 961q0 66 45 115.5t121 49.5q35 0 65.5 -13t52 -36.5t34 -53t12.5 -62.5q0 -63 -44 -113.5t-122 -50.5 q-66 0 -115 45t-49 119z" />
<glyph unicode="&#xf8;" horiz-adv-x="1236" d="M-70 98l2 15q14 8 25.5 15t24 16.5t31 22.5t48.5 36l31 22q-16 59 -25.5 101.5t-9.5 95.5q0 33 5.5 82t17.5 106.5t34.5 117.5t57.5 118q88 143 226.5 209.5t306.5 66.5q86 0 167 -20q45 -10 77 -23.5t56.5 -29t44 -33t42.5 -37.5l28 22q4 2 21.5 15.5t39 30t40 32 t24.5 19.5l15 -2l59 -84l-2 -17q-10 -8 -19.5 -14t-22.5 -15.5t-34.5 -24.5t-56.5 -40l-29 -22q14 -37 26.5 -83t12.5 -134q0 -41 -5 -92.5t-17.5 -106.5t-34 -111.5t-52.5 -107.5q-94 -154 -235 -212.5t-307 -58.5q-111 0 -187.5 26t-124.5 56q-23 16 -39 30.5t-36 35.5 l-31 -23q-41 -31 -64.5 -49t-56.5 -43l-14 2zM465 356q0 -12 3 -34.5t13.5 -44t29.5 -37t54 -15.5q55 0 93 40t60.5 97.5t36 119t19.5 104.5zM481 522l307 223q0 14 -3 36t-13 42.5t-29.5 34.5t-52.5 14q-35 0 -66.5 -21.5t-54.5 -53.5q-18 -29 -32.5 -64t-24.5 -71.5 t-17.5 -72.5t-13.5 -67z" />
<glyph unicode="&#xf9;" d="M66 246q0 59 13 121.5t36 162.5l47 201q12 57 21.5 97t17.5 76t14 74t16 93l15 12l397 21l14 -17q-25 -104 -48 -205.5t-50 -203.5q-27 -104 -42 -176t-15 -113q0 -33 9 -52.5t23.5 -30.5t32 -15t31.5 -4q41 0 67.5 14t49.5 29l90 424l65 317l15 12q61 2 104 4.5t85 3.5 t91 4t123 9l10 -17l-133 -571l-45 -192l-65 -310l-15 -12l-389 -8l-10 12l25 105q-37 -35 -60.5 -51.5t-64.5 -34.5q-63 -29 -110.5 -39.5t-84.5 -10.5q-43 0 -93 12.5t-91 43t-68.5 83t-27.5 132.5zM502 1620l10 14h354l13 -10q6 -53 11 -90t11 -74t15.5 -81t23.5 -111 l-10 -13h-260l-17 9q-18 51 -32.5 88t-30 73.5t-35.5 81.5t-53 113z" />
<glyph unicode="&#xfa;" d="M66 246q0 59 13 121.5t36 162.5l47 201q12 57 21.5 97t17.5 76t14 74t16 93l15 12l397 21l14 -17q-25 -104 -48 -205.5t-50 -203.5q-27 -104 -42 -176t-15 -113q0 -33 9 -52.5t23.5 -30.5t32 -15t31.5 -4q41 0 67.5 14t49.5 29l90 424l65 317l15 12q61 2 104 4.5t85 3.5 t91 4t123 9l10 -17l-133 -571l-45 -192l-65 -310l-15 -12l-389 -8l-10 12l25 105q-37 -35 -60.5 -51.5t-64.5 -34.5q-63 -29 -110.5 -39.5t-84.5 -10.5q-43 0 -93 12.5t-91 43t-68.5 83t-27.5 132.5zM684 1266q33 51 55.5 88t43 73.5t43 81.5l55.5 111l12 10h98h81t85 2 t113 4l8 -16q-14 -16 -53 -60t-83 -94.5t-84 -96.5t-54 -64q-10 -10 -18.5 -21.5t-18.5 -23.5l-17 -7l-256 -4z" />
<glyph unicode="&#xfb;" d="M66 246q0 59 13 121.5t36 162.5l47 201q12 57 21.5 97t17.5 76t14 74t16 93l15 12l397 21l14 -17q-25 -104 -48 -205.5t-50 -203.5q-27 -104 -42 -176t-15 -113q0 -33 9 -52.5t23.5 -30.5t32 -15t31.5 -4q41 0 67.5 14t49.5 29l90 424l65 317l15 12q61 2 104 4.5t85 3.5 t91 4t123 9l10 -17l-133 -571l-45 -192l-65 -310l-15 -12l-389 -8l-10 12l25 105q-37 -35 -60.5 -51.5t-64.5 -34.5q-63 -29 -110.5 -39.5t-84.5 -10.5q-43 0 -93 12.5t-91 43t-68.5 83t-27.5 132.5zM424 1270q29 43 56.5 87t56.5 89q27 41 42 65.5t26 42t20.5 33t23.5 39.5 l17 10h440l12 -10q12 -61 22.5 -103t20.5 -80t21.5 -77t29.5 -94l-10 -12q-49 0 -85 -1.5t-68.5 -2.5t-68.5 -3t-85 -6l-12 10l-41 218l-127 -211l-15 -9h-266z" />
<glyph unicode="&#xfc;" d="M66 246q0 59 13 121.5t36 162.5l47 201q12 57 21.5 97t17.5 76t14 74t16 93l15 12l397 21l14 -17q-25 -104 -48 -205.5t-50 -203.5q-27 -104 -42 -176t-15 -113q0 -33 9 -52.5t23.5 -30.5t32 -15t31.5 -4q41 0 67.5 14t49.5 29l90 424l65 317l15 12q61 2 104 4.5t85 3.5 t91 4t123 9l10 -17l-133 -571l-45 -192l-65 -310l-15 -12l-389 -8l-10 12l25 105q-37 -35 -60.5 -51.5t-64.5 -34.5q-63 -29 -110.5 -39.5t-84.5 -10.5q-43 0 -93 12.5t-91 43t-68.5 83t-27.5 132.5zM391 1268l66 315l12 10h89t70 1t71.5 2t95.5 6l10 -13l-72 -311l-12 -10 l-320 -13zM874 1272l62 311l12 12l324 15l10 -13l-70 -317l-14 -12l-313 -8z" />
<glyph unicode="&#xfd;" horiz-adv-x="1110" d="M-47 -504q20 33 48 76t56.5 86t55 85t49.5 77q2 6 15 26.5t27.5 44t26 43t11.5 21.5l-37 315l-45 359q-10 82 -17.5 139t-13.5 104.5t-13 93.5t-18 107l15 19q68 0 117 1t93 3t91 5t114 9l13 -14l8 -256l16 -373l129 268q37 78 59.5 125t38 82t30 65.5t32.5 73.5l18 15 l342 8l9 -19q-20 -33 -33.5 -54t-26 -41.5t-26 -45t-35.5 -65.5q-12 -23 -23.5 -43.5t-34 -59.5t-63.5 -107.5t-111 -191.5l-157 -278q-25 -45 -53.5 -98.5t-58.5 -108.5t-57.5 -107.5t-49.5 -95.5q-14 -31 -33 -67.5t-38.5 -75.5t-38.5 -76t-34 -68l-18 -12l-373 -8z M598 1266q33 51 55.5 88t43 73.5t43 81.5l55.5 111l12 10h98h81t85 2t113 4l8 -16q-14 -16 -53 -60t-83 -94.5t-84 -96.5t-54 -64q-10 -10 -18.5 -21.5t-18.5 -23.5l-17 -7l-256 -4z" />
<glyph unicode="&#xfe;" d="M-127 -504q8 27 14.5 47.5t12.5 45t14 59.5t20 92q14 63 28.5 124.5t31.5 123.5l94 399q53 227 94 398t71 306.5t51.5 243t37.5 209.5l8 17q68 10 114 17t91 15.5t95 17.5t124 21l12 -14l-6 -25q-4 -10 -10 -35.5t-13 -55t-14.5 -56.5t-9.5 -37l-98 -389q12 8 36.5 25.5 t59.5 34t80 28.5t98 12q72 0 133.5 -25.5t107.5 -77.5t71.5 -129t25.5 -181q0 -168 -68.5 -318.5t-191.5 -247.5q-61 -49 -126.5 -77.5t-136.5 -44t-147.5 -20.5t-158.5 -5q-2 -8 -10.5 -48t-17.5 -84t-16 -80l-7 -36q-2 -12 -9.5 -47t-14.5 -75t-15.5 -75.5t-10.5 -50.5 l-14 -12q-41 2 -84 2h-84h-61.5t-57 -1t-61.5 -2t-72 -3zM479 260q6 0 12.5 -1t16.5 -1q63 0 119.5 27.5t95.5 76.5q29 35 47 78t29.5 86t16.5 82t5 68q0 61 -26.5 109.5t-89.5 48.5q-18 0 -44 -7.5t-61 -25.5z" />
<glyph unicode="&#xff;" horiz-adv-x="1110" d="M-47 -504q20 33 48 76t56.5 86t55 85t49.5 77q2 6 15 26.5t27.5 44t26 43t11.5 21.5l-37 315l-45 359q-10 82 -17.5 139t-13.5 104.5t-13 93.5t-18 107l15 19q68 0 117 1t93 3t91 5t114 9l13 -14l8 -256l16 -373l129 268q37 78 59.5 125t38 82t30 65.5t32.5 73.5l18 15 l342 8l9 -19q-20 -33 -33.5 -54t-26 -41.5t-26 -45t-35.5 -65.5q-12 -23 -23.5 -43.5t-34 -59.5t-63.5 -107.5t-111 -191.5l-157 -278q-25 -45 -53.5 -98.5t-58.5 -108.5t-57.5 -107.5t-49.5 -95.5q-14 -31 -33 -67.5t-38.5 -75.5t-38.5 -76t-34 -68l-18 -12l-373 -8z M307 1270l66 315l12 10h89t70 1t71.5 2t95.5 6l10 -13l-72 -311l-12 -10l-320 -13zM791 1274l61 311l12 12l324 15l10 -13l-70 -317l-14 -12l-313 -8z" />
<glyph unicode="&#x152;" horiz-adv-x="1921" d="M109 571q0 94 17 190.5t51 185.5t83 169t115 141q76 72 163 112t182 60.5t199.5 24.5t215.5 4q70 0 139 -1t141 -3h156h444l13 -12l-76 -279l-17 -14h-454l-62 -262h160l270 2l11 -15l-76 -264l-17 -14l-284 4h-129l-29 -121l-37 -164q76 0 129 -1t107.5 0t119 3t164.5 7 l11 -15q-12 -43 -25.5 -86t-24.5 -84q-10 -33 -18 -63.5t-16 -61.5l-17 -14h-626q-61 -2 -124 -3t-124 -1q-190 0 -324.5 20.5t-230.5 100.5q-98 82 -139 203.5t-41 250.5zM563 569q0 -141 62.5 -200.5t185.5 -59.5h57l58 250l78 338l57 256h-43q-57 0 -122 -8t-124 -49 q-53 -37 -92 -100.5t-65.5 -137.5t-39 -149.5t-12.5 -139.5z" />
<glyph unicode="&#x153;" horiz-adv-x="1878" d="M57 418q0 18 4.5 77.5t23.5 138.5t58 165t110 157.5t178.5 118.5t260.5 47q78 0 136.5 -13t102.5 -33.5t74.5 -42t53.5 -40.5q20 18 41.5 36t56.5 34q78 39 149.5 49t108.5 10q59 0 132 -15t136 -63q66 -47 107 -127.5t41 -220.5q0 -66 -10.5 -118t-24.5 -111l-14 -12 l-619 -13q0 -33 9.5 -65.5t34 -59t69.5 -43t119 -16.5q117 0 194.5 32t134.5 64l17 -12l-74 -270l-10 -15q-20 -10 -52 -24.5t-77 -26.5t-103.5 -21.5t-132.5 -9.5q-49 0 -99 5.5t-97 17.5q-86 20 -125 54t-66 63q-27 -29 -52.5 -49.5t-72.5 -42.5q-35 -16 -101.5 -32 t-148.5 -16q-12 0 -43.5 1t-72.5 7.5t-87 19.5t-85 38q-25 14 -56.5 42t-60.5 73t-48.5 109.5t-19.5 152.5zM463 371q0 -10 1 -33t10 -46.5t28.5 -42t56.5 -18.5q27 0 47.5 9.5t35.5 24t24.5 28.5t15.5 24q25 47 50.5 130t41.5 169q6 33 10 65t4 64q0 39 -10 64t-24.5 38 t-30.5 18t-29 5q-47 0 -81.5 -32.5t-60.5 -84t-43 -112.5t-27.5 -116.5t-14.5 -97.5t-4 -56zM1190 676l287 4q2 16 4 30.5t2 30.5q0 49 -29 89t-86 40q-33 0 -63.5 -15t-53.5 -40q-29 -33 -41 -69.5t-20 -69.5z" />
<glyph unicode="&#x178;" horiz-adv-x="1366" d="M219 1425l10 15l457 16l12 -12q23 -92 38.5 -154.5t29.5 -115t31.5 -106.5t42.5 -134l149 233q43 68 67.5 107t40 64.5t29 46t31.5 51.5l14 12h107.5h85.5t86 2t111 4l8 -16q-18 -25 -43 -56.5t-49.5 -64.5t-48 -65.5t-42.5 -57.5l-432 -588l-77 -342l-52 -250l-14 -12 h-122t-96 -1t-96.5 -2t-121.5 -3l-10 10q27 96 52 189.5t48 187.5q14 59 27.5 118.5t25.5 119.5l-145 393q-23 63 -42.5 114.5t-37 98.5t-35.5 94t-39 104zM494 1556q14 51 22 86t15.5 66t14.5 63.5t17 81.5l12 13l332 4l6 -12l-75 -302l-13 -10h-321zM1010 1550l67 299 l13 13l325 8l10 -12l-69 -308l-13 -10q-49 2 -83.5 2h-67.5t-73 -1t-99 -3z" />
<glyph unicode="&#x2c6;" horiz-adv-x="598" d="M-94 1270q29 43 56.5 87t55.5 89q27 41 42.5 65.5t26.5 42t20.5 33t23.5 39.5l16 10h441l12 -10q12 -61 22.5 -103t20.5 -80t21.5 -77t29.5 -94l-10 -12q-49 0 -85 -1.5t-68.5 -2.5t-68.5 -3t-85 -6l-12 10l-41 218l-127 -211l-15 -9h-266z" />
<glyph unicode="&#x2dc;" horiz-adv-x="598" d="M-98 1286l55 236l12 18q41 27 84 47.5t109 20.5q43 0 78.5 -10.5t74.5 -22.5l35 -12q35 -12 67 -21.5t66 -9.5q31 0 63 10t59.5 23.5t49 27t33.5 21.5l10 -10l-49 -252l-12 -17q-43 -29 -97.5 -55.5t-129.5 -26.5q-41 0 -74 10.5t-72 26.5l-35 15q-29 12 -56.5 20 t-61.5 8q-51 0 -99.5 -17.5t-97.5 -39.5z" />
<glyph unicode="&#x2000;" horiz-adv-x="997" />
<glyph unicode="&#x2001;" horiz-adv-x="1995" />
<glyph unicode="&#x2002;" horiz-adv-x="997" />
<glyph unicode="&#x2003;" horiz-adv-x="1995" />
<glyph unicode="&#x2004;" horiz-adv-x="665" />
<glyph unicode="&#x2005;" horiz-adv-x="498" />
<glyph unicode="&#x2006;" horiz-adv-x="332" />
<glyph unicode="&#x2007;" horiz-adv-x="332" />
<glyph unicode="&#x2008;" horiz-adv-x="249" />
<glyph unicode="&#x2009;" horiz-adv-x="399" />
<glyph unicode="&#x200a;" horiz-adv-x="110" />
<glyph unicode="&#x2010;" horiz-adv-x="811" d="M53 436l78 285l16 14h637l7 -10l-80 -285l-17 -14q-80 0 -159.5 1t-159.5 1q-92 0 -163 -1t-153 -3z" />
<glyph unicode="&#x2011;" horiz-adv-x="811" d="M53 436l78 285l16 14h637l7 -10l-80 -285l-17 -14q-80 0 -159.5 1t-159.5 1q-92 0 -163 -1t-153 -3z" />
<glyph unicode="&#x2012;" horiz-adv-x="811" d="M53 436l78 285l16 14h637l7 -10l-80 -285l-17 -14q-80 0 -159.5 1t-159.5 1q-92 0 -163 -1t-153 -3z" />
<glyph unicode="&#x2013;" horiz-adv-x="1193" d="M53 444l88 285l17 16q129 -4 258 -7t258 -3q123 0 245.5 2t247.5 6l9 -14l-91 -297l-16 -12q-74 2 -135.5 5t-118.5 4t-113.5 2t-117.5 1h-123t-138.5 -1t-138 -1h-123.5z" />
<glyph unicode="&#x2014;" horiz-adv-x="1449" d="M53 444q14 47 24.5 79t19.5 60.5t19.5 61.5t24.5 84l15 14q193 -4 382 -7t382 -3q94 0 166.5 1t132 2t108.5 3t96 4l9 -14q-18 -59 -28.5 -94t-19 -63.5t-18.5 -59.5t-25 -82l-16 -12q-39 2 -84 5t-106.5 5t-141.5 3t-188 1h-45h-109.5t-149.5 -1t-165 -1t-154.5 -1 t-118.5 -1z" />
<glyph unicode="&#x2018;" horiz-adv-x="555" d="M141 1067q12 16 32 43t43.5 58.5t48 65.5t48.5 69q6 10 34 49t59 86q37 53 79 118l15 9q33 0 63.5 -1t63.5 -1q37 0 72.5 1t80.5 3l8 -15q-27 -59 -64.5 -138t-61.5 -138q-16 -37 -35 -81t-52 -126l-18 -10l-410 -8z" />
<glyph unicode="&#x2019;" horiz-adv-x="555" d="M141 1065q39 86 67 145.5t50.5 110.5t44 103.5t51.5 123.5l19 11l407 8l8 -17q-16 -20 -34.5 -44.5t-38 -50t-35.5 -49.5t-29 -40l-15 -22.5t-26.5 -40t-34 -50t-36.5 -53.5q-43 -63 -97 -139l-14 -8h-127h-69.5t-84.5 -2z" />
<glyph unicode="&#x201a;" horiz-adv-x="555" d="M-129 -143q39 86 66.5 145t50 110.5t44 103.5t52.5 124l18 10l408 8l8 -16q-16 -20 -34.5 -45t-38 -50.5t-36 -49t-28.5 -39.5q-4 -6 -15.5 -22.5t-26.5 -40t-33.5 -50.5t-37.5 -53q-43 -63 -96 -139l-14 -9h-127h-70t-84 -2z" />
<glyph unicode="&#x201c;" horiz-adv-x="1067" d="M141 1067q14 20 28.5 38.5t29.5 39.5q18 23 44.5 59.5t67.5 93.5q10 14 38 56.5t59 87.5q37 53 77 114l15 9q33 0 64.5 -1t64.5 -1q35 0 68.5 1t82.5 3l8 -15q-16 -37 -33.5 -73.5t-33.5 -71.5q-31 -66 -49.5 -105.5t-31.5 -71.5t-27.5 -68t-37.5 -93l-18 -10l-410 -8z M651 1067q6 8 24.5 31.5t40 51.5t40 52.5t24.5 34.5q12 18 48 70.5t73 107.5q43 66 96 141l15 9q33 0 63.5 -1t63.5 -1q37 0 73.5 1t79.5 3l8 -15q-43 -92 -71.5 -151.5t-50 -109.5l-43 -100t-50.5 -122l-16 -10l-407 -8z" />
<glyph unicode="&#x201d;" horiz-adv-x="1067" d="M141 1065q39 86 67 145.5t50.5 110.5t44 103.5t51.5 123.5l19 11l407 8l8 -17q-14 -18 -32.5 -43.5t-38 -51t-36.5 -49.5t-30 -40q-10 -12 -43 -61.5t-69 -102.5q-43 -63 -97 -141l-14 -8h-127h-70.5t-83.5 -2zM651 1065q49 106 80 173t52.5 115t40 91t42.5 104l17 11 l409 8l8 -17q-43 -57 -68.5 -91t-43 -58.5t-30.5 -43t-32 -44.5q-10 -16 -38.5 -57.5t-57.5 -84.5q-35 -51 -76 -110l-14 -8h-127h-69.5t-84.5 -2z" />
<glyph unicode="&#x201e;" horiz-adv-x="1067" d="M-141 -139l59.5 119t48 98t50 109.5t67.5 150.5l16 14l396 8l8 -18q-31 -45 -67 -93t-70 -95q-16 -20 -26.5 -35t-22 -31t-28 -40.5t-40.5 -63.5q-6 -8 -19.5 -29t-29.5 -43q-18 -27 -37 -57l-17 -13q-43 2 -75.5 2h-69.5h-133zM369 -141q37 70 61.5 120t49 101t51 110.5 t65.5 149.5l14 12l400 6l8 -16q-61 -84 -99 -135t-67 -91t-55.5 -79t-65.5 -98q-14 -20 -28.5 -41t-28.5 -43l-15 -13q-37 2 -74.5 2h-74.5h-67.5t-67.5 -2z" />
<glyph unicode="&#x2022;" horiz-adv-x="681" d="M72 723q0 66 24.5 124t67.5 101t101.5 67.5t123.5 24.5q66 0 124 -24.5t101 -67.5t68 -101.5t25 -123.5q0 -66 -25 -124t-68 -101t-101 -67.5t-124 -24.5t-124 24.5t-101 67.5t-67.5 101t-24.5 124z" />
<glyph unicode="&#x2026;" horiz-adv-x="2048" d="M100 150q0 72 48.5 117.5t115.5 45.5q70 0 116 -46.5t46 -112.5q0 -61 -42 -113.5t-118 -52.5q-31 0 -60.5 10t-53 30.5t-38 51.5t-14.5 70zM784 150q0 72 48.5 117.5t115.5 45.5q70 0 116 -46.5t46 -112.5q0 -61 -42 -113.5t-118 -52.5q-31 0 -60.5 10t-53 30.5 t-38 51.5t-14.5 70zM1468 150q0 72 48.5 117.5t115.5 45.5q70 0 116 -46.5t46 -112.5q0 -61 -42 -113.5t-118 -52.5q-31 0 -60.5 10t-53 30.5t-38 51.5t-14.5 70z" />
<glyph unicode="&#x202f;" horiz-adv-x="399" />
<glyph unicode="&#x2039;" horiz-adv-x="555" d="M23 582l2 20q35 49 67.5 93t63.5 85q37 47 74.5 99.5t64.5 95.5l16 8q41 -2 73 -3t65.5 -1h73.5h98l8 -16q-41 -47 -78 -96.5t-74 -100.5q-10 -12 -29.5 -39t-41 -55.5t-40 -53t-24.5 -32.5q8 -35 27.5 -92.5t41 -116t39 -107.5t23.5 -65l-12 -15q-49 0 -83 1.5 t-62.5 1.5t-61.5 -1.5t-80 -1.5l-14 15q-31 88 -62.5 174t-64.5 172z" />
<glyph unicode="&#x203a;" horiz-adv-x="555" d="M-39 209q41 47 79 96t75 98q6 8 25.5 35t41 57.5t41 57.5t25.5 33q-10 33 -28.5 91t-40 116.5t-39 106.5t-23.5 65l12 14q55 0 89 -1t61.5 -1t57.5 1t79 1l14 -14q31 -86 62.5 -173t64.5 -174l10 -30l-2 -19q-41 -59 -71.5 -99t-59.5 -81q-37 -47 -74.5 -99t-64.5 -93 l-16 -9q-41 0 -73 1t-66 2.5t-73.5 1.5h-97.5z" />
<glyph unicode="&#x205f;" horiz-adv-x="498" />
<glyph unicode="&#x20ac;" horiz-adv-x="1193" d="M-4 442q20 43 41.5 89.5t38.5 84.5l12 13h50t93 -2q2 57 13 116h-37h-46.5h-30.5t-25.5 -1t-30.5 -1l-13 17q8 16 20.5 39.5t24 48t21.5 47t16 39.5l13 12h44t97 -2q41 102 104.5 189.5t149.5 152t192.5 100t235.5 35.5q43 0 94 -8t101.5 -22.5t95.5 -33t73 -38.5l7 -17 l-123 -256l-15 -6q-6 4 -18 16.5t-36.5 25t-61.5 22.5t-92 10q-98 0 -168 -49t-113 -123h95h90t75 1t49 1q27 2 49 2h41t33 2l12 -12q-16 -31 -39.5 -80t-46.5 -100l-12 -13q-20 0 -32.5 1t-24 1h-22.5h-29l-308 2q-4 -29 -8 -56t-4 -54v-10h137.5t102.5 2q27 2 49 2h40.5 t33.5 2l12 -13q-8 -16 -18.5 -38.5t-22.5 -47t-23.5 -49t-19.5 -45.5l-12 -12q-20 0 -33 1t-24 1h-22.5h-29.5h-147q51 -162 206 -162q94 0 149.5 24.5t96.5 59.5l14 -10q-10 -41 -20 -76t-20 -76t-14.5 -68.5t-14.5 -68.5l-12 -16q-51 -29 -116 -48.5t-159 -19.5 q-117 0 -208 34t-157.5 94.5t-108.5 145.5t-58 187h-101h-46h-30.5t-25.5 -1t-31 -1z" />
<glyph unicode="&#x2122;" horiz-adv-x="1409" d="M94 1309v137h590v-137h-207v-543h-172v543h-211zM739 766v680h217l156 -492l145 492h220v-680h-168l8 362q0 25 2 57t10 81q-6 -20 -9 -33.5t-6 -25t-6 -22.5t-8 -28l-114 -391h-154l-121 393q-2 6 -6 20.5t-8 31t-8 31.5t-6 22q4 -25 7 -53.5t7 -82.5l8 -362h-166z" />
<glyph unicode="&#xe000;" horiz-adv-x="1105" d="M0 0v1106h1106v-1106h-1106z" />
<glyph unicode="&#xfb01;" horiz-adv-x="1409" d="M39 8q27 92 46 171t34 136l121 510h-42.5h-34t-33.5 -1t-44 -3l-10 13q12 39 20 65.5t15.5 52t16.5 56t22 77.5l16 13q20 0 34.5 -1t29 -1h32h41.5l23 98q12 51 20 89t16.5 67.5t17.5 52t19 45.5q57 117 160 161t232 44q92 0 151 -11.5t94 -19.5l6 -18q-12 -41 -21 -70 t-17.5 -55.5t-16.5 -57t-20 -75.5l-21 -9q-37 10 -56.5 12.5t-31.5 2.5q-35 0 -56.5 -12.5t-35.5 -37t-23.5 -62.5t-21.5 -89l-12 -55h51h38.5t37 1t45.5 1l8 -15q-10 -37 -19.5 -65.5t-17.5 -57t-17.5 -59.5t-21.5 -67l-14 -13q-29 0 -47.5 1t-34 1h-31.5h-39 q-4 -16 -6 -22q-23 -96 -39 -166t-28.5 -126t-22.5 -105.5t-21.5 -104.5t-24.5 -122.5t-30 -160.5l-18 -12h-118t-91 -1t-88 -3t-109 -4zM750 8q37 137 71.5 274.5t65.5 276.5l20 86q18 86 29.5 142.5t19 99.5t12.5 80t9 80l14 16q74 8 124 15t96 14.5t96.5 16.5t124.5 24 l12 -17q-6 -25 -11.5 -44t-10.5 -42.5t-12 -52.5t-17 -72q-23 -98 -47.5 -202.5t-42.5 -182.5l-25 -119q-16 -78 -27.5 -134t-19.5 -100t-14.5 -80t-10.5 -73l-12 -10q-68 0 -116 -1t-93 -2t-97 -2t-130 -3zM1032 1212q10 43 18.5 79t15.5 73t16.5 78t19.5 96l16 16 q76 8 124 14.5t89 12.5t86 11t113 16l12 -15q-10 -43 -20.5 -86t-20.5 -86q-10 -39 -17 -75.5t-18 -73.5l-16 -17q-70 -10 -119 -16t-92 -12t-88 -13.5t-104 -15.5z" />
<glyph unicode="&#xfb02;" horiz-adv-x="1409" d="M39 8q27 92 46 171t32 136l123 510h-42.5h-34t-33.5 -1t-44 -3l-10 13q12 39 20 65.5t15.5 52t16.5 56t22 77.5l16 13q20 0 34.5 -1t29 -1h30.5h41l25 98q12 51 20 89t16.5 67.5t17.5 52t19 45.5q57 117 160 161t232 44q92 0 151 -11.5t94 -19.5l6 -18q-12 -41 -21 -70 t-17.5 -55.5t-16.5 -57t-20 -75.5l-21 -9q-37 10 -56.5 12.5t-31.5 2.5q-35 0 -56.5 -12.5t-35.5 -37t-23.5 -62.5t-21.5 -89l-12 -55h51h38.5t37 1t45.5 1l8 -15q-10 -37 -19.5 -65.5t-17.5 -57t-17.5 -59.5t-21.5 -67l-14 -13q-29 0 -47.5 1t-34 1h-31.5h-39 q-4 -16 -6 -22q-23 -96 -39 -166t-28.5 -126t-22.5 -105.5t-21.5 -104.5t-24.5 -122.5t-30 -160.5l-18 -12h-118t-91 -1t-88 -3t-109 -4zM752 8q4 14 14 53t21.5 83t21.5 84t14 57q14 57 27.5 113.5t26.5 113.5l90 385q35 156 57.5 255t35.5 168t20 119t14 107l14 17 q80 12 130 20t94 15.5t92.5 15.5t121.5 20l10 -14q-4 -20 -16 -71.5t-26.5 -110t-27.5 -110.5t-20 -73q-18 -78 -36.5 -156.5t-36.5 -158.5l-90 -397q-25 -111 -41.5 -180.5t-27.5 -124t-20.5 -104.5t-23.5 -120l-14 -10q-70 0 -118 -1t-92 -2t-91.5 -2t-112.5 -3z" />
</font>
</defs>
</svg>
