<?xml version="1.0" standalone="no"?>
<!DOCTYPE svg PUBLIC "-//W3C//DTD SVG 1.1//EN" "http://www.w3.org/Graphics/SVG/1.1/DTD/svg11.dtd" >
<svg xmlns="http://www.w3.org/2000/svg">
<metadata></metadata>
<defs>
<font id="formataitalic" horiz-adv-x="1193" >
<font-face units-per-em="2048" ascent="1530" descent="-518" />
<missing-glyph horiz-adv-x="598" />
<glyph horiz-adv-x="2048" />
<glyph horiz-adv-x="2048" />
<glyph unicode="&#xd;" horiz-adv-x="598" />
<glyph unicode=" "  horiz-adv-x="598" />
<glyph unicode="&#x09;" horiz-adv-x="598" />
<glyph unicode="&#xa0;" horiz-adv-x="598" />
<glyph unicode="!" horiz-adv-x="555" d="M70 8q8 35 15 58.5t11 45t9.5 46t11.5 61.5l18 17l227 6l13 -17l-49 -211l-17 -14l-229 -6zM213 434l47 234l57 278q20 104 34 179t25 137.5t22.5 125t23.5 144.5l16 14l226 8l10 -14l-101 -358l-63 -242q-47 -172 -86 -344q-10 -41 -17.5 -79t-17.5 -77l-14 -14l-154 -6 z" />
<glyph unicode="&#x22;" horiz-adv-x="811" d="M203 1412v15q0 55 35.5 81t76.5 26q66 0 93 -55q10 -16 10 -31.5t-2 -32.5l-84 -526h-47l-80 502q-2 14 -2 21zM586 1427q0 55 35.5 81t76.5 26q31 0 56.5 -14.5t38.5 -40.5q8 -16 8 -31.5v-32.5l-84 -526h-47l-80 502l-3 21t-1 15z" />
<glyph unicode="#" horiz-adv-x="1366" d="M86 469v158h307l33 221h-289v158h309l64 438h164l-64 -438h226l65 438h160l-60 -438h281v-158h-303l-33 -221h285v-158h-307l-68 -469h-162l68 469h-227l-68 -469h-166l72 469h-287zM555 627h229l31 221h-225z" />
<glyph unicode="$" horiz-adv-x="1067" d="M-41 109l61 163l19 4q23 -27 40 -45t34.5 -31.5t38 -23.5t51.5 -20l241 506l-26 18q-31 25 -50.5 38t-29.5 22.5t-17.5 15.5t-13.5 12q-16 14 -35.5 36.5t-37 53.5t-29.5 72t-12 92q0 57 16 107.5t40.5 90.5t53.5 70.5t53 48.5q33 23 72 39.5t81 27.5t83 16t78 5 q33 0 64.5 -3t66.5 -7l57 133l19 13h114l8 -13l-81 -161q27 -12 46 -20.5t35.5 -18t33 -21.5t40.5 -31l6 -16l-59 -152l-21 -2q-47 49 -77.5 72t-75.5 39l-213 -451l31 -24q37 -29 78.5 -61.5t76.5 -76.5t57.5 -99.5t22.5 -125.5q0 -78 -31.5 -155.5t-96 -139t-161 -100.5 t-225.5 -39q-35 0 -68.5 3t-68.5 7l-72 -157l-16 -13h-115l-6 15l90 178q-35 12 -56.5 22.5t-39 19.5t-33.5 20.5t-37 27.5zM322 129q37 -6 71 -6q70 0 125 23.5t93 60.5t57.5 82t19.5 88q0 41 -14.5 73.5t-37 58.5t-49 45t-48.5 36zM406 1057q0 -37 12 -65.5t31.5 -52.5 t44 -43t47.5 -36l192 406q-20 2 -37.5 4t-36.5 2q-61 0 -108 -19.5t-80 -50.5t-49 -69.5t-16 -75.5z" />
<glyph unicode="%" horiz-adv-x="1878" d="M106 770q0 12 4.5 65.5t17.5 124t42 149.5t77 145.5t121.5 109.5t178.5 43q137 0 201.5 -86t64.5 -229q0 -29 -2 -55.5t-6 -55.5q-4 -27 -13.5 -79t-30 -113.5t-54 -124t-84.5 -109.5q-53 -49 -115 -70.5t-129 -21.5q-43 0 -76 8t-55.5 18.5t-35.5 21.5t-19 15 q-31 27 -47.5 61t-25.5 67.5t-11.5 64.5t-2.5 51zM254 748q0 -76 30.5 -126.5t102.5 -50.5q29 0 62.5 10.5t66.5 45.5t64.5 101t58.5 179q6 29 18.5 92.5t12.5 120.5q0 12 -2 41t-14.5 58.5t-40 53t-78.5 23.5q-47 0 -90.5 -24.5t-82.5 -93.5q-23 -39 -42 -93.5t-34.5 -115 t-23.5 -118.5t-8 -103zM418 14q8 14 33.5 51t54.5 79t54.5 80t35.5 55q35 49 66.5 99t64.5 101l274 422q49 76 88 135.5t73 113.5t68 108.5t70 115.5l23 15h68.5t58.5 2l8 -15q-16 -25 -58 -87t-91 -136t-99.5 -147.5t-83.5 -124.5l-243 -379q-41 -63 -74 -115.5t-65.5 -104 t-67.5 -107.5t-78 -126l-20 -35l-21 -12q-37 -2 -65.5 -2t-65.5 -2zM1063 289q0 12 4 64.5t17.5 123t42 149.5t76.5 145.5t122 109.5t178 43q135 0 199.5 -86t64.5 -230q0 -27 -2 -53t-6 -55t-13 -81t-29.5 -113.5t-54.5 -124t-85 -109.5q-100 -92 -244 -92q-72 0 -117 20 t-67 43q-31 27 -47.5 61.5t-25.5 68.5t-11 64.5t-2 51.5zM1210 266q0 -78 30 -128t101 -50q29 0 63 10.5t66.5 46t64 102t58.5 179.5q6 29 18.5 92.5t12.5 120.5q0 12 -2 41t-14.5 58.5t-40 52t-76.5 22.5q-47 0 -91 -24.5t-83 -92.5q-23 -39 -41.5 -93t-33.5 -114.5 t-23.5 -119t-8.5 -103.5z" />
<glyph unicode="&#x26;" horiz-adv-x="1323" d="M-4 332q0 102 43 178t107.5 131t140 95t139.5 71q-31 66 -61.5 144.5t-30.5 170.5q0 68 25.5 132.5t76.5 113.5t127 79t174 30q92 0 158 -26t107.5 -68t62 -95t20.5 -106q0 -82 -33.5 -144.5t-89 -111.5t-126 -89t-142.5 -77q49 -92 80 -146.5t50.5 -89.5t32.5 -56.5 t30 -47.5q76 72 129 142.5t94 148.5l16 2l93 -154v-16q-27 -35 -45.5 -58.5t-42 -49t-59.5 -63.5t-97 -100l160 -256l-9 -16l-237 -4l-17 10l-69 133q-98 -78 -197.5 -120t-220.5 -42q-100 0 -174 31t-121 82t-70.5 113.5t-23.5 128.5zM217 348q0 -37 14.5 -71.5t42 -62.5 t67.5 -44t91 -16t96 14t82 33.5t64.5 41t46.5 38.5l-211 374q-33 -16 -82 -41.5t-96 -63.5t-81 -88t-34 -114zM543 1139q0 -59 24.5 -121t53.5 -121q45 23 94 50.5t90 61t67.5 74.5t26.5 93q0 27 -11 54t-31.5 50t-50.5 37t-67 14q-49 0 -86 -16.5t-61.5 -44t-36.5 -62 t-12 -69.5z" />
<glyph unicode="'" horiz-adv-x="425" d="M203 1412v15q0 55 35.5 81t76.5 26q66 0 93 -55q10 -16 10 -31.5t-2 -32.5l-84 -526h-47l-80 502q-2 14 -2 21z" />
<glyph unicode="(" horiz-adv-x="768" d="M102 338q0 195 54.5 367t138.5 315t184.5 256t192.5 186q31 27 63.5 50.5t67.5 46.5l20 8h138l4 -19q-63 -55 -140 -125.5t-143 -144.5q-84 -94 -152.5 -211t-116.5 -247t-75 -267t-27 -272q0 -63 8.5 -147.5t36.5 -194.5q18 -68 37 -120t38.5 -95t41 -79t43.5 -71 l-10 -18h-123l-14 8q-23 27 -40.5 48t-43.5 62q-23 37 -53.5 102.5t-59.5 152.5t-49.5 190.5t-20.5 218.5z" />
<glyph unicode=")" horiz-adv-x="768" d="M-254 -426q74 63 128 113.5t94 91.5t69 74.5t51 62.5q100 133 160.5 268t94.5 258t45 225.5t11 174.5q0 70 -10 156.5t-32.5 179t-62.5 187.5t-97 185l8 17h123l14 -8q12 -14 27.5 -32t34 -44.5t39 -63.5t44.5 -90q59 -131 90 -267t31 -278q0 -295 -138 -584.5 t-421 -531.5q-10 -8 -30.5 -24.5t-43 -34t-42 -30.5t-23.5 -15l-23 -8h-135z" />
<glyph unicode="*" horiz-adv-x="937" d="M152 1014l6 16l305 125q-53 31 -88 50.5t-61.5 32.5t-48 25.5t-48.5 26.5l-4 17l86 125h14q39 -35 67 -57.5t52.5 -41t48 -37t58.5 -43.5q8 51 13 85t10 64t8 63.5t10 84.5l14 15l147 2l11 -13q-16 -49 -28.5 -82.5t-23 -64.5t-20.5 -65.5t-25 -86.5l275 172l16 -4 l55 -127l-8 -16q-47 -18 -81.5 -31.5t-66.5 -28t-69 -29.5t-86 -40q43 -25 73 -40t55.5 -27.5t53 -26t68.5 -33.5l4 -16l-84 -129l-18 -2q-35 29 -61.5 49t-51 38.5t-52.5 39t-67 47.5l-35 -295l-14 -15l-147 -4l-11 13l93 303l-269 -170l-16 2z" />
<glyph unicode="+" horiz-adv-x="1366" d="M82 514v164h510v510h164v-510h514v-164h-514v-514h-164v514h-510z" />
<glyph unicode="," horiz-adv-x="468" d="M-162 -279l40 92.5t51.5 121t57 139t60.5 149.5l16 15l236 8l8 -17q-31 -47 -51 -79.5t-34.5 -56t-25 -41t-18.5 -32.5q-2 -4 -15 -26.5t-32.5 -55t-40 -69.5t-39 -68.5t-31.5 -52.5l-12 -22l-18 -13l-144 -4z" />
<glyph unicode="-" horiz-adv-x="681" d="M8 504l49 153l19 15q70 -2 138.5 -3t137.5 -1h62.5t58.5 1t61.5 2t75.5 1l11 -13l-52 -159l-16 -13q-72 2 -144.5 3.5t-144.5 1.5q-74 0 -129 -1.5t-117 -3.5z" />
<glyph unicode="." horiz-adv-x="468" d="M-35 8l47 213l17 15l227 6l12 -15l-47 -213l-18 -14l-228 -6z" />
<glyph unicode="/" horiz-adv-x="937" d="M-250 -270q43 61 95.5 136t107.5 157.5t112.5 171t112.5 174.5l314 483q57 88 101 155.5t80 123t64.5 102.5t58 95t62.5 102.5t76 123.5l20 15h164l8 -19q-45 -66 -102 -151.5t-113.5 -170.5t-103.5 -159t-72 -111l-364 -561q-8 -10 -36 -53t-66 -102.5t-82 -128 t-85 -131t-71.5 -110.5t-42.5 -69q-10 -18 -22.5 -37.5t-22.5 -39.5l-21 -13l-164 -2z" />
<glyph unicode="0" d="M57 442q0 25 4.5 80.5t15.5 126t31.5 154.5t53.5 167t79 160.5t109 137.5q78 74 175.5 111.5t203.5 37.5q129 0 209 -47t124 -119.5t59.5 -156.5t15.5 -158q-1 -84 -13 -166q-8 -57 -23.5 -132t-41 -155t-63.5 -159.5t-91 -145.5q-35 -43 -77 -81t-95 -66.5t-118.5 -45 t-147.5 -16.5q-102 0 -192.5 41t-143.5 125q-29 47 -51.5 124t-22.5 183zM270 399q0 -49 9.5 -98t34 -90t66.5 -66.5t107 -25.5q76 0 135.5 34.5t107.5 102.5t86 166t69 227q20 84 33.5 168t13.5 170q0 18 -3 63.5t-23.5 93.5t-65.5 85t-127 37q-55 0 -100.5 -18.5 t-80 -48.5t-60.5 -66.5t-44 -73.5q-35 -66 -63.5 -152t-49 -176t-33 -177t-12.5 -155z" />
<glyph unicode="1" d="M354 10l115 482l51 217l117 518l-207 -29l-12 12l37 138l16 14q78 8 132 14t100.5 12.5t90.5 12.5t99 14l12 -14q-25 -92 -40 -151.5t-27.5 -109.5t-23.5 -102.5t-30 -130.5l-67 -303l-125 -590l-14 -12l-213 -4z" />
<glyph unicode="2" d="M-96 25q41 35 96 83t96 82l211 181q61 53 105.5 92t82 73.5t74.5 69.5t80 78q90 86 143.5 167t53.5 159q0 70 -41 119t-78 71q-39 23 -84 30t-76 7q-68 0 -121 -15.5t-97 -39t-81 -53t-69 -58.5l-19 8l56 217l12 17q14 10 27.5 17t27.5 16q59 31 142 51t176 20 q14 0 43.5 -1t67.5 -7t79 -19.5t82 -35.5q27 -16 58.5 -43t59 -65t45 -88t17.5 -114q0 -88 -34.5 -165.5t-98 -154.5t-155 -158t-203.5 -175l-252 -215h151.5t130 2t142 4t188.5 6l10 -14l-51 -164l-16 -10h-973z" />
<glyph unicode="3" d="M-27 106l43 164l17 2q16 -16 41.5 -39.5t63.5 -45t90.5 -37t123.5 -15.5q98 0 173 32t125 82t76 111.5t26 120.5q0 45 -16.5 87t-49.5 75t-82 52.5t-112 19.5q-41 0 -77 -9.5t-81 -25.5l-15 16q33 39 77 86t88 96.5t87 96.5t76 86q35 41 69 80t68 80l-546 -9l-11 15 l45 147l15 15q98 -2 192 -3.5t189 -1.5q231 0 465 7l8 -23q-41 -41 -98.5 -104.5t-122 -136t-132 -149.5t-124.5 -144q39 0 91 -9.5t117 -66.5q39 -35 60.5 -76t33 -79t13.5 -67.5t2 -43.5q0 -102 -40 -196.5t-116.5 -166.5t-188.5 -116t-257 -44q-66 0 -134.5 11.5 t-133.5 35.5q-47 16 -74 33t-57 39z" />
<glyph unicode="4" d="M2 373l33 125l14 22q106 123 208.5 245t207.5 247l307 362l23 15l280 2l12 -13l-198 -858l186 2l10 -14l-41 -135l-16 -15h-176q-14 -63 -23.5 -105t-16.5 -78t-14 -72.5t-18 -88.5l-18 -16l-193 -6l-12 14q14 53 23.5 92t18.5 76t19.5 80t24.5 104h-631zM244 520h438 l106 443l78 294l-32 -38l-72 -91z" />
<glyph unicode="5" d="M10 88l45 166l17 4q16 -16 41.5 -36.5t63.5 -40t89 -33t121 -13.5q94 0 168 31t124 82t76.5 116.5t26.5 137.5q0 74 -25.5 124t-66.5 81.5t-91 45t-97 13.5q-109 0 -179.5 -34t-123.5 -66l-17 12l92 317q20 70 35 118t26 88t21.5 79t22.5 92l18 14q94 -2 187.5 -3 t187.5 -1q96 0 174 1t180 6l13 -13l-49 -151l-15 -13l-262 5h-283l-94 -322q41 12 84 22.5t103 10.5q88 0 160.5 -30t123.5 -82t79 -123.5t28 -155.5q0 -104 -39 -206t-117 -182.5t-192.5 -130t-266.5 -49.5q-41 0 -108.5 7.5t-143.5 31.5q-47 14 -74.5 29.5t-54.5 34.5z " />
<glyph unicode="6" d="M96 449q0 90 17.5 196.5t54.5 214t95.5 207.5t141 177t191.5 124t244 47q90 0 181 -20.5t153 -73.5l8 -16l-47 -158l-19 -6q-41 53 -114.5 80.5t-147.5 27.5q-92 0 -161.5 -29.5t-120 -72.5t-83 -91t-53.5 -85q-29 -55 -48 -111.5t-38 -114.5l10 7q9 8 19 17t20.5 17.5 t14.5 10.5q39 29 110.5 59.5t163.5 30.5q74 0 143.5 -24.5t123 -75t85 -127t31.5 -181.5q0 -102 -37 -194t-104.5 -163t-164.5 -112t-216 -41q-111 0 -195 35t-141 98.5t-87 151.5t-30 195zM299 426q0 -55 16.5 -124t71.5 -120q66 -61 166 -61q70 0 127 29.5t96 77.5 t60.5 109.5t21.5 125.5q0 49 -15.5 94t-45 80t-73.5 55.5t-101 20.5q-61 0 -134 -28t-141 -99q-10 -10 -19.5 -21.5t-19.5 -21.5q0 -4 -2 -19.5t-4 -34t-3 -37t-1 -26.5z" />
<glyph unicode="7" d="M125 4l270 412l514 803h-181t-153.5 -2.5t-168 -4.5t-224.5 -4l-8 13l53 157l17 11h346h336l295 4l8 -19q-10 -16 -38 -61t-61.5 -97.5t-64.5 -101.5t-45 -72q-76 -119 -161 -257t-158.5 -262t-127 -215t-67.5 -115q-29 -47 -53.5 -93.5t-51.5 -93.5l-18 -12l-250 -4z " />
<glyph unicode="8" d="M43 352q0 74 23.5 143.5t64.5 122.5q33 41 69 68t69.5 42t63 23.5t52.5 12.5q-51 27 -83 60.5t-49 68.5t-23.5 68.5t-6.5 62.5q0 80 34 151.5t96.5 126t151.5 85t200 30.5q104 0 185 -25.5t134 -70.5t81 -104.5t28 -129.5q0 -47 -14.5 -103t-61.5 -112 q-53 -61 -114.5 -87.5t-96.5 -36.5q25 -14 47 -27.5t43 -30.5q43 -37 74.5 -103.5t31.5 -154.5q0 -121 -52 -211t-140 -153q-86 -63 -177 -81t-169 -18q-115 0 -201 30t-143.5 81t-87 121.5t-29.5 150.5zM262 360q0 -29 9.5 -68.5t37 -75.5t78.5 -61.5t133 -25.5 q47 0 96.5 13.5t91.5 47t71.5 90t35.5 142.5q6 80 -20.5 129t-66.5 74.5t-83 35t-70 9.5q-18 0 -44.5 -3t-57.5 -12.5t-61.5 -25t-57.5 -39.5q-31 -31 -49 -66t-27.5 -67.5t-12.5 -58t-3 -38.5zM440 1018q0 -57 21.5 -94t53.5 -59.5t70 -32t70 -9.5q113 0 182.5 70t75.5 174 q6 102 -58 152.5t-157 50.5q-70 0 -119 -23.5t-79.5 -59.5t-45 -81t-14.5 -88z" />
<glyph unicode="9" d="M23 80l49 160l18 4q16 -16 39 -35t53.5 -35t73.5 -27.5t102 -11.5q94 0 164 33t120 78t82 94t48 80q29 53 47.5 108.5t36.5 110.5q-35 -27 -68.5 -51.5t-70.5 -40.5q-47 -23 -100.5 -35t-102.5 -12q-78 0 -146.5 25.5t-120.5 76.5t-82 127t-30 176q0 96 34 187.5 t100.5 163t166 115.5t228.5 44q113 0 196.5 -34.5t139 -98t83 -154t27.5 -198.5q0 -78 -15.5 -179.5t-51 -208t-93 -209t-140.5 -183t-193.5 -131t-254.5 -50.5q-88 0 -174 21.5t-157 72.5zM346 922q0 -106 63.5 -178t172.5 -72q57 0 124.5 23.5t129.5 82.5q16 16 30.5 33 t28.5 33q4 33 7 63.5t3 63.5q0 80 -22.5 135t-58.5 91t-81 51.5t-90 15.5q-74 0 -131 -31t-96 -80t-59.5 -109.5t-20.5 -121.5z" />
<glyph unicode=":" horiz-adv-x="555" d="M51 8q8 33 14.5 56.5t11.5 45t10 47t11 64.5l19 15l227 6l12 -13l-47 -215l-18 -14l-228 -4zM240 829l49 211l16 15l232 6l10 -14l-47 -211l-19 -17l-231 -4z" />
<glyph unicode=";" horiz-adv-x="555" d="M-92 -279q55 127 88 203t53.5 127t34.5 88t33 84l18 13l234 8l8 -19q-33 -49 -60.5 -94t-56.5 -94q-10 -14 -38.5 -64.5t-60.5 -104.5t-57 -98l-26 -44l-19 -15l-141 -2zM264 827l47 211l19 17l229 6l12 -14l-49 -211l-18 -17l-230 -6z" />
<glyph unicode="&#x3c;" horiz-adv-x="1366" d="M25 635v176l1366 641v-178l-1162 -551l1162 -553v-176z" />
<glyph unicode="=" horiz-adv-x="1366" d="M-6 330v159h1366v-159h-1366zM-6 700v160h1366v-160h-1366z" />
<glyph unicode="&#x3e;" horiz-adv-x="1366" d="M25 -6v176l1161 553l-1161 551v178l1366 -641v-176z" />
<glyph unicode="?" horiz-adv-x="854" d="M115 10q10 37 16 62.5t11 48t9.5 45t10.5 55.5l18 15l230 6l10 -13l-49 -215l-19 -14l-225 -4zM168 1307l47 172l16 20q51 27 122 52.5t186 25.5q94 0 164.5 -26.5t117.5 -72.5t70.5 -106.5t23.5 -128.5q0 -61 -19 -117.5t-51 -107.5t-72 -98.5t-79 -90.5l-61 -67 q-59 -63 -104.5 -121.5t-71.5 -136.5q-4 -16 -8.5 -30.5t-8.5 -31.5l-18 -16l-176 -6l-13 16q8 39 20.5 79t35 85t60.5 96.5t97 114.5l41 43q33 37 68 79t64.5 88t49 95t19.5 98q0 45 -17.5 81t-46 60.5t-66.5 37t-81 12.5q-55 0 -99 -10.5t-78 -25.5t-61.5 -34.5 t-52.5 -38.5z" />
<glyph unicode="@" horiz-adv-x="1835" d="M135 479q0 190 70.5 367.5t195.5 313.5t298 217t380 81q139 0 252 -43t192 -119.5t122 -186.5t43 -241q0 -141 -40 -271t-106.5 -231.5t-151.5 -162t-176 -60.5q-51 0 -86 21q-31 14 -47 34.5t-24 42t-10.5 42t-2.5 34.5q-12 -16 -36.5 -44.5t-60.5 -57.5t-85 -49.5 t-110 -20.5q-49 0 -97.5 18.5t-86.5 58.5t-61.5 102.5t-23.5 152.5q0 113 35 217.5t94.5 185.5t138 130t164.5 49q90 0 145.5 -46t90.5 -126l31 127h139l-66 -307q-8 -33 -18 -81t-19.5 -98.5t-15.5 -96.5t-6 -73q0 -41 14.5 -66.5t49.5 -25.5q43 0 96 48t101 130t80 189.5 t32 228.5q0 129 -42 220.5t-113 149.5t-161 86t-186 28q-168 0 -316.5 -71t-259 -189.5t-175 -275.5t-64.5 -329q0 -170 60.5 -288.5t156.5 -192.5t215 -107.5t236 -33.5q106 0 202.5 23.5t182.5 63.5t161.5 95t139.5 117l67 -84q-29 -27 -70.5 -65t-109.5 -83 q-104 -70 -245.5 -125t-325.5 -55q-131 0 -270.5 40t-254 127t-188.5 226.5t-74 339.5zM645 485q0 -55 11.5 -89t23.5 -52q23 -31 55.5 -49.5t73.5 -18.5q57 0 110.5 37t93.5 97.5t63.5 139.5t25.5 163q0 53 -13.5 94t-38 67.5t-56 40t-64.5 13.5q-66 0 -118 -42t-89 -106.5 t-57.5 -143.5t-20.5 -151z" />
<glyph unicode="A" horiz-adv-x="1236" d="M-158 20q43 74 72 124.5t56.5 99.5t59 107.5t81.5 148.5l245 446l269 494l16 10l287 4l12 -10q12 -152 23.5 -270.5t20.5 -222t19.5 -201t21.5 -205t24.5 -236.5t31.5 -295l-12 -12l-219 -6l-12 14l-17 254l-14 178h-510l-80 -153q-23 -45 -37 -74t-28.5 -55.5t-30 -59 t-41.5 -84.5l-14 -12l-216 -4zM381 610q53 0 104.5 -1t104.5 -1t105.5 1t105.5 1l-33 377l-20 322z" />
<glyph unicode="B" horiz-adv-x="1280" d="M0 10l70 289l123 543q25 106 39 173.5t26 126t24.5 124t30.5 170.5l17 12l270 4q39 2 77 2h75q92 0 173 -8t146 -47q66 -39 100.5 -101.5t34.5 -148.5q0 -123 -62.5 -214t-156.5 -134q-29 -12 -55.5 -20.5t-54.5 -16.5q29 -4 54 -11.5t52 -19.5q35 -18 64.5 -48t50.5 -64 q35 -68 35 -152q0 -59 -12.5 -106.5t-29 -83t-36 -61t-33.5 -42.5q-41 -47 -89 -76.5t-95 -46t-89 -25t-69 -12.5q-35 -4 -67.5 -7t-79 -5t-112 -3t-167.5 -1h-98l-146 -2zM262 160h92h54q79 0 149 4q94 6 170 39q80 35 121 105.5t41 154.5q0 27 -6 53.5t-21.5 51t-40 44 t-63.5 31.5q-53 15 -121 19q-43 2 -102 3q-34 0 -72 -1l-90 -2l-60 -254zM410 825l61 -2q111 0 210 10.5t173 63.5q37 27 60.5 57.5t37 61.5t18.5 58.5t5 47.5q0 41 -22.5 88t-86.5 72q-43 16 -101 18q-26 1 -60 2q-40 0 -91 -2l-96 -2l-47 -202z" />
<glyph unicode="C" horiz-adv-x="1280" d="M94 592q0 88 19.5 188.5t62.5 198.5t108.5 188t159 159t213 110t269.5 41q86 0 150.5 -11.5t113.5 -29t85 -37t64 -35.5l7 -16l-56 -172l-18 -5q-16 14 -31.5 27.5t-32.5 24.5q-51 35 -126.5 53t-147.5 18q-135 0 -247 -59t-191.5 -157.5t-123.5 -224.5t-44 -257 q0 -109 33.5 -190.5t92 -139t136.5 -86t168 -28.5q111 0 202 37.5t166 97.5l15 -8l-60 -211l-12 -17q-39 -20 -126 -51t-226 -31q-160 0 -276.5 51.5t-193.5 137.5t-115 198.5t-38 235.5z" />
<glyph unicode="D" horiz-adv-x="1449" d="M0 8l88 369l90 399q10 51 21.5 102.5t21.5 102.5q18 88 30.5 143.5t22 100.5t18.5 92t21 119l15 10h139l141 2q68 2 140.5 2t145.5 -7t140.5 -25.5t122.5 -51.5q72 -43 116 -101.5t67.5 -122t30.5 -125t7 -110.5q0 -86 -18.5 -184t-56 -194.5t-95 -184.5t-135.5 -156 q-80 -70 -168 -108.5t-185 -56t-203.5 -20.5t-223.5 -3h-127l-156 -2zM272 174h86q88 0 165 4t143.5 19.5t126 46t116.5 84.5q68 61 113 138t72.5 155.5t39 154.5t11.5 135q0 141 -51.5 217t-129.5 110t-172 38q-62 3 -121 3q-29 0 -57 -1l-96 -2l-96 -424 q-31 -131 -51.5 -218t-36 -159t-29.5 -140.5t-33 -160.5z" />
<glyph unicode="E" horiz-adv-x="1067" d="M0 8l100 414l72 321q29 127 47.5 212t33.5 157t30.5 145.5t35.5 178.5l15 10h502l301 6l12 -12l-43 -152l-16 -14q-55 2 -110.5 2t-111.5 2q-78 2 -125 3t-81.5 1t-66.5 -1t-77 -1l-100 -444h287l272 4l8 -15l-41 -143l-18 -12l-242 2h-301l-43 -187l-68 -309h258l357 8 l10 -12l-49 -160l-14 -12h-426l-398 -6z" />
<glyph unicode="F" horiz-adv-x="980" d="M0 8l82 338l92 404q29 131 48.5 217t34.5 157.5t29.5 143t32.5 170.5l15 10h497l314 4l8 -10l-43 -154l-14 -12q-117 2 -194 4t-137 3q-30 0 -59 1q-30 0 -58 -1q-56 -1 -132 -1l-102 -471h108t101.5 1t123 3t171.5 6l10 -12q-8 -23 -14.5 -39t-10.5 -32.5t-9 -35 t-11 -45.5l-17 -10h-491l-53 -244l-82 -389l-13 -12l-217 -4z" />
<glyph unicode="G" horiz-adv-x="1409" d="M88 575q0 92 22.5 195.5t68.5 203t116 190.5t165 161t215 111t267 41q96 0 186 -21q88 -18 139.5 -44t100.5 -56l4 -19l-55 -174l-21 -6q-29 33 -58.5 57.5t-88.5 47.5q-93 34 -203 34h-6q-39 0 -78 -5t-78 -17q-92 -29 -174 -90.5t-141 -145.5q-41 -57 -69.5 -120.5 t-46 -126t-26 -120t-8.5 -100.5q0 -80 21.5 -152.5t60.5 -121.5q59 -78 146.5 -109.5t185.5 -31.5q78 0 125 11t90 28l27 102q16 74 26.5 124t18.5 91t14 83t17 99l12 13l223 4l8 -15q-23 -86 -43 -172t-43 -174q-16 -72 -31.5 -140.5t-31.5 -139.5l-12 -17q-16 -8 -34 -15 t-34 -13q-31 -12 -121 -34t-219 -22q-98 0 -191.5 17.5t-185.5 70.5q-74 43 -124 101.5t-79.5 126t-43 142.5t-13.5 148z" />
<glyph unicode="H" horiz-adv-x="1449" d="M0 10l59 248l101 434q31 135 51 226.5t37.5 168t33 156.5t37.5 193l15 12l219 4l10 -12l-92 -387l-41 -185q98 0 169 -1q36 0 71 -1q36 0 70 1q70 1 152.5 2t205.5 3l47 215l72 349l14 12l221 4l8 -12l-71 -310l-78 -333q-31 -131 -51.5 -222.5t-38 -172t-36 -170 t-42.5 -218.5l-15 -12l-221 -4l-8 10q27 113 44.5 185.5t33.5 140t34.5 149.5t47.5 213q-78 0 -154 1t-153 1h-86t-80 -1t-88 -2t-109 -3q-23 -98 -39 -170.5t-31.5 -144.5t-33 -157t-41.5 -208l-15 -12l-219 -4z" />
<glyph unicode="I" horiz-adv-x="555" d="M0 8l66 275l100 432q31 133 50.5 223t35.5 165t31.5 151.5t35.5 181.5l13 12l227 4l8 -12q-29 -113 -48 -195t-38.5 -165t-43 -183t-56.5 -250l-49 -225l-82 -410l-17 -10l-223 -4z" />
<glyph unicode="J" horiz-adv-x="724" d="M-141 43l39 168l14 6q25 -16 58.5 -31.5t88.5 -15.5q57 0 95.5 22.5t64 66.5t44 112.5t38.5 160.5l86 400l105 506l14 10l221 4l10 -10l-116 -490l-78 -360q-27 -125 -48.5 -211t-43 -146.5t-48 -100.5t-65.5 -71q-35 -29 -73 -45t-72.5 -23t-65.5 -9t-51 -2 q-72 0 -117 11t-86 28z" />
<glyph unicode="K" horiz-adv-x="1236" d="M2 10l129 543l49 219q27 125 45.5 207t32.5 150.5t27.5 138t31.5 168.5l15 12l217 4l10 -12l-156 -654l394 396q12 12 41.5 42.5t65.5 67.5t73 77t67 71l19 6h244l8 -10q-16 -14 -44 -40t-57.5 -53.5t-57.5 -53t-44 -42.5l-481 -463l233 -403l221 -358l-10 -19l-241 -6 l-15 10q-6 12 -12 23.5t-14.5 26t-20.5 38t-33 60.5q-4 6 -14 23.5t-20.5 37t-20.5 37.5t-14 27l-275 479l-82 -381l-73 -365l-15 -12l-213 -4z" />
<glyph unicode="L" horiz-adv-x="1024" d="M2 8l102 438l103 455l115 537l12 10l227 4l8 -12l-120 -496l-89 -381l-86 -389h141.5t121 1t138.5 3t193 6l11 -14l-48 -160l-14 -10h-526l-279 -2z" />
<glyph unicode="M" horiz-adv-x="1748" d="M-41 12l119 404l145 516l137 506l15 10l301 2l12 -12l23 -367l28 -399q6 -84 10.5 -138.5t6.5 -98.5t4 -89t4 -108l426 815l203 385l18 10l307 4l11 -14l-99 -508l-78 -420l-86 -494l-16 -14l-205 -4l-16 14l82 371l80 383l116 532l-467 -868l-225 -418l-16 -10l-203 -4 l-10 14l-21 297l-65 981l-84 -329l-135 -502l-115 -449l-12 -10l-185 -2z" />
<glyph unicode="N" horiz-adv-x="1449" d="M2 8l127 539l66 299q25 111 41 185.5t28 136t24.5 123t28.5 145.5l15 12l237 4l17 -10l106 -295l172 -479l148 -404l155 752l86 420l15 12l180 2l10 -10l-119 -510l-86 -381l-112 -535l-15 -12l-211 -4l-16 10l-94 258l-344 953l-172 -822l-78 -385l-12 -12l-187 -4z" />
<glyph unicode="O" horiz-adv-x="1536" d="M84 541q0 51 11 141t43 194.5t88.5 211t145.5 193.5t216 142.5t301 55.5q104 0 206.5 -30t183.5 -96.5t132 -174t51 -265.5q0 -150 -41 -297q-43 -166 -117.5 -287.5t-172 -201.5t-215 -119t-246.5 -39q-109 0 -213.5 30t-187.5 97.5t-134 176t-51 268.5zM322 535 q0 -61 8 -106.5t21.5 -80.5t29.5 -60.5t35 -43.5q29 -33 63.5 -52.5t70.5 -30.5t69.5 -15.5t62.5 -4.5q100 0 186 45t154 125t114.5 188.5t71.5 235.5q10 47 15.5 94.5t5.5 94.5q0 119 -36 193.5t-90 117.5t-115.5 59.5t-110.5 16.5q-109 0 -191 -42t-144.5 -109.5 t-104.5 -153.5t-67.5 -172t-36.5 -165t-11 -134z" />
<glyph unicode="P" horiz-adv-x="1150" d="M0 10l96 398l54 229q35 154 58 256t40.5 186t34 165t36.5 190l17 12l141 2l154 2h54q105 0 183 -6q98 -8 168 -53q74 -45 116 -123t42 -195q0 -84 -28.5 -169t-80.5 -148q-59 -74 -128.5 -115t-149.5 -60.5t-169 -24.5t-183 -7h-103l-59 -266l-53 -269l-15 -14l-213 -4z M391 717h51q86 0 176.5 7t163.5 42q55 27 91 64.5t57.5 78.5t30 81t8.5 71q0 72 -29 123t-92 80q-42 18 -100 22q-29 2 -69 2t-91 -2l-70 -2l-41 -178z" />
<glyph unicode="Q" horiz-adv-x="1536" d="M86 530q0 80 15.5 180.5t51 206t95 206t147.5 179t207 127t272 48.5q129 0 236 -36t183.5 -108.5t119.5 -179t43 -248.5q0 -63 -11 -142t-33.5 -162t-60.5 -167t-89 -155q-49 -68 -95.5 -113t-89.5 -74t-78.5 -45t-62.5 -29q72 -23 121 -37t96 -28t101.5 -28.5 t138.5 -37.5l4 -16l-137 -162l-19 -4q-82 39 -139.5 65.5t-118.5 54.5t-142 60.5t-206 85.5l-23 2q-29 4 -83 10.5t-119 30.5q-59 23 -116.5 63t-104 103.5t-75 149.5t-28.5 200zM322 526q0 -102 28.5 -176t76.5 -120t113.5 -67.5t139.5 -21.5q98 0 182 41t151.5 118 t116.5 186.5t78 248.5q10 45 15.5 91t5.5 94q0 111 -33 186.5t-85 120.5t-116.5 64.5t-128.5 19.5q-104 0 -217.5 -64.5t-199.5 -220.5q-31 -55 -54.5 -118.5t-40 -129t-24.5 -130t-8 -122.5z" />
<glyph unicode="R" horiz-adv-x="1236" d="M-2 10l108 455l64 278q29 125 48.5 212t34.5 161t28.5 147.5t31.5 172.5l15 12l334 4q117 0 200.5 -5t149.5 -28q57 -20 97 -55t64.5 -78t35 -91t10.5 -93q0 -55 -14.5 -104.5t-37 -92.5t-51.5 -76.5t-57 -56.5q-63 -51 -138 -74.5t-169 -44.5l196 -391l121 -242l-8 -14 l-230 -10l-14 10l-98 225l-191 394l-163 -4q-23 -94 -38.5 -162t-28.5 -131.5t-26.5 -136t-33.5 -177.5l-15 -14l-215 -2zM399 782l43 -2q63 0 130 2t129.5 13.5t119 36t99.5 71.5q37 41 54 91t17 98q0 78 -32.5 116.5t-88.5 59.5q-23 8 -46 13t-55 6t-75 1h-104l-72 -2 l-41 -170z" />
<glyph unicode="S" horiz-adv-x="1150" d="M12 111l49 180l21 4q16 -23 32.5 -41t51.5 -41q66 -45 136.5 -60.5t125.5 -15.5q70 0 131.5 18.5t107.5 52.5t71.5 84t25.5 114q0 68 -27.5 104.5t-44.5 52.5q-14 12 -25.5 21.5t-26.5 19.5t-41 23.5t-67 36.5l-65 36q-43 23 -80 44.5t-65 43.5q-57 47 -89 116t-32 145 q0 82 30.5 159.5t95 139t163 98.5t235.5 37q82 0 146.5 -12.5t112.5 -31t82 -38t54 -31.5l6 -16l-55 -170l-20 -4q-35 43 -80 69.5t-89 41t-84 19.5t-65 5q-74 0 -130 -20.5t-93 -54.5t-56.5 -76t-19.5 -87t15.5 -78.5t44 -61.5t71.5 -52.5t99 -53.5l59 -28q37 -20 85 -50 t90 -74t71.5 -105.5t29.5 -145.5q0 -76 -30.5 -158t-96 -149.5t-171 -111.5t-252.5 -44q-82 0 -162 14.5t-156 45.5q-43 16 -64.5 31.5t-48.5 37.5z" />
<glyph unicode="T" horiz-adv-x="1067" d="M137 1282l45 160l17 10l366 -4h316l346 4l10 -12l-45 -158l-14 -12l-224 8l-159 2l-90 -385l-101 -449l-90 -432l-16 -14l-217 -4l-11 12l80 328l94 399l123 541h-131l-289 -8z" />
<glyph unicode="U" horiz-adv-x="1409" d="M100 360q0 74 19.5 172.5t46.5 212.5l96 408l60 283l14 12l225 6l8 -12l-90 -363l-80 -336q-27 -115 -45 -203.5t-18 -154.5q0 -27 4 -58.5t18 -60.5q8 -18 25.5 -40.5t47.5 -41t72 -32t101 -13.5q76 0 144.5 25.5t119.5 79.5q35 37 60.5 86t47 114.5t43 153.5t48.5 203 l70 311l67 322l15 14l192 4l10 -12l-80 -334l-77 -340q-33 -139 -56.5 -235.5t-46 -165t-48.5 -117.5t-60 -92q-78 -92 -191.5 -139.5t-273.5 -47.5q-86 0 -148.5 11.5t-106.5 28t-73 37t-47 36.5q-14 12 -33.5 35.5t-37 58.5t-30 80t-12.5 104z" />
<glyph unicode="V" horiz-adv-x="1150" d="M168 1425l12 17l215 12l15 -14l71 -1245q41 84 82 165.5t82 165.5l254 500l201 414l16 6h199l10 -10q-39 -72 -63.5 -116t-45 -81t-41 -77t-51.5 -101l-364 -686l-187 -363l-16 -12l-252 -4l-12 12l-31 385l-53 631z" />
<glyph unicode="W" horiz-adv-x="1835" d="M174 1432l14 14l220 8l10 -10l-2 -369v-471l-8 -405l415 938l129 301l15 10h75.5h59t60.5 1t79 3l10 -12v-355v-464l-8 -431l367 836l172 412l18 10h197l10 -10l-188 -406l-267 -571q-29 -59 -55.5 -117.5t-52.5 -116.5q-25 -53 -48.5 -106t-45.5 -107l-21 -14 q-41 0 -71.5 1t-59.5 1t-62.5 -1t-80.5 -3l-11 14l3 346v879q-29 -74 -49.5 -123t-39 -92t-40 -89t-52.5 -114l-168 -373q-31 -70 -53 -118.5t-42.5 -95t-43 -96.5t-55.5 -124l-17 -12l-276 -2l-14 14v363l-15 706z" />
<glyph unicode="X" horiz-adv-x="1110" d="M-156 16l256 306l353 432l-115 319l-137 359l12 14h64.5t49 1t49 3t62.5 4l13 -10l165 -514q16 23 31 41t36.5 44.5t55 68.5t88.5 114q41 51 68 87t46.5 61.5t34.5 46t32 45.5l18 10h213l10 -16q-23 -25 -48 -54.5t-51 -61.5t-50.5 -61.5t-44.5 -54.5l-373 -452l98 -277 q29 -80 46.5 -127t34 -90t35.5 -95.5t54 -142.5l-10 -16l-231 -2l-13 12l-78 252l-98 297l-201 -256q-16 -20 -35.5 -45t-40 -51.5t-41 -52t-34.5 -45.5q-29 -37 -46.5 -61.5t-25.5 -37.5l-18 -10q-37 0 -62.5 1t-49 1t-49.5 -1t-64 -1z" />
<glyph unicode="Y" horiz-adv-x="1110" d="M168 1427l8 15l230 8l12 -10l43 -172t36.5 -142.5t40 -152.5t54.5 -199l235 334q57 84 117 170t109 160l14 8h209l8 -12q-57 -72 -113.5 -147t-111.5 -150l-410 -557l-59 -265l-62 -303l-14 -12l-217 -4l-10 12q25 98 48 193.5t46 191.5q10 49 22.5 98.5t22.5 100.5 l-137 450z" />
<glyph unicode="Z" horiz-adv-x="1067" d="M-154 14q31 39 52.5 65.5t45 57.5t54.5 71t82 107l739 967h-156.5t-134 -2t-145.5 -4t-190 -6l-13 14l49 156l15 12l301 -4h274l352 4l9 -20q-10 -14 -33 -43t-51.5 -66t-60 -79t-60.5 -79t-52.5 -67.5t-35.5 -44.5l-668 -881h381l303 8l12 -12l-47 -158l-14 -12l-340 2 h-350l-307 -6z" />
<glyph unicode="[" horiz-adv-x="641" d="M-72 -430l142 598l166 721q27 123 45 202.5t32.5 147.5t28.5 137.5t35 169.5l16 17l406 4l10 -13l-33 -118l-16 -11h-199q-27 -100 -45 -173.5t-34.5 -145.5t-36 -156t-46.5 -205l-80 -346q-41 -178 -64.5 -286.5t-38.5 -179t-25.5 -122t-22.5 -116.5h211l12 -12 l-26 -111l-15 -14h-166q-82 0 -134 -1t-111 -3z" />
<glyph unicode="\" horiz-adv-x="937" d="M201 1554l12 13h48.5h35.5t33.5 1t44.5 1l24 -21q6 -55 19.5 -134t29 -162t30 -161.5t24.5 -134.5l102 -559q6 -37 22.5 -124t37 -188t40 -200.5t35.5 -158.5l-10 -13h-44h-33.5t-35 -1t-49.5 -1l-24 19q-4 37 -13.5 102.5t-23.5 151.5t-31.5 184t-36.5 201l-90 483 q-25 127 -39 207t-28.5 148.5t-33 146.5t-46.5 200z" />
<glyph unicode="]" horiz-adv-x="641" d="M-229 -432l30 119l17 10h200q25 94 43.5 165.5t35 143.5t36 159t47.5 212l80 346q41 186 65.5 298t40 182.5t24.5 117.5t20 104h-211l-13 13l29 110l14 15h166q82 0 134.5 1t109.5 3l12 -17l-141 -598l-166 -719q-29 -121 -46 -202.5t-32.5 -150t-30 -138.5t-32.5 -166 l-17 -16l-405 -4z" />
<glyph unicode="^" horiz-adv-x="1492" d="M352 688l385 758h158l369 -758h-199l-254 533l-262 -533h-197z" />
<glyph unicode="_" horiz-adv-x="1024" d="M-23 -154h1070v-102h-1070v102z" />
<glyph unicode="`" horiz-adv-x="598" d="M152 1509l10 19h229l12 -10q4 -47 8.5 -81t8.5 -66t10 -69.5t16 -93.5l-10 -14l-131 -2l-16 12q-29 63 -45.5 103.5t-30.5 71t-27.5 59t-33.5 71.5z" />
<glyph unicode="a" d="M25 391q0 61 13 122.5t35.5 120t52.5 109t62 88.5q72 84 155 131.5t168 71t167 28.5t153 5l283 -2l10 -16l-92 -398q-27 -119 -44 -198.5t-30.5 -146t-25.5 -133.5t-27 -159l-14 -14l-193 -4l-10 14l14 82q-12 -10 -36.5 -28.5t-60.5 -35t-86 -28.5t-116 -12 q-78 0 -147.5 26.5t-120.5 78.5t-80.5 127t-29.5 171zM248 406q0 -37 11 -82t39 -83t74 -64.5t115 -26.5q41 0 89.5 11t89.5 36q16 10 33.5 24.5t33.5 28.5l148 661q-23 0 -46.5 1t-46.5 1q-25 0 -61.5 -2t-79.5 -10t-89 -25.5t-91 -48.5q-80 -55 -125 -126.5t-65.5 -136 t-24.5 -109.5t-4 -49z" />
<glyph unicode="b" d="M-20 10l108 463l84 375q29 117 54.5 231.5t47.5 229.5q10 49 17.5 83.5t12.5 64.5t9 58.5t9 63.5l16 14l223 39l10 -14l-57 -227l-94 -394q63 35 132 64t167 29q76 0 143.5 -26t118.5 -76t81 -123.5t30 -170.5q0 -39 -7.5 -93t-27 -115.5t-52 -126t-83.5 -123.5 q-70 -80 -147 -125t-162 -69t-177 -31t-190 -11h-113l-143 -2zM229 160l33 -2q39 0 86 1t97.5 10t102.5 26.5t101 52.5q57 39 99.5 91t70 108.5t40.5 112.5t13 106q0 70 -19 119t-53 79.5t-78 45t-93 14.5q-78 0 -136.5 -28t-107.5 -58z" />
<glyph unicode="c" horiz-adv-x="937" d="M37 434q0 106 36 222t111.5 211.5t190 157.5t272.5 62q68 0 117 -8t86 -20t61.5 -26.5t42.5 -26.5l4 -15l-51 -162l-20 -6q-16 23 -35 39q-31 29 -84 46.5t-113 17.5q-96 0 -169.5 -46t-123 -116t-75 -152t-25.5 -155q0 -84 25.5 -144.5t67.5 -98.5t93.5 -55.5 t100.5 -17.5q90 0 147.5 32t98.5 67l18 -9l-53 -184l-12 -14q-78 -39 -150 -48.5t-106 -9.5q-92 0 -175.5 32t-145.5 90.5t-98 143.5t-36 193z" />
<glyph unicode="d" d="M27 397q0 47 11 111.5t37.5 135.5t70.5 140.5t112 126.5q106 92 242.5 128t277.5 36q37 0 70 -1t76 -5l51 231q10 49 17 84t12.5 65t10.5 59.5t11 68.5l14 14l220 37l10 -12l-96 -391l-105 -447q-29 -125 -55.5 -250t-55.5 -252q-10 -47 -17 -79.5t-12 -60t-9.5 -55.5 t-10.5 -65l-16 -12l-191 -4l-10 12l17 80q-18 -14 -46 -32.5t-65 -35t-84 -27.5t-104 -11q-86 0 -156 30.5t-121 85t-78.5 130t-27.5 165.5zM252 418q0 -123 68.5 -194.5t181.5 -71.5q88 0 141 32.5t96 67.5l148 661q-29 2 -55.5 3.5t-55.5 1.5q-115 0 -198.5 -30t-142 -76 t-94.5 -103.5t-55.5 -112.5t-26.5 -103.5t-7 -74.5z" />
<glyph unicode="e" horiz-adv-x="1110" d="M43 424q0 111 34 228.5t104.5 214t180 158.5t261.5 62q78 0 154.5 -18t135.5 -68q63 -53 90 -125.5t27 -170.5q0 -53 -6 -95.5t-16 -91.5l-15 -10h-92t-143 1t-144.5 1h-97.5h-65.5t-58.5 -1t-61.5 -2t-70.5 -1q-6 -47 -6 -92q0 -139 82 -205t225 -66q61 0 110.5 11.5 t89.5 29t73.5 39t64.5 43.5l16 -10l-53 -186l-10 -13q-78 -45 -160 -63.5t-174 -18.5q-68 0 -135 13q-92 16 -156.5 57t-105.5 99.5t-59.5 130t-18.5 149.5zM287 653h538q4 23 7.5 47.5t3.5 49.5q0 37 -11.5 71.5t-37 62t-66.5 44t-103 16.5q-74 0 -133 -28.5t-112 -92.5 q-39 -49 -56.5 -91t-29.5 -79z" />
<glyph unicode="f" horiz-adv-x="598" d="M20 4q8 41 19.5 92t24 103.5t23.5 103.5t19 92l113 512h-30.5t-47 -1t-47 -1h-31.5l-12 13q6 25 11.5 39t8.5 27t7 28.5t10 42.5l16 14q25 -2 41.5 -3t32.5 -3h72l29 133q25 123 49 205t84 135q31 27 65.5 43t67.5 23.5t61.5 9.5t46.5 2q53 0 90 -6t58 -11l10 -16 q-6 -25 -11 -41t-9.5 -31.5t-7.5 -31t-9 -37.5l-16 -13q-16 6 -36 10.5t-48 4.5q-31 0 -60.5 -10.5t-50.5 -32.5q-25 -29 -40 -82t-38 -148l-22 -108h62.5h47t42 1t42.5 3l11 -16q-6 -23 -11.5 -38.5t-9.5 -29.5t-8 -28.5t-10 -34.5l-17 -17q-29 2 -47 3t-36.5 1t-41 1 t-55.5 1q-6 -25 -19.5 -89t-29.5 -137t-29.5 -138.5t-19.5 -91.5q-18 -90 -32.5 -160t-24 -122t-15.5 -90t-10 -67l-14 -12h-61.5t-47.5 -1t-45.5 -3t-52.5 -4z" />
<glyph unicode="g" d="M-82 -346l84 129h16q14 -16 40 -42t64 -48.5t91 -38.5t125 -16q96 0 156.5 34.5t96.5 86t54.5 108.5t28.5 100l26 107q-31 -18 -61.5 -36t-66 -30t-76.5 -20t-95 -8q-76 0 -143.5 24.5t-117.5 73.5t-79.5 122.5t-29.5 172.5q0 109 28.5 202t69.5 160q70 119 156 185.5 t180 98.5t190.5 38t186.5 8l286 4l9 -16q-25 -98 -42.5 -169t-34 -140.5t-34.5 -152.5t-45 -206l-59 -274q-37 -168 -71 -282t-101 -191q-76 -88 -183.5 -122t-220.5 -34q-82 0 -163 16.5t-142 46.5q-39 18 -65.5 40t-55.5 50zM254 403q0 -92 28.5 -145t66.5 -78.5t77 -33 t57 -7.5q45 0 92 13q59 16 91 36.5t67 49.5l152 667l-54 2q-55 0 -114.5 -4t-118.5 -19.5t-115.5 -47t-105.5 -91.5q-23 -29 -45.5 -66.5t-40 -82.5t-27.5 -94t-10 -99z" />
<glyph unicode="h" d="M-12 10l172 733q20 90 39.5 177.5t35 159t26.5 122.5t15 74q12 55 19.5 95t13.5 74t10.5 65.5t8.5 68.5l16 14l223 35l11 -14q-23 -88 -38.5 -153.5t-33 -135.5t-36.5 -152.5t-48 -203.5q33 20 68.5 41.5t78.5 39t93.5 29t109.5 11.5q39 0 89 -9.5t94 -38t75 -80 t31 -135.5q0 -49 -10.5 -106t-28.5 -143l-55 -254l-62 -310l-14 -12l-209 -6l-10 14l49 199l47 203q14 68 28.5 135t28.5 135q4 23 7.5 43t3.5 43q0 74 -43 114t-117 40q-35 0 -76 -11q-74 -18 -120 -44.5t-91 -59.5l-82 -367l-86 -426l-14 -12l-207 -4z" />
<glyph unicode="i" horiz-adv-x="512" d="M-18 8q20 86 35.5 147.5t29.5 119t28.5 122t35.5 156.5l26 127q14 61 22.5 103t15.5 79t13.5 76t14.5 94l14 15l223 32l11 -14q-18 -74 -31.5 -127t-27 -108.5t-29 -124t-37.5 -173.5l-43 -210l-60 -310l-14 -10l-217 -6zM274 1339l43 189l19 16l213 27l16 -15l-47 -188 l-16 -16l-215 -29z" />
<glyph unicode="j" horiz-adv-x="512" d="M-281 -473l13 131l12 16q63 6 104 26.5t69 66t49.5 124t47.5 201.5l101 467q18 82 30.5 139.5t22.5 106.5t19.5 101t21.5 126l14 12q35 4 59.5 7.5t47 7.5t49.5 9t65 13l13 -12l-84 -350l-84 -375q-20 -92 -39 -180t-39 -178q-10 -49 -22.5 -98.5t-28.5 -98.5 q-33 -90 -82 -142.5t-105.5 -81t-118 -37.5t-120.5 -13zM276 1337l46 191l16 16l217 27l12 -15l-47 -190l-14 -14l-215 -29z" />
<glyph unicode="k" horiz-adv-x="1024" d="M-12 8l123 527l65 280q23 100 44.5 199.5t43.5 197.5q14 70 24.5 121t17.5 91t13.5 76t12.5 79l14 12l223 37l13 -14l-64 -250l-172 -731q37 33 65.5 59.5t80.5 75.5q27 27 68.5 70t84.5 86t78 79.5t47 49.5l23 12h235l6 -18q-8 -6 -15 -12.5t-18.5 -16.5t-30 -25.5 t-48.5 -42.5q-25 -20 -44.5 -37.5t-48.5 -44.5l-266 -245l318 -605l-13 -16l-227 -6l-16 12q-20 47 -35 80t-29 64.5t-32.5 68.5t-45.5 92l-143 291q-23 -98 -37 -164.5t-27.5 -128t-26.5 -130t-32 -169.5l-14 -12l-207 -4z" />
<glyph unicode="l" horiz-adv-x="512" d="M0 6l94 424l103 477q35 164 70.5 341t54.5 331l14 14l225 39l10 -12l-120 -537l-80 -378q-29 -135 -47.5 -221.5t-33 -157t-26.5 -141t-31 -173.5l-16 -12l-209 -6z" />
<glyph unicode="m" horiz-adv-x="1792" d="M-10 10l86 363l43 194q18 86 29.5 141.5t20.5 102.5t17.5 98.5t20.5 124.5l14 15l215 34l13 -14l-27 -106q63 43 143 85t189 42q63 0 106 -16.5t70.5 -39t43 -49.5t21.5 -47q25 20 48.5 37.5t58.5 34.5q86 47 162.5 62t121.5 15q37 0 84.5 -9t89.5 -37.5t71.5 -81 t29.5 -138.5q0 -53 -11.5 -105t-23.5 -106l-35 -153l-90 -443l-14 -12l-203 -6l-12 14l90 367l37 155q4 25 11 58t13.5 66.5t11.5 65.5t5 54q0 53 -34 95t-122 42q-49 0 -90 -11t-75 -28.5t-60.5 -37t-46.5 -35.5q-4 -41 -6 -68.5t-7.5 -55.5t-11.5 -60.5t-18 -81.5 l-47 -218l-62 -303l-14 -12l-203 -4l-10 14l84 357l28 133q4 20 12.5 58t15.5 79t12.5 77t5.5 52q0 18 -5.5 44t-21.5 48.5t-46 37.5t-79 15q-18 0 -35.5 -3t-36.5 -7q-61 -16 -100 -41.5t-80 -56.5l-68 -305q-20 -92 -32.5 -152.5t-22.5 -111t-20.5 -100.5t-22.5 -122 l-14 -12l-207 -4z" />
<glyph unicode="n" d="M-12 8l84 352l32 154q20 90 34 151.5t24 115t19 110.5t22 141l14 15q37 4 61.5 8t47 7t47 8t61.5 13l10 -14l-28 -104q31 20 65.5 41.5t76.5 40t94.5 31t115.5 12.5q25 0 74 -7.5t96 -34t83 -80t36 -145.5q0 -41 -7.5 -92t-17.5 -105.5t-21.5 -107.5t-21.5 -96l-31 -139 l-51 -271l-16 -12l-209 -6l-8 14l86 367l51 231q8 35 14 72t6 74q0 92 -50 127.5t-122 35.5q-47 0 -87 -10t-73.5 -26.5t-61 -36t-50.5 -35.5q-29 -129 -49.5 -221t-37.5 -177t-35.5 -176.5t-43.5 -220.5l-14 -12l-209 -6z" />
<glyph unicode="o" horiz-adv-x="1150" d="M35 395q0 61 12 137t39 153t71 149.5t108.5 129t150.5 90t198 33.5q203 0 315.5 -107.5t112.5 -305.5q0 -53 -8 -108.5t-22 -108.5q-16 -66 -51 -150t-98.5 -157.5t-163 -124t-242.5 -50.5q-205 0 -313.5 104.5t-108.5 315.5zM252 362q0 -61 17.5 -105t46 -73.5t66.5 -43 t79 -13.5q82 0 140 38t97 96t63 127t38 132q10 45 17 89t7 87q0 78 -21.5 125t-54 74t-68.5 35t-65 8q-80 0 -138 -37t-98 -95t-64.5 -127t-39 -133.5t-18.5 -114.5t-4 -69z" />
<glyph unicode="p" d="M-131 -479l113 465l41 161q29 133 58.5 265.5t57.5 265.5q14 68 23.5 118t16.5 90t12.5 74.5t11.5 73.5l14 13l219 34l10 -14l-20 -84q59 37 127 68.5t166 31.5q74 0 140.5 -27.5t117.5 -79.5t80.5 -128t29.5 -174q0 -113 -36.5 -221.5t-100.5 -190.5 q-78 -98 -169 -152.5t-179 -79t-161.5 -28.5t-114.5 -4h-59.5t-59.5 2q-16 -70 -27.5 -119t-22 -98t-21.5 -109.5t-27 -152.5l-15 -10l-215 -3zM242 156q23 -2 42 -4t42 -2q131 0 231 44t169 115.5t103.5 160.5t34.5 179q0 74 -20.5 124t-54 81t-74.5 45t-84 14 q-49 0 -88 -12t-69 -28.5t-50.5 -34t-32.5 -27.5z" />
<glyph unicode="q" horiz-adv-x="1150" d="M31 383q0 57 13 124.5t40 136.5t66.5 132.5t95.5 114.5q63 61 131.5 95t140.5 50.5t148.5 21.5t160.5 9h103l186 2l10 -12q-27 -96 -44 -163t-32.5 -130.5t-32 -134t-38.5 -172.5l-82 -377q-25 -109 -40 -179.5t-27.5 -128t-22.5 -113.5t-25 -136l-16 -12l-211 -5l-10 13 q10 39 19 76.5t20 76.5q16 61 29.5 124t27.5 126q10 37 19.5 75t19.5 75q-47 -33 -92 -50.5t-84 -25.5t-67.5 -10t-43.5 -2q-84 0 -150.5 29.5t-113.5 83t-72.5 126t-25.5 160.5zM254 401q0 -121 60.5 -188.5t164.5 -67.5q43 0 86 13q59 14 90 34.5t62 45.5l151 669h-30 q-104 0 -202.5 -12t-184.5 -76q-53 -39 -90 -93t-61 -112.5t-35 -115t-11 -97.5z" />
<glyph unicode="r" horiz-adv-x="724" d="M-16 8l75 299l45 195q23 98 37.5 163.5t24.5 121t19.5 110.5t21.5 135l14 15q37 4 62.5 7t49 7t48.5 8t61 12l11 -14l-45 -180q12 23 24 42t29 38q51 63 108.5 94t104.5 31q25 0 46 -7.5t48 -17.5l6 -18l-80 -201l-20 -6q-23 12 -41.5 20t-44.5 8q-41 0 -77 -19.5 t-65 -49.5q-25 -27 -44 -63t-35.5 -83t-32 -108.5t-31.5 -136.5l-43 -203l-37 -193l-16 -14l-213 -4z" />
<glyph unicode="s" horiz-adv-x="894" d="M-61 90l47 148l16 6q25 -23 53.5 -45.5t63.5 -40t80 -28.5t104 -11q57 0 100 14t73 39t45.5 55.5t15.5 63.5q0 66 -45.5 99.5t-122.5 66.5l-52 24q-37 16 -77.5 39t-73.5 54.5t-54.5 75.5t-21.5 106q0 33 13.5 90t58.5 111.5t128 94.5t224 40q70 0 123 -9.5t93 -22.5 t65.5 -26.5t42.5 -21.5l8 -19l-45 -147l-19 -6q-35 45 -107.5 75.5t-150.5 30.5q-92 0 -154.5 -42t-62.5 -113q0 -35 15.5 -59.5t40 -43t53 -33t55.5 -26.5l107 -49q23 -10 53.5 -31t58 -51.5t47 -73.5t19.5 -98q0 -66 -25.5 -129.5t-79 -114.5t-136.5 -82t-198 -31 q-78 0 -137 11.5t-104 27t-77 32.5t-54 32z" />
<glyph unicode="t" horiz-adv-x="598" d="M39 920q8 25 12 39t8 27t7.5 27.5t9.5 39.5l14 12q49 -4 73.5 -4h65.5q12 45 19.5 76.5t13.5 58.5t11.5 55.5t13.5 67.5l14 12q37 8 61.5 14.5t47 11.5t45 11t57.5 16l12 -12q-6 -18 -10 -33.5t-8 -32t-9 -37t-14 -50.5l-39 -158q70 0 115 1t109 3l8 -12 q-8 -23 -13.5 -39.5t-9.5 -29.5t-8 -29.5t-10 -39.5l-17 -12q-33 0 -55 1t-43.5 1t-47.5 1t-62 1l-111 -463q-4 -23 -9 -46t-11 -46q-4 -23 -11.5 -57.5t-7.5 -54.5q0 -31 11.5 -49.5t26.5 -27.5t32.5 -12.5t29.5 -3.5q39 0 72 10.5t49 16.5l13 -10q-6 -18 -12.5 -38 t-12.5 -38l-18 -68l-17 -16q-18 -4 -55 -11t-92 -7q-29 0 -63 4t-64 16q-43 16 -66.5 42t-34 51.5t-12.5 49t-2 35.5q0 31 2 53.5t10.5 65.5t25.5 118t48 208l66 278h-42.5h-33t-31.5 -1t-41 -1z" />
<glyph unicode="u" d="M55 260q0 61 13.5 129t37.5 180l48 201q12 51 19 86t13.5 63.5t11.5 57.5t13 70l14 14l205 8l10 -12q-4 -18 -13 -56t-20.5 -86.5t-24.5 -100.5t-24.5 -97t-19.5 -78t-10 -43q-4 -18 -12.5 -54t-16.5 -77t-13 -80t-5 -63q0 -55 19 -89t47 -52.5t56.5 -23.5t47.5 -5 q51 0 93 12t76.5 30.5t61.5 39t47 36.5l78 348q18 88 30.5 145.5t21.5 101.5t16.5 85t17.5 97l16 14l207 10l8 -14l-118 -504l-50 -223l-61 -316l-14 -12l-201 -8l-10 14l24 101q-68 -59 -162 -94t-176 -35q-49 0 -102 13t-97 45t-73 86t-29 136z" />
<glyph unicode="v" horiz-adv-x="980" d="M82 1044l14 15q35 0 57.5 1t44 2t46 2t61.5 5l14 -12l21 -316l22 -252l29 -319l279 547q33 61 55.5 103t40.5 78t36.5 72t41.5 85l16 8l189 2l10 -14q-10 -18 -39 -67.5t-60.5 -105t-60.5 -105.5t-41 -71l-174 -309q-23 -39 -51.5 -92t-48.5 -90q-4 -6 -20.5 -39 t-37.5 -68q-23 -41 -51 -92l-16 -12l-240 -6l-16 12l-43 402l-27 241z" />
<glyph unicode="w" horiz-adv-x="1536" d="M80 1042l12 17l199 8l12 -12l4 -363l10 -499l277 581q25 51 41 87t29.5 64.5t27 58.5t29.5 69l16 10q43 0 73 -1t56.5 0t54 2t66.5 3l14 -14v-230l11 -641l241 512q27 57 47.5 99.5t37 81t35 79.5t42.5 101l17 10l174 2l10 -16q-33 -63 -52.5 -102.5t-40 -81.5t-49 -98 t-77.5 -155l-152 -309q-14 -29 -36.5 -77t-45.5 -95q-27 -53 -55 -115l-16 -14l-242 -6l-14 14l-7 215l-16 656l-268 -566q-25 -53 -41.5 -85.5t-29.5 -62.5t-29.5 -64.5t-43.5 -92.5l-14 -10l-237 -4l-15 12l-18 361l-17 336z" />
<glyph unicode="x" horiz-adv-x="937" d="M-154 12q20 23 47 52.5t53.5 59.5t53.5 59.5t47 52.5l272 311q-37 82 -61.5 139t-49 109.5t-51 110t-65.5 141.5l12 16l220 8l16 -10q20 -61 35.5 -103.5t30 -80t31 -76.5t40.5 -94l109 135q14 18 26.5 33.5t28.5 37t40 55t64 89.5l19 8l201 2l8 -16l-199 -230l-231 -272 q29 -68 51 -119t48 -107.5t59.5 -128t82.5 -178.5l-10 -14l-229 -8l-15 10l-61 174l-82 211l-151 -186q-18 -23 -40 -49.5t-42.5 -54t-38 -51t-29.5 -40.5l-16 -8l-213 -2z" />
<glyph unicode="y" horiz-adv-x="980" d="M-72 -483q88 135 140.5 217t84 132t50 79.5t37.5 62.5l-50 334l-53 354l-61 353l14 14q37 0 60.5 1t46 2t46 3t60.5 4l16 -10l33 -313l58 -474l198 353q2 4 15.5 28.5t34 61.5t46 83t50 92t47 88t37.5 73l16 10l201 2l8 -16q-31 -47 -55.5 -86t-61.5 -99.5t-94 -156 t-152 -254.5l-208 -346q-23 -41 -66 -117t-92 -162t-95 -171t-75 -142l-17 -15l-213 -2z" />
<glyph unicode="z" horiz-adv-x="894" d="M-127 18q63 78 125.5 156t124.5 158l317 399q25 33 41.5 52.5t29.5 37t27.5 37t36.5 49.5l-456 -4l-10 15l45 133l16 14q53 0 95 -1t79 -2t71 -1h70q111 0 218.5 1t218.5 3l8 -18l-90 -115q-4 -4 -35 -42t-76 -94.5t-98 -122t-103.5 -128t-90.5 -112.5t-58 -73 q-27 -35 -44.5 -56t-32.5 -40.5t-32.5 -45t-46.5 -64.5q102 0 168 1t117 2t99 3t118 4l12 -17l-43 -133l-18 -12q-82 0 -163 1t-163 1q-119 0 -235.5 -1t-233.5 -3z" />
<glyph unicode="{" horiz-adv-x="724" d="M121 510v102q37 10 66.5 26.5t54.5 72.5q16 39 20 89t4 142v197q0 63 3 113.5t10.5 90t22.5 71.5t40 61q27 31 55.5 47t66.5 25t88 12.5t124 7.5v-103q-41 -10 -89 -29.5t-81 -76.5q-23 -37 -28 -88t-7 -148v-94v-93t-2 -93q-2 -78 -16.5 -126t-37 -79t-54 -47.5 t-68.5 -28.5q37 -12 68.5 -28.5t54 -47t37 -80t16.5 -124.5q2 -47 2 -93.5v-93.5v-96q2 -96 7 -147.5t28 -88.5q33 -57 81 -76.5t89 -29.5v-102q-74 2 -124 6t-88 13t-66.5 25.5t-55.5 47.5q-25 27 -40 58.5t-22.5 71.5t-10.5 90t-3 116v198q0 92 -4 142.5t-20 89.5 q-25 55 -54.5 71.5t-66.5 26.5z" />
<glyph unicode="|" horiz-adv-x="468" d="M158 -512v2048h164v-2048h-164z" />
<glyph unicode="}" horiz-adv-x="724" d="M37 -344q41 10 89 29.5t81 76.5q23 37 28 88.5t7 147.5v94v93t2 94q2 76 15 125t36.5 79.5t55.5 47t69 28.5q-37 12 -69 28.5t-55.5 47.5t-36.5 79t-15 126q-2 47 -2 93v93v96q-2 96 -7.5 147.5t-27.5 88.5q-33 57 -81 76.5t-89 29.5v103q74 -4 124 -7.5t88 -12.5 t65.5 -25.5t56.5 -46.5q25 -29 40 -61t22 -71.5t10 -90t3 -113.5v-199q0 -92 4.5 -142t20.5 -89q25 -55 54.5 -71.5t66.5 -27.5v-102q-37 -10 -66.5 -26.5t-54.5 -71.5q-16 -39 -20.5 -89.5t-4.5 -142.5v-196q0 -66 -3 -116t-10 -90t-22.5 -72t-39.5 -58 q-29 -31 -56.5 -47.5t-65.5 -25.5t-88 -13t-124 -6v102z" />
<glyph unicode="~" horiz-adv-x="1492" d="M248 592q12 18 34.5 48t56.5 57.5t79 48t102 20.5q59 0 113.5 -20.5t114.5 -49.5l67 -30q41 -18 75 -30.5t68 -12.5q35 0 65 13t54.5 33.5t44 42t33.5 38.5l80 -146q-18 -20 -45 -48t-61.5 -53.5t-78.5 -44t-98 -18.5q-51 0 -96 17.5t-106 46.5l-62 31q-39 18 -81 33.5 t-83 15.5q-31 0 -53 -7.5t-43.5 -24.5t-44.5 -43t-53 -63z" />
<glyph unicode="&#xa1;" horiz-adv-x="555" d="M-80 10l100 359l64 241q41 158 61.5 240t24.5 104q10 39 17.5 78t17.5 78l14 14l154 4l8 -12l-47 -235l-58 -277q-18 -98 -31.5 -166.5t-23.5 -131t-22.5 -129t-26.5 -159.5l-16 -14l-226 -10zM219 1323l49 213l17 12l227 6l12 -12q-10 -35 -16 -59.5t-10 -47t-9.5 -47 t-11.5 -57.5l-20 -16l-226 -6z" />
<glyph unicode="&#xa2;" horiz-adv-x="1024" d="M33 406q0 117 42 239.5t123 222t199.5 164t272.5 64.5q29 0 48 -1t42 -5q8 20 15 34.5t13.5 27.5t14.5 31.5t20 49.5l15 10h57t53 2l6 -12q-14 -29 -23 -45.5t-16.5 -31.5t-17.5 -35.5t-27 -53.5q25 -10 40.5 -16.5t27.5 -13.5t25.5 -16t31.5 -24l4 -18q-10 -23 -16 -39 t-12 -33.5t-13.5 -37t-17.5 -50.5l-16 -4q-16 23 -48 49.5t-77 42.5l-357 -757q14 -4 35 -8.5t53 -4.5q51 0 95.5 11.5t80 28t63.5 34.5t46 33l16 -6q-10 -29 -17 -51.5t-13 -43t-12.5 -41t-14.5 -47.5l-12 -12q-66 -37 -134.5 -53.5t-144.5 -16.5q-41 0 -69.5 4.5 t-46.5 8.5q-14 -31 -22.5 -48.5t-14.5 -33t-14.5 -32.5t-20.5 -48l-16 -14h-63.5t-55.5 -3l-8 13q20 37 32.5 60.5t22.5 44t20.5 42t26.5 56.5q-23 10 -59.5 33.5t-72.5 68.5t-62.5 112.5t-26.5 168.5zM240 418q0 -55 11 -94t27.5 -65t33 -40t26.5 -22l346 731 q-14 2 -21.5 2h-17.5q-88 0 -161.5 -46t-128 -119t-85 -164t-30.5 -183z" />
<glyph unicode="&#xa3;" horiz-adv-x="1110" d="M-16 14q45 70 82.5 133.5t67.5 134t53.5 156.5t41.5 201l-151 -4l-8 12l34 121l15 8l133 -2q14 106 25.5 179t25.5 126.5t34.5 92t53.5 79.5q43 51 95.5 84t107.5 51.5t111.5 25.5t105.5 7q72 0 123 -8t89 -20.5t65.5 -27.5t52.5 -30l6 -16l-47 -150l-17 -4 q-20 14 -43.5 31.5t-54.5 31t-69.5 22.5t-90.5 9q-18 0 -46.5 -3t-62.5 -12t-70 -28.5t-66 -52.5q-29 -31 -47.5 -68.5t-31 -83.5t-20.5 -102.5t-18 -128.5q66 0 113 -1t94 0t105.5 2t148.5 5l10 -12l-41 -127l-16 -12q-53 2 -94.5 3t-87.5 1h-105.5h-151.5 q-23 -106 -37 -172t-30.5 -115t-39 -92t-59.5 -104h146.5t131 1t148.5 3t201 6l8 -14l-39 -140l-14 -12l-311 2h-244l-307 -4z" />
<glyph unicode="&#xa4;" horiz-adv-x="1366" d="M90 223l156 156q-12 18 -30.5 46t-35 66.5t-28 89t-11.5 115.5q0 63 11.5 113.5t28 89.5t33.5 67.5t32 47.5l-154 153l123 123l154 -153q18 14 46.5 31.5t67.5 34t90.5 27.5t114.5 11t112.5 -11t88.5 -26.5t66.5 -34t48.5 -32.5l155 153l123 -123l-154 -155 q14 -18 32 -46t33 -67t26.5 -89t11.5 -114q0 -66 -11.5 -116t-27.5 -88.5t-34.5 -66.5t-33.5 -48l158 -156l-125 -125l-156 158q-18 -12 -45.5 -30.5t-66.5 -34t-88 -26.5t-113 -11q-66 0 -117 11t-89 27.5t-66.5 34t-46.5 31.5l-156 -156zM305 696q0 -84 31 -154.5 t83 -121.5t121.5 -80t149.5 -29q78 0 146.5 29t120 81t81 121.5t29.5 153.5q0 86 -31.5 158t-84 122t-121 77.5t-144.5 27.5t-144.5 -27.5t-120.5 -77.5t-84 -121t-32 -159z" />
<glyph unicode="&#xa5;" horiz-adv-x="1067" d="M78 369q8 23 12 37t8 26t7.5 23.5t7.5 27.5l16 15h32.5t68.5 -1t83 -1h78q0 2 3 13t5 23.5t4.5 22.5t2.5 12l-31 99h-139.5t-81.5 -2l-11 16q8 23 13.5 38t9.5 26.5t7 23.5t7 29l17 14q25 -2 49 -2h86l-58 188q-16 49 -29.5 98.5t-29.5 96.5q-12 39 -19.5 65.5t-13.5 45 t-11 33t-11 32.5l8 12q35 0 61.5 1t51 2l49 2t57.5 4l10 -9q14 -59 22.5 -95t16.5 -67.5t17.5 -66.5t23.5 -90q8 -35 20.5 -76t23.5 -84t22.5 -85t21.5 -75l226 320q88 129 143 211t72 104l14 10q35 0 60.5 -1t47 -1t43 1t48.5 1l8 -12q-51 -66 -106.5 -140.5t-108.5 -146.5 l-205 -278h80h36t40 2l10 -12q-6 -18 -10.5 -30.5t-8.5 -26t-8 -29t-10 -37.5l-14 -12q-18 0 -33 1t-36.5 1h-57h-93.5l-81 -111l-15 -59h180q39 0 61.5 1t49.5 3l8 -13l-16 -56t-19 -66l-16 -13q-59 2 -139 2h-140l-12 -53q-10 -53 -17 -87t-13.5 -63.5t-13.5 -61.5 t-15 -77l-15 -12h-61.5h-46t-45 -1t-55.5 -3l-11 12q8 37 20.5 82t24 91t22.5 91t21 82q-135 0 -193.5 -1t-78.5 -1z" />
<glyph unicode="&#xa6;" horiz-adv-x="468" d="M158 389h164v-780h-164v780zM158 631v780h164v-780h-164z" />
<glyph unicode="&#xa7;" horiz-adv-x="1067" d="M-72 -190l49 165l19 5q20 -23 36.5 -37.5t49.5 -34.5q70 -39 128 -48.5t93 -9.5q129 0 192.5 58.5t63.5 132.5q0 33 -12 59.5t-37 52t-61.5 51t-86.5 58.5l-55 37q-41 25 -83 55.5t-77.5 69.5t-58 89t-22.5 116t30.5 132t85.5 113q47 41 101.5 65t101.5 40 q-35 41 -61.5 86t-26.5 117q0 49 20.5 108.5t70.5 111.5t134 88t209 36q68 0 119 -9.5t91 -23.5t69.5 -29.5t52.5 -29.5l6 -17l-51 -151l-14 -4q-25 31 -58 51t-68.5 34.5t-72.5 20.5t-70 6q-51 0 -92 -15.5t-69.5 -40t-44 -57t-15.5 -65.5t12.5 -58.5t36 -50t58 -49 t79.5 -55.5l56 -37q41 -27 79.5 -55.5t69.5 -65.5t50.5 -82t19.5 -106q0 -82 -35 -141.5t-83 -100.5t-100 -66.5t-89 -39.5q16 -18 34.5 -41t34 -50.5t25.5 -63.5t10 -79q0 -68 -28.5 -133t-87 -116.5t-146.5 -83t-207 -31.5q-76 0 -131 9t-98 24.5t-76 33t-61 35.5z M256 666q0 -61 41 -104.5t113 -90.5l67 -43q29 -18 42 -26.5t36 -22.5q33 10 65.5 22.5t63.5 34.5q35 25 66.5 66t31.5 94q0 37 -14 64.5t-35.5 51t-48.5 42t-51 34.5l-62 41l-75 54q-37 -10 -72 -22.5t-68 -35.5q-35 -23 -67.5 -63.5t-32.5 -95.5z" />
<glyph unicode="&#xa8;" horiz-adv-x="598" d="M-39 1233l45 199l14 12l201 6l10 -10l-45 -199l-16 -12l-199 -6zM375 1235l43 197l14 12l197 10l10 -12l-43 -199l-16 -14l-193 -6z" />
<glyph unicode="&#xa9;" horiz-adv-x="1705" d="M129 723q0 156 58.5 290t158.5 231t232.5 152.5t279.5 55.5q158 0 292 -58.5t231.5 -158.5t151.5 -233t54 -283q0 -152 -56 -284t-154.5 -230.5t-231.5 -154.5t-287 -56q-143 0 -274 53t-232.5 149.5t-162 230.5t-60.5 296zM195 723q0 -139 52 -261t142 -211t211 -140.5 t258 -51.5q141 0 262 52.5t210 141.5t140.5 209t51.5 257t-49.5 258t-137.5 212t-209.5 144t-263.5 53q-141 0 -263 -52t-212 -143t-141 -212t-51 -256zM389 723q0 102 36 191.5t100.5 155t153.5 103t195 37.5q86 0 151 -21.5t112 -52t76.5 -61.5t46.5 -49l-113 -108 q-16 18 -40 41.5t-57.5 45t-76.5 37t-99 15.5q-68 0 -127 -24.5t-103 -68.5t-69.5 -104.5t-25.5 -134.5t25.5 -134.5t70.5 -103.5t104.5 -67.5t127.5 -24.5q57 0 101 15.5t76.5 36t55.5 43t37 38.5l115 -100q-76 -92 -172.5 -139t-219.5 -47q-104 0 -192 35.5t-152.5 100 t-100.5 152.5t-36 193z" />
<glyph unicode="&#xaa;" horiz-adv-x="768" d="M125 1004q0 35 9 80.5t29.5 95t55.5 96.5t86 84q45 33 93 50t93.5 25.5t86 9.5t71.5 1l185 -2l12 -17l-60 -258q-10 -41 -22 -97t-24.5 -113.5t-21.5 -109.5t-13 -89l-15 -12h-37h-47t-45 -3l-12 15l6 35l-8 -7q-39 -20 -75 -34.5t-93 -14.5q-61 0 -108.5 20.5t-79 56.5 t-49 84t-17.5 104zM285 1016q0 -59 34.5 -107.5t110.5 -48.5q33 0 60.5 9.5t47 19.5t30.5 21l12 10l6 28q6 27 15 70t20.5 93t21.5 95t17.5 79t9.5 44h-4q-43 2 -88.5 0t-92.5 -18q-68 -25 -107.5 -69t-60 -90t-26.5 -84t-6 -52z" />
<glyph unicode="&#xab;" horiz-adv-x="854" d="M27 557l2 23q59 80 95 129t62.5 85.5t50 71.5t58.5 86l22 9h183l6 -17q-29 -37 -58.5 -75t-64.5 -83t-76 -99t-92 -122l127 -383l-10 -16h-166l-14 12zM369 563l4 19q68 92 137.5 185t130.5 183l21 11h186l4 -15q-74 -96 -147.5 -190t-145.5 -193q18 -61 31.5 -104 t28 -84t31 -85t38.5 -108l-14 -16h-166l-16 12q-12 41 -24.5 83t-27.5 83q-16 55 -34.5 109.5t-36.5 109.5z" />
<glyph unicode="&#xac;" horiz-adv-x="1366" d="M-16 518v162h1366v-680h-164v518h-1202z" />
<glyph unicode="&#xad;" horiz-adv-x="681" d="M8 504l49 153l19 15q70 -2 138.5 -3t137.5 -1h62.5t58.5 1t61.5 2t75.5 1l11 -13l-52 -159l-16 -13q-72 2 -144.5 3.5t-144.5 1.5q-74 0 -129 -1.5t-117 -3.5z" />
<glyph unicode="&#xae;" horiz-adv-x="1705" d="M129 721q0 158 58.5 292t157.5 231t231.5 152.5t279.5 55.5q160 0 294 -58.5t231.5 -158.5t151.5 -233t54 -283q0 -152 -57 -284t-155.5 -230.5t-231.5 -154.5t-287 -56q-141 0 -273 53t-232.5 149.5t-161 229.5t-60.5 295zM195 721q0 -139 52 -260t142 -210t211 -140.5 t258 -51.5q141 0 262 51.5t210 140.5t140.5 210t51.5 258t-49.5 258t-138.5 212t-211 144t-263 53t-262 -52t-211 -143t-141 -212t-51 -258zM549 268v920h299q72 0 122 -3t93 -20q74 -27 110.5 -87t36.5 -126q0 -88 -50 -142t-140 -77q29 -12 50.5 -26.5t36.5 -36t26.5 -52 t19.5 -77.5q8 -53 14.5 -90t13.5 -68t17 -57.5t27 -57.5h-189q-6 10 -17 39t-22 88q0 8 -3 27.5t-6 43t-7 43t-6 28.5q-8 49 -24.5 77.5t-42 43t-59.5 18.5t-79 4h-57v-412h-164zM715 811h135q25 0 58.5 2t64.5 13.5t52.5 38t21.5 75.5q0 25 -13.5 57.5t-52.5 51.5 q-12 4 -23.5 7t-29 4t-43 1h-66.5h-104v-250z" />
<glyph unicode="&#xaf;" horiz-adv-x="598" d="M8 1268q8 25 14.5 41t11.5 29.5t10 27.5t11 35l21 16q14 -2 25.5 -3t27.5 -1t43 -1t72 -1h137h71.5t50 1t40 2t39.5 3l8 -14q-14 -41 -25.5 -73t-23.5 -68l-19 -11h-33.5t-53 1t-58.5 1h-49h-129q-29 0 -76 1t-107 -3z" />
<glyph unicode="&#xb0;" horiz-adv-x="724" d="M109 1219q0 68 25.5 128t70.5 105t105.5 70.5t129.5 25.5q68 0 128.5 -25.5t105.5 -70.5t70.5 -105.5t25.5 -127.5q0 -70 -25.5 -130.5t-70.5 -105.5t-105.5 -70.5t-128.5 -25.5q-70 0 -130 25.5t-105 70.5t-70.5 105.5t-25.5 130.5zM276 1219q0 -68 48.5 -116t115.5 -48 q66 0 114 48t48 116q0 66 -48 113.5t-114 47.5q-68 0 -116 -47.5t-48 -113.5z" />
<glyph unicode="&#xb1;" horiz-adv-x="1366" d="M88 0v162h1198v-162h-1198zM88 772v162h520v496h164v-496h514v-162h-514v-496h-164v496h-520z" />
<glyph unicode="&#xb2;" horiz-adv-x="811" d="M8 506q6 6 23.5 21.5t38 33t39 32.5t26.5 21l135 117q41 37 84 75t82 75t72 69.5t55 61.5q31 41 41 71.5t10 51.5q0 20 -9 45.5t-28.5 46t-52 35t-80.5 14.5q-47 0 -83.5 -11.5t-65.5 -26.5t-51.5 -34.5t-38.5 -34.5l-19 9q6 27 11.5 44t8.5 31.5t7 29.5t10 40l8 12 q23 14 84.5 42t161.5 28q74 0 130.5 -21.5t93 -55.5t55 -79t18.5 -90q0 -57 -23.5 -108.5t-65.5 -101.5t-100.5 -102t-129.5 -112l-150 -127h98.5t98.5 2q10 0 35.5 1t55.5 2t56.5 2t36.5 1l10 -14q-6 -20 -11 -32.5t-8 -23.5t-6 -23.5t-9 -30.5l-15 -11q-14 0 -27.5 1 t-38 1h-65.5h-108h-148h-99h-67.5t-46 -1t-33.5 -1z" />
<glyph unicode="&#xb3;" horiz-adv-x="811" d="M51 557q10 33 16.5 57.5t14.5 53.5l16 2l23.5 -23.5t40 -30t59.5 -24.5t82 -10q63 0 110.5 20.5t78 51t46 68.5t15.5 75q0 66 -45 105.5t-113 39.5q-39 0 -64.5 -8t-41.5 -16l-15 18l11 14q35 41 71.5 80t73.5 80q35 39 67.5 78t67.5 80q-154 -2 -231.5 -3t-106.5 -3 l-12 14q10 29 15.5 47t15.5 53l12 13q25 -2 42 -3.5t31.5 -1.5h30h39.5h84.5h113.5t116.5 1t93.5 4l8 -21q-158 -166 -301 -338q25 -4 49.5 -10t46.5 -19q35 -18 68 -66t33 -130q0 -68 -25.5 -129.5t-76 -109.5t-123 -75.5t-166.5 -27.5q-72 0 -139.5 18.5t-125.5 59.5z" />
<glyph unicode="&#xb4;" horiz-adv-x="598" d="M74 1208q25 33 53.5 80t55 93t48 84t29.5 55l16 10q29 0 57.5 -1t57.5 -1q33 0 63.5 1t63.5 3l6 -16q-68 -72 -136.5 -149t-127.5 -148l-18 -19l-19 -10q-18 0 -33.5 1t-31 1h-34h-44.5z" />
<glyph unicode="&#xb6;" horiz-adv-x="1366" d="M274 1034q0 88 32 168t95 139q43 37 87 58.5t87 31t83 12.5t71 3h471v-111h-70v-1677h-118v1677h-297v-1677h-117v995q-37 6 -83 18.5t-99 53.5q-72 55 -107 137t-35 172z" />
<glyph unicode="&#xb7;" horiz-adv-x="468" d="M57 467q8 37 14.5 61.5t11.5 47t10 46t11 58.5l17 14l227 8l12 -16l-47 -211l-18 -14l-225 -6z" />
<glyph unicode="&#xb8;" horiz-adv-x="598" d="M111 -381q29 39 59.5 81t58 80t50 68.5t34.5 49.5l21 12l143 -2l8 -14q-23 -41 -42 -76t-36.5 -67t-35 -64.5t-37.5 -71.5l-19 -14h-196z" />
<glyph unicode="&#xb9;" horiz-adv-x="811" d="M299 494q10 43 27.5 111.5t46.5 199.5l33 141q10 41 18 81t18 81q18 80 25.5 112.5t11.5 49.5q-20 -2 -34.5 -3t-28 -3t-28.5 -5.5t-36 -5.5l-14 13q8 25 13 44t14 48l12 12q70 8 144.5 16.5t131.5 18.5l13 -12l-4 -17q-10 -39 -20.5 -81t-20 -83t-18.5 -77.5t-15 -63.5 l-45 -194q-16 -76 -30.5 -144.5t-25.5 -118.5q-2 -8 -6 -27.5t-8 -39.5q-6 -23 -10 -51l-12 -13h-76t-66 -2z" />
<glyph unicode="&#xba;" horiz-adv-x="768" d="M143 1004q0 61 17.5 140t61.5 148.5t118 117.5t184 48q61 0 112.5 -16.5t89.5 -50t59.5 -86t21.5 -121.5q0 -10 -3 -46t-14.5 -86.5t-36 -106.5t-66.5 -103t-105.5 -79t-155.5 -34q-12 0 -35.5 1t-52.5 7t-60.5 19.5t-58.5 40.5q-29 25 -43 54.5t-22.5 58t-9.5 53 t-1 41.5zM299 987q0 -70 34 -107.5t95 -37.5q74 0 118 52t67.5 117.5t29.5 122t6 66.5q0 8 -2 31.5t-14 49.5t-38 45.5t-73 19.5q-72 0 -116 -48.5t-67.5 -111t-31.5 -120.5t-8 -79z" />
<glyph unicode="&#xbb;" horiz-adv-x="854" d="M-61 180q47 59 80.5 103.5t58 77t45 59t39.5 51.5q14 20 24.5 32.5t16.5 22t12 17.5t16 20q-12 41 -21 71t-21.5 68.5t-32 94t-52.5 147.5l13 17h166l16 -13q12 -43 25.5 -86t27.5 -86q16 -53 33.5 -106.5t36.5 -106.5l-2 -20q-68 -88 -142.5 -188.5t-127.5 -178.5 l-21 -10h-186zM285 182q20 25 59 75t82 107.5t84 111.5t65 85l-126 383l10 17h166l14 -13l125 -379l-2 -22q-74 -102 -119 -163.5t-71.5 -99.5t-42 -60.5t-33.5 -49.5l-21 -8h-184z" />
<glyph unicode="&#xbc;" horiz-adv-x="1878" d="M299 494q10 41 26.5 110.5t47.5 200.5l33 141q10 41 17 80t17 80q18 82 26.5 114.5t12.5 49.5q-41 -4 -63.5 -7t-63.5 -12l-14 13q8 27 13 46t14 48l12 10q70 10 144.5 18.5t131.5 18.5l13 -14l-4 -17q-10 -37 -20.5 -79t-20 -83t-18.5 -77.5t-15 -63.5l-45 -197 q-16 -74 -30.5 -142t-25.5 -120q-2 -8 -6 -26.5t-8 -38.5q-6 -23 -10 -53l-12 -11q-49 0 -76 -1t-66 -3zM406 14q8 14 33.5 51t54 79t54 80t36.5 55q35 49 66.5 99t64.5 101l274 422q49 76 88 135.5t73 113.5t67.5 107.5t70.5 114.5l23 14h68.5t58.5 3l10 -15 q-16 -25 -58 -86t-92.5 -135t-100.5 -147.5t-83 -124.5l-244 -379q-41 -63 -74.5 -115.5t-65.5 -104t-66.5 -107.5t-77.5 -126l-21 -33l-20 -14q-37 -2 -65.5 -2t-65.5 -2zM1028 244l23 84l8 16q16 18 52 60t82 96.5t96 115t96.5 115.5t84 99t56.5 65l16 10h50.5h38t41 1 t57.5 1l10 -14q-6 -31 -15.5 -68t-18.5 -75.5t-17.5 -75.5t-14.5 -68q-8 -33 -16 -69.5t-16.5 -72.5t-15.5 -66.5t-13 -51.5h65.5t48.5 2l13 -16q-10 -29 -15.5 -43.5t-13.5 -46.5l-14 -13q-20 0 -31.5 1t-23 1t-22.5 -1t-32 -1q-8 -35 -14 -60.5t-11.5 -48t-10.5 -48 t-11 -62.5l-14 -12h-39t-26.5 -1t-27 -2t-36.5 -1l-13 14q8 33 15.5 57.5t12.5 47t11.5 49t16.5 67.5h-189h-41.5h-63.5h-64.5h-43.5zM1204 346h262l70 281q4 23 10 46t13 46l18 69q-14 -18 -25.5 -31.5t-21.5 -25.5t-22.5 -26.5t-28.5 -34.5z" />
<glyph unicode="&#xbd;" horiz-adv-x="1878" d="M299 494q10 43 27.5 111.5t46.5 199.5l33 141q10 41 18 81t18 81q18 80 25.5 112.5t11.5 49.5q-20 -2 -34.5 -4t-28 -4t-28.5 -4.5t-36 -6.5l-14 13q8 27 13 46t14 48l12 10q70 10 144.5 18.5t131.5 18.5l13 -14l-4 -17q-10 -37 -20.5 -79t-20 -83t-18.5 -77.5t-15 -63.5 l-45 -194q-16 -76 -30.5 -144.5t-25.5 -118.5q-2 -8 -6 -27.5t-8 -39.5q-6 -23 -10 -51l-12 -13h-76t-66 -2zM358 16q8 14 34 51t54.5 79t54 80t36.5 55q35 49 66.5 98t64.5 100l274 422q49 76 88 135.5t73 113.5t67.5 107.5t70.5 114.5l23 14h68.5t58.5 3l8 -15 q-16 -25 -58.5 -86t-91.5 -135t-99 -147.5t-83 -124.5l-244 -379q-41 -63 -74.5 -115.5t-65.5 -104t-66.5 -106.5t-77.5 -125l-23 -35l-18 -12q-37 -2 -66 -2t-65 -2zM965 25q6 6 23.5 21t38 32.5t38.5 33t27 21.5l135 117q41 37 84 74.5t82 74.5t71.5 70t55.5 61 q31 41 41 72t10 51t-9.5 46t-29 46.5t-52 35t-79.5 14.5t-84 -11.5t-65.5 -27t-51 -35t-39.5 -33.5l-18 8q6 27 11 44.5t8 31.5t7.5 29.5t10.5 40.5l8 12q23 14 84 42t162 28q74 0 130 -21.5t93 -55.5t55.5 -79t18.5 -90q0 -57 -24 -108.5t-66 -101.5t-100 -102.5 t-130 -111.5l-149 -127h98t98 2q10 0 36 1t55.5 2t56 2t36.5 1l11 -14q-6 -20 -11.5 -32.5t-8.5 -24t-6 -23.5t-9 -31l-14 -10q-51 2 -116 2h-124h-147h-100.5h-69t-45 -1t-31.5 -1z" />
<glyph unicode="&#xbe;" horiz-adv-x="1878" d="M51 557q10 33 16.5 57.5t14.5 53.5l16 2l23.5 -23.5t40 -30t59.5 -24.5t82 -10q63 0 110.5 20.5t78 51t46 68.5t15.5 75q0 66 -45 105.5t-113 39.5q-39 0 -64.5 -8t-41.5 -16l-15 18l11 14q35 41 71.5 80t73.5 80q35 39 67.5 78t67.5 80q-154 -2 -231.5 -3t-106.5 -3 l-12 14q10 29 15.5 47t15.5 53l12 13q25 -2 42 -3.5t31.5 -1.5h30h39.5h84.5h113.5t116.5 1t93.5 4l8 -21q-158 -166 -301 -338q25 -4 49.5 -10t46.5 -19q35 -18 68 -66t33 -130q0 -68 -25.5 -129.5t-76 -109.5t-123 -75.5t-166.5 -27.5q-72 0 -139.5 18.5t-125.5 59.5z M442 14q8 14 34 51t54.5 79t54 80t36.5 55q33 49 64.5 99t66.5 101l272 422q49 76 89 135.5t74 113.5t67.5 107.5t70.5 114.5l23 14h67.5t59.5 3l8 -15q-16 -25 -58.5 -86t-91.5 -135t-99 -147.5t-83 -124.5l-244 -379q-41 -63 -74.5 -115.5t-66.5 -104t-67.5 -107.5 t-77.5 -126l-21 -33l-18 -14q-37 -2 -66 -2t-67 -2zM1028 244l21 84l10 16q16 18 52 61.5t82 97.5t96 113.5t96.5 114.5t84 99t56.5 65l16 10h50.5h38t40 1t55.5 1l13 -12q-6 -31 -15.5 -69t-18.5 -76.5t-18.5 -75.5t-15.5 -68q-6 -33 -14 -69.5t-16.5 -71.5t-15.5 -66.5 t-13 -52.5h64.5t49.5 2l11 -16q-10 -29 -13.5 -43.5t-13.5 -46.5l-14 -13q-20 0 -32.5 1t-23 1t-22.5 -1t-33 -1q-8 -35 -13 -60.5t-10.5 -48t-10.5 -48t-11 -62.5l-14 -12h-40.5t-27.5 -1t-25.5 -2t-35.5 -1l-13 14q8 33 15.5 57.5t12.5 47t11.5 49t14.5 67.5h-187h-41.5 h-63.5h-65.5h-44.5zM1202 346h264l68 281l25 92l18 72q-16 -18 -26.5 -33t-20.5 -27t-22.5 -26.5t-28.5 -32.5z" />
<glyph unicode="&#xbf;" horiz-adv-x="854" d="M-27 305q0 63 20.5 120.5t53.5 110t72 98.5t76 87l61 67q49 53 94 108.5t74 127.5q8 23 13 43t12 41l18 16l176 4l12 -14q-12 -55 -27.5 -100t-40 -87t-59 -86t-86.5 -102l-41 -43q-37 -41 -73.5 -85t-64 -91t-45 -94t-17.5 -92q0 -47 17.5 -82t47 -58.5t68.5 -36 t80 -12.5q55 0 99 10.5t78 26t60.5 35t50.5 37.5l19 -10l-49 -174l-15 -19q-72 -41 -149.5 -59.5t-157.5 -18.5q-109 0 -181.5 32t-115.5 81t-61.5 107.5t-18.5 111.5zM467 1321l51 215l17 12l225 6l12 -14q-8 -35 -14 -57.5t-11.5 -45t-10.5 -47t-11 -61.5l-16 -14l-232 -6 z" />
<glyph unicode="&#xc0;" horiz-adv-x="1236" d="M-158 20q43 74 72 124.5t56.5 99.5t59 107.5t81.5 148.5l245 446l269 494l16 10l287 4l12 -10q12 -152 23.5 -270.5t20.5 -222t19.5 -201t21.5 -205t24.5 -236.5t31.5 -295l-12 -12l-219 -6l-12 14l-17 254l-14 178h-510l-80 -153q-23 -45 -37 -74t-28.5 -55.5t-30 -59 t-41.5 -84.5l-14 -12l-216 -4zM381 610q53 0 104.5 -1t104.5 -1t105.5 1t105.5 1l-33 377l-20 322zM582 1825l12 16h235l15 -12l57 -275l-12 -14l-135 -2l-15 8q-25 45 -42 78t-34.5 61.5t-36 61.5t-44.5 78z" />
<glyph unicode="&#xc1;" horiz-adv-x="1236" d="M-158 20q43 74 72 124.5t56.5 99.5t59 107.5t81.5 148.5l245 446l269 494l16 10l287 4l12 -10q12 -152 23.5 -270.5t20.5 -222t19.5 -201t21.5 -205t24.5 -236.5t31.5 -295l-12 -12l-219 -6l-12 14l-17 254l-14 178h-510l-80 -153q-23 -45 -37 -74t-28.5 -55.5t-30 -59 t-41.5 -84.5l-14 -12l-216 -4zM381 610q53 0 104.5 -1t104.5 -1t105.5 1t105.5 1l-33 377l-20 322zM709 1554q6 8 19 31t29.5 48.5t31 48t20.5 32.5q23 39 38 64.5t27 52.5l19 10h71.5h51t53.5 1t78 1l8 -16l-22.5 -22.5t-36 -35t-37 -36l-23.5 -23.5l-35.5 -35.5t-53 -54.5 t-49.5 -50l-21 -22l-23 -10q-23 0 -38 1t-29.5 1t-30 -1t-39.5 -1z" />
<glyph unicode="&#xc2;" horiz-adv-x="1236" d="M-158 20q43 74 72 124.5t56.5 99.5t59 107.5t81.5 148.5l245 446l269 494l16 10l287 4l12 -10q12 -152 23.5 -270.5t20.5 -222t19.5 -201t21.5 -205t24.5 -236.5t31.5 -295l-12 -12l-219 -6l-12 14l-17 254l-14 178h-510l-80 -153q-23 -45 -37 -74t-28.5 -55.5t-30 -59 t-41.5 -84.5l-14 -12l-216 -4zM381 610q53 0 104.5 -1t104.5 -1t105.5 1t105.5 1l-33 377l-20 322zM494 1554q55 66 87.5 106t55 67.5t40 51t40.5 54.5l20 10h279l14 -12l98 -277l-12 -12l-178 -6l-14 12l-70 191q-63 -72 -102 -115t-70 -78l-18 -8h-162z" />
<glyph unicode="&#xc3;" horiz-adv-x="1236" d="M-158 20q43 74 72 124.5t56.5 99.5t59 107.5t81.5 148.5l245 446l269 494l16 10l287 4l12 -10q12 -152 23.5 -270.5t20.5 -222t19.5 -201t21.5 -205t24.5 -236.5t31.5 -295l-12 -12l-219 -6l-12 14l-17 254l-14 178h-510l-80 -153q-23 -45 -37 -74t-28.5 -55.5t-30 -59 t-41.5 -84.5l-14 -12l-216 -4zM381 610q53 0 104.5 -1t104.5 -1t105.5 1t105.5 1l-33 377l-20 322zM485 1585l37 152l13 20q33 23 72.5 45.5t103.5 22.5q47 0 81.5 -14.5t71.5 -30.5l25 -15q29 -14 55.5 -24t54.5 -10q53 0 97.5 28.5t83.5 57.5l12 -7l-35 -153l-12 -19 q-31 -25 -74 -49t-110 -24q-47 0 -82 13t-76 34l-25 14q-29 14 -52.5 22.5t-51.5 8.5q-57 0 -101.5 -27.5t-72.5 -50.5z" />
<glyph unicode="&#xc4;" horiz-adv-x="1236" d="M-158 20q43 74 72 124.5t56.5 99.5t59 107.5t81.5 148.5l245 446l269 494l16 10l287 4l12 -10q12 -152 23.5 -270.5t20.5 -222t19.5 -201t21.5 -205t24.5 -236.5t31.5 -295l-12 -12l-219 -6l-12 14l-17 254l-14 178h-510l-80 -153q-23 -45 -37 -74t-28.5 -55.5t-30 -59 t-41.5 -84.5l-14 -12l-216 -4zM381 610q53 0 104.5 -1t104.5 -1t105.5 1t105.5 1l-33 377l-20 322zM446 1573l48 192l14 17l205 4l12 -12l-45 -197l-16 -12l-205 -4zM911 1571l43 194l15 15l207 6l12 -10l-45 -201l-17 -12l-206 -4z" />
<glyph unicode="&#xc5;" horiz-adv-x="1236" d="M-158 20q43 74 72 124.5t56.5 99.5t59 107.5t81.5 148.5l245 446l269 494l16 10l287 4l12 -10q12 -152 23.5 -270.5t20.5 -222t19.5 -201t21.5 -205t24.5 -236.5t31.5 -295l-12 -12l-219 -6l-12 14l-17 254l-14 178h-510l-80 -153q-23 -45 -37 -74t-28.5 -55.5t-30 -59 t-41.5 -84.5l-14 -12l-216 -4zM381 610q53 0 104.5 -1t104.5 -1t105.5 1t105.5 1l-33 377l-20 322zM596 1698q0 49 18.5 95t54.5 81t85 55.5t110 20.5q90 0 146.5 -47.5t58.5 -137.5q0 -45 -15.5 -90t-48 -82t-83 -59.5t-117.5 -22.5q-92 0 -150.5 47.5t-58.5 139.5z M735 1690q0 -47 22.5 -69t53.5 -22q29 0 49.5 13.5t32.5 32t18.5 36t10.5 27.5q10 35 10 66q0 41 -19.5 62.5t-52.5 21.5q-37 0 -61.5 -19.5t-37.5 -47.5t-19.5 -55.5t-6.5 -45.5z" />
<glyph unicode="&#xc6;" horiz-adv-x="1705" d="M-158 12q49 76 82 127t63.5 100.5t65.5 105.5t86 142l365 596q23 35 50.5 79t56 92.5t57 95.5t51.5 88l16 8h1043l10 -6l-43 -152l-14 -12q-88 2 -176.5 4t-176.5 2q-53 0 -107 -1t-120 -3l-102 -442h174l393 6l8 -13l-45 -149l-16 -12h-551l-51 -228l-58 -266h174 l449 12l10 -12l-49 -164l-12 -10h-514l-314 -4l-10 8l55 225l49 207l-415 -4l-99 -166q-10 -18 -29.5 -51t-41 -71t-42 -73.5t-32.5 -60.5l-16 -10l-216 -2zM424 604h356l154 680h-100z" />
<glyph unicode="&#xc7;" horiz-adv-x="1280" d="M94 594q0 88 19.5 187.5t62.5 197.5t108.5 188t158 159t212 110t269.5 41q111 0 217 -26t198 -87l7 -16q-10 -27 -15.5 -44.5t-11.5 -35t-12.5 -39t-16.5 -53.5l-18 -5q-66 63 -153 93t-179 30q-152 0 -265.5 -65.5t-191 -166.5t-116.5 -224t-39 -238q0 -111 33.5 -194.5 t92 -140t136.5 -85t166 -28.5q102 0 196.5 35.5t173.5 99.5l17 -8q-10 -29 -17.5 -57.5t-17.5 -57.5q-6 -25 -12 -48.5t-15 -47.5l-12 -17q-82 -43 -172 -62.5t-182 -19.5q-154 0 -269.5 49.5t-193.5 134.5t-118 198.5t-40 242.5zM385 -381q57 78 92 124t56.5 73.5t33 44 t23.5 35.5l20 12q37 0 69 -1t73 -1l10 -12q-33 -59 -77 -139.5t-77 -139.5l-18 -14q-35 0 -59.5 1t-45 1t-41 -1t-51.5 -1z" />
<glyph unicode="&#xc8;" horiz-adv-x="1067" d="M0 8l100 414l72 321q29 127 47.5 212t33.5 157t30.5 145.5t35.5 178.5l15 10h502l301 6l12 -12l-43 -152l-16 -14q-55 2 -110.5 2t-111.5 2q-78 2 -125 3t-81.5 1t-66.5 -1t-77 -1l-100 -444h287l272 4l8 -15l-41 -143l-18 -12l-242 2h-301l-43 -187l-68 -309h258l357 8 l10 -12l-49 -160l-14 -12h-426l-398 -6zM496 1825l12 16h235l15 -12l57 -275l-12 -14l-135 -2l-15 8q-25 45 -42 78t-34.5 61.5t-36 61.5t-44.5 78z" />
<glyph unicode="&#xc9;" horiz-adv-x="1067" d="M0 8l100 414l72 321q29 127 47.5 212t33.5 157t30.5 145.5t35.5 178.5l15 10h502l301 6l12 -12l-43 -152l-16 -14q-55 2 -110.5 2t-111.5 2q-78 2 -125 3t-81.5 1t-66.5 -1t-77 -1l-100 -444h287l272 4l8 -15l-41 -143l-18 -12l-242 2h-301l-43 -187l-68 -309h258l357 8 l10 -12l-49 -160l-14 -12h-426l-398 -6zM623 1554q6 8 19 31t29.5 48.5t31 48t20.5 32.5q23 39 38 64.5t27 52.5l19 10h71.5h51t53.5 1t78 1l8 -16l-22.5 -22.5t-36 -35t-37 -36l-23.5 -23.5l-35.5 -35.5t-53 -54.5t-49.5 -50l-21 -22l-23 -10q-23 0 -38 1t-29.5 1t-30 -1 t-39.5 -1z" />
<glyph unicode="&#xca;" horiz-adv-x="1067" d="M0 8l100 414l72 321q29 127 47.5 212t33.5 157t30.5 145.5t35.5 178.5l15 10h502l301 6l12 -12l-43 -152l-16 -14q-55 2 -110.5 2t-111.5 2q-78 2 -125 3t-81.5 1t-66.5 -1t-77 -1l-100 -444h287l272 4l8 -15l-41 -143l-18 -12l-242 2h-301l-43 -187l-68 -309h258l357 8 l10 -12l-49 -160l-14 -12h-426l-398 -6zM408 1554q55 66 87.5 106t55 67.5t40 51t40.5 54.5l20 10h279l14 -12l98 -277l-12 -12l-178 -6l-14 12l-70 191q-63 -72 -102 -115t-70 -78l-18 -8h-162z" />
<glyph unicode="&#xcb;" horiz-adv-x="1067" d="M0 8l100 414l72 321q29 127 47.5 212t33.5 157t30.5 145.5t35.5 178.5l15 10h502l301 6l12 -12l-43 -152l-16 -14q-55 2 -110.5 2t-111.5 2q-78 2 -125 3t-81.5 1t-66.5 -1t-77 -1l-100 -444h287l272 4l8 -15l-41 -143l-18 -12l-242 2h-301l-43 -187l-68 -309h258l357 8 l10 -12l-49 -160l-14 -12h-426l-398 -6zM379 1573l47 192l14 17l205 4l12 -12l-45 -197l-16 -12l-205 -4zM844 1571l43 194l14 15l207 6l12 -10l-45 -201l-16 -12l-207 -4z" />
<glyph unicode="&#xcc;" horiz-adv-x="555" d="M0 8l66 275l100 432q31 133 50.5 223t35.5 165t31.5 151.5t35.5 181.5l13 12l227 4l8 -12q-29 -113 -48 -195t-38.5 -165t-43 -183t-56.5 -250l-49 -225l-82 -410l-17 -10l-223 -4zM240 1825l12 16h235l15 -12l57 -275l-12 -14l-135 -2l-15 8q-25 45 -42 78t-34.5 61.5 t-36 61.5t-44.5 78z" />
<glyph unicode="&#xcd;" horiz-adv-x="555" d="M0 8l66 275l100 432q31 133 50.5 223t35.5 165t31.5 151.5t35.5 181.5l13 12l227 4l8 -12q-29 -113 -48 -195t-38.5 -165t-43 -183t-56.5 -250l-49 -225l-82 -410l-17 -10l-223 -4zM367 1554q6 8 19 31t29.5 48.5t31 48t20.5 32.5q23 39 38 64.5t27 52.5l19 10h71.5h51 t53.5 1t78 1l8 -16l-22.5 -22.5t-36 -35t-37 -36l-23.5 -23.5l-35.5 -35.5t-53 -54.5t-49.5 -50l-21 -22l-23 -10q-23 0 -38 1t-29.5 1t-30 -1t-39.5 -1z" />
<glyph unicode="&#xce;" horiz-adv-x="555" d="M0 8l66 275l100 432q31 133 50.5 223t35.5 165t31.5 151.5t35.5 181.5l13 12l227 4l8 -12q-29 -113 -48 -195t-38.5 -165t-43 -183t-56.5 -250l-49 -225l-82 -410l-17 -10l-223 -4zM152 1554q55 66 87.5 106t55 67.5t40 51t40.5 54.5l20 10h279l14 -12l98 -277l-12 -12 l-178 -6l-14 12l-70 191q-63 -72 -102 -115t-70 -78l-18 -8h-162z" />
<glyph unicode="&#xcf;" horiz-adv-x="555" d="M0 8l66 275l100 432q31 133 50.5 223t35.5 165t31.5 151.5t35.5 181.5l13 12l227 4l8 -12q-29 -113 -48 -195t-38.5 -165t-43 -183t-56.5 -250l-49 -225l-82 -410l-17 -10l-223 -4zM123 1573l47 192l14 17l205 4l12 -12l-45 -197l-16 -12l-205 -4zM588 1571l43 194l14 15 l207 6l12 -10l-45 -201l-16 -12l-207 -4z" />
<glyph unicode="&#xd0;" horiz-adv-x="1449" d="M0 8q45 184 86 369l76 325h-37h-29.5t-33 -1t-44.5 -1l-8 13q10 41 15.5 63.5t15.5 61.5l14 12q25 0 41.5 -1t30.5 -1h28.5h37.5l6 24q4 18 14 66.5t21.5 102t22.5 102.5t15 69q10 59 19.5 111.5t19.5 112.5l17 12q35 0 67.5 -1t71.5 -1h141q35 2 69 2h68q68 0 139.5 -5 t139.5 -22.5t129 -52.5t111 -92q63 -76 88.5 -172t25.5 -195q0 -78 -15 -166t-46 -176t-78 -172t-111 -153q-86 -92 -182 -141.5t-202.5 -72t-219 -26.5t-231.5 -4h-127h-156zM272 174l86 -2q78 0 149 3t135.5 16.5t124.5 40t120 73.5q63 53 111.5 126t81 154t49 166 t16.5 162q0 23 -4 70t-25.5 100.5t-70 101.5t-136.5 72q-53 16 -119.5 19.5t-175.5 1.5l-96 -2l-98 -426h33h95t114.5 1t99.5 2t51 1l8 -12q-6 -23 -10 -37t-7 -27.5t-7 -28t-9 -34.5l-16 -15q-49 2 -87 3.5t-77 1.5h-83h-103h-35l-4 -23q-4 -14 -12.5 -50t-17.5 -77 t-17 -79t-12 -52q-8 -37 -14.5 -67.5t-12.5 -58.5t-12 -57.5t-13 -66.5z" />
<glyph unicode="&#xd1;" horiz-adv-x="1449" d="M2 8l127 539l66 299q25 111 41 185.5t28 136t24.5 123t28.5 145.5l15 12l237 4l17 -10l106 -295l172 -479l148 -404l155 752l86 420l15 12l180 2l10 -10l-119 -510l-86 -381l-112 -535l-15 -12l-211 -4l-16 10l-94 258l-344 953l-172 -822l-78 -385l-12 -12l-187 -4z M592 1585l37 152l12 20q33 23 73 45.5t103 22.5q47 0 82 -14.5t72 -30.5l24 -15q29 -14 55.5 -24t55.5 -10q53 0 97 28.5t83 57.5l12 -7l-34 -153l-13 -19q-31 -25 -73.5 -49t-110.5 -24q-47 0 -82 13t-76 34l-24 14q-29 14 -52.5 22.5t-52.5 8.5q-57 0 -101 -27.5 t-73 -50.5z" />
<glyph unicode="&#xd2;" horiz-adv-x="1536" d="M84 541q0 51 11 141t43 194.5t88.5 211t145.5 193.5t216 142.5t301 55.5q104 0 206.5 -30t183.5 -96.5t132 -174t51 -265.5q0 -150 -41 -297q-43 -166 -117.5 -287.5t-172 -201.5t-215 -119t-246.5 -39q-109 0 -213.5 30t-187.5 97.5t-134 176t-51 268.5zM322 535 q0 -61 8 -106.5t21.5 -80.5t29.5 -60.5t35 -43.5q29 -33 63.5 -52.5t70.5 -30.5t69.5 -15.5t62.5 -4.5q100 0 186 45t154 125t114.5 188.5t71.5 235.5q10 47 15.5 94.5t5.5 94.5q0 119 -36 193.5t-90 117.5t-115.5 59.5t-110.5 16.5q-109 0 -191 -42t-144.5 -109.5 t-104.5 -153.5t-67.5 -172t-36.5 -165t-11 -134zM731 1825l12 16h236l14 -12l58 -275l-13 -14l-135 -2l-14 8q-25 45 -42.5 78t-34.5 61.5t-35.5 61.5t-45.5 78z" />
<glyph unicode="&#xd3;" horiz-adv-x="1536" d="M84 541q0 51 11 141t43 194.5t88.5 211t145.5 193.5t216 142.5t301 55.5q104 0 206.5 -30t183.5 -96.5t132 -174t51 -265.5q0 -150 -41 -297q-43 -166 -117.5 -287.5t-172 -201.5t-215 -119t-246.5 -39q-109 0 -213.5 30t-187.5 97.5t-134 176t-51 268.5zM322 535 q0 -61 8 -106.5t21.5 -80.5t29.5 -60.5t35 -43.5q29 -33 63.5 -52.5t70.5 -30.5t69.5 -15.5t62.5 -4.5q100 0 186 45t154 125t114.5 188.5t71.5 235.5q10 47 15.5 94.5t5.5 94.5q0 119 -36 193.5t-90 117.5t-115.5 59.5t-110.5 16.5q-109 0 -191 -42t-144.5 -109.5 t-104.5 -153.5t-67.5 -172t-36.5 -165t-11 -134zM858 1554q6 8 19.5 31t30 48.5t30.5 48t20 32.5q23 39 38.5 64.5t27.5 52.5l18 10h72h51.5t53 1t77.5 1l9 -16l-22.5 -22.5t-36 -35t-37 -36l-23.5 -23.5q-10 -10 -36 -35.5t-53.5 -54.5t-48.5 -50l-22 -22l-22 -10 q-23 0 -38.5 1t-29.5 1t-29.5 -1t-40.5 -1z" />
<glyph unicode="&#xd4;" horiz-adv-x="1536" d="M84 541q0 51 11 141t43 194.5t88.5 211t145.5 193.5t216 142.5t301 55.5q104 0 206.5 -30t183.5 -96.5t132 -174t51 -265.5q0 -150 -41 -297q-43 -166 -117.5 -287.5t-172 -201.5t-215 -119t-246.5 -39q-109 0 -213.5 30t-187.5 97.5t-134 176t-51 268.5zM322 535 q0 -61 8 -106.5t21.5 -80.5t29.5 -60.5t35 -43.5q29 -33 63.5 -52.5t70.5 -30.5t69.5 -15.5t62.5 -4.5q100 0 186 45t154 125t114.5 188.5t71.5 235.5q10 47 15.5 94.5t5.5 94.5q0 119 -36 193.5t-90 117.5t-115.5 59.5t-110.5 16.5q-109 0 -191 -42t-144.5 -109.5 t-104.5 -153.5t-67.5 -172t-36.5 -165t-11 -134zM643 1554q55 66 88 106t55.5 67.5t40 51t39.5 54.5l21 10h278l15 -12l98 -277l-12 -12l-179 -6l-14 12l-69 191q-63 -72 -102.5 -115t-70.5 -78l-18 -8h-162z" />
<glyph unicode="&#xd5;" horiz-adv-x="1536" d="M84 541q0 51 11 141t43 194.5t88.5 211t145.5 193.5t216 142.5t301 55.5q104 0 206.5 -30t183.5 -96.5t132 -174t51 -265.5q0 -150 -41 -297q-43 -166 -117.5 -287.5t-172 -201.5t-215 -119t-246.5 -39q-109 0 -213.5 30t-187.5 97.5t-134 176t-51 268.5zM322 535 q0 -61 8 -106.5t21.5 -80.5t29.5 -60.5t35 -43.5q29 -33 63.5 -52.5t70.5 -30.5t69.5 -15.5t62.5 -4.5q100 0 186 45t154 125t114.5 188.5t71.5 235.5q10 47 15.5 94.5t5.5 94.5q0 119 -36 193.5t-90 117.5t-115.5 59.5t-110.5 16.5q-109 0 -191 -42t-144.5 -109.5 t-104.5 -153.5t-67.5 -172t-36.5 -165t-11 -134zM635 1585l37 152l12 20q33 23 73 45.5t103 22.5q47 0 82 -14.5t72 -30.5l24 -15q29 -14 55.5 -24t55.5 -10q53 0 97 28.5t83 57.5l12 -7l-34 -153l-13 -19q-31 -25 -73.5 -49t-110.5 -24q-47 0 -82 13t-76 34l-24 14 q-29 14 -52.5 22.5t-52.5 8.5q-57 0 -101 -27.5t-73 -50.5z" />
<glyph unicode="&#xd6;" horiz-adv-x="1536" d="M84 541q0 51 11 141t43 194.5t88.5 211t145.5 193.5t216 142.5t301 55.5q104 0 206.5 -30t183.5 -96.5t132 -174t51 -265.5q0 -150 -41 -297q-43 -166 -117.5 -287.5t-172 -201.5t-215 -119t-246.5 -39q-109 0 -213.5 30t-187.5 97.5t-134 176t-51 268.5zM322 535 q0 -61 8 -106.5t21.5 -80.5t29.5 -60.5t35 -43.5q29 -33 63.5 -52.5t70.5 -30.5t69.5 -15.5t62.5 -4.5q100 0 186 45t154 125t114.5 188.5t71.5 235.5q10 47 15.5 94.5t5.5 94.5q0 119 -36 193.5t-90 117.5t-115.5 59.5t-110.5 16.5q-109 0 -191 -42t-144.5 -109.5 t-104.5 -153.5t-67.5 -172t-36.5 -165t-11 -134zM610 1573l47 192l15 17l205 4l12 -12l-45 -197l-17 -12l-204 -4zM1075 1571l43 194l15 15l206 6l13 -10l-45 -201l-17 -12l-207 -4z" />
<glyph unicode="&#xd7;" horiz-adv-x="1366" d="M162 186l411 412l-411 412l112 114l414 -411l410 411l114 -114l-409 -412l409 -412l-114 -112l-410 409l-414 -409z" />
<glyph unicode="&#xd8;" horiz-adv-x="1536" d="M-88 98l2 23q39 27 62.5 44t43 30.5t37 28t43.5 36.5l31 27q-8 23 -16.5 45t-14.5 51t-10 65.5t-4 86.5q0 74 14.5 173t50 203.5t94 206t146.5 181t208 129t278 49.5q18 0 51 -1t74.5 -7.5t89 -19.5t96.5 -36q61 -31 98 -66.5t60 -64.5l22 18l162 138h18l74 -84l-4 -19 q-27 -18 -45.5 -32.5t-37.5 -28.5t-43 -34.5t-62 -51.5l-19 -12q18 -49 34.5 -108.5t16.5 -154.5q0 -61 -11 -149t-40 -185.5t-77 -195.5t-122 -180q-72 -82 -150.5 -129t-154.5 -69.5t-140.5 -29t-109.5 -6.5q-111 0 -190.5 23.5t-135 56.5t-88 69t-50.5 58l-29 -24 l-162 -142h-20q-14 16 -22.5 26.5t-15.5 20t-14.5 18.5t-17.5 23zM324 547q0 -25 1 -49.5t3 -46.5l848 690q-8 14 -27 42.5t-53.5 56.5t-90 48.5t-137.5 20.5q-102 0 -181 -41t-140.5 -106.5t-103.5 -148.5t-68.5 -168t-38.5 -163t-12 -135zM362 322q14 -31 41 -64t65 -59.5 t88 -43t114 -16.5q72 0 128 17.5t96 42t66.5 49t40.5 39.5q57 63 100.5 142t71 165t41 172t13.5 164q0 27 -2 43t-6 43z" />
<glyph unicode="&#xd9;" horiz-adv-x="1409" d="M100 360q0 74 19.5 172.5t46.5 212.5l96 408l60 283l14 12l225 6l8 -12l-90 -363l-80 -336q-27 -115 -45 -203.5t-18 -154.5q0 -27 4 -58.5t18 -60.5q8 -18 25.5 -40.5t47.5 -41t72 -32t101 -13.5q76 0 144.5 25.5t119.5 79.5q35 37 60.5 86t47 114.5t43 153.5t48.5 203 l70 311l67 322l15 14l192 4l10 -12l-80 -334l-77 -340q-33 -139 -56.5 -235.5t-46 -165t-48.5 -117.5t-60 -92q-78 -92 -191.5 -139.5t-273.5 -47.5q-86 0 -148.5 11.5t-106.5 28t-73 37t-47 36.5q-14 12 -33.5 35.5t-37 58.5t-30 80t-12.5 104zM668 1825l12 16h235l15 -12 l57 -275l-12 -14l-135 -2l-15 8q-25 45 -42 78t-34.5 61.5t-36 61.5t-44.5 78z" />
<glyph unicode="&#xda;" horiz-adv-x="1409" d="M100 360q0 74 19.5 172.5t46.5 212.5l96 408l60 283l14 12l225 6l8 -12l-90 -363l-80 -336q-27 -115 -45 -203.5t-18 -154.5q0 -27 4 -58.5t18 -60.5q8 -18 25.5 -40.5t47.5 -41t72 -32t101 -13.5q76 0 144.5 25.5t119.5 79.5q35 37 60.5 86t47 114.5t43 153.5t48.5 203 l70 311l67 322l15 14l192 4l10 -12l-80 -334l-77 -340q-33 -139 -56.5 -235.5t-46 -165t-48.5 -117.5t-60 -92q-78 -92 -191.5 -139.5t-273.5 -47.5q-86 0 -148.5 11.5t-106.5 28t-73 37t-47 36.5q-14 12 -33.5 35.5t-37 58.5t-30 80t-12.5 104zM795 1554q6 8 19 31 t29.5 48.5t31 48t20.5 32.5q23 39 38 64.5t28 52.5l18 10h71.5h51t53.5 1t78 1l8 -16l-22.5 -22.5t-36 -35t-37 -36l-23.5 -23.5l-35.5 -35.5t-53 -54.5t-49.5 -50l-21 -22l-23 -10q-23 0 -38 1t-29.5 1t-30 -1t-39.5 -1z" />
<glyph unicode="&#xdb;" horiz-adv-x="1409" d="M100 360q0 74 19.5 172.5t46.5 212.5l96 408l60 283l14 12l225 6l8 -12l-90 -363l-80 -336q-27 -115 -45 -203.5t-18 -154.5q0 -27 4 -58.5t18 -60.5q8 -18 25.5 -40.5t47.5 -41t72 -32t101 -13.5q76 0 144.5 25.5t119.5 79.5q35 37 60.5 86t47 114.5t43 153.5t48.5 203 l70 311l67 322l15 14l192 4l10 -12l-80 -334l-77 -340q-33 -139 -56.5 -235.5t-46 -165t-48.5 -117.5t-60 -92q-78 -92 -191.5 -139.5t-273.5 -47.5q-86 0 -148.5 11.5t-106.5 28t-73 37t-47 36.5q-14 12 -33.5 35.5t-37 58.5t-30 80t-12.5 104zM580 1554q55 66 87.5 106 t55 67.5t40 51t40.5 54.5l20 10h279l14 -12l98 -277l-12 -12l-178 -6l-14 12l-70 191q-63 -72 -102 -115t-70 -78l-18 -8h-162z" />
<glyph unicode="&#xdc;" horiz-adv-x="1409" d="M100 360q0 74 19.5 172.5t46.5 212.5l96 408l60 283l14 12l225 6l8 -12l-90 -363l-80 -336q-27 -115 -45 -203.5t-18 -154.5q0 -27 4 -58.5t18 -60.5q8 -18 25.5 -40.5t47.5 -41t72 -32t101 -13.5q76 0 144.5 25.5t119.5 79.5q35 37 60.5 86t47 114.5t43 153.5t48.5 203 l70 311l67 322l15 14l192 4l10 -12l-80 -334l-77 -340q-33 -139 -56.5 -235.5t-46 -165t-48.5 -117.5t-60 -92q-78 -92 -191.5 -139.5t-273.5 -47.5q-86 0 -148.5 11.5t-106.5 28t-73 37t-47 36.5q-14 12 -33.5 35.5t-37 58.5t-30 80t-12.5 104zM561 1573l47 192l15 17 l204 4l13 -12l-45 -197l-17 -12l-205 -4zM1026 1571l43 194l14 15l207 6l13 -10l-46 -201l-16 -12l-207 -4z" />
<glyph unicode="&#xdd;" horiz-adv-x="1110" d="M168 1427l8 15l230 8l12 -10l43 -172t36.5 -142.5t40 -152.5t54.5 -199l235 334q57 84 117 170t109 160l14 8h209l8 -12q-57 -72 -113.5 -147t-111.5 -150l-410 -557l-59 -265l-62 -303l-14 -12l-217 -4l-10 12q25 98 48 193.5t46 191.5q10 49 22.5 98.5t22.5 100.5 l-137 450zM645 1554q6 8 19.5 31t30 48.5t30.5 48t20 32.5q23 39 38.5 64.5t27.5 52.5l18 10h72h51.5t53 1t77.5 1l9 -16l-22.5 -22.5t-36 -35t-37 -36l-23.5 -23.5q-10 -10 -36 -35.5t-53.5 -54.5t-49.5 -50l-21 -22l-22 -10q-23 0 -38.5 1t-29.5 1t-29.5 -1t-40.5 -1z" />
<glyph unicode="&#xde;" horiz-adv-x="1150" d="M0 10l4 17q8 31 13.5 54t11.5 50t15 61.5t22 90.5l98 434q27 115 48 211t39.5 182t35 166t30.5 160l15 12h58.5h49t50 1t65.5 3l8 -12q-2 -12 -9 -43t-16.5 -66t-17.5 -66.5t-10 -43.5l70 2q100 2 170.5 0t128.5 -19q80 -18 131 -57t80.5 -88t41 -103.5t11.5 -103.5 q0 -113 -42 -210t-112 -163q-59 -55 -126.5 -87t-142.5 -47t-155 -18t-162 -5h-96q-10 -41 -24.5 -117t-36.5 -191l-17 -12h-56h-47t-51.5 -1t-66.5 -3zM344 489h47q66 0 126.5 2.5t121.5 16.5q102 23 158.5 73t83 103t32 97t5.5 57q0 10 -2.5 30.5t-9.5 45t-23.5 51 t-44.5 49.5q-51 39 -123 44t-178 1h-66q-23 -102 -37 -162.5t-23.5 -102.5t-16.5 -73t-17 -74z" />
<glyph unicode="&#xdf;" d="M-12 6l102 447l96 450q16 78 35 155t37 154q16 63 37.5 126t62.5 118t93.5 88t106.5 51.5t103.5 23.5t86.5 5q115 0 188.5 -29.5t116.5 -73.5t59 -96.5t16 -95.5q0 -57 -18 -106t-47 -91t-63.5 -78t-67.5 -67l-51 -51q-39 -35 -61.5 -59.5t-22.5 -45.5q0 -23 24.5 -55.5 t44.5 -56.5l54 -70q2 -4 11 -15t18 -23.5t17.5 -24t12.5 -17.5q41 -57 59.5 -114.5t18.5 -110.5q0 -55 -22.5 -117.5t-75 -117t-136.5 -89t-209 -34.5q-37 0 -65.5 3t-52 9t-46 14t-49.5 19l-8 18l35 150l16 4q35 -27 70 -45.5t98 -18.5q55 0 96.5 18.5t70 48.5t43 64.5 t14.5 67.5q0 35 -12.5 68.5t-31 64.5t-39 57.5t-34.5 44.5l-88 109q-29 35 -46.5 61.5t-17.5 51.5q0 31 25.5 59.5t48.5 50.5l57 53q33 31 73 68t74 81t56.5 92t22.5 101q0 70 -49.5 122.5t-135.5 52.5q-88 0 -142 -41t-85 -105q-14 -29 -29.5 -80t-31 -116.5t-32 -141.5 t-32.5 -153l-98 -465l-72 -359l-14 -12l-205 -8z" />
<glyph unicode="&#xe0;" d="M25 391q0 61 13 122.5t35.5 120t52.5 109t62 88.5q72 84 155 131.5t168 71t167 28.5t153 5l283 -2l10 -16l-92 -398q-27 -119 -44 -198.5t-30.5 -146t-25.5 -133.5t-27 -159l-14 -14l-193 -4l-10 14l14 82q-12 -10 -36.5 -28.5t-60.5 -35t-86 -28.5t-116 -12 q-78 0 -147.5 26.5t-120.5 78.5t-80.5 127t-29.5 171zM248 406q0 -37 11 -82t39 -83t74 -64.5t115 -26.5q41 0 89.5 11t89.5 36q16 10 33.5 24.5t33.5 28.5l148 661q-23 0 -46.5 1t-46.5 1q-25 0 -61.5 -2t-79.5 -10t-89 -25.5t-91 -48.5q-80 -55 -125 -126.5t-65.5 -136 t-24.5 -109.5t-4 -49zM512 1509l10 19h230l12 -10q4 -47 8 -81t8 -66t10.5 -69.5t16.5 -93.5l-10 -14l-131 -2l-17 12q-29 63 -45 103.5t-30.5 71t-28 59t-33.5 71.5z" />
<glyph unicode="&#xe1;" d="M25 391q0 61 13 122.5t35.5 120t52.5 109t62 88.5q72 84 155 131.5t168 71t167 28.5t153 5l283 -2l10 -16l-92 -398q-27 -119 -44 -198.5t-30.5 -146t-25.5 -133.5t-27 -159l-14 -14l-193 -4l-10 14l14 82q-12 -10 -36.5 -28.5t-60.5 -35t-86 -28.5t-116 -12 q-78 0 -147.5 26.5t-120.5 78.5t-80.5 127t-29.5 171zM248 406q0 -37 11 -82t39 -83t74 -64.5t115 -26.5q41 0 89.5 11t89.5 36q16 10 33.5 24.5t33.5 28.5l148 661q-23 0 -46.5 1t-46.5 1q-25 0 -61.5 -2t-79.5 -10t-89 -25.5t-91 -48.5q-80 -55 -125 -126.5t-65.5 -136 t-24.5 -109.5t-4 -49zM578 1208q25 33 53 80t55 93t48.5 84t29.5 55l16 10q29 0 57.5 -1t57.5 -1q33 0 63.5 1t63.5 3l6 -16q-68 -72 -136.5 -149t-127.5 -148l-19 -19l-18 -10q-18 0 -33.5 1t-31 1h-34h-44.5z" />
<glyph unicode="&#xe2;" d="M25 391q0 61 13 122.5t35.5 120t52.5 109t62 88.5q72 84 155 131.5t168 71t167 28.5t153 5l283 -2l10 -16l-92 -398q-27 -119 -44 -198.5t-30.5 -146t-25.5 -133.5t-27 -159l-14 -14l-193 -4l-10 14l14 82q-12 -10 -36.5 -28.5t-60.5 -35t-86 -28.5t-116 -12 q-78 0 -147.5 26.5t-120.5 78.5t-80.5 127t-29.5 171zM248 406q0 -37 11 -82t39 -83t74 -64.5t115 -26.5q41 0 89.5 11t89.5 36q16 10 33.5 24.5t33.5 28.5l148 661q-23 0 -46.5 1t-46.5 1q-25 0 -61.5 -2t-79.5 -10t-89 -25.5t-91 -48.5q-80 -55 -125 -126.5t-65.5 -136 t-24.5 -109.5t-4 -49zM430 1206q63 82 100 132.5t60.5 82t37 51t29.5 44.5l21 12h244l14 -12l78 -310l-13 -12l-161 -4l-17 12l-47 219q-18 -25 -41.5 -55.5l-47 -61t-45 -59t-34.5 -47.5l-18 -6h-150z" />
<glyph unicode="&#xe3;" d="M25 391q0 61 13 122.5t35.5 120t52.5 109t62 88.5q72 84 155 131.5t168 71t167 28.5t153 5l283 -2l10 -16l-92 -398q-27 -119 -44 -198.5t-30.5 -146t-25.5 -133.5t-27 -159l-14 -14l-193 -4l-10 14l14 82q-12 -10 -36.5 -28.5t-60.5 -35t-86 -28.5t-116 -12 q-78 0 -147.5 26.5t-120.5 78.5t-80.5 127t-29.5 171zM248 406q0 -37 11 -82t39 -83t74 -64.5t115 -26.5q41 0 89.5 11t89.5 36q16 10 33.5 24.5t33.5 28.5l148 661q-23 0 -46.5 1t-46.5 1q-25 0 -61.5 -2t-79.5 -10t-89 -25.5t-91 -48.5q-80 -55 -125 -126.5t-65.5 -136 t-24.5 -109.5t-4 -49zM391 1229l37 151l12 23q35 23 76 43t107 20q47 0 78.5 -12t72.5 -35l27 -12q29 -16 52.5 -24.5t51.5 -8.5q29 0 56.5 10.5t51 23.5t42 27.5t28.5 24.5l15 -6l-37 -158l-10 -16q-33 -25 -78 -49.5t-115 -24.5q-41 0 -71.5 11.5t-69.5 31.5l-25 15 q-29 16 -54.5 27.5t-57.5 11.5q-47 0 -89 -25t-85 -55z" />
<glyph unicode="&#xe4;" d="M25 391q0 61 13 122.5t35.5 120t52.5 109t62 88.5q72 84 155 131.5t168 71t167 28.5t153 5l283 -2l10 -16l-92 -398q-27 -119 -44 -198.5t-30.5 -146t-25.5 -133.5t-27 -159l-14 -14l-193 -4l-10 14l14 82q-12 -10 -36.5 -28.5t-60.5 -35t-86 -28.5t-116 -12 q-78 0 -147.5 26.5t-120.5 78.5t-80.5 127t-29.5 171zM248 406q0 -37 11 -82t39 -83t74 -64.5t115 -26.5q41 0 89.5 11t89.5 36q16 10 33.5 24.5t33.5 28.5l148 661q-23 0 -46.5 1t-46.5 1q-25 0 -61.5 -2t-79.5 -10t-89 -25.5t-91 -48.5q-80 -55 -125 -126.5t-65.5 -136 t-24.5 -109.5t-4 -49zM424 1233l45 199l14 12l201 6l10 -10l-45 -199l-16 -12l-199 -6zM838 1235l43 197l14 12l197 10l10 -12l-43 -199l-17 -14l-192 -6z" />
<glyph unicode="&#xe5;" d="M25 391q0 61 13 122.5t35.5 120t52.5 109t62 88.5q72 84 155 131.5t168 71t167 28.5t153 5l283 -2l10 -16l-92 -398q-27 -119 -44 -198.5t-30.5 -146t-25.5 -133.5t-27 -159l-14 -14l-193 -4l-10 14l14 82q-12 -10 -36.5 -28.5t-60.5 -35t-86 -28.5t-116 -12 q-78 0 -147.5 26.5t-120.5 78.5t-80.5 127t-29.5 171zM248 406q0 -37 11 -82t39 -83t74 -64.5t115 -26.5q41 0 89.5 11t89.5 36q16 10 33.5 24.5t33.5 28.5l148 661q-23 0 -46.5 1t-46.5 1q-25 0 -61.5 -2t-79.5 -10t-89 -25.5t-91 -48.5q-80 -55 -125 -126.5t-65.5 -136 t-24.5 -109.5t-4 -49zM541 1356q0 51 19.5 96t54 80t84 55.5t110.5 20.5q92 0 147.5 -49.5t57.5 -135.5q0 -43 -15.5 -88t-47 -81.5t-82 -60.5t-119.5 -24q-92 0 -150.5 47.5t-58.5 139.5zM680 1348q0 -47 22.5 -69t53.5 -22q29 0 49 13.5t32.5 31t18.5 36t10 28.5 q10 35 11 66q0 43 -20.5 63.5t-51.5 20.5q-37 0 -61.5 -19.5t-38 -47.5t-19.5 -55.5t-6 -45.5z" />
<glyph unicode="&#xe6;" horiz-adv-x="1748" d="M-14 287q0 82 28.5 140t65.5 95q49 49 113.5 76t140.5 40t158.5 17t166.5 9h58q10 41 18 73.5t8 59.5q0 51 -26.5 78.5t-60 41t-67.5 15.5t-48 2q-61 0 -111.5 -10.5t-90.5 -26.5t-73 -36.5t-63 -39.5l-17 8l45 166l13 17q104 45 189 60t151 15t128 -12t117 -49 q33 -23 46.5 -42t23.5 -44q76 78 164 114t197 36q66 0 130 -11.5t121 -46.5q31 -18 58.5 -44.5t50 -66.5t36 -94.5t13.5 -124.5q0 -49 -6 -90t-16 -84l-19 -12q-111 2 -219.5 3t-218.5 1h-65.5h-64.5t-74 -1t-93 -1q-4 -29 -8 -52.5t-4 -49.5q0 -51 15 -101.5t51 -89.5 t92.5 -62.5t138.5 -23.5q78 0 136 13.5t101 33t73 42t50 38.5l18 -10l-53 -182l-14 -17q-39 -20 -121 -51t-213 -31q-102 0 -173 20.5t-117 48.5t-71.5 56.5t-37.5 46.5q-18 -18 -54 -47.5t-88.5 -57.5t-121 -47.5t-156.5 -19.5q-96 0 -163 27t-107.5 71t-60 100t-19.5 114z M193 303q0 -27 10 -55.5t33.5 -53t59.5 -40t85 -15.5q61 0 109.5 14.5t85 35t65.5 45t51 47.5q-6 33 -11 62.5t-5 59.5q0 29 4 60t8 59h-63q-49 -2 -100.5 -4t-99.5 -10t-90 -22.5t-73 -39.5q-27 -23 -48 -59.5t-21 -83.5zM920 657h550q4 23 6.5 43.5t2.5 42.5 q0 39 -11.5 76t-38 65.5t-70.5 46t-108 17.5q-59 0 -122.5 -24.5t-114.5 -85.5q-47 -53 -64.5 -96.5t-29.5 -84.5z" />
<glyph unicode="&#xe7;" horiz-adv-x="937" d="M39 440q0 98 35 212t108.5 210t189 160.5t277.5 64.5q63 0 148.5 -15t158.5 -66l5 -17q-10 -27 -16.5 -45t-11.5 -35.5t-10 -36t-14 -43.5l-20 -6q-25 37 -58.5 57.5t-67.5 31t-62.5 12.5t-41.5 2q-102 0 -176.5 -48.5t-123 -119t-72 -153.5t-23.5 -150q0 -143 81 -228.5 t206 -85.5q70 0 132 26t114 73l18 -9q-10 -33 -17 -55t-13.5 -41.5t-11.5 -40t-11 -47.5l-12 -14q-37 -18 -75 -29.5t-73 -17.5t-62.5 -8.5t-45.5 -2.5q-90 0 -172 30t-145.5 89.5t-100.5 145.5t-37 200zM172 -381q57 78 92 124t55.5 73.5t31.5 44t24 35.5l20 12q39 0 71 -1 t71 -1l10 -12q-33 -59 -77 -139.5t-75 -139.5l-18 -14q-37 0 -60.5 1t-44 1t-41 -1t-51.5 -1z" />
<glyph unicode="&#xe8;" horiz-adv-x="1110" d="M43 424q0 111 34 228.5t104.5 214t180 158.5t261.5 62q78 0 154.5 -18t135.5 -68q63 -53 90 -125.5t27 -170.5q0 -53 -6 -95.5t-16 -91.5l-15 -10h-92t-143 1t-144.5 1h-97.5h-65.5t-58.5 -1t-61.5 -2t-70.5 -1q-6 -47 -6 -92q0 -139 82 -205t225 -66q61 0 110.5 11.5 t89.5 29t73.5 39t64.5 43.5l16 -10l-53 -186l-10 -13q-78 -45 -160 -63.5t-174 -18.5q-68 0 -135 13q-92 16 -156.5 57t-105.5 99.5t-59.5 130t-18.5 149.5zM287 653h538q4 23 7.5 47.5t3.5 49.5q0 37 -11.5 71.5t-37 62t-66.5 44t-103 16.5q-74 0 -133 -28.5t-112 -92.5 q-39 -49 -56.5 -91t-29.5 -79zM467 1509l10 19h230l12 -10q4 -47 8 -81t8 -66t10.5 -69.5t16.5 -93.5l-10 -14l-131 -2l-17 12q-29 63 -45 103.5t-30.5 71t-28 59t-33.5 71.5z" />
<glyph unicode="&#xe9;" horiz-adv-x="1110" d="M43 424q0 111 34 228.5t104.5 214t180 158.5t261.5 62q78 0 154.5 -18t135.5 -68q63 -53 90 -125.5t27 -170.5q0 -53 -6 -95.5t-16 -91.5l-15 -10h-92t-143 1t-144.5 1h-97.5h-65.5t-58.5 -1t-61.5 -2t-70.5 -1q-6 -47 -6 -92q0 -139 82 -205t225 -66q61 0 110.5 11.5 t89.5 29t73.5 39t64.5 43.5l16 -10l-53 -186l-10 -13q-78 -45 -160 -63.5t-174 -18.5q-68 0 -135 13q-92 16 -156.5 57t-105.5 99.5t-59.5 130t-18.5 149.5zM287 653h538q4 23 7.5 47.5t3.5 49.5q0 37 -11.5 71.5t-37 62t-66.5 44t-103 16.5q-74 0 -133 -28.5t-112 -92.5 q-39 -49 -56.5 -91t-29.5 -79zM532 1208q25 33 53.5 80t55.5 93t48.5 84t29.5 55l16 10q29 0 57.5 -1t57.5 -1q33 0 63.5 1t63.5 3l6 -16q-68 -72 -136.5 -149t-127.5 -148l-19 -19l-18 -10q-18 0 -33.5 1t-31 1h-34h-44.5z" />
<glyph unicode="&#xea;" horiz-adv-x="1110" d="M43 424q0 111 34 228.5t104.5 214t180 158.5t261.5 62q78 0 154.5 -18t135.5 -68q63 -53 90 -125.5t27 -170.5q0 -53 -6 -95.5t-16 -91.5l-15 -10h-92t-143 1t-144.5 1h-97.5h-65.5t-58.5 -1t-61.5 -2t-70.5 -1q-6 -47 -6 -92q0 -139 82 -205t225 -66q61 0 110.5 11.5 t89.5 29t73.5 39t64.5 43.5l16 -10l-53 -186l-10 -13q-78 -45 -160 -63.5t-174 -18.5q-68 0 -135 13q-92 16 -156.5 57t-105.5 99.5t-59.5 130t-18.5 149.5zM287 653h538q4 23 7.5 47.5t3.5 49.5q0 37 -11.5 71.5t-37 62t-66.5 44t-103 16.5q-74 0 -133 -28.5t-112 -92.5 q-39 -49 -56.5 -91t-29.5 -79zM385 1206q63 82 100 132.5t60.5 82t37 51t29.5 44.5l21 12h244l14 -12l78 -310l-13 -12l-161 -4l-17 12l-47 219q-18 -25 -41.5 -55.5t-47.5 -61t-45.5 -59t-33.5 -47.5l-18 -6h-150z" />
<glyph unicode="&#xeb;" horiz-adv-x="1110" d="M43 424q0 111 34 228.5t104.5 214t180 158.5t261.5 62q78 0 154.5 -18t135.5 -68q63 -53 90 -125.5t27 -170.5q0 -53 -6 -95.5t-16 -91.5l-15 -10h-92t-143 1t-144.5 1h-97.5h-65.5t-58.5 -1t-61.5 -2t-70.5 -1q-6 -47 -6 -92q0 -139 82 -205t225 -66q61 0 110.5 11.5 t89.5 29t73.5 39t64.5 43.5l16 -10l-53 -186l-10 -13q-78 -45 -160 -63.5t-174 -18.5q-68 0 -135 13q-92 16 -156.5 57t-105.5 99.5t-59.5 130t-18.5 149.5zM287 653h538q4 23 7.5 47.5t3.5 49.5q0 37 -11.5 71.5t-37 62t-66.5 44t-103 16.5q-74 0 -133 -28.5t-112 -92.5 q-39 -49 -56.5 -91t-29.5 -79zM367 1233l45 199l14 12l201 6l10 -10l-45 -199l-17 -12l-198 -6zM780 1235l43 197l15 12l196 10l10 -12l-43 -199l-16 -14l-192 -6z" />
<glyph unicode="&#xec;" horiz-adv-x="512" d="M-18 8q20 80 35.5 140.5t28.5 120t28.5 126t36.5 158.5l26 127q14 61 22.5 103t15.5 79t13.5 76t14.5 94l14 15l223 32l11 -14q-18 -74 -31.5 -127t-27 -108.5t-29 -124t-37.5 -173.5l-43 -210l-60 -310l-14 -10l-217 -6zM168 1509l10 19h230l12 -10q4 -47 8 -81t8 -66 t10.5 -69.5t16.5 -93.5l-10 -14l-131 -2l-17 12q-29 63 -45 103.5t-30.5 71t-28 59t-33.5 71.5z" />
<glyph unicode="&#xed;" horiz-adv-x="512" d="M-18 8q20 80 35.5 140.5t28.5 120t28.5 126t36.5 158.5l26 127q14 61 22.5 103t15.5 79t13.5 76t14.5 94l14 15l223 32l11 -14q-18 -74 -31.5 -127t-27 -108.5t-29 -124t-37.5 -173.5l-43 -210l-60 -310l-14 -10l-217 -6zM233 1208q25 33 53.5 80t55.5 93t48.5 84 t29.5 55l16 10q29 0 57.5 -1t57.5 -1q33 0 63.5 1t63.5 3l6 -16q-68 -72 -136.5 -149t-127.5 -148l-19 -19l-18 -10q-18 0 -33.5 1t-31 1h-34h-44.5z" />
<glyph unicode="&#xee;" horiz-adv-x="512" d="M-18 8q20 80 35.5 140.5t28.5 120t28.5 126t36.5 158.5l26 127q14 61 22.5 103t15.5 79t13.5 76t14.5 94l14 15l223 32l11 -14q-18 -74 -31.5 -127t-27 -108.5t-29 -124t-37.5 -173.5l-43 -210l-60 -310l-14 -10l-217 -6zM86 1206q63 82 100 132.5t60.5 82t37 51 t29.5 44.5l21 12h244l14 -12l78 -310l-13 -12l-161 -4l-17 12l-47 219q-18 -25 -41.5 -55.5t-47.5 -61t-45.5 -59t-33.5 -47.5l-18 -6h-150z" />
<glyph unicode="&#xef;" horiz-adv-x="512" d="M-18 8q20 80 35.5 140.5t28.5 120t28.5 126t36.5 158.5l26 127q14 61 22.5 103t15.5 79t13.5 76t14.5 94l14 15l223 32l11 -14q-18 -74 -31.5 -127t-27 -108.5t-29 -124t-37.5 -173.5l-43 -210l-60 -310l-14 -10l-217 -6zM68 1233l45 199l14 12l201 6l10 -10l-45 -199 l-17 -12l-198 -6zM481 1235l43 197l15 12l196 10l10 -12l-43 -199l-16 -14l-192 -6z" />
<glyph unicode="&#xf0;" horiz-adv-x="1110" d="M8 387q0 104 31 227t99.5 227.5t180 175t271.5 70.5q55 0 94 -8t64.5 -19t40 -22.5t22.5 -19.5q-6 55 -19.5 109.5t-46.5 132.5q-37 -6 -89 -15.5t-105 -21t-102.5 -21.5t-81.5 -20l-17 6q-8 23 -13 37t-9 26.5t-10.5 26.5t-14.5 39l10 14q37 6 67 10.5t59.5 9.5t62.5 11 t73 14l99 19q-25 39 -46.5 66.5t-41 48t-40 36t-42.5 29.5l8 20q23 4 46.5 7.5t45.5 9.5q16 4 31.5 8t32.5 8l22 -4q66 -53 101.5 -96t72.5 -96l33 6q29 4 46.5 7t30.5 6t23.5 7t24.5 8l25 -10q6 -23 10 -37t9 -26.5t10 -25.5t14 -32l-11 -16q-14 -2 -25.5 -4t-25.5 -4 t-35.5 -6.5t-56.5 -10.5q16 -39 34.5 -85t34 -103t25.5 -127t10 -156q0 -162 -34.5 -312.5t-94.5 -254.5q-59 -102 -129.5 -158.5t-140.5 -83t-128 -32t-89 -5.5q-57 0 -127 12.5t-135 59.5q-55 39 -86 87t-46.5 95.5t-18.5 89t-3 66.5zM236 356q0 -104 48.5 -166.5 t159.5 -62.5q41 0 101.5 18.5t120.5 98.5q31 43 56.5 100t43.5 119.5t27.5 124t9.5 108.5q0 14 -3 54.5t-23.5 82t-62.5 74.5t-122 33q-98 0 -167 -58.5t-111 -146.5t-60 -190.5t-18 -188.5z" />
<glyph unicode="&#xf1;" d="M-12 8l84 352l32 154q20 90 34 151.5t24 115t19 110.5t22 141l14 15q37 4 61.5 8t47 7t47 8t61.5 13l10 -14l-28 -104q31 20 65.5 41.5t76.5 40t94.5 31t115.5 12.5q25 0 74 -7.5t96 -34t83 -80t36 -145.5q0 -41 -7.5 -92t-17.5 -105.5t-21.5 -107.5t-21.5 -96l-31 -139 l-51 -271l-16 -12l-209 -6l-8 14l86 367l51 231q8 35 14 72t6 74q0 92 -50 127.5t-122 35.5q-47 0 -87 -10t-73.5 -26.5t-61 -36t-50.5 -35.5q-29 -129 -49.5 -221t-37.5 -177t-35.5 -176.5t-43.5 -220.5l-14 -12l-209 -6zM391 1229l37 151l12 23q35 23 76 43t107 20 q47 0 78.5 -12t72.5 -35l27 -12q29 -16 52.5 -24.5t51.5 -8.5q29 0 56.5 10.5t51 23.5t42 27.5t28.5 24.5l15 -6l-37 -158l-10 -16q-33 -25 -78 -49.5t-115 -24.5q-41 0 -71.5 11.5t-69.5 31.5l-25 15q-29 16 -54.5 27.5t-57.5 11.5q-47 0 -89 -25t-85 -55z" />
<glyph unicode="&#xf2;" horiz-adv-x="1150" d="M35 395q0 61 12 137t39 153t71 149.5t108.5 129t150.5 90t198 33.5q203 0 315.5 -107.5t112.5 -305.5q0 -53 -8 -108.5t-22 -108.5q-16 -66 -51 -150t-98.5 -157.5t-163 -124t-242.5 -50.5q-205 0 -313.5 104.5t-108.5 315.5zM252 362q0 -61 17.5 -105t46 -73.5t66.5 -43 t79 -13.5q82 0 140 38t97 96t63 127t38 132q10 45 17 89t7 87q0 78 -21.5 125t-54 74t-68.5 35t-65 8q-80 0 -138 -37t-98 -95t-64.5 -127t-39 -133.5t-18.5 -114.5t-4 -69zM487 1509l11 19h229l12 -10q4 -47 8.5 -81t8.5 -66t10 -69.5t16 -93.5l-10 -14l-131 -2l-16 12 q-29 63 -45.5 103.5t-30.5 71t-27.5 59t-34.5 71.5z" />
<glyph unicode="&#xf3;" horiz-adv-x="1150" d="M35 395q0 61 12 137t39 153t71 149.5t108.5 129t150.5 90t198 33.5q203 0 315.5 -107.5t112.5 -305.5q0 -53 -8 -108.5t-22 -108.5q-16 -66 -51 -150t-98.5 -157.5t-163 -124t-242.5 -50.5q-205 0 -313.5 104.5t-108.5 315.5zM252 362q0 -61 17.5 -105t46 -73.5t66.5 -43 t79 -13.5q82 0 140 38t97 96t63 127t38 132q10 45 17 89t7 87q0 78 -21.5 125t-54 74t-68.5 35t-65 8q-80 0 -138 -37t-98 -95t-64.5 -127t-39 -133.5t-18.5 -114.5t-4 -69zM553 1208q25 33 53.5 80t55 93t48 84t29.5 55l17 10q29 0 57.5 -1t56.5 -1q33 0 64 1t63 3l7 -16 q-68 -72 -136.5 -149t-128.5 -148l-18 -19l-19 -10q-18 0 -33.5 1t-30.5 1h-33.5h-45.5z" />
<glyph unicode="&#xf4;" horiz-adv-x="1150" d="M35 395q0 61 12 137t39 153t71 149.5t108.5 129t150.5 90t198 33.5q203 0 315.5 -107.5t112.5 -305.5q0 -53 -8 -108.5t-22 -108.5q-16 -66 -51 -150t-98.5 -157.5t-163 -124t-242.5 -50.5q-205 0 -313.5 104.5t-108.5 315.5zM252 362q0 -61 17.5 -105t46 -73.5t66.5 -43 t79 -13.5q82 0 140 38t97 96t63 127t38 132q10 45 17 89t7 87q0 78 -21.5 125t-54 74t-68.5 35t-65 8q-80 0 -138 -37t-98 -95t-64.5 -127t-39 -133.5t-18.5 -114.5t-4 -69zM406 1206q63 82 100 132.5t60.5 82t36.5 51t30 44.5l20 12h244l14 -12l78 -310l-12 -12l-162 -4 l-16 12l-47 219q-18 -25 -42 -55.5t-47.5 -61t-45 -59t-33.5 -47.5l-19 -6h-149z" />
<glyph unicode="&#xf5;" horiz-adv-x="1150" d="M35 395q0 61 12 137t39 153t71 149.5t108.5 129t150.5 90t198 33.5q203 0 315.5 -107.5t112.5 -305.5q0 -53 -8 -108.5t-22 -108.5q-16 -66 -51 -150t-98.5 -157.5t-163 -124t-242.5 -50.5q-205 0 -313.5 104.5t-108.5 315.5zM252 362q0 -61 17.5 -105t46 -73.5t66.5 -43 t79 -13.5q82 0 140 38t97 96t63 127t38 132q10 45 17 89t7 87q0 78 -21.5 125t-54 74t-68.5 35t-65 8q-80 0 -138 -37t-98 -95t-64.5 -127t-39 -133.5t-18.5 -114.5t-4 -69zM367 1229l36 151l13 23q35 23 75.5 43t106.5 20q47 0 79 -12t73 -35l26 -12q29 -16 52.5 -24.5 t52.5 -8.5t56.5 10.5t51 23.5t42 27.5t28.5 24.5l14 -6l-37 -158l-10 -16q-33 -25 -78 -49.5t-114 -24.5q-41 0 -72 11.5t-70 31.5l-24 15q-29 16 -54.5 27.5t-58.5 11.5q-47 0 -89 -25t-85 -55z" />
<glyph unicode="&#xf6;" horiz-adv-x="1150" d="M35 395q0 61 12 137t39 153t71 149.5t108.5 129t150.5 90t198 33.5q203 0 315.5 -107.5t112.5 -305.5q0 -53 -8 -108.5t-22 -108.5q-16 -66 -51 -150t-98.5 -157.5t-163 -124t-242.5 -50.5q-205 0 -313.5 104.5t-108.5 315.5zM252 362q0 -61 17.5 -105t46 -73.5t66.5 -43 t79 -13.5q82 0 140 38t97 96t63 127t38 132q10 45 17 89t7 87q0 78 -21.5 125t-54 74t-68.5 35t-65 8q-80 0 -138 -37t-98 -95t-64.5 -127t-39 -133.5t-18.5 -114.5t-4 -69zM362 1233l46 199l14 12l201 6l10 -10l-45 -199l-17 -12l-198 -6zM776 1235l43 197l15 12l196 10 l10 -12l-43 -199l-16 -14l-193 -6z" />
<glyph unicode="&#xf7;" horiz-adv-x="1366" d="M-6 514v162h1364v-162h-1364zM563 295q0 47 32 82t85 35q51 0 83 -35t32 -82q0 -43 -31 -78t-86 -35q-49 0 -82 33t-33 80zM563 891q0 47 32 82t85 35q51 0 83 -35t32 -82q0 -43 -31 -78t-86 -35q-49 0 -82 33t-33 80z" />
<glyph unicode="&#xf8;" horiz-adv-x="1150" d="M-125 102l4 19q37 23 54.5 35t46.5 32l71 54q-10 45 -14 73.5t-4 63.5q0 53 10 127t34.5 152.5t67.5 155.5t108.5 137.5t157 98t212.5 37.5q86 0 146 -19t102 -45t67 -53.5t37 -43.5l45 30q31 23 52.5 40.5t60.5 47.5l20 -2l51 -67l-4 -21q-12 -8 -22.5 -14t-24.5 -16.5 t-40 -28.5t-69 -49l-24 -19q12 -47 17 -77.5t5 -67.5q0 -45 -8 -114.5t-30.5 -148.5t-63.5 -158t-107.5 -142.5t-159.5 -103.5t-222 -40q-74 0 -149 19.5t-130 60.5q-29 23 -46 44.5t-32 41.5l-57 -41q-25 -20 -46.5 -35.5t-47.5 -35.5h-17zM250 389l559 412 q-4 12 -14.5 35.5t-32 46t-57 39t-91.5 16.5q-66 0 -125 -32t-100 -83q-37 -47 -61.5 -107.5t-40 -120.5t-24.5 -114.5t-13 -91.5zM264 272q10 -29 20.5 -50t39.5 -46q25 -23 56.5 -36t80.5 -13q39 0 79 10t77.5 37t73.5 75t67 126q37 98 48 170.5t17 134.5z" />
<glyph unicode="&#xf9;" d="M55 260q0 61 13.5 129t37.5 180l48 201q12 51 19 86t13.5 63.5t11.5 57.5t13 70l14 14l205 8l10 -12q-4 -18 -13 -56t-20.5 -86.5t-24.5 -100.5t-24.5 -97t-19.5 -78t-10 -43q-4 -18 -12.5 -54t-16.5 -77t-13 -80t-5 -63q0 -55 19 -89t47 -52.5t56.5 -23.5t47.5 -5 q51 0 93 12t76.5 30.5t61.5 39t47 36.5l78 348q18 88 30.5 145.5t21.5 101.5t16.5 85t17.5 97l16 14l207 10l8 -14l-118 -504l-50 -223l-61 -316l-14 -12l-201 -8l-10 14l24 101q-68 -59 -162 -94t-176 -35q-49 0 -102 13t-97 45t-73 86t-29 136zM512 1509l10 19h230l12 -10 q4 -47 8 -81t8 -66t10.5 -69.5t16.5 -93.5l-10 -14l-131 -2l-17 12q-29 63 -45 103.5t-30.5 71t-28 59t-33.5 71.5z" />
<glyph unicode="&#xfa;" d="M55 260q0 61 13.5 129t37.5 180l48 201q12 51 19 86t13.5 63.5t11.5 57.5t13 70l14 14l205 8l10 -12q-4 -18 -13 -56t-20.5 -86.5t-24.5 -100.5t-24.5 -97t-19.5 -78t-10 -43q-4 -18 -12.5 -54t-16.5 -77t-13 -80t-5 -63q0 -55 19 -89t47 -52.5t56.5 -23.5t47.5 -5 q51 0 93 12t76.5 30.5t61.5 39t47 36.5l78 348q18 88 30.5 145.5t21.5 101.5t16.5 85t17.5 97l16 14l207 10l8 -14l-118 -504l-50 -223l-61 -316l-14 -12l-201 -8l-10 14l24 101q-68 -59 -162 -94t-176 -35q-49 0 -102 13t-97 45t-73 86t-29 136zM578 1208q25 33 53 80 t55 93t48.5 84t29.5 55l16 10q29 0 57.5 -1t57.5 -1q33 0 63.5 1t63.5 3l6 -16q-68 -72 -136.5 -149t-127.5 -148l-19 -19l-18 -10q-18 0 -33.5 1t-31 1h-34h-44.5z" />
<glyph unicode="&#xfb;" d="M55 260q0 61 13.5 129t37.5 180l48 201q12 51 19 86t13.5 63.5t11.5 57.5t13 70l14 14l205 8l10 -12q-4 -18 -13 -56t-20.5 -86.5t-24.5 -100.5t-24.5 -97t-19.5 -78t-10 -43q-4 -18 -12.5 -54t-16.5 -77t-13 -80t-5 -63q0 -55 19 -89t47 -52.5t56.5 -23.5t47.5 -5 q51 0 93 12t76.5 30.5t61.5 39t47 36.5l78 348q18 88 30.5 145.5t21.5 101.5t16.5 85t17.5 97l16 14l207 10l8 -14l-118 -504l-50 -223l-61 -316l-14 -12l-201 -8l-10 14l24 101q-68 -59 -162 -94t-176 -35q-49 0 -102 13t-97 45t-73 86t-29 136zM430 1206q63 82 100 132.5 t60.5 82t37 51t29.5 44.5l21 12h244l14 -12l78 -310l-13 -12l-161 -4l-17 12l-47 219q-18 -25 -41.5 -55.5l-47 -61t-45 -59t-34.5 -47.5l-18 -6h-150z" />
<glyph unicode="&#xfc;" d="M55 260q0 61 13.5 129t37.5 180l48 201q12 51 19 86t13.5 63.5t11.5 57.5t13 70l14 14l205 8l10 -12q-4 -18 -13 -56t-20.5 -86.5t-24.5 -100.5t-24.5 -97t-19.5 -78t-10 -43q-4 -18 -12.5 -54t-16.5 -77t-13 -80t-5 -63q0 -55 19 -89t47 -52.5t56.5 -23.5t47.5 -5 q51 0 93 12t76.5 30.5t61.5 39t47 36.5l78 348q18 88 30.5 145.5t21.5 101.5t16.5 85t17.5 97l16 14l207 10l8 -14l-118 -504l-50 -223l-61 -316l-14 -12l-201 -8l-10 14l24 101q-68 -59 -162 -94t-176 -35q-49 0 -102 13t-97 45t-73 86t-29 136zM383 1233l45 199l14 12 l201 6l10 -10l-45 -199l-16 -12l-199 -6zM797 1235l43 197l14 12l197 10l10 -12l-43 -199l-17 -14l-192 -6z" />
<glyph unicode="&#xfd;" horiz-adv-x="980" d="M-72 -483q88 135 140.5 217t84 132t50 79.5t37.5 62.5l-50 334l-53 354l-61 353l14 14q37 0 60.5 1t46 2t46 3t60.5 4l16 -10l33 -313l58 -474l198 353q2 4 15.5 28.5t34 61.5t46 83t50 92t47 88t37.5 73l16 10l201 2l8 -16q-31 -47 -55.5 -86t-61.5 -99.5t-94 -156 t-152 -254.5l-208 -346q-23 -41 -66 -117t-92 -162t-95 -171t-75 -142l-17 -15l-213 -2zM469 1208q25 33 53.5 80t55 93t48 84t29.5 55l17 10q29 0 57.5 -1t56.5 -1q33 0 64 1t63 3l7 -16q-68 -72 -136.5 -149t-128.5 -148l-18 -19l-19 -10q-18 0 -33.5 1t-30.5 1h-33.5 h-45.5z" />
<glyph unicode="&#xfe;" d="M-131 -479q100 399 190.5 795.5t176.5 797.5q27 117 50 235.5t40 229.5l16 14q33 4 57.5 8.5t48 7.5t51 8t66.5 13l10 -12q-4 -12 -12 -44t-17 -69t-17.5 -69.5t-10.5 -44.5l-92 -408q14 10 42 26.5t64.5 33t84 28.5t100.5 12q84 0 152.5 -30.5t116.5 -86t74.5 -132 t26.5 -166.5q0 -100 -33.5 -206t-92.5 -188q-76 -104 -171.5 -160.5t-187.5 -83t-170 -30.5t-119 -4h-39.5t-66.5 2q-10 -41 -16.5 -68.5t-11.5 -52t-11 -52.5t-14 -71q-2 -12 -8.5 -45t-13.5 -69.5t-14 -70.5t-9 -48l-15 -13q-39 0 -64.5 1.5t-47 1.5t-45 -1.5t-58.5 -1.5z M242 156q14 -2 30.5 -4t42.5 -2q150 0 254.5 49t170 123.5t95 162.5t29.5 166q0 68 -19.5 117t-52 82t-74.5 48t-87 15q-16 0 -44 -4t-60.5 -14t-67.5 -30.5t-68 -53.5z" />
<glyph unicode="&#xff;" horiz-adv-x="980" d="M-72 -483q88 135 140.5 217t84 132t50 79.5t37.5 62.5l-50 334l-53 354l-61 353l14 14q37 0 60.5 1t46 2t46 3t60.5 4l16 -10l33 -313l58 -474l198 353q2 4 15.5 28.5t34 61.5t46 83t50 92t47 88t37.5 73l16 10l201 2l8 -16q-31 -47 -55.5 -86t-61.5 -99.5t-94 -156 t-152 -254.5l-208 -346q-23 -41 -66 -117t-92 -162t-95 -171t-75 -142l-17 -15l-213 -2zM303 1233l45 199l14 12l201 6l10 -10l-45 -199l-16 -12l-199 -6zM717 1235l43 197l14 12l197 10l10 -12l-43 -199l-16 -14l-193 -6z" />
<glyph unicode="&#x152;" horiz-adv-x="1961" d="M86 569q0 45 6 103.5t22.5 127t48.5 145.5t81 157q76 119 169 188.5t201.5 105.5t232.5 46t259 10q70 0 139.5 -2t138.5 -4h234l412 6l10 -12l-43 -154l-19 -12l-587 6l-101 -446h336l240 4l10 -15l-43 -143l-18 -12l-250 2h-312l-47 -209l-61 -287h185.5t144 1t136 3 t165.5 6l12 -12l-47 -164l-15 -10l-421 2h-228q-59 -2 -120.5 -3t-120.5 -1q-166 0 -279 12t-192 51q-150 72 -214.5 204t-64.5 306zM322 567q0 -96 30.5 -185t108.5 -144q27 -18 57.5 -31.5t73.5 -22t101.5 -12.5t142.5 -4l82 2l79 356l90 408l78 350h-90q-96 0 -187 -7 t-174 -37t-156 -91.5t-134 -173.5q-25 -45 -44.5 -97.5t-31.5 -105.5t-19 -106.5t-7 -98.5z" />
<glyph unicode="&#x153;" horiz-adv-x="1878" d="M35 399q0 25 6 86.5t26.5 138t60.5 158.5t106.5 149.5t167 111.5t239.5 44q16 0 50 -2t77 -13t89 -35.5t87 -69.5q18 -23 28.5 -40.5t22.5 -41.5q14 20 44 54t79 66.5t121 57t170 24.5q66 0 140.5 -15t140.5 -73q57 -51 83.5 -124.5t26.5 -165.5q0 -53 -8 -96.5 t-18 -90.5l-15 -14h-243h-185h-83t-69.5 -1t-69.5 -2t-81 -3q-2 -23 -4 -46.5t-2 -45.5q0 -123 77 -196t222 -73q78 0 168 26t178 97l14 -8l-53 -178l-10 -15q-18 -10 -46 -24t-69 -28.5t-96 -24t-127 -9.5q-18 0 -48 2.5t-66 7.5t-73.5 16t-70.5 30q-80 45 -106.5 91 t-38.5 81q-23 -35 -47.5 -69t-71.5 -70q-66 -49 -146 -70t-163 -21q-90 0 -166 28t-131.5 81t-86 133t-30.5 182zM248 373q0 -86 26.5 -135.5t62.5 -75t71.5 -31.5t52.5 -6q84 0 145.5 37t104.5 99.5t71.5 144.5t46.5 172q6 31 10.5 60.5t4.5 61.5q0 76 -24.5 123t-59.5 72 t-73 33t-64 8q-80 0 -139.5 -36t-101.5 -92t-67.5 -124t-41 -130t-20.5 -112.5t-5 -68.5zM1055 647l542 4q4 20 7.5 38t3.5 40q0 115 -61.5 163t-155.5 48q-76 0 -142.5 -35t-113.5 -94q-35 -45 -52.5 -87t-27.5 -77z" />
<glyph unicode="&#x178;" horiz-adv-x="1110" d="M168 1427l8 15l230 8l12 -10l43 -172t36.5 -142.5t40 -152.5t54.5 -199l235 334q57 84 117 170t109 160l14 8h209l8 -12q-57 -72 -113.5 -147t-111.5 -150l-410 -557l-59 -265l-62 -303l-14 -12l-217 -4l-10 12q25 98 48 193.5t46 191.5q10 49 22.5 98.5t22.5 100.5 l-137 450zM401 1573l48 192l14 17l205 4l12 -12l-45 -197l-17 -12l-204 -4zM866 1571l43 194l15 15l206 6l13 -10l-45 -201l-17 -12l-207 -4z" />
<glyph unicode="&#x2c6;" horiz-adv-x="598" d="M6 1206q63 82 100 132.5t60.5 82t37 51t29.5 44.5l21 12h244l14 -12l78 -310l-12 -12l-162 -4l-17 12l-47 219q-18 -25 -41.5 -55.5l-47 -61t-45 -59t-34.5 -47.5l-18 -6h-150z" />
<glyph unicode="&#x2dc;" horiz-adv-x="598" d="M-53 1229l37 151l12 23q35 23 76 43t106 20q47 0 79 -12t73 -35l26 -12q29 -16 52.5 -24.5t52.5 -8.5t56.5 10.5t51 23.5t42 27.5t28.5 24.5l14 -6l-37 -158l-10 -16q-33 -25 -78 -49.5t-114 -24.5q-41 0 -72 11.5t-70 31.5l-24 15q-29 16 -54.5 27.5t-58.5 11.5 q-47 0 -89 -25t-85 -55z" />
<glyph unicode="&#x2000;" horiz-adv-x="975" />
<glyph unicode="&#x2001;" horiz-adv-x="1950" />
<glyph unicode="&#x2002;" horiz-adv-x="975" />
<glyph unicode="&#x2003;" horiz-adv-x="1950" />
<glyph unicode="&#x2004;" horiz-adv-x="650" />
<glyph unicode="&#x2005;" horiz-adv-x="487" />
<glyph unicode="&#x2006;" horiz-adv-x="325" />
<glyph unicode="&#x2007;" horiz-adv-x="325" />
<glyph unicode="&#x2008;" horiz-adv-x="243" />
<glyph unicode="&#x2009;" horiz-adv-x="390" />
<glyph unicode="&#x200a;" horiz-adv-x="108" />
<glyph unicode="&#x2010;" horiz-adv-x="681" d="M8 504l49 153l19 15q70 -2 138.5 -3t137.5 -1h62.5t58.5 1t61.5 2t75.5 1l11 -13l-52 -159l-16 -13q-72 2 -144.5 3.5t-144.5 1.5q-74 0 -129 -1.5t-117 -3.5z" />
<glyph unicode="&#x2011;" horiz-adv-x="681" d="M8 504l49 153l19 15q70 -2 138.5 -3t137.5 -1h62.5t58.5 1t61.5 2t75.5 1l11 -13l-52 -159l-16 -13q-72 2 -144.5 3.5t-144.5 1.5q-74 0 -129 -1.5t-117 -3.5z" />
<glyph unicode="&#x2012;" horiz-adv-x="681" d="M8 504l49 153l19 15q70 -2 138.5 -3t137.5 -1h62.5t58.5 1t61.5 2t75.5 1l11 -13l-52 -159l-16 -13q-72 2 -144.5 3.5t-144.5 1.5q-74 0 -129 -1.5t-117 -3.5z" />
<glyph unicode="&#x2013;" d="M8 506l53 153l19 17l340 -6h282l422 4l9 -15l-54 -161l-16 -13l-358 7h-324h-363z" />
<glyph unicode="&#x2014;" horiz-adv-x="1449" d="M8 504q8 25 15.5 42t12.5 33.5t10 35t13 44.5l19 15q10 -2 21.5 -2h23.5q33 -2 74 -2h83t82.5 -1t73.5 -1h412h167h138.5t117.5 1t107 5l8 -15l-24 -75q-6 -23 -12.5 -43.5t-14.5 -42.5l-16 -13h-43.5h-58t-112.5 1t-204 3h-434h-185.5t-222.5 -2h-41z" />
<glyph unicode="&#x2018;" horiz-adv-x="468" d="M158 1069q25 37 42 63.5t32.5 50t27.5 44t27 43.5q8 16 35.5 63t57.5 98.5t54 90.5l23 39l18 12l137 2l9 -12q-31 -70 -53.5 -121t-44 -103.5t-46 -114t-59.5 -151.5l-19 -12l-233 -8z" />
<glyph unicode="&#x2019;" horiz-adv-x="468" d="M166 1065q35 78 58.5 131t44 103.5t44 108.5t58.5 146l18 15l234 6l8 -16q-37 -55 -59.5 -89t-42 -66t-42 -71t-59.5 -102q-25 -41 -48.5 -82t-47.5 -82l-19 -12l-137 -2z" />
<glyph unicode="&#x201a;" horiz-adv-x="468" d="M-158 -264q35 78 58.5 131t44 103t44 108.5t58.5 146.5l19 15l233 6l8 -17q-37 -55 -59.5 -89t-42 -65.5t-42 -70.5t-59.5 -102q-25 -41 -48 -82t-48 -82l-18 -12l-137 -2z" />
<glyph unicode="&#x201c;" horiz-adv-x="854" d="M162 1069q39 57 66.5 99t62.5 102q10 16 38.5 63t57.5 99q35 59 74 129l18 12l137 2l11 -12q-37 -82 -61.5 -139.5t-46 -109.5t-43 -107.5t-52.5 -133.5l-18 -12l-236 -8zM526 1069q37 53 67 98t66 109q4 8 31 52t58 97l77 136l19 12l137 2l10 -12q-55 -121 -107.5 -249 t-97.5 -241l-16 -12l-235 -8z" />
<glyph unicode="&#x201d;" horiz-adv-x="854" d="M172 1065q39 88 64.5 146.5t47 108.5t42 103.5t51.5 130.5l16 15l236 6l8 -16q-29 -43 -46.5 -71t-28.5 -44.5t-17 -26.5t-13 -18q-6 -10 -23 -39t-38.5 -66t-44.5 -76.5t-42 -72.5t-32 -55l-14 -23l-19 -12l-137 -2zM537 1065q37 86 62.5 143.5t47 108.5t43 105.5 t51.5 131.5l19 15l233 6l8 -16q-6 -10 -13 -20.5t-34 -49.5q-16 -25 -28.5 -43.5t-27.5 -44t-38.5 -65.5t-62.5 -107q-23 -41 -46.5 -81t-48.5 -81l-18 -12l-137 -2z" />
<glyph unicode="&#x201e;" horiz-adv-x="854" d="M-188 -264q53 123 104 243.5t98 245.5l19 15l235 6l6 -17q-23 -35 -41 -61.5t-33.5 -51t-29.5 -47t-29 -46.5q-8 -12 -33.5 -58.5t-54.5 -97.5q-35 -59 -76 -129l-18 -12l-139 -2zM176 -264q33 74 55.5 126t44 103t45 111.5t58.5 148.5l18 15l236 6l6 -17 q-43 -66 -70.5 -107.5t-56.5 -88.5q-10 -16 -38 -64.5t-56 -99.5q-35 -61 -76 -131l-18 -12l-140 -2z" />
<glyph unicode="&#x2022;" horiz-adv-x="681" d="M80 723q0 51 19.5 99t55 85t85 59.5t108.5 22.5q55 0 103.5 -20.5t84 -55t56 -84t20.5 -106.5q0 -55 -18.5 -103.5t-52 -84t-82.5 -57t-109 -21.5q-61 0 -110.5 21.5t-85 58t-55 85t-19.5 101.5z" />
<glyph unicode="&#x2026;" horiz-adv-x="2048" d="M117 102q0 47 32.5 82t83.5 35q49 0 82 -34t33 -81q0 -45 -30.5 -80.5t-84.5 -35.5q-45 0 -80.5 30.5t-35.5 83.5zM801 102q0 47 32.5 82t84.5 35q49 0 81.5 -34t32.5 -81q0 -45 -30.5 -80.5t-83.5 -35.5q-45 0 -81 30.5t-36 83.5zM1485 102q0 47 32.5 82t84.5 35 q49 0 81.5 -34t32.5 -81q0 -45 -30.5 -80.5t-83.5 -35.5q-45 0 -81 30.5t-36 83.5z" />
<glyph unicode="&#x202f;" horiz-adv-x="390" />
<glyph unicode="&#x2039;" horiz-adv-x="512" d="M29 557l4 23l112.5 157.5t69.5 96t44 62.5t38 56l22 11q33 0 54.5 -1t40 -1h38h50.5l8 -17q-31 -37 -64.5 -79t-87.5 -113q-29 -39 -69.5 -93.5t-71.5 -95.5q20 -61 32.5 -100t25 -77t28.5 -84t41 -120l-8 -16h-50.5h-36h-34.5h-45l-14 12q-4 8 -12.5 34t-17.5 54.5 t-17.5 55t-10.5 36.5q-4 12 -15 44t-23.5 66t-21.5 62z" />
<glyph unicode="&#x203a;" horiz-adv-x="512" d="M-61 180q8 10 30.5 39t47 60.5t47 61.5t32.5 42q6 8 25.5 33.5t41 54.5t41 55.5t27.5 36.5q-10 35 -18 65.5t-22.5 71.5t-35 98.5t-51.5 145.5l13 17q31 0 50 -1.5t35.5 -1.5t35 1.5t47.5 1.5l14 -13q10 -35 20.5 -70.5t32.5 -103.5q4 -14 15.5 -48t23.5 -71l31 -92 l-2 -20q-70 -92 -137.5 -182.5t-132.5 -184.5l-21 -10h-184z" />
<glyph unicode="&#x205f;" horiz-adv-x="487" />
<glyph unicode="&#x20ac;" d="M0 485q10 25 24.5 57.5t22.5 57.5l14 14q10 0 41 -1t66 -1h53q6 88 25 176h-47q-53 0 -75 -1t-42 -1l-12 17q10 25 24.5 57.5t22.5 57.5l14 14q10 0 41 -1t66 -1h51q37 98 93 186t134 154.5t179.5 106.5t224.5 40q63 0 117.5 -13t97.5 -30.5t71.5 -36t40.5 -28.5l6 -17 l-61 -147l-21 -4q-23 53 -88 88t-157 35q-72 0 -135.5 -25t-115.5 -70t-93 -105t-72 -134h463q39 0 60.5 1t45.5 3l13 -12q-14 -29 -28.5 -62t-23.5 -61l-12 -13q-20 0 -32.5 1t-23.5 1h-23.5h-30.5h-451q-18 -86 -25 -176h398q39 0 60.5 1t45.5 3l12 -12 q-14 -29 -28.5 -61.5t-22.5 -61.5l-12 -12q-20 0 -32.5 1t-24 1h-23.5h-31h-338q16 -162 90 -254t205 -92q94 0 163 38t134 97l17 -8l-51 -184l-13 -17q-16 -10 -40.5 -24.5t-58.5 -26.5t-80 -21.5t-105 -9.5q-119 0 -206 40t-145.5 108.5t-90.5 160t-40 193.5h-96 q-53 0 -74.5 -1t-42.5 -1z" />
<glyph unicode="&#x2122;" horiz-adv-x="1406" d="M129 1346v100h553v-100h-215v-580h-119v580h-219zM739 766v680h162l170 -537l166 537h162v-680h-117l4 420q0 47 2 82t4 57l-7 -24.5t-6 -22.5t-7 -27.5t-12 -42.5l-140 -442h-104l-139 444q-2 6 -4.5 12.5t-5.5 17.5t-9 30.5t-16 52.5q4 -35 5 -74t3 -63l4 -420h-115z " />
<glyph unicode="&#xe000;" horiz-adv-x="1075" d="M0 0v1075h1075v-1075h-1075z" />
<glyph unicode="&#xfb01;" horiz-adv-x="1110" d="M18 2q4 20 16.5 75.5t27 118t26.5 119t18 80.5l111 510q-27 0 -45 1t-33.5 1t-33 -1t-42.5 -1l-12 13q6 25 11.5 39t8.5 27t7 28.5t10 42.5l16 14q25 -2 41.5 -3t32 -2t32.5 -1h40l29 133q25 123 49 205t84 135q31 27 65.5 43t67.5 23.5t61.5 9.5t46.5 2q53 0 90 -6 t58 -11l10 -16q-6 -25 -11 -41t-9.5 -31.5t-7.5 -31t-9 -37.5l-16 -13q-16 6 -36 10.5t-48 4.5q-31 0 -60.5 -10.5t-50.5 -32.5q-25 -29 -40 -82t-38 -146l-20 -106h192l11 -14q-6 -23 -11.5 -39.5t-9.5 -30.5t-8 -28.5t-10 -34.5l-17 -15q-31 2 -53 3t-41.5 1h-39h-46.5 q-53 -223 -97 -445t-83 -450l-16 -14h-61.5t-46.5 -1t-44.5 -3t-52.5 -4zM578 10q2 10 10 38t15 58.5t14.5 58.5t11.5 40q0 2 10 49t24.5 106.5t26.5 115.5t19 79l26 127q12 61 22.5 107.5t17.5 86t13.5 76.5t12.5 82l14 13q39 6 65.5 9t50 7l47 8t58.5 10l13 -14 q-16 -57 -25.5 -95t-21 -88t-30 -130t-48.5 -222l-45 -210q-16 -82 -30.5 -156t-27.5 -152l-14 -12h-57.5h-48t-49 -1t-62.5 -3zM872 1339q8 33 13.5 56.5t9.5 43t8 40t10 49.5l19 16q29 2 52.5 5t46 6.5t50 6.5t66.5 9l14 -12q-2 -4 -8 -35t-16 -66q-10 -41 -23 -90 l-14 -16q-33 -4 -56.5 -7.5t-47 -6.5t-49 -6t-62.5 -9z" />
<glyph unicode="&#xfb02;" horiz-adv-x="1110" d="M20 4q8 41 19.5 92t24 103.5t23.5 103.5t19 92l113 512h-30.5t-47 -1t-47 -1h-31.5l-12 13q6 25 11.5 39t8.5 27t7 28.5t10 42.5l16 14q25 -2 41.5 -3t32.5 -3h72l29 133q25 123 49 205t84 135q31 27 65.5 43t67.5 23.5t61.5 9.5t46.5 2q53 0 90 -6t58 -11l10 -16 q-6 -25 -11 -41t-9.5 -31.5t-7.5 -31t-9 -37.5l-16 -13q-16 6 -36 10.5t-48 4.5q-31 0 -60.5 -10.5t-50.5 -32.5q-25 -29 -40 -82t-38 -148l-22 -108h62.5h47t42 1t42.5 3l11 -16q-6 -23 -11.5 -38.5t-9.5 -29.5t-8 -28.5t-10 -34.5l-17 -17q-29 2 -47 3t-36.5 1t-41 1 t-55.5 1q-6 -25 -19.5 -89t-29.5 -137t-29.5 -138.5t-19.5 -91.5q-18 -90 -32.5 -160t-24 -122t-15.5 -90t-10 -67l-14 -12h-61.5t-47.5 -1t-45.5 -3t-52.5 -4zM596 4q4 18 7 33.5t8 39t13.5 59.5t22.5 95q12 49 22.5 99.5t20.5 99.5l105 477q49 236 80.5 397.5t42.5 276.5 l16 14q33 4 57.5 8.5t47 8.5t50 9t68.5 13l12 -14q-4 -16 -12 -54t-18.5 -82t-19.5 -86t-15 -67q-16 -61 -28.5 -123.5t-26.5 -124.5l-80 -378q-29 -129 -49.5 -231.5t-37 -184.5t-28.5 -148.5t-23 -128.5l-16 -12q-35 0 -59.5 -1t-46 -2t-46 -2t-57.5 -3z" />
</font>
</defs>
</svg>
