<?xml version="1.0" standalone="no"?>
<!DOCTYPE svg PUBLIC "-//W3C//DTD SVG 1.1//EN" "http://www.w3.org/Graphics/SVG/1.1/DTD/svg11.dtd" >
<svg xmlns="http://www.w3.org/2000/svg">
<metadata>
This is a custom SVG webfont generated by Font Squirrel.
Copyright   : Copyright c 1991 Adobe Systems Incorporated  All Rights ReservedFormata is a trademark of H Berthold AG
</metadata>
<defs>
<font id="FormataBoldItalic" horiz-adv-x="1280" >
<font-face units-per-em="2048" ascent="1638" descent="-410" />
<missing-glyph horiz-adv-x="598" />
<glyph unicode=" "  horiz-adv-x="598" />
<glyph unicode="&#x09;" horiz-adv-x="598" />
<glyph unicode="&#xa0;" horiz-adv-x="598" />
<glyph unicode="!" horiz-adv-x="641" d="M49 8l72 322l18 14l377 8l12 -14l-77 -324l-15 -12l-377 -8zM219 532l43 224l45 231l82 549l17 14l413 23l10 -14l-90 -306l-67 -237l-127 -477l-17 -15l-299 -6z" />
<glyph unicode="&#x22;" horiz-adv-x="811" d="M143 1397q0 66 46.5 101.5t105.5 35.5q57 0 98 -34t41 -93q0 -6 -1 -18.5t-1 -16.5l-108 -536h-66l-111 512q-4 37 -4 49zM569 1397q0 66 46.5 101.5t107.5 35.5q57 0 97 -34t40 -93q0 -25 -2 -35l-108 -536h-64l-113 512q-4 37 -4 49z" />
<glyph unicode="#" horiz-adv-x="1366" d="M131 381v252h229l27 196h-205v254h240l51 363h256l-53 -363h205l49 363h256l-49 -363h186v-254h-221l-27 -196h201v-252h-238l-53 -381h-256l53 381h-202l-54 -381h-254l52 381h-193zM614 633h203l29 196h-203z" />
<glyph unicode="$" horiz-adv-x="1150" d="M18 96l72 291l23 8q88 -96 215 -135l145 297l-33 25q-137 104 -194.5 180t-57.5 203q0 86 30 164.5t91.5 147.5t171 109.5t254.5 40.5q68 0 144 -6l51 119l16 10l164 -4l6 -12l-74 -143q86 -29 150 -60l6 -18q-53 -156 -88 -269l-18 -6q-86 66 -174 99l-138 -289l29 -23 q96 -74 143 -120t85 -120.5t38 -164.5q0 -123 -64.5 -223.5t-162.5 -155.5q-139 -76 -363 -76q-59 0 -120 6l-58 -133l-14 -12l-162 -4l-8 16l80 162q-104 37 -176 78zM487 238q66 -4 107 10q82 31 82 98q0 29 -14.5 54.5t-27.5 35.5t-38 29zM588 1061q0 -57 74 -109 l104 211q-68 4 -100 -8q-78 -35 -78 -94z" />
<glyph unicode="%" horiz-adv-x="1878" d="M139 772q0 25 4 65t16.5 119.5t43 152.5t77 143.5t126 112.5t180.5 42q121 0 192 -68q86 -82 86 -249q0 -74 -12 -144q-27 -184 -100 -305q-111 -180 -324 -180q-137 0 -213 79.5t-76 231.5zM393 719q0 -88 53 -88q31 0 60 43q43 80 82 276q29 141 28 207q0 78 -51 78 t-80 -86q-33 -90 -62.5 -230.5t-29.5 -199.5zM428 18l336 504q41 61 151.5 228.5t171.5 257.5q152 227 234 364l18 12q131 0 209 2l4 -18q-18 -29 -83.5 -123t-141.5 -205.5t-88 -128.5q-295 -438 -571 -891l-17 -12q0 -8 -217 -8zM1098 291q0 88 27.5 214t80.5 220 q117 201 338 201q117 0 191 -68q86 -82 86 -250q0 -76 -13 -145q-27 -184 -100 -303q-111 -180 -322 -180q-139 0 -213.5 79.5t-74.5 231.5zM1352 236q0 -86 53 -86q37 0 57 43q41 66 82 274q29 143 29 207q0 80 -51 80q-45 0 -80 -88q-33 -88 -61.5 -229.5t-28.5 -200.5z " />
<glyph unicode="&#x26;" horiz-adv-x="1492" d="M35 348q0 86 35.5 163t80 123t115 90t104 60.5t87.5 36.5q-78 156 -78 273q0 63 23.5 125.5t73.5 123t145.5 97.5t222.5 37q203 0 309.5 -88.5t106.5 -227.5q0 -121 -86.5 -210t-237.5 -179q45 -88 129 -217q86 86 113 115q100 104 153 207l23 2q43 -76 47 -82 t32.5 -52.5t53 -86.5t26.5 -42l-2 -16q-115 -129 -297 -287l189 -295l-8 -18h-209q-2 0 -248 -6l-18 12l-46 78q-72 -37 -113.5 -55.5t-123.5 -39t-168 -20.5q-199 0 -316.5 110.5t-117.5 268.5zM461 395q0 -18 8 -40.5t39 -47t82 -24.5q57 0 147 43l-131 229 q-39 -20 -60.5 -32.5t-53 -49.5t-31.5 -78zM764 1147q0 -47 49 -146q41 29 61.5 45.5t45 49t24.5 63.5q0 35 -25.5 59.5t-58.5 24.5q-39 0 -67.5 -24.5t-28.5 -71.5z" />
<glyph unicode="'" horiz-adv-x="425" d="M164 1397q0 66 46 101.5t107 35.5q57 0 98.5 -34t41.5 -93q0 -14 -4 -35l-109 -536h-63l-113 512q-4 37 -4 49z" />
<glyph unicode="(" horiz-adv-x="681" d="M104 254q0 535 383 1077q150 203 177 221l18 15h225l11 -19q-102 -168 -167 -291.5t-148 -324.5t-126 -429.5t-43 -473.5q0 -162 27 -455l-15 -18l-196 -2l-17 16q-47 162 -68.5 240.5t-41 201.5t-19.5 242z" />
<glyph unicode=")" horiz-adv-x="681" d="M-209 -426q80 133 131 224t126 254t118 306.5t75.5 341t32.5 400.5q0 117 -26 448l14 19h197l16 -15q45 -156 67.5 -238.5t42 -206.5t19.5 -241q0 -545 -409 -1110q-131 -174 -150 -188l-18 -12h-228z" />
<glyph unicode="*" horiz-adv-x="980" d="M188 1051l11 16l256 86l-213 102l-2 17l147 211h16q74 -78 170 -164q10 102 19 235l12 13h242l8 -13l-94 -239l227 155l17 -6l94 -200l-11 -17l-272 -96q113 -45 229 -82l5 -16q-78 -121 -138 -226l-16 -4q-100 92 -201 168l-6 -231l-12 -15l-242 -4l-6 15l78 241 q-109 -76 -203 -157l-14 4z" />
<glyph unicode="+" horiz-adv-x="1366" d="M121 467v260h469v467h260v-467h465v-260h-465v-467h-260v467h-469z" />
<glyph unicode="," horiz-adv-x="555" d="M-158 -190l62 135q96 205 172 391l16 10q211 4 408 14l8 -18q-29 -49 -166 -246q-84 -131 -182 -280l-15 -11l-295 -10z" />
<glyph unicode="-" horiz-adv-x="811" d="M53 436l78 285l16 14h637l7 -10l-80 -285l-17 -14q-53 0 -159.5 1t-159.5 1q-94 0 -316 -4z" />
<glyph unicode="." horiz-adv-x="555" d="M-39 6l68 326l14 14l385 4l10 -12l-73 -324l-15 -12l-377 -8z" />
<glyph unicode="/" horiz-adv-x="980" d="M-262 -291l49 68q109 164 225 348q66 94 187 278l241 365q336 520 496 784l16 13l271 4l6 -21l-455 -688l-223 -340q-180 -274 -303 -467q-10 -16 -98.5 -154.5t-100.5 -156.5q-4 -4 -8 -14.5t-8 -16.5l-15 -10l-268 -8z" />
<glyph unicode="0" horiz-adv-x="1193" d="M84 457q0 152 53 361.5t150 348.5q68 100 187.5 176t295.5 76q143 0 248 -71q102 -72 138 -176.5t36 -247.5q0 -96 -16 -211q-16 -117 -44 -216.5t-79.5 -199.5t-120 -171t-171 -115t-229.5 -44q-281 0 -389 201q-59 111 -59 289zM475 367q0 -139 80 -140q33 0 59.5 24.5 t39 50.5t28.5 71q45 121 88 344q41 227 41 309q0 59 -14 88q-27 41 -64 41q-29 0 -51.5 -15.5t-39.5 -48t-26.5 -57t-23.5 -65.5q-39 -119 -78 -318.5t-39 -283.5z" />
<glyph unicode="1" horiz-adv-x="1193" d="M289 8l110 447l35 141l115 496q-90 -2 -195 -15l-12 13l72 247l14 13q100 14 279 32q190 20 321 41l12 -14l-118 -489l-58 -244q-25 -100 -88 -389q-10 -45 -26.5 -135.5t-26.5 -135.5l-14 -16q-219 2 -410 -6z" />
<glyph unicode="2" horiz-adv-x="1193" d="M-70 20l183 189l149 160q236 256 248 270q102 115 139 178.5t37 116.5q0 68 -52 112t-140 44q-76 0 -148 -25q-84 -27 -176 -113l-20 13l77 340l15 18q166 94 379 94q129 0 227 -32.5t149.5 -77.5t84 -103.5t40.5 -101.5t8 -82q0 -76 -22.5 -144.5t-74.5 -140t-90 -116 t-118 -125.5l-163 -166q152 0 385 12l10 -16q-49 -152 -88 -314l-17 -10h-551l-462 -6z" />
<glyph unicode="3" horiz-adv-x="1193" d="M10 78l70 293l20 4q33 -39 68 -62q82 -51 188 -51q133 0 202 79t69 159q0 59 -43 113.5t-133 54.5q-35 0 -99 -25l-14 14l260 418l-393 -12l-10 14l81 295l15 14q188 -6 373 -6q178 0 530 13l8 -25l-364 -522q74 -4 118 -37q129 -92 129 -289q0 -252 -198 -414 q-166 -137 -461 -137q-221 0 -408 90z" />
<glyph unicode="4" horiz-adv-x="1193" d="M2 270l51 232l13 22q63 82 313 459q125 195 270 395l19 13h506l10 -15q-121 -498 -197 -839l156 4l12 -17q-47 -154 -72 -260l-16 -10h-145q-23 -100 -50 -244l-16 -12q-172 0 -381 -10l-12 14l69 252h-241h-275zM383 539l217 -2l64 241l98 344q-4 -6 -35 -54t-58.5 -90 t-35.5 -56z" />
<glyph unicode="5" horiz-adv-x="1193" d="M23 70l73 288l19 7q41 -33 67.5 -50.5t83 -36t121.5 -18.5q137 0 194.5 68.5t57.5 148.5q0 66 -39 111q-57 68 -184 67q-137 0 -230 -69l-22 14l125 412l102 358l17 14q33 0 231.5 -1t234.5 -1q154 0 320 11l12 -15l-94 -295l-14 -10l-213 4l-232 4l-51 -153 q72 14 111 14q63 0 125.5 -21.5t121 -64.5t94.5 -123t36 -184q0 -215 -152 -379q-182 -201 -524 -201q-88 0 -160 12.5t-111 25.5t-110 44z" />
<glyph unicode="6" horiz-adv-x="1193" d="M84 496q0 51 6 113.5t26.5 153.5t54.5 177t93.5 175t137 154.5t194.5 106.5t256 41q203 0 348 -76l8 -18l-78 -287l-22 -4q-45 53 -102 74q-55 23 -117 22q-160 0 -262 -131q-33 -43 -84 -153l43 24q100 55 215 56q147 0 250.5 -101.5t103.5 -296.5q0 -70 -15.5 -140.5 t-56.5 -146t-103 -134t-164.5 -96.5t-233.5 -38q-209 0 -336 101q-162 133 -162 424zM461 408q0 -51 13 -88t28.5 -53.5t37 -27t32 -11.5t18.5 -1q68 0 117 70t49 170q0 80 -39 117t-90 37q-88 -2 -146 -78q-20 -37 -20 -135z" />
<glyph unicode="7" horiz-adv-x="1193" d="M139 10q12 23 27.5 50.5t59.5 104.5t102 179l417 729l-526 -8l-10 14l92 293l16 14h345l342 7l307 6l10 -21q-12 -25 -303 -577q-225 -440 -320 -645l-61 -142l-19 -14q-238 2 -468 -6z" />
<glyph unicode="8" horiz-adv-x="1193" d="M43 354q0 139 72 242q80 111 237 158q-33 20 -50 34.5t-46 44t-43 69.5t-14 91q0 111 63 209q143 217 490 217q295 0 413 -164q57 -80 58 -190q0 -47 -11 -80q-14 -53 -40.5 -94t-67.5 -68.5t-68.5 -42t-74.5 -35.5q172 -78 172 -286q0 -78 -27 -156t-86 -156.5 t-180 -128t-287 -49.5q-248 0 -379 103.5t-131 281.5zM469 358q0 -53 28.5 -83.5t63.5 -30.5q8 0 15.5 1t26 9t32.5 23.5t30.5 49t26.5 79.5q12 53 13 88q0 59 -30 82.5t-59 23.5q-66 0 -106.5 -76t-40.5 -166zM592 958q0 -53 30.5 -77.5t61.5 -24.5q20 0 42 9t48.5 47 t38.5 102q6 27 6 55q0 45 -21.5 71.5t-37 30t-27.5 3.5q-55 0 -98 -60t-43 -156z" />
<glyph unicode="9" horiz-adv-x="1193" d="M74 66l78 286l20 4q18 -20 39 -39q68 -57 184 -57q156 0 264 139q39 49 80 146q-135 -80 -260 -80q-154 0 -253 107.5t-99 289.5q0 143 57.5 265t192.5 206t330 84q215 0 344 -114q147 -135 147 -408q0 -59 -8 -128t-29.5 -161t-56.5 -177t-95.5 -170t-137 -147.5 t-190.5 -101.5t-247 -39q-211 0 -352 76zM526 922q0 -78 36 -116t91 -38q66 0 111 39q12 12 37 39q4 10 12 64.5t8 78.5q0 76 -36.5 123t-92.5 47q-72 0 -119 -71.5t-47 -165.5z" />
<glyph unicode=":" horiz-adv-x="641" d="M47 8l68 326l14 12l383 6l10 -14l-69 -324l-17 -12l-377 -8zM215 750l70 319l16 14l389 7l8 -15q-39 -152 -73 -323l-17 -13q-195 0 -383 -6z" />
<glyph unicode=";" horiz-adv-x="641" d="M-92 -186q129 274 223 520l16 14q203 2 416 12l6 -18q-12 -18 -80.5 -119.5t-72.5 -107.5q-23 -35 -193 -297l-16 -13l-291 -6zM248 745l74 324l16 12l385 9l10 -15l-78 -323l-18 -15l-379 -6z" />
<glyph unicode="&#x3c;" horiz-adv-x="1366" d="M45 592v254l1366 606v-285l-1001 -448l1001 -440v-285z" />
<glyph unicode="=" horiz-adv-x="1366" d="M35 254v260h1366v-260h-1366zM35 680v260h1366v-260h-1366z" />
<glyph unicode="&#x3e;" horiz-adv-x="1366" d="M45 -6v285l1002 440l-1002 448v285l1366 -606v-254z" />
<glyph unicode="?" horiz-adv-x="937" d="M96 8l70 326l14 14q150 -2 381 4l8 -14l-75 -324l-15 -12l-373 -8zM166 1174l82 311l10 12q70 29 105.5 42t101 26.5t137.5 13.5q123 0 215 -37t139.5 -96.5t69 -120.5t21.5 -123q0 -96 -51.5 -186t-168.5 -215l-59 -62q-113 -117 -143 -178q-4 -8 -15 -39l-16 -12 l-361 -6l-8 14q16 68 51 116t142 163l47 51q49 53 75.5 88t52 86t25.5 94q0 74 -52 118t-128 44q-35 0 -61 -8q-102 -25 -193 -111z" />
<glyph unicode="@" horiz-adv-x="1835" d="M176 487q0 258 122 480.5t340 356.5t480 134q281 0 446 -167t165 -431q0 -281 -147.5 -503t-338.5 -222q-156 0 -186 139q-117 -139 -258 -139q-123 0 -204 90t-81 258q0 143 55.5 277.5t160 222.5t228.5 88q63 0 112.5 -25.5t65 -44t40.5 -53.5l18 80h186l-69 -323 q-55 -293 -56 -334q0 -61 39 -62q76 0 169 170t93 373q0 227 -135 335.5t-321 108.5q-297 0 -526.5 -240.5t-229.5 -570.5q0 -129 41 -232t104.5 -166.5t148.5 -104.5t166 -57.5t161 -16.5q295 0 544 190q78 61 121 109l96 -125q-63 -59 -119.5 -104.5t-153.5 -104.5 t-220 -93t-258 -34q-100 0 -202.5 20.5t-212 75t-192.5 134t-137.5 212.5t-54.5 299zM727 494q0 -57 16.5 -97.5t41 -54.5t41 -19.5t30.5 -5.5q84 0 158 99q45 61 70.5 147t23.5 152q-2 80 -41 126t-98 46q-104 0 -173 -128t-69 -265z" />
<glyph unicode="A" horiz-adv-x="1409" d="M-117 18q37 63 254 467l242 453q184 356 256 496l16 12l533 8l12 -12q43 -698 98 -1428l-10 -12l-430 -8l-10 12v211l-2 137h-383l-158 -340l-14 -14h-72q-148 0 -324 -6zM598 647h244v518z" />
<glyph unicode="B" horiz-adv-x="1409" d="M0 8l78 311l61 261q129 557 178 854l13 12l155 2l209 4h111q205 0 278 -6q156 -18 240 -98t84 -215q0 -109 -58.5 -191t-136.5 -125q-23 -12 -104 -41q86 -31 117 -53q111 -82 110 -231q0 -66 -25.5 -150t-74.5 -145q-104 -127 -301 -170q-90 -18 -179 -22.5t-419 -4.5 h-133l-193 -4zM485 268l72 -2q135 0 191 27q59 27 85.5 78t26.5 96q0 70 -72 113q-35 18 -147 18h-80zM627 879l47 -2q13 0 26 -1q102 0 158 29q102 55 103 166q0 72 -66 103q-37 18 -143 18l-52 -2z" />
<glyph unicode="C" d="M119 610q0 162 51 312.5t149.5 276.5t261 202t367.5 76q121 0 230 -27q96 -20 190 -76l8 -16l-90 -316l-16 -6q-111 104 -275 105q-88 0 -162.5 -35t-122.5 -90t-82 -124t-48.5 -133.5t-14.5 -121.5q0 -162 84 -250t232 -88q150 0 303 100l16 -10q-8 -29 -22.5 -84 t-22.5 -84q-6 -29 -19.5 -84t-19.5 -84l-12 -16q-143 -68 -342 -68q-324 0 -483.5 175t-159.5 466z" />
<glyph unicode="D" horiz-adv-x="1449" d="M0 6l125 526l78 353q66 295 104 551l17 12h168h188q39 3 80 3t85 -3q87 -6 173 -14.5t162.5 -46t136 -93t94.5 -156t35 -235.5q0 -172 -50 -332.5t-132 -273.5q-131 -180 -314.5 -239.5t-464.5 -59.5q-27 0 -82 1t-84 1h-149l-162 -6zM514 319h21q68 0 109.5 4.5t104 34 t107.5 84.5q63 80 103 213t40 240q0 68 -16 114t-38.5 70.5t-63.5 36.5t-73 14.5t-85 2.5h-29l-67 -297z" />
<glyph unicode="E" horiz-adv-x="1150" d="M0 6l100 410l82 336q76 342 144 680l14 14h541l364 6l12 -12l-79 -281l-15 -14h-461l-61 -260l451 8l8 -16l-78 -267l-14 -12h-428l-25 -100l-43 -181h223l312 11l12 -13l-90 -301l-15 -14h-567l-379 -6z" />
<glyph unicode="F" horiz-adv-x="1067" d="M0 6l61 254l95 393q92 393 170 779l12 12l213 2h311l369 6l10 -12l-76 -281l-16 -14h-455l-63 -287l440 12l8 -14q-43 -133 -82 -278l-14 -11l-422 -4l-53 -250l-64 -299l-12 -12l-424 -8z" />
<glyph unicode="G" horiz-adv-x="1449" d="M113 580q0 86 16 184t72.5 230t145.5 234.5t252 175.5t374 73q111 0 209 -20.5t142 -39t118 -53.5l6 -21l-98 -323l-23 -6q-39 51 -76 73q-102 66 -245 66q-119 0 -211.5 -58.5t-141.5 -149.5t-73.5 -183t-24.5 -178q0 -141 68 -209q61 -68 170 -68q29 0 94 12l41 191 l43 215l14 14h69q145 0 339 6l10 -14q-8 -33 -37 -153.5t-43 -186t-70 -313.5l-12 -17q-63 -43 -196.5 -66.5t-262.5 -23.5q-412 0 -575 254q-94 146 -94 355z" />
<glyph unicode="H" horiz-adv-x="1536" d="M-2 6l59 248l111 457q23 92 63 272q14 61 47 225t48 226l12 12q221 0 434 6l10 -10l-63 -277l-57 -239h407l41 182l70 326l12 12q240 0 434 6l10 -10l-84 -355l-79 -339q-66 -260 -109 -467q-12 -51 -32.5 -152.5t-22.5 -114.5l-15 -12l-436 -8l-6 12l147 606h-413 l-135 -598l-13 -12q-193 0 -432 -8z" />
<glyph unicode="I" horiz-adv-x="681" d="M0 6l68 283l106 446q70 297 154 699l10 12q238 0 446 6l7 -12q-100 -379 -199 -817l-72 -328l-55 -283l-14 -10l-443 -8z" />
<glyph unicode="J" horiz-adv-x="768" d="M-117 31l76 291l14 8q61 -25 97 -25q86 0 123 84q23 43 69 252l64 287l100 506l14 12l432 6l11 -12l-86 -377l-82 -361q-78 -350 -114 -452.5t-114 -169.5q-123 -104 -350 -105q-96 0 -243 37z" />
<glyph unicode="K" horiz-adv-x="1409" d="M0 6q78 297 152 615l38 176q80 362 127 637l15 12q227 0 430 6l10 -12l-162 -627l273 361q55 76 194 260l17 12l444 6l10 -16q-14 -14 -151 -164l-398 -449l166 -438l142 -358l-13 -19l-450 -14l-15 12l-75 258l-160 481l-78 -374l-72 -359l-12 -10q-176 0 -424 -8z" />
<glyph unicode="L" horiz-adv-x="1110" d="M4 6l98 416l125 555q39 166 99 457l12 12l444 6l13 -12l-109 -422l-74 -305l-94 -394h47q281 0 465 11l12 -13l-88 -305l-14 -12h-510l-418 -6z" />
<glyph unicode="M" horiz-adv-x="1921" d="M-31 6l125 451l142 522l118 455l13 12q315 0 561 6l12 -12l10 -324l8 -149l21 -400l258 553q16 35 78.5 167t68.5 147l15 12q299 0 557 6l10 -12l-78 -459l-90 -553l-61 -416l-17 -10l-393 -8l-10 12l72 367l47 250l102 497l-356 -737l-172 -371l-17 -10l-323 -6l-15 12 l-12 271l-39 841l-55 -219l-84 -336l-133 -553l-15 -10q-150 0 -337 -8z" />
<glyph unicode="N" horiz-adv-x="1492" d="M2 6l104 436l93 414q68 285 120 578l15 12q199 0 358 6l15 -10l104 -225l107 -218q115 -246 159 -333l90 428l72 340l10 12q176 0 332 6l10 -12l-135 -584l-51 -223l-137 -621l-15 -10l-290 -8l-13 8l-106 219l-307 647l-109 -559l-55 -297l-13 -10l-348 -8z" />
<glyph unicode="O" horiz-adv-x="1536" d="M109 549q0 66 11 150.5t42 202.5t101.5 234.5t172.5 194.5q184 145 494 146q303 0 450 -154q152 -160 152 -426q0 -141 -43 -303q-82 -293 -242 -440q-199 -184 -524 -185q-100 0 -176 17q-98 18 -168 51q-270 133 -270 512zM553 520q0 -68 14 -108q14 -45 41 -75 t58.5 -40t47 -13t29.5 -3q231 0 318 493q18 100 18 168q0 233 -186 234q-125 0 -209 -142q-51 -88 -91 -248t-40 -266z" />
<glyph unicode="P" horiz-adv-x="1323" d="M-6 6l98 387l62 252q96 399 176 789l12 10l203 2l213 4q33 1 64 1q200 0 292 -24q152 -39 215.5 -147.5t63.5 -241.5q0 -203 -129 -370q-55 -70 -128 -113t-170.5 -61.5t-166 -24.5t-189.5 -8h-73l-35 -142l-66 -305l-12 -12q-184 0 -422 -8zM608 766h39q133 0 195 35 q115 66 114 215q0 35 -14 63.5t-26.5 38.5t-20.5 15q-41 27 -152 26h-45l-26 -119z" />
<glyph unicode="Q" horiz-adv-x="1536" d="M109 545q0 182 61 380.5t184 331.5q205 219 561 220q260 0 414 -109q203 -145 203 -473q0 -164 -51 -336t-131 -287q-49 -70 -104.5 -119t-85.5 -66t-81 -42q12 -4 37 -10t37 -10q33 -10 352 -117l2 -14q-156 -199 -161 -209q-20 -29 -62 -82l-16 -4q-211 125 -307 176 q-8 4 -171 91t-196 107l-10 2q-113 23 -168 45q-307 124 -307 525zM553 522q0 -23 1 -42t11 -59t28.5 -66.5t57.5 -49t94 -22.5q231 0 318 493q18 96 18 164q0 236 -184 236q-127 0 -205 -129q-57 -92 -98 -258.5t-41 -266.5z" />
<glyph unicode="R" horiz-adv-x="1323" d="M-4 6l102 414l60 252q96 401 157 762l11 12l434 4q129 -2 191.5 -4t133 -16.5t117.5 -40.5q158 -92 158 -308q0 -166 -82 -286q-55 -78 -116.5 -116t-147.5 -69l112 -327l95 -256l-9 -17l-432 -16l-12 12l-55 197l-90 332l-76 -3q-51 -207 -107 -520l-14 -10 q-182 0 -418 -8zM612 813h33q53 0 85 3t79 24.5t76 62.5q41 57 41 133q0 66 -52 99q-35 25 -137 24h-41l-24 -104z" />
<glyph unicode="S" horiz-adv-x="1193" d="M31 104l84 306l22 6q39 -43 84 -74q111 -68 244 -68q111 0 162 45.5t51 96.5q0 35 -24.5 66.5t-50 48t-89.5 53.5l-68 39q-53 31 -86.5 55t-78.5 68.5t-68 104.5t-23 136q0 193 117 316q156 174 453 174q219 0 446 -111l11 -14l-87 -308l-20 -6q-43 43 -76 66 q-104 74 -227 74q-74 0 -120 -36t-46 -89q0 -45 39 -83t137 -91l41 -23q53 -29 87 -52.5t85 -70.5t79 -111.5t28 -142.5q0 -225 -168 -367.5t-459 -142.5q-170 0 -324 47q-76 25 -149 68z" />
<glyph unicode="T" horiz-adv-x="1110" d="M147 1145l80 289l17 12h706l359 6l12 -12l-78 -291l-16 -14l-191 6h-106l-80 -332l-90 -395l-86 -402l-15 -12l-428 -6l-10 12l70 277l104 428l101 426l-127 -2l-213 -7z" />
<glyph unicode="U" horiz-adv-x="1409" d="M100 406q0 121 58 376l90 400l51 252l14 12l432 8l11 -12l-84 -346l-74 -324q-57 -264 -57 -338q0 -82 46 -120t109 -38q100 0 164 89q33 49 56.5 126.5t87.5 348.5l73 321l60 273l12 12q154 0 373 8l8 -12l-60 -262l-86 -381q-76 -338 -131 -480.5t-159 -224.5 q-152 -123 -441 -123q-246 0 -372 82q-181 113 -181 353z" />
<glyph unicode="V" horiz-adv-x="1323" d="M213 1427l14 13q193 2 428 16l15 -14l12 -502l16 -518l150 340l139 317q49 113 148 357l14 10q201 0 377 6l10 -14q-25 -47 -47 -95q-61 -121 -166 -333l-307 -611l-187 -387l-18 -10l-461 -8l-12 12l-29 363l-63 714z" />
<glyph unicode="W" horiz-adv-x="2048" d="M211 1425l14 15l430 16l13 -10l-9 -291l-10 -293l-16 -424l258 652q76 193 131 346l18 10l449 6l14 -12l-10 -336l-6 -221l-17 -453l234 576q102 256 168 428l14 12l365 6l10 -16q-29 -59 -121 -262t-108 -238l-260 -584l-68 -153q-27 -61 -80 -189l-16 -12q-68 2 -199 2 q-143 0 -305 -6l-14 16l10 256l22 652l-118 -302l-103 -251l-137 -355l-16 -12q-72 2 -216 2q-121 0 -280 -6l-14 16l-2 344l-13 682q-2 233 -12 389z" />
<glyph unicode="X" d="M-92 14l90 115q90 115 108 139l363 475l-133 361l-119 317l12 17l449 18l12 -16q47 -203 94 -373q49 74 117 178q18 27 117 187l18 14q30 0 64 -1q135 0 323 7l9 -22q-8 -8 -187 -238l-348 -459l156 -407q82 -205 123 -310l-15 -18h-67q-172 0 -375 -8l-12 12l-52 178 l-63 207l-129 -186q-53 -82 -123 -193l-16 -10q-27 0 -80.5 1t-79.5 1q-51 0 -140.5 -3t-105.5 -3z" />
<glyph unicode="Y" horiz-adv-x="1366" d="M219 1425l10 15l457 16l12 -12q66 -274 142 -510l149 233q104 164 168 269l14 12h67q139 0 323 6l8 -16q-29 -37 -96.5 -129t-86.5 -115l-432 -588l-77 -342l-52 -250l-14 -12q-244 0 -436 -6l-10 10q74 272 100 377q37 160 53 238l-145 393q-45 126 -154 411z" />
<glyph unicode="Z" horiz-adv-x="1193" d="M-84 16l162 230l612 891q-258 0 -469 -11l-12 17l88 291l16 14l328 -2h270l428 6l13 -25q-94 -127 -224 -321l-534 -793l246 4l252 11l10 -15l-45 -155l-39 -144l-17 -14h-735l-336 -6z" />
<glyph unicode="[" horiz-adv-x="681" d="M-96 -432l192 833l66 295l184 852l14 13l535 8l14 -17l-47 -188l-14 -10h-184q-27 -104 -35 -140q-14 -53 -36 -155.5t-26 -116.5q-6 -31 -22.5 -93.5t-22.5 -92.5l-63 -279l-152 -702h205l14 -15l-47 -188l-14 -12q-86 0 -167 1t-85 1q-35 0 -297 -8z" />
<glyph unicode="\" horiz-adv-x="980" d="M248 1552l8 13q147 0 266 2l23 -19q35 -279 108 -688l52 -340q8 -49 42.5 -249.5t47.5 -284.5q31 -201 53 -275l-8 -10q-45 0 -131 -4q-43 0 -129 -4l-25 14q-8 86 -33 225q-20 125 -73 469l-56 367q-88 530 -145 784z" />
<glyph unicode="]" horiz-adv-x="681" d="M-186 -432l45 190l16 11h182q25 94 37 139q12 53 105 459l63 276l154 703h-207l-12 14l47 188l14 13q86 0 167 -1t85 -1q35 0 297 8l10 -15q-41 -184 -63 -276q-82 -342 -129 -557l-66 -295l-182 -850l-15 -12l-536 -8z" />
<glyph unicode="^" horiz-adv-x="1492" d="M309 635l416 811h213l397 -811h-282l-226 475l-237 -475h-281z" />
<glyph unicode="_" horiz-adv-x="1024" d="M-20 -154h1064v-102h-1064v102z" />
<glyph unicode="`" horiz-adv-x="598" d="M80 1620l10 14h354l13 -10q25 -186 61 -356l-10 -13h-260l-17 9q-61 170 -151 356z" />
<glyph unicode="a" d="M47 381q0 170 63.5 304t147.5 216q57 55 128 95t128 58.5t139 30t126 13.5t124 2h389l13 -17l-95 -387q-68 -281 -96 -432q-25 -121 -43 -250l-12 -12l-379 -8l-10 12l16 94q-123 -123 -307 -123q-111 0 -193 62q-139 106 -139 342zM481 418q0 -78 34 -122t95 -44 q47 0 107 43l125 536q-9 0 -18 1q-134 0 -203 -58q-53 -45 -96.5 -139t-43.5 -217z" />
<glyph unicode="b" d="M-6 12l72 291l106 455q100 410 168 788l14 17l424 71l13 -16l-54 -207l-96 -377q57 33 85 47.5t77 27.5t100 13q164 0 257 -115.5t93 -293.5q0 -152 -62.5 -299.5t-162.5 -241.5q-68 -61 -142.5 -99t-174 -52.5t-167 -17.5t-198.5 -3h-160l-180 -2zM463 262l18 -2 q47 0 73 2t68 19.5t78 52.5q61 57 95 155.5t34 184.5q0 82 -42 123t-91 41q-43 0 -108 -37z" />
<glyph unicode="c" horiz-adv-x="980" d="M59 479q0 117 41 229.5t119 206t205 149.5t285 56q186 0 325 -84l4 -16l-80 -277l-20 -2q-78 96 -182 97q-111 0 -191 -95.5t-80 -250.5q0 -96 51.5 -162t157.5 -66q100 0 197 72l20 -8q-31 -113 -71 -293l-17 -15q-139 -45 -252 -45q-252 0 -382 136.5t-130 367.5z" />
<glyph unicode="d" d="M45 387q0 250 143 455q68 96 158 154.5t179 77t189 25.5q46 3 90 3q50 0 95 -4l47 215l47 233l15 15l415 73l13 -16l-86 -334l-133 -545q-90 -381 -150 -725l-14 -12l-377 -8l-10 12l16 94q-41 -35 -69.5 -55t-93 -45t-134.5 -25q-111 0 -190 58q-150 104 -150 354z M479 424q0 -82 35 -124t88 -42q47 0 113 43l119 530q-9 0 -19 1q-137 0 -205 -58q-61 -51 -96 -151.5t-35 -198.5z" />
<glyph unicode="e" horiz-adv-x="1193" d="M70 487q0 285 170 459t434 174q217 0 342 -108.5t125 -333.5q0 -74 -21 -205l-16 -12q-315 0 -645 -8q4 -37 11 -60.5t30.5 -58.5t77 -52.5t133.5 -17.5t147.5 17.5t100 34t90.5 51.5l16 -13q-14 -53 -43 -155q-6 -23 -17.5 -72t-17.5 -72l-10 -12q-51 -23 -57 -25 q-113 -43 -291 -43q-199 0 -330 68q-125 68 -184 199q-45 98 -45 245zM483 684l297 4q8 49 8 72q0 63 -37.5 92t-84.5 29q-43 0 -84 -25q-70 -47 -99 -172z" />
<glyph unicode="f" horiz-adv-x="768" d="M39 6l78 309l123 510l-154 -6l-10 15l74 249l16 15l135 -4l25 100q39 180 76.5 261t125.5 136q98 61 273 62q100 0 235 -31l6 -18l-75 -258l-23 -9q-61 14 -84 15q-63 0 -89 -41t-50 -162l-12 -55l172 4l8 -17l-76 -247l-14 -13h-152q-94 -397 -172 -807l-18 -12 q-244 0 -406 -8z" />
<glyph unicode="g" d="M-59 -383l108 272l23 5q41 -41 66.5 -62.5t90 -48.5t140.5 -27q143 0 213 94q35 43 67 156l13 51q-55 -29 -83 -42t-76 -25.5t-102 -12.5q-178 0 -266 114t-88 274q0 246 135 450q51 78 121 132t129.5 82t150.5 43t145 18.5t157 5.5l415 4l11 -15q-78 -297 -152 -618 l-63 -287q-55 -262 -98.5 -374.5t-143.5 -192.5q-168 -137 -459 -137q-133 0 -258 32q-100 29 -190 93zM477 432q0 -35 6 -72q10 -49 42 -76.5t50.5 -30.5t32.5 -3q45 0 103 41l123 534h-31q-147 0 -221 -80q-47 -49 -76 -141t-29 -172z" />
<glyph unicode="h" d="M-4 6l176 752q84 375 107 502q29 154 40 286l15 15l434 73l12 -16l-147 -619q61 39 95 57.5t99.5 42t124.5 23.5q109 0 191 -65.5t82 -206.5q0 -70 -37 -250l-53 -229l-70 -357l-14 -12l-408 -8l-8 12l53 232l66 284q35 162 34 201q0 102 -88 102q-45 0 -110 -47 l-60 -266q-57 -268 -100 -498l-14 -12l-410 -8z" />
<glyph unicode="i" horiz-adv-x="641" d="M-18 8q84 311 137 551l20 86q45 211 70 399l14 17q225 29 441 69l12 -14l-141 -598l-25 -119q-41 -190 -72 -387l-12 -10l-436 -8zM264 1210l70 328l16 14l412 56l12 -15l-76 -323l-16 -15l-403 -59z" />
<glyph unicode="j" horiz-adv-x="641" d="M-256 -512l14 254l13 16q84 6 123.5 36t71.5 115t73 284l102 473q43 211 70 381l14 14q209 27 434 69l15 -14l-74 -299l-90 -393q-41 -203 -86 -391q-51 -221 -109 -312q-152 -236 -557 -245zM252 1208l74 332l14 14l412 54l12 -15l-76 -325l-16 -15l-406 -59z" />
<glyph unicode="k" horiz-adv-x="1236" d="M-12 8l123 492l51 231q53 227 127 608q25 115 35 207l14 17q197 27 438 71l10 -16l-73 -293l-168 -698q190 238 334 458l16 11q152 0 395 8l10 -21q-111 -121 -163 -182l-211 -250q25 -74 75 -250q57 -201 117 -376l-18 -21l-410 -10l-18 14q-12 53 -35 157.5t-35 158.5 q-31 137 -65 268q-70 -299 -121 -578l-15 -10l-403 -10z" />
<glyph unicode="l" horiz-adv-x="641" d="M-16 8l125 502l90 385q10 41 28.5 124t26.5 124q47 205 72 403l14 15l438 73l13 -16q-100 -393 -166 -680l-93 -397l-112 -529l-12 -10l-414 -8z" />
<glyph unicode="m" horiz-adv-x="1878" d="M-8 8l84 344l57 234q51 238 82 461l14 14q176 25 420 69l13 -14l-29 -133q55 47 96 70q115 70 234 69q170 0 219 -145q199 145 354 145q119 0 205 -64.5t86 -203.5q0 -72 -31 -190l-49 -220l-86 -430l-14 -12l-408 -8l-10 14l84 354l33 144q39 176 38 213 q0 51 -24.5 71.5t-56.5 20.5q-45 0 -109 -41l-37 -211l-41 -186l-74 -359l-14 -12l-403 -8l-11 14l78 334l33 141q4 29 16.5 82t16.5 82q10 51 10 78q0 37 -18.5 58.5t-31.5 24.5t-28 3q-53 0 -102 -41l-70 -311l-92 -445l-14 -12l-410 -8z" />
<glyph unicode="n" d="M-6 8l86 357l31 129q63 291 96 553l16 16q201 25 418 67l12 -14l-24 -115q166 119 319 119q37 0 75 -9t88 -33.5t81 -83t31 -142.5q0 -106 -80 -446l-29 -140l-47 -254l-16 -10l-404 -8l-10 14l76 334l43 201q29 137 28 172q0 47 -25.5 70.5t-62.5 23.5t-110 -37 q-92 -418 -158 -758l-12 -12l-414 -8z" />
<glyph unicode="o" horiz-adv-x="1236" d="M57 430q0 127 45 263t125 233q166 195 473 194q186 0 291 -59q203 -106 203 -389q0 -119 -23 -215q-35 -137 -94 -230q-164 -254 -528 -254q-233 0 -362.5 116t-129.5 341zM469 373q0 -141 96 -142q137 0 197 314q23 109 22 188q0 131 -96 131q-74 0 -131 -104 q-35 -68 -61.5 -192.5t-26.5 -194.5z" />
<glyph unicode="p" d="M-127 -504l123 492l35 153q145 637 176 908l14 12l428 72l13 -17l-27 -96q133 100 274 100q150 0 244 -106.5t94 -306.5q0 -168 -69.5 -319.5t-190.5 -246.5q-111 -88 -245 -117.5t-324 -29.5l-101 -496l-14 -12q-55 2 -164 2q-119 0 -256 -6zM479 262q4 0 13.5 -1 t15.5 -1q133 0 215 105q51 63 74.5 153t23.5 160q0 68 -28.5 113t-87.5 45q-45 0 -105 -33z" />
<glyph unicode="q" d="M45 383q0 309 203 520q63 66 133 106t159 58t150.5 23.5t179.5 7.5h156l274 4l11 -15q-74 -268 -158 -636l-72 -330q-63 -291 -127 -619l-14 -12l-412 -8l-10 12l135 559q-125 -78 -274 -78q-55 0 -108.5 19.5t-106.5 61.5t-86 127t-33 200zM477 426q0 -49 12.5 -84 t27.5 -51.5t36.5 -26.5t32 -11t18.5 -1q47 0 105 39l122 532h-32q-137 0 -207 -65q-43 -43 -79 -135.5t-36 -196.5z" />
<glyph unicode="r" horiz-adv-x="894" d="M-12 8l75 299l41 168q74 305 109 572l16 14q236 33 435 69l10 -14l-68 -258q123 262 312 262q47 0 100 -26l8 -21l-176 -403l-21 -4q-61 57 -112 57q-47 0 -90 -33t-62.5 -85t-52.5 -204l-45 -213l-37 -174l-14 -12l-418 -8z" />
<glyph unicode="s" horiz-adv-x="1024" d="M-4 98l74 258l18 6q123 -137 281 -137q57 0 100 20.5t43 63.5q0 27 -18.5 48.5t-39 33.5t-69.5 37l-43 23q-63 35 -98 59.5t-71 83.5t-36 139q0 139 101 250q127 137 395 137q78 0 146.5 -12t108.5 -26.5t109 -45.5l11 -18q-35 -111 -72 -258l-21 -4q-33 41 -53 59 q-80 66 -188 66q-68 0 -96.5 -23.5t-28.5 -50.5q0 -47 104 -96l41 -21q57 -31 89 -51.5t73 -59t60.5 -90t19.5 -118.5q0 -135 -92 -238q-141 -158 -430 -158q-236 0 -414 103z" />
<glyph unicode="t" horiz-adv-x="768" d="M57 836l70 247l16 13h127l62 268l14 14q164 39 406 107l12 -12l-45 -181l-49 -202l200 4l9 -15q-35 -100 -76 -245l-19 -15l-176 4l-71 -299q-18 -74 -29 -125q-8 -41 -8 -59q0 -84 96 -84q51 0 113 25l14 -13l-72 -254l-16 -14q-129 -27 -217 -27q-342 0 -342 244 q0 76 59 324l72 282l-135 -4z" />
<glyph unicode="u" d="M66 246q0 72 49 284l47 201q45 201 69 340l15 12l397 21l14 -17q-92 -383 -98 -409q-57 -229 -57 -289q0 -102 96 -102q49 0 117 43l90 424l65 317l15 12q258 10 403 21l10 -17l-133 -571l-45 -192l-65 -310l-15 -12l-389 -8l-10 12l25 105q-66 -59 -125 -86 q-106 -49 -195 -50q-109 0 -194.5 64t-85.5 207z" />
<glyph unicode="v" horiz-adv-x="1110" d="M113 1073l12 19q170 2 401 18l15 -14l14 -291l4 -103l6 -282l172 391l117 272l18 13l336 6l9 -19q-100 -178 -193 -356l-207 -397l-158 -316l-16 -12l-387 -8l-16 12l-41 373l-33 287z" />
<glyph unicode="w" horiz-adv-x="1705" d="M106 1075l15 17q188 2 381 18l12 -14l-2 -285v-383l139 340l129 317l17 13q115 -4 172 -4q88 0 248 10l14 -17l-10 -235l-19 -440l117 278q57 139 160 393l16 13q139 0 311 8l13 -17q-41 -80 -131.5 -272t-116.5 -248l-150 -323l-100 -230l-18 -12l-416 -8l-15 12l2 187 l7 475l-156 -371l-117 -283l-14 -12l-408 -8l-12 12l-20 342l-25 387z" />
<glyph unicode="x" horiz-adv-x="1110" d="M-113 10l193 221l272 314q-43 104 -110 248q-104 231 -127 280l14 19q209 2 414 18l16 -14q45 -135 96 -262l47 69q57 84 119 180l17 15q38 0 74 -1q147 0 280 7l8 -23q-29 -33 -103.5 -121t-103.5 -122l-229 -275q109 -244 260 -549l-12 -12q-244 0 -434 -12l-17 12 l-53 160l-41 108l-74 -98q-39 -61 -47 -70q-57 -86 -61 -90l-19 -12h-65q-162 0 -305 -8z" />
<glyph unicode="y" horiz-adv-x="1110" d="M-47 -504q29 45 104.5 162t104.5 162q2 4 23.5 37.5t39 64.5t17.5 33l-37 315l-45 359q-29 246 -62 444l15 19q217 2 415 18l13 -14l8 -256l16 -373l129 268q102 217 160 346l18 15l342 8l9 -19q-59 -94 -121 -206q-39 -70 -232 -402l-157 -278q-115 -207 -219 -410 q-70 -143 -144 -287l-18 -12l-373 -8z" />
<glyph unicode="z" horiz-adv-x="1024" d="M-86 14l215 310l121 176q176 260 213 319h-199l-149 -2l-11 19l89 254l18 8q59 0 179 -1t179 -1q111 0 525 8l8 -25q-174 -242 -240 -336q-53 -76 -173 -254t-150 -221l397 11l10 -13q-29 -82 -41 -123q-14 -43 -39 -129l-16 -12h-281h-241q-199 0 -402 -8z" />
<glyph unicode="{" horiz-adv-x="724" d="M127 489v142q55 16 95 60t54 102q10 37 13 190v180q0 82 2 123t17.5 93.5t45.5 86.5q61 70 160.5 86.5t339.5 16.5v-142q-66 -18 -94.5 -29.5t-61 -43t-49.5 -82.5q-16 -49 -16 -189v-77q0 -145 -5 -199.5t-24 -99.5q-45 -106 -188 -146q41 -12 62.5 -21.5t63.5 -43 t62 -82.5q18 -45 23.5 -99.5t5.5 -199.5v-76q0 -139 16 -189q16 -51 49 -82.5t61.5 -43t94.5 -29.5v-141q-240 0 -339 16t-161 86q-31 35 -46 87t-17 93t-2 123v178q-2 154 -13 191q-14 57 -54 101t-95 60z" />
<glyph unicode="|" horiz-adv-x="468" d="M150 -512v2048h260v-2048h-260z" />
<glyph unicode="}" horiz-adv-x="724" d="M8 -305q49 14 71.5 22.5t53.5 24.5t48.5 43t31.5 65q16 49 16 189v76q0 145 5.5 199.5t23.5 99.5q45 106 188 145q-41 12 -62.5 21.5t-63 43t-62.5 83.5q-18 45 -23.5 99t-5.5 200v77q0 139 -16 189q-16 51 -49 82.5t-61.5 43t-94.5 29.5v142q240 0 339 -16.5t161 -86.5 q31 -35 46 -87t17 -93t2 -123v-180q2 -154 13 -190q14 -57 54 -101.5t95 -60.5v-142q-55 -16 -95 -60t-54 -101q-10 -37 -13 -191v-178q0 -82 -2 -123t-17 -93t-46 -87q-61 -70 -160.5 -86t-339.5 -16v141z" />
<glyph unicode="~" horiz-adv-x="1492" d="M246 614q37 51 66.5 84t100 72t152.5 39q78 0 211 -61l74 -35q111 -47 156 -47q94 0 204 127l107 -215q-158 -170 -320 -170q-72 0 -215 63l-61 31q-96 45 -150 45q-61 0 -98 -27.5t-115 -116.5z" />
<glyph unicode="&#xa1;" horiz-adv-x="641" d="M-59 8q49 150 90 305l67 238q84 305 97 350q6 20 16 63.5t14 63.5l15 14l299 9l12 -15l-43 -225l-45 -229l-82 -551l-16 -15l-414 -22zM242 1229l77 323l15 13l375 8l12 -12l-74 -324l-16 -14l-377 -6z" />
<glyph unicode="&#xa2;" horiz-adv-x="1024" d="M55 444q0 119 42 234t122 214t216 159.5t308 60.5q14 0 119 -6l58 135l18 14q82 0 147 2l9 -14q-27 -47 -88 -170q66 -23 106 -47l4 -18q-61 -160 -98 -277l-19 -4q-66 47 -125 66l-247 -527q29 -6 61 -6q129 0 236 84l18 -10q-45 -145 -86 -285l-10 -12 q-137 -66 -293 -66q-41 0 -68 6q-27 -55 -65 -145l-14 -14q-102 -2 -168 -6l-11 14q59 106 103 188q-35 14 -68 34t-87 68t-87 132.5t-33 195.5zM434 498q0 -92 55 -160l228 471q-106 4 -194.5 -89t-88.5 -222z" />
<glyph unicode="&#xa3;" horiz-adv-x="1067" d="M-31 16q49 86 90 187q78 182 134 393l-138 -4l-8 14l57 201l17 12l119 -4q41 209 65.5 290t79.5 146q137 166 469 166q190 0 336 -61l12 -19l-78 -262l-18 -8q-102 66 -205 66q-127 0 -173 -66t-89 -248q55 -2 98 -2q78 0 226 8l12 -14l-64 -207l-14 -12h-313 q-53 -195 -99 -332q217 -2 482 6l8 -16q-41 -127 -70 -242l-16 -8h-344l-189 -2l-374 -4z" />
<glyph unicode="&#xa4;" horiz-adv-x="1366" d="M57 219l168 166q-88 143 -88 309q0 164 86 310l-164 163l195 195l164 -164q158 88 311 88q156 0 309 -88l164 164l197 -195l-166 -163q86 -154 86 -310q0 -162 -88 -311l168 -168l-199 -195l-164 168q-154 -86 -307 -86q-160 0 -311 88l-166 -165zM393 694.5 q0 -153.5 102.5 -246t235.5 -92.5q139 0 234.5 95.5t97.5 242.5q0 152 -100.5 245t-233.5 93t-234.5 -92t-101.5 -245.5z" />
<glyph unicode="&#xa5;" horiz-adv-x="1236" d="M106 295q35 119 54 203l16 12q18 0 135 -1t140 -1q20 72 20 88l-22 66q-37 -2 -254 -3l-9 15q35 119 54 203l16 14q18 -2 115 -2l-31 86q-109 315 -137 393l10 14q160 4 420 15l12 -13q0 -8 4 -20q20 -92 53 -231q10 -45 64 -236l143 223q109 176 156 258l14 11 q190 0 357 6l8 -15q-14 -18 -82 -114q-16 -25 -49 -68t-39 -51l-184 -258h65q35 0 72 2l10 -12q-37 -135 -53 -207l-17 -13q-49 2 -98 3h-141l-58 -80l-16 -74h107h79q45 0 107 4l10 -12q-45 -172 -53 -207l-17 -12q-20 0 -141 1t-143 1l-6 -29q-6 -29 -23.5 -111 t-28.5 -129l-12 -12q-221 0 -401 -6l-8 10l71 277h-106q-68 0 -120 -1t-54 -1z" />
<glyph unicode="&#xa6;" horiz-adv-x="468" d="M150 389h260v-780h-260v780zM150 631v780h260v-780h-260z" />
<glyph unicode="&#xa7;" horiz-adv-x="1150" d="M-14 -223l80 270l20 4q143 -94 276 -94q74 0 119 25.5t45 72.5q0 35 -28.5 56.5t-137.5 74.5l-49 23q-57 33 -85.5 51.5t-74 59t-65.5 96t-20 125.5q0 141 92 252q72 84 184 129q-55 76 -55 172q0 45 14 93t52 103.5t94.5 97.5t152.5 70.5t217 28.5q82 0 176 -17 q82 -14 195 -65l8 -21l-82 -251l-16 -7q-137 96 -250 97q-74 0 -113 -29t-39 -66q0 -29 21 -49q10 -14 127 -71l49 -25q49 -25 78.5 -42t75 -54t68 -91.5t22.5 -121.5q0 -70 -21 -125q-23 -68 -70 -121t-82.5 -76.5t-101.5 -60.5q27 -37 38 -56.5t21.5 -53.5t10.5 -75 q0 -172 -146.5 -295.5t-425.5 -123.5q-162 0 -366 73zM391 649q0 -43 33 -72.5t106 -66.5l86 -43l91 -49q33 25 45 35t30.5 37.5t18.5 56.5q0 51 -53 90q-2 2 -19.5 11t-42 22.5t-39.5 21.5l-90 47l-74 39q-92 -63 -92 -129z" />
<glyph unicode="&#xa8;" horiz-adv-x="598" d="M-145 1270l65 315l12 10q172 0 326 9l10 -13l-71 -311l-13 -10l-319 -13zM338 1274l61 311l13 12l323 15l10 -13l-69 -317l-14 -12l-314 -8z" />
<glyph unicode="&#xa9;" horiz-adv-x="1705" d="M170 723q0 309 215 519t514 210q313 0 522 -215t207 -518t-213 -514t-518 -211q-293 0 -510 207t-217 522zM236 723q0 -279 194.5 -471.5t468.5 -192.5q279 0 470.5 192.5t193.5 467.5q2 276 -189.5 471.5t-472.5 195.5q-279 0 -472 -194.5t-193 -468.5zM403 723 q0 217 138.5 365.5t373.5 148.5q233 0 402 -174l-178 -172q-104 100 -226 100q-127 0 -191.5 -77.5t-64.5 -188.5q0 -119 71 -191.5t190 -72.5q121 0 221 94l178 -166q-164 -172 -402 -172q-242 0 -377 145.5t-135 360.5z" />
<glyph unicode="&#xaa;" horiz-adv-x="854" d="M174 979q0 119 52.5 225.5t150.5 169.5q53 35 123.5 53.5t110.5 20.5t122 4h252l8 -10l-61 -252q-76 -328 -90 -445l-8 -8q-100 0 -246 -6l-8 8l10 62q-80 -80 -197 -80q-100 0 -159.5 68.5t-59.5 189.5zM457 1014q0 -113 82 -113q18 0 36.5 6t26.5 15l8 6q2 2 19.5 76.5 t37 162.5t25.5 111q-82 0 -117 -21q-55 -31 -86.5 -102t-31.5 -141z" />
<glyph unicode="&#xab;" horiz-adv-x="1024" d="M33 582v20q12 12 30 39q10 16 39 54t35 46q158 217 168 234l17 6l309 -2l6 -16q-102 -129 -285 -379q61 -188 129 -379l-10 -12h-289l-14 12zM471 586v20l279 363l18 10h313l6 -12q-16 -23 -67 -90l-225 -293q78 -250 129 -381l-13 -15h-295l-16 15z" />
<glyph unicode="&#xac;" horiz-adv-x="1366" d="M37 465v260h1104h260v-725h-260v465h-1104z" />
<glyph unicode="&#xad;" horiz-adv-x="811" d="M53 436l78 285l16 14h637l7 -10l-80 -285l-17 -14q-53 0 -159.5 1t-159.5 1q-94 0 -316 -4z" />
<glyph unicode="&#xae;" horiz-adv-x="1705" d="M170 723q0 311 215 520t514 209q313 0 522 -215t207 -518t-213 -514t-516 -211q-295 0 -512 207t-217 522zM236 723q0 -279 194.5 -471.5t468.5 -192.5q279 0 470.5 192.5t193.5 469.5q2 274 -188.5 469.5t-471 195.5t-474 -194.5t-193.5 -468.5zM559 262v938h334 q152 0 221 -22q82 -25 124 -91.5t42 -138.5q0 -66 -31.5 -114t-60.5 -65t-72 -38q47 -31 68.5 -62.5t36.5 -113.5q33 -209 79 -293h-258q-31 59 -51 203q-18 133 -41.5 160.5t-126.5 29.5h-39v-393h-225zM784 834h99q100 0 131 18q41 23 41 82q0 61 -49 84q-27 10 -154 10 h-68v-194z" />
<glyph unicode="&#xaf;" horiz-adv-x="598" d="M-96 1303q39 102 73 210l21 17q84 -4 170 -6h315q119 0 201 6l10 -14q-29 -80 -76 -220l-18 -10q-10 0 -87 1t-107 1h-310q-104 0 -182 -2z" />
<glyph unicode="&#xb0;" horiz-adv-x="724" d="M106 1178q0 143 102.5 247.5t250.5 104.5q150 0 252 -105.5t102 -248.5q0 -141 -102.5 -248t-253.5 -105q-145 2 -248 106t-103 249zM346 1176q0 -47 33 -80t78 -33q49 0 82.5 32.5t33.5 80t-33.5 82t-80.5 34.5t-80 -33.5t-33 -82.5z" />
<glyph unicode="&#xb1;" horiz-adv-x="1366" d="M121 0v260h1194v-260h-1194zM121 760v260h469v428h260v-428h465v-260h-465v-428h-260v428h-469z" />
<glyph unicode="&#xb2;" horiz-adv-x="811" d="M41 496q12 14 56 59t63 63l98 105q133 143 178 197q98 109 99 172q0 43 -33 72.5t-96 29.5q-104 0 -209 -88l-13 6q37 152 52 221l8 13q109 61 254 61q162 0 243.5 -76t81.5 -180q0 -66 -30.5 -131.5t-65.5 -105.5t-102 -109l-107 -109q43 0 252 9l6 -11 q-29 -90 -57 -205l-12 -8q-27 2 -240 2h-119q-117 0 -301 -4z" />
<glyph unicode="&#xb3;" horiz-adv-x="811" d="M92 532q23 90 45 193l15 2q57 -74 163 -74q92 0 135.5 51.5t43.5 104.5q0 47 -32 78t-81 31q-37 0 -66 -17l-8 10q6 10 82 131q4 8 15.5 24.5t29 45.5t43.5 72q-51 -2 -139 -4t-117 -2l-8 8q14 51 28.5 103t24.5 89l10 8q68 -4 207 -4q84 0 174.5 2t146.5 4.5t60 2.5 l6 -17q-57 -82 -106 -149q-10 -16 -66.5 -97t-64.5 -94q72 -2 117 -62.5t45 -150.5q0 -59 -21.5 -117.5t-68 -115t-132.5 -91t-200 -34.5q-160 0 -275 57z" />
<glyph unicode="&#xb4;" horiz-adv-x="598" d="M2 1266q106 170 197 354l12 10q143 -2 377 6l8 -16q-10 -12 -74.5 -85t-123 -140.5t-76.5 -89.5q-25 -29 -37 -45l-17 -7l-256 -4z" />
<glyph unicode="&#xb5;" d="M-127 -504q25 78 61 244q20 84 62 248l166 743q47 205 69 342l15 12q195 6 397 19l12 -17q-16 -63 -53 -227t-53 -225q-47 -188 -47 -246q0 -102 94 -102t133 106q16 49 76 361q4 27 33.5 167t31.5 152l15 12q172 4 403 19l10 -17q-8 -35 -47 -196q-61 -264 -86 -375 l-47 -205q-35 -156 -63 -297l-15 -12q-227 -2 -389 -8l-10 12l16 70q-41 -88 -122 -88q-88 0 -111 90q-10 -51 -36 -175t-46 -228.5t-37 -176.5l-14 -12q-55 2 -166 2q-80 0 -242 -6z" />
<glyph unicode="&#xb6;" horiz-adv-x="1366" d="M264 1004q0 209 133 331q119 111 330 111h512v-160h-74v-1628h-172v1628h-241v-1628h-172v940q-106 27 -170 78q-146 115 -146 328z" />
<glyph unicode="&#xb7;" horiz-adv-x="555" d="M59 416l68 327l14 13l387 4l9 -12l-72 -324l-16 -12l-377 -9z" />
<glyph unicode="&#xb8;" horiz-adv-x="598" d="M43 -428q100 131 240 336l18 8h246l8 -14q-70 -119 -186 -332l-17 -10h-299z" />
<glyph unicode="&#xb9;" horiz-adv-x="811" d="M274 487q45 178 72 291l25 92q16 66 73 324q-76 -2 -127 -8l-8 8q12 41 47 160l11 8q352 41 391 49l8 -10q-4 -18 -45 -182q-4 -18 -15.5 -64.5t-17.5 -73.5l-39 -157q-53 -240 -63 -297q-2 -4 -14.5 -68.5t-12.5 -66.5l-10 -9q-137 0 -266 -4z" />
<glyph unicode="&#xba;" horiz-adv-x="811" d="M166 1008q0 96 41 204.5t129 173.5q100 72 252 72q319 0 319 -299q0 -156 -71 -272q-106 -174 -340 -174q-156 -4 -243 72t-87 223zM434 967q0 -88 64 -88q39 0 69.5 43t45 103t20.5 106.5t6 72.5q0 86 -59 86q-43 0 -75 -47t-45.5 -110.5t-19.5 -106.5t-6 -59z" />
<glyph unicode="&#xbb;" horiz-adv-x="1024" d="M-29 205q35 47 148 188q25 33 74 97.5t73 97.5q-49 158 -129 379l13 14h292l19 -14l129 -383l-2 -21l-277 -360l-20 -13h-314zM422 209q41 49 287 377q-63 199 -131 379l12 14h287l14 -14l137 -375l-2 -21q-12 -16 -68.5 -92t-64.5 -88q-72 -94 -137 -192l-17 -9l-311 5z " />
<glyph unicode="&#xbc;" horiz-adv-x="1878" d="M274 487q45 178 72 291l25 92q16 66 73 324q-76 -2 -127 -8l-8 8q12 41 47 160l11 8q352 41 391 49l8 -10q-4 -18 -45 -182q-4 -18 -15.5 -64.5t-17.5 -73.5l-39 -157q-53 -240 -63 -297q-2 -4 -14.5 -68.5t-12.5 -66.5l-10 -9q-137 0 -266 -4zM403 18q27 41 157 234.5 t181 269.5q53 80 160 242t162 244q152 227 233 364l19 12q131 0 209 2l6 -18l-316 -459q-287 -422 -569 -889l-16 -12q-8 -8 -217 -8zM1047 176l32 152l8 16q72 96 189 277q115 176 190 278l13 6q115 2 329 2l7 -10q-14 -72 -66 -276q-33 -135 -61 -271q57 0 102 4l8 -10 q-35 -113 -49 -172l-8 -6h-96q-23 -102 -31 -158l-12 -10q-131 0 -248 -6l-8 10q18 57 45 164h-158h-178zM1294 350h140l43 158q47 170 63 223q-4 -6 -40 -62.5t-44 -68.5z" />
<glyph unicode="&#xbd;" horiz-adv-x="1878" d="M274 487q45 178 72 291l25 92q16 66 73 324q-76 -2 -127 -8l-8 8q12 41 47 160l11 8q352 41 391 49l8 -10q-4 -18 -45 -182q-4 -18 -15.5 -64.5t-17.5 -73.5l-39 -157q-53 -240 -63 -297q-2 -4 -14.5 -68.5t-12.5 -66.5l-10 -9q-137 0 -266 -4zM344 16q25 39 336 506 q109 162 321 486q152 227 234 364l18 12q131 0 211 2l4 -18q-18 -29 -83.5 -123t-141.5 -205.5t-88 -128.5q-262 -383 -571 -891l-17 -14l-51 -2q-51 0 -105.5 -2t-60.5 -2zM997 12q25 29 119 123l98 105q133 143 179 196q98 113 98 172q0 43 -33 73t-96 30q-104 0 -209 -88 l-12 6q37 152 51 221l8 12q109 61 254 62q162 0 244 -76t82 -180q0 -66 -32 -131.5t-64.5 -103.5t-102.5 -111l-106 -109q43 0 251 8l7 -10q-27 -82 -58 -205l-12 -6h-240h-118q-201 0 -301 -4z" />
<glyph unicode="&#xbe;" horiz-adv-x="1878" d="M92 532q23 90 45 193l15 2q57 -74 163 -74q92 0 135.5 51.5t43.5 104.5q0 47 -32 78t-81 31q-37 0 -66 -17l-8 10q8 14 82 131q4 8 15.5 24.5t29 45.5t43.5 72q-51 -2 -139 -4t-117 -2l-8 8q14 51 28.5 103t24.5 89l10 8q68 -4 207 -4q84 0 174.5 2t146.5 4.5t60 2.5 l6 -17q-57 -82 -106 -149q-10 -16 -66.5 -97t-64.5 -94q72 -2 117 -62.5t45 -150.5q0 -59 -21.5 -117.5t-68 -115t-132.5 -91t-200 -34.5q-160 0 -275 57zM463 18q27 41 157 234.5t181 269.5q55 80 161.5 242t159.5 244q152 227 234 364l18 12q131 0 211 2l4 -18l-315 -459 q-287 -422 -569 -889l-17 -12q-8 -8 -217 -8zM1044 176l33 152l8 16q63 82 191 277q131 201 190 278l13 6q113 2 329 2l7 -10q0 -4 -66 -276q-33 -135 -61 -271q57 0 102 4l6 -10q-25 -82 -47 -172l-10 -6h-94q-14 -59 -33 -158l-10 -10q-131 0 -250 -6l-6 10q4 12 18 64.5 t27 99.5h-158h-178zM1294 350h140l43 158q47 170 63 223q-4 -6 -40 -62.5t-44 -68.5z" />
<glyph unicode="&#xbf;" horiz-adv-x="937" d="M-2 365q0 76 35 152.5t73.5 123.5t110.5 125l59 59q76 76 115 133q20 29 45 86l15 13l360 6l8 -14q-16 -68 -51 -116t-141 -163l-49 -51q-152 -170 -152 -270q0 -70 52 -115t128 -45q125 0 254 119l19 -15l-82 -311l-11 -12q-178 -82 -348 -82q-215 0 -327.5 111.5 t-112.5 265.5zM475 1229l76 323l14 13l375 8l10 -14l-69 -326l-15 -14q-211 2 -381 -5z" />
<glyph unicode="&#xc0;" horiz-adv-x="1409" d="M-117 18q37 63 254 467l242 453q184 356 256 496l16 12l533 8l12 -12q43 -698 98 -1428l-10 -12l-430 -8l-10 12v211l-2 137h-383l-158 -340l-14 -14q-176 2 -396 -6zM598 647h244v518h-4zM651 1872l13 16h356l12 -12q8 -139 33 -315l-12 -17h-232l-14 10 q-109 224 -156 318z" />
<glyph unicode="&#xc1;" horiz-adv-x="1409" d="M-117 18q37 63 254 467l242 453q184 356 256 496l16 12l533 8l12 -12q43 -698 98 -1428l-10 -12l-430 -8l-10 12v211l-2 137h-383l-158 -340l-14 -14q-176 2 -396 -6zM598 647h244v518h-4zM815 1561q102 188 164 319l14 10h387l9 -14q-268 -268 -299 -301 q-12 -12 -19 -21l-18 -8h-232z" />
<glyph unicode="&#xc2;" horiz-adv-x="1409" d="M-117 18q37 63 254 467l242 453q184 356 256 496l16 12l533 8l12 -12q43 -698 98 -1428l-10 -12l-430 -8l-10 12v211l-2 137h-383l-158 -340l-14 -14q-176 2 -396 -6zM567 1561q8 12 80 108q106 147 150 209l16 10h426l12 -10q31 -117 95 -311l-13 -17l-301 -4l-14 15 l-31 149q-43 -47 -121 -156l-14 -8h-277zM598 647h244v518h-4z" />
<glyph unicode="&#xc3;" horiz-adv-x="1409" d="M-117 18q37 63 254 467l242 453q184 356 256 496l16 12l533 8l12 -12q43 -698 98 -1428l-10 -12l-430 -8l-10 12v211l-2 137h-383l-158 -340l-14 -14q-176 2 -396 -6zM590 1573l57 242l10 16q104 68 187 67q49 0 166 -34l26 -11q88 -31 142 -30q68 0 198 78l15 -11 l-52 -248l-12 -16q-113 -80 -217 -80q-55 0 -149 35l-35 12q-76 29 -129 29q-82 0 -193 -55zM598 647h244v518h-4z" />
<glyph unicode="&#xc4;" horiz-adv-x="1409" d="M-117 18q37 63 254 467l242 453q184 356 256 496l16 12l533 8l12 -12q43 -698 98 -1428l-10 -12l-430 -8l-10 12v211l-2 137h-383l-158 -340l-14 -14q-176 2 -396 -6zM483 1556q39 141 70 297l12 13l332 4l6 -12l-76 -302l-12 -10h-321zM598 647h244v518h-4zM999 1550 l68 299l12 13l326 8l10 -12l-69 -308l-13 -10q-150 4 -323 -2z" />
<glyph unicode="&#xc5;" horiz-adv-x="1409" d="M-117 18q37 63 254 467l242 453q184 356 256 496l16 12l533 8l12 -12q43 -698 98 -1428l-10 -12l-430 -8l-10 12v211l-2 137h-383l-158 -340l-14 -14q-176 2 -396 -6zM598 647h244v518h-4zM682 1712q0 115 87 199t230 84q74 0 125.5 -21.5t75 -57.5t32.5 -65.5t9 -60.5 q2 -113 -82 -203t-233 -90q-117 0 -180.5 59.5t-63.5 155.5zM881 1704q0 -80 59 -80q70 0 98 113q8 37 9 59q0 74 -58 74q-43 0 -75.5 -51.5t-32.5 -114.5z" />
<glyph unicode="&#xc6;" horiz-adv-x="1878" d="M-111 10q158 250 310 502l290 477q78 127 136.5 224.5t83 137.5t49.5 81l16 14h1208l9 -6q-43 -147 -76 -283l-12 -12q-41 0 -122 1t-120 1q-113 0 -205 -4l-63 -258h196l228 6l8 -17l-80 -268l-14 -12h-408l-25 -105l-43 -172h250l267 11l8 -15l-88 -301l-13 -12h-403 l-109 -2l-387 -4l-10 12l47 187l45 182h-352l-70 -127q-8 -16 -35.5 -64.5t-58.5 -104.5t-37 -67l-14 -12l-399 -6zM682 676h254l117 471h-99z" />
<glyph unicode="&#xc7;" d="M119 606q0 170 53 324.5t153.5 277.5t261.5 196t359 73q268 0 422 -103l8 -16q-70 -236 -90 -316l-16 -6q-104 104 -271 105q-90 0 -165.5 -35t-123.5 -90t-82 -125t-48.5 -136.5t-14.5 -125.5q0 -143 80 -236.5t234 -93.5q170 0 305 100l16 -10q-33 -123 -49 -186 q-6 -27 -18.5 -78t-16.5 -72l-12 -16q-133 -68 -344 -68q-315 0 -478 173t-163 464zM340 -426q154 211 238 334l18 10q98 -2 246 -2l8 -12q-94 -168 -186 -332l-15 -12q-154 2 -301 0z" />
<glyph unicode="&#xc8;" horiz-adv-x="1150" d="M0 6l100 410l82 336q76 342 144 680l14 14h541l364 6l12 -12l-79 -281l-15 -14h-461l-61 -260l451 8l8 -16l-78 -267l-14 -12h-428l-25 -100l-43 -181h223l312 11l12 -13l-90 -301l-15 -14h-567l-379 -6zM522 1872l13 16h356l12 -12q8 -139 33 -315l-12 -17h-232l-14 10 q-109 224 -156 318z" />
<glyph unicode="&#xc9;" horiz-adv-x="1150" d="M0 6l100 410l82 336q76 342 144 680l14 14h541l364 6l12 -12l-79 -281l-15 -14h-461l-61 -260l451 8l8 -16l-78 -267l-14 -12h-428l-25 -100l-43 -181h223l312 11l12 -13l-90 -301l-15 -14h-567l-379 -6zM686 1561q102 188 164 319l14 10h387l9 -14q-268 -268 -299 -301 q-12 -12 -19 -21l-18 -8h-232z" />
<glyph unicode="&#xca;" horiz-adv-x="1150" d="M0 6l100 410l82 336q76 342 144 680l14 14h541l364 6l12 -12l-79 -281l-15 -14h-461l-61 -260l451 8l8 -16l-78 -267l-14 -12h-428l-25 -100l-43 -181h223l312 11l12 -13l-90 -301l-15 -14h-567l-379 -6zM438 1561q8 12 80 108q106 147 150 209l16 10h426l12 -10 q31 -117 95 -311l-13 -17l-301 -4l-14 15l-31 149q-43 -47 -121 -156l-14 -8h-277z" />
<glyph unicode="&#xcb;" horiz-adv-x="1150" d="M0 6l100 410l82 336q76 342 144 680l14 14h541l364 6l12 -12l-79 -281l-15 -14h-461l-61 -260l451 8l8 -16l-78 -267l-14 -12h-428l-25 -100l-43 -181h223l312 11l12 -13l-90 -301l-15 -14h-567l-379 -6zM387 1556q39 141 70 297l12 13l332 4l6 -12l-76 -302l-12 -10 h-322zM903 1550l68 299l12 13l326 8l10 -12l-70 -308l-12 -10q-150 4 -324 -2z" />
<glyph unicode="&#xcc;" horiz-adv-x="681" d="M0 6l68 283l106 446q70 297 154 699l10 12q238 0 446 6l7 -12q-100 -379 -199 -817l-72 -328l-55 -283l-14 -10l-443 -8zM289 1872l12 16h356l13 -12q8 -139 32 -315l-12 -17h-231l-15 10q-108 224 -155 318z" />
<glyph unicode="&#xcd;" horiz-adv-x="681" d="M0 6l68 283l106 446q70 297 154 699l10 12q238 0 446 6l7 -12q-100 -379 -199 -817l-72 -328l-55 -283l-14 -10l-443 -8zM453 1561q102 188 163 319l15 10h387l8 -14q-268 -268 -299 -301q-12 -12 -18 -21l-19 -8h-231z" />
<glyph unicode="&#xce;" horiz-adv-x="681" d="M0 6l68 283l106 446q70 297 154 699l10 12q238 0 446 6l7 -12q-100 -379 -199 -817l-72 -328l-55 -283l-14 -10l-443 -8zM205 1561q8 12 80 108q106 147 149 209l17 10h426l12 -10q31 -117 94 -311l-12 -17l-301 -4l-15 15l-30 149q-43 -47 -121 -156l-15 -8h-276z" />
<glyph unicode="&#xcf;" horiz-adv-x="681" d="M0 6l68 283l106 446q70 297 154 699l10 12q238 0 446 6l7 -12q-100 -379 -199 -817l-72 -328l-55 -283l-14 -10l-443 -8zM154 1556q39 141 69 297l13 13l331 4l6 -12l-75 -302l-13 -10h-321zM670 1550l67 299l13 13l325 8l10 -12l-69 -308l-12 -10q-150 4 -324 -2z" />
<glyph unicode="&#xd0;" horiz-adv-x="1449" d="M0 6q20 76 68 281q23 98 59 243l27 127q-25 0 -53.5 -2t-55.5 -4l-12 11q8 33 19 81t22 93l16 12q59 -2 107 -2l8 37q86 422 104 551l15 12h170h188q135 2 202.5 0t163 -19.5t162.5 -54.5q238 -127 238 -469q0 -92 -18.5 -194.5t-60.5 -222t-130 -226t-209 -168.5 q-88 -47 -211 -68.5t-212 -24.5t-288 -3h-149l-160 -2zM514 319l23 -2q59 0 97 3.5t95 26t100 63.5q74 74 122 217t48 274q0 66 -18 113t-42 69.5t-67 33.5t-71.5 12t-77.5 1h-29l-61 -276q104 2 223 8l8 -12q-35 -119 -49 -174l-14 -12q-104 2 -211 0q-8 -31 -24.5 -107 t-33 -154t-18.5 -84z" />
<glyph unicode="&#xd1;" horiz-adv-x="1492" d="M2 6l104 436l93 414q68 285 120 578l15 12q199 0 358 6l15 -10l104 -225l107 -218q115 -248 157 -333h4l88 428l72 340l10 12q176 0 332 6l10 -12l-135 -584l-51 -223l-137 -621l-15 -10l-290 -8l-13 8l-106 219l-305 647h-4l-107 -559l-55 -297l-13 -10l-348 -8z M633 1573l57 242l10 16q104 68 187 67q49 0 166 -34l26 -11q88 -31 142 -30q68 0 198 78l15 -11l-52 -248l-12 -16q-113 -80 -217 -80q-55 0 -149 35l-35 12q-76 29 -129 29q-82 0 -193 -55z" />
<glyph unicode="&#xd2;" horiz-adv-x="1536" d="M109 549q0 66 11 150.5t42 202.5t101.5 234.5t172.5 194.5q184 145 494 146q303 0 450 -154q152 -160 152 -426q0 -141 -43 -303q-82 -293 -242 -440q-199 -184 -524 -185q-100 0 -176 17q-98 18 -168 51q-270 133 -270 512zM553 520q0 -68 14 -108q14 -45 41 -75 t58.5 -40t47 -13t29.5 -3q231 0 318 493q18 100 18 168q0 233 -186 234q-125 0 -209 -142q-51 -88 -91 -248t-40 -266zM715 1872l12 16h356l13 -12q8 -139 32 -315l-12 -17h-231l-15 10q-108 224 -155 318z" />
<glyph unicode="&#xd3;" horiz-adv-x="1536" d="M109 549q0 66 11 150.5t42 202.5t101.5 234.5t172.5 194.5q184 145 494 146q303 0 450 -154q152 -160 152 -426q0 -141 -43 -303q-82 -293 -242 -440q-199 -184 -524 -185q-100 0 -176 17q-98 18 -168 51q-270 133 -270 512zM553 520q0 -68 14 -108q14 -45 41 -75 t58.5 -40t47 -13t29.5 -3q231 0 318 493q18 100 18 168q0 233 -186 234q-125 0 -209 -142q-51 -88 -91 -248t-40 -266zM879 1561q102 188 163 319l15 10h387l8 -14q-268 -268 -299 -301q-12 -12 -18 -21l-19 -8h-231z" />
<glyph unicode="&#xd4;" horiz-adv-x="1536" d="M109 549q0 66 11 150.5t42 202.5t101.5 234.5t172.5 194.5q184 145 494 146q303 0 450 -154q152 -160 152 -426q0 -141 -43 -303q-82 -293 -242 -440q-199 -184 -524 -185q-100 0 -176 17q-98 18 -168 51q-270 133 -270 512zM553 520q0 -68 14 -108q14 -45 41 -75 t58.5 -40t47 -13t29.5 -3q231 0 318 493q18 100 18 168q0 233 -186 234q-125 0 -209 -142q-51 -88 -91 -248t-40 -266zM631 1561q8 12 80 108q106 147 149 209l17 10h426l12 -10q31 -117 94 -311l-12 -17l-301 -4l-15 15l-30 149q-43 -47 -121 -156l-15 -8h-276z" />
<glyph unicode="&#xd5;" horiz-adv-x="1536" d="M109 549q0 66 11 150.5t42 202.5t101.5 234.5t172.5 194.5q184 145 494 146q303 0 450 -154q152 -160 152 -426q0 -141 -43 -303q-82 -293 -242 -440q-199 -184 -524 -185q-100 0 -176 17q-98 18 -168 51q-270 133 -270 512zM553 520q0 -68 14 -108q14 -45 41 -75 t58.5 -40t47 -13t29.5 -3q231 0 318 493q18 100 18 168q0 233 -186 234q-125 0 -209 -142q-51 -88 -91 -248t-40 -266zM653 1573l58 242l10 16q104 68 186 67q49 0 166 -34l27 -11q88 -31 141 -30q68 0 199 78l14 -11l-51 -248l-12 -16q-113 -80 -217 -80q-55 0 -150 35 l-35 12q-76 29 -129 29q-82 0 -192 -55z" />
<glyph unicode="&#xd6;" horiz-adv-x="1536" d="M109 549q0 66 11 150.5t42 202.5t101.5 234.5t172.5 194.5q184 145 494 146q303 0 450 -154q152 -160 152 -426q0 -141 -43 -303q-82 -293 -242 -440q-199 -184 -524 -185q-100 0 -176 17q-98 18 -168 51q-270 133 -270 512zM553 520q0 -68 14 -108q14 -45 41 -75 t58.5 -40t47 -13t29.5 -3q231 0 318 493q18 100 18 168q0 233 -186 234q-125 0 -209 -142q-51 -88 -91 -248t-40 -266zM561 1556q39 141 70 297l12 13l332 4l6 -12l-76 -302l-12 -10h-322zM1077 1550l68 299l12 13l326 8l10 -12l-70 -308l-12 -10q-150 4 -324 -2z" />
<glyph unicode="&#xd7;" horiz-adv-x="1366" d="M160 225l372 371l-372 375l184 182l373 -371l375 371l184 -182l-373 -375l373 -371l-184 -186l-375 373l-373 -373z" />
<glyph unicode="&#xd8;" horiz-adv-x="1536" d="M-61 104l2 21l209 166q-41 115 -41 248q0 106 18 217.5t72.5 246t139.5 235.5t234.5 170t341.5 69q76 0 156 -13q76 -12 133.5 -33.5t87 -41t82.5 -62.5q100 82 185 160l18 2l111 -123l-5 -18q-35 -27 -206 -168q57 -141 57 -291q0 -63 -11.5 -142t-42 -194t-101 -229.5 t-171.5 -196.5q-195 -158 -493 -158q-139 0 -241.5 31t-140.5 59.5t-87 77.5l-183 -162l-18 -2zM559 420q25 -82 78 -117q45 -29 104 -29q121 0 205 127q94 145 131 443zM559 643l510 418q-51 123 -166 123q-82 0 -145.5 -52.5t-102.5 -139.5t-61.5 -171t-34.5 -178z" />
<glyph unicode="&#xd9;" horiz-adv-x="1409" d="M100 406q0 121 58 376l90 400l51 252l14 12l432 8l11 -12l-84 -346l-74 -324q-57 -264 -57 -338q0 -82 46 -120t109 -38q100 0 164 89q33 49 56.5 126.5t87.5 348.5l73 321l60 273l12 12q154 0 373 8l8 -12l-60 -262l-86 -381q-76 -338 -131 -480.5t-159 -224.5 q-152 -123 -441 -123q-246 0 -372 82q-181 113 -181 353zM651 1872l13 16h356l12 -12q8 -139 33 -315l-12 -17h-232l-14 10q-109 224 -156 318z" />
<glyph unicode="&#xda;" horiz-adv-x="1409" d="M100 406q0 121 58 376l90 400l51 252l14 12l432 8l11 -12l-84 -346l-74 -324q-57 -264 -57 -338q0 -82 46 -120t109 -38q100 0 164 89q33 49 56.5 126.5t87.5 348.5l73 321l60 273l12 12q154 0 373 8l8 -12l-60 -262l-86 -381q-76 -338 -131 -480.5t-159 -224.5 q-152 -123 -441 -123q-246 0 -372 82q-181 113 -181 353zM815 1561q102 188 164 319l14 10h387l9 -14q-268 -268 -299 -301q-12 -12 -19 -21l-18 -8h-232z" />
<glyph unicode="&#xdb;" horiz-adv-x="1409" d="M100 406q0 121 58 376l90 400l51 252l14 12l432 8l11 -12l-84 -346l-74 -324q-57 -264 -57 -338q0 -82 46 -120t109 -38q100 0 164 89q33 49 56.5 126.5t87.5 348.5l73 321l60 273l12 12q154 0 373 8l8 -12l-60 -262l-86 -381q-76 -338 -131 -480.5t-159 -224.5 q-152 -123 -441 -123q-246 0 -372 82q-181 113 -181 353zM567 1561q8 12 80 108q106 147 150 209l16 10h426l12 -10q31 -117 95 -311l-13 -17l-301 -4l-14 15l-31 149q-43 -47 -121 -156l-14 -8h-277z" />
<glyph unicode="&#xdc;" horiz-adv-x="1409" d="M100 406q0 121 58 376l90 400l51 252l14 12l432 8l11 -12l-84 -346l-74 -324q-57 -264 -57 -338q0 -82 46 -120t109 -38q100 0 164 89q33 49 56.5 126.5t87.5 348.5l73 321l60 273l12 12q154 0 373 8l8 -12l-60 -262l-86 -381q-76 -338 -131 -480.5t-159 -224.5 q-152 -123 -441 -123q-246 0 -372 82q-181 113 -181 353zM530 1556q39 141 70 297l12 13l332 4l6 -12l-76 -302l-12 -10h-321zM1047 1550l67 299l12 13l326 8l10 -12l-69 -308l-13 -10q-150 4 -323 -2z" />
<glyph unicode="&#xdd;" horiz-adv-x="1366" d="M219 1425l10 15l457 16l12 -12q66 -274 142 -510l149 233q104 164 168 269l14 12q160 -2 390 6l8 -16q-29 -37 -96.5 -129t-86.5 -115l-432 -588l-77 -342l-52 -250l-14 -12q-244 0 -436 -6l-10 10q74 272 100 377q37 160 53 238l-145 393q-45 126 -154 411zM793 1561 q102 188 163 319l15 10h387l8 -14q-268 -268 -299 -301q-12 -12 -18 -21l-19 -8h-231z" />
<glyph unicode="&#xde;" horiz-adv-x="1323" d="M-4 6q6 25 33 141q10 47 34 142l107 446q106 463 152 699l10 10q199 0 430 8l8 -12q-16 -47 -45 -174q270 0 360 -25q129 -39 199 -138t70 -247q0 -119 -49.5 -237.5t-133.5 -190.5q-57 -51 -126.5 -83t-158.5 -45t-149.5 -17t-167.5 -7h-73q-41 -197 -52 -262l-14 -12 q-270 -4 -426 -8zM563 582h45q168 0 236 63q74 68 74 180q0 53 -20.5 87t-61.5 46.5t-70 15.5t-74 1h-39q-18 -78 -82 -352z" />
<glyph unicode="&#xdf;" horiz-adv-x="1366" d="M-2 6l135 580l70 323q55 242 63 275q41 162 99 239q145 205 507 205q281 0 410 -121q92 -86 92 -207q0 -63 -26.5 -120.5t-52 -86t-72.5 -75.5l-43 -39q-86 -78 -86 -119q0 -31 55 -127l57 -96q86 -139 86 -248q0 -156 -139 -281.5t-399 -125.5q-86 0 -224 36l-10 19 l55 244l19 4q53 -41 113 -41q74 0 113.5 43t39.5 94q0 66 -96 223l-43 66q-37 61 -37 104q0 53 78 131l61 60q76 66 105 100q66 88 65 172q0 53 -34.5 95t-106.5 42q-109 0 -156 -119q-31 -94 -90 -397l-94 -428l-88 -414l-16 -14l-398 -8z" />
<glyph unicode="&#xe0;" d="M47 381q0 170 63.5 304t147.5 216q57 55 128 95t128 58.5t139 30t126 13.5t124 2h389l13 -17l-95 -387q-68 -281 -96 -432q-25 -121 -43 -250l-12 -12l-379 -8l-10 12l16 94q-123 -123 -307 -123q-111 0 -193 62q-139 106 -139 342zM481 418q0 -78 34 -122t95 -44 q47 0 107 43l125 536q-9 0 -18 1q-134 0 -203 -58q-53 -45 -96.5 -139t-43.5 -217zM502 1620l10 14h354l13 -10q25 -186 61 -356l-10 -13h-260l-17 9q-61 170 -151 356z" />
<glyph unicode="&#xe1;" d="M47 381q0 170 63.5 304t147.5 216q57 55 128 95t128 58.5t139 30t126 13.5t124 2h389l13 -17l-95 -387q-68 -281 -96 -432q-25 -121 -43 -250l-12 -12l-379 -8l-10 12l16 94q-123 -123 -307 -123q-111 0 -193 62q-139 106 -139 342zM481 418q0 -78 34 -122t95 -44 q47 0 107 43l125 536q-9 0 -18 1q-134 0 -203 -58q-53 -45 -96.5 -139t-43.5 -217zM684 1266q106 170 197 354l12 10q143 -2 377 6l8 -16q-10 -12 -74.5 -85t-123 -140.5t-76.5 -89.5q-25 -29 -37 -45l-17 -7l-256 -4z" />
<glyph unicode="&#xe2;" d="M47 381q0 170 63.5 304t147.5 216q57 55 128 95t128 58.5t139 30t126 13.5t124 2h389l13 -17l-95 -387q-68 -281 -96 -432q-25 -121 -43 -250l-12 -12l-379 -8l-10 12l16 94q-123 -123 -307 -123q-111 0 -193 62q-139 106 -139 342zM481 418q0 -78 34 -122t95 -44 q47 0 107 43l125 536q-9 0 -18 1q-134 0 -203 -58q-53 -45 -96.5 -139t-43.5 -217zM424 1270q96 150 112 176q84 131 113 180l16 10h441l12 -10q37 -178 94 -354l-10 -12q-184 -2 -307 -13l-12 10l-41 218l-127 -211l-15 -9h-266z" />
<glyph unicode="&#xe3;" d="M47 381q0 170 63.5 304t147.5 216q57 55 128 95t128 58.5t139 30t126 13.5t124 2h389l13 -17l-95 -387q-68 -281 -96 -432q-25 -121 -43 -250l-12 -12l-379 -8l-10 12l16 94q-123 -123 -307 -123q-111 0 -193 62q-139 106 -139 342zM481 418q0 -78 34 -122t95 -44 q47 0 107 43l125 536q-9 0 -18 1q-134 0 -203 -58q-53 -45 -96.5 -139t-43.5 -217zM437 1286l55 236l12 18q102 68 193 68q51 0 153 -33l35 -12q84 -31 133 -31q82 0 205 82l10 -10l-49 -252l-12 -17q-127 -82 -227 -82q-53 0 -146 37l-35 15q-68 29 -118 28q-74 0 -197 -57 z" />
<glyph unicode="&#xe4;" d="M47 381q0 170 63.5 304t147.5 216q57 55 128 95t128 58.5t139 30t126 13.5t124 2h389l13 -17l-95 -387q-68 -281 -96 -432q-25 -121 -43 -250l-12 -12l-379 -8l-10 12l16 94q-123 -123 -307 -123q-111 0 -193 62q-139 106 -139 342zM481 418q0 -78 34 -122t95 -44 q47 0 107 43l125 536q-9 0 -18 1q-134 0 -203 -58q-53 -45 -96.5 -139t-43.5 -217zM439 1272l65 315l12 10q172 0 326 9l10 -13l-71 -311l-13 -10l-319 -13zM922 1276l61 311l13 12l323 15l10 -13l-69 -317l-14 -12l-314 -8z" />
<glyph unicode="&#xe5;" d="M47 381q0 170 63.5 304t147.5 216q57 55 128 95t128 58.5t139 30t126 13.5t124 2h389l13 -17l-95 -387q-68 -281 -96 -432q-25 -121 -43 -250l-12 -12l-379 -8l-10 12l16 94q-123 -123 -307 -123q-111 0 -193 62q-139 106 -139 342zM481 418q0 -78 34 -122t95 -44 q47 0 107 43l125 536q-9 0 -18 1q-134 0 -203 -58q-53 -45 -96.5 -139t-43.5 -217zM600 1411q0 113 86 198t232 85q133 0 187.5 -64.5t54.5 -140.5q0 -113 -83 -203t-233 -90q-117 0 -180.5 59.5t-63.5 155.5zM799 1405q0 -82 59 -82q70 0 99 113q8 41 8 59q0 74 -57 74 q-43 0 -76 -50.5t-33 -113.5z" />
<glyph unicode="&#xe6;" horiz-adv-x="1748" d="M8 309.5q0 194.5 154 298.5q78 53 185.5 69.5t273.5 20.5h61q8 33 8 52q0 111 -170 110q-145 0 -313 -84l-17 10l66 244l16 14q78 29 115 40.5t104.5 23.5t139.5 12q96 0 164.5 -18.5t92 -34.5t50.5 -43q51 33 83 49.5t94.5 31.5t137.5 15q182 0 293 -84 q145 -109 146 -372q0 -74 -21 -187l-16 -10q-281 2 -627 -4q-4 -72 25 -115q61 -84 223 -84q186 0 326 101l18 -11l-78 -293l-14 -16q-162 -70 -354 -70q-262 0 -412 142q-154 -141 -367 -142q-145 0 -235 54q-152 86 -152 280.5zM391 350q0 -43 31 -67.5t74 -24.5 q76 0 157 68q-14 55 -14 92q0 8 1 25.5t1 27.5h-61q-100 -4 -140 -33q-49 -37 -49 -88zM1053 688q25 0 69.5 -1t69.5 -1q29 0 156 4q0 6 1 20.5t1 22.5q0 53 -28 100.5t-95 47.5q-16 0 -32.5 -4.5t-47.5 -19.5t-56.5 -59t-37.5 -110z" />
<glyph unicode="&#xe7;" horiz-adv-x="980" d="M59 475q0 162 69 305.5t220.5 241.5t360.5 98q205 0 325 -84l4 -14q-37 -115 -80 -277l-20 -4q-70 96 -182 97q-121 0 -196 -101.5t-75 -236.5q0 -104 51.5 -170t157.5 -66q111 0 195 72l20 -10q-35 -129 -69 -291l-17 -15q-127 -45 -260 -45q-238 0 -371 134.5 t-133 365.5zM162 -426q154 211 237 334l19 10q98 -2 246 -2l8 -12q-94 -168 -187 -332l-14 -12q-154 2 -301 0z" />
<glyph unicode="&#xe8;" horiz-adv-x="1193" d="M70 487q0 285 170 459t434 174q217 0 342 -108.5t125 -333.5q0 -74 -21 -205l-16 -12q-315 0 -645 -8q4 -37 11 -60.5t30.5 -58.5t77 -52.5t133.5 -17.5t147.5 17.5t100 34t90.5 51.5l16 -13q-14 -53 -43 -155q-6 -23 -17.5 -72t-17.5 -72l-10 -12q-51 -23 -57 -25 q-113 -43 -291 -43q-199 0 -330 68q-125 68 -184 199q-45 98 -45 245zM483 684l297 4q8 49 8 72q0 63 -37.5 92t-84.5 29q-43 0 -84 -25q-70 -47 -99 -172zM461 1620l10 14h354l13 -10q25 -186 61 -356l-10 -13h-260l-17 9q-61 170 -151 356z" />
<glyph unicode="&#xe9;" horiz-adv-x="1193" d="M70 487q0 285 170 459t434 174q217 0 342 -108.5t125 -333.5q0 -74 -21 -205l-16 -12q-315 0 -645 -8q4 -37 11 -60.5t30.5 -58.5t77 -52.5t133.5 -17.5t147.5 17.5t100 34t90.5 51.5l16 -13q-14 -53 -43 -155q-6 -23 -17.5 -72t-17.5 -72l-10 -12q-51 -23 -57 -25 q-113 -43 -291 -43q-199 0 -330 68q-125 68 -184 199q-45 98 -45 245zM483 684l297 4q8 49 8 72q0 63 -37.5 92t-84.5 29q-43 0 -84 -25q-70 -47 -99 -172zM643 1266q106 170 197 354l12 10q143 -2 377 6l8 -16q-10 -12 -74.5 -85t-123 -140.5t-76.5 -89.5q-25 -29 -37 -45 l-17 -7l-256 -4z" />
<glyph unicode="&#xea;" horiz-adv-x="1193" d="M70 487q0 285 170 459t434 174q217 0 342 -108.5t125 -333.5q0 -74 -21 -205l-16 -12q-315 0 -645 -8q4 -37 11 -60.5t30.5 -58.5t77 -52.5t133.5 -17.5t147.5 17.5t100 34t90.5 51.5l16 -13q-14 -53 -43 -155q-6 -23 -17.5 -72t-17.5 -72l-10 -12q-51 -23 -57 -25 q-113 -43 -291 -43q-199 0 -330 68q-125 68 -184 199q-45 98 -45 245zM483 684l297 4q8 49 8 72q0 63 -37.5 92t-84.5 29q-43 0 -84 -25q-70 -47 -99 -172zM383 1270q96 150 112 176q84 131 113 180l16 10h441l12 -10q37 -178 94 -354l-10 -12q-184 -2 -307 -13l-12 10 l-41 218l-127 -211l-15 -9h-266z" />
<glyph unicode="&#xeb;" horiz-adv-x="1193" d="M70 487q0 285 170 459t434 174q217 0 342 -108.5t125 -333.5q0 -74 -21 -205l-16 -12q-315 0 -645 -8q4 -37 11 -60.5t30.5 -58.5t77 -52.5t133.5 -17.5t147.5 17.5t100 34t90.5 51.5l16 -13q-14 -53 -43 -155q-6 -23 -17.5 -72t-17.5 -72l-10 -12q-51 -23 -57 -25 q-113 -43 -291 -43q-199 0 -330 68q-125 68 -184 199q-45 98 -45 245zM483 684l297 4q8 49 8 72q0 63 -37.5 92t-84.5 29q-43 0 -84 -25q-70 -47 -99 -172zM353 1270l65 315l12 10q172 0 326 9l10 -13l-71 -311l-13 -10l-319 -13zM836 1274l61 311l13 12l323 15l10 -13 l-69 -317l-14 -12l-314 -8z" />
<glyph unicode="&#xec;" horiz-adv-x="641" d="M-18 8q84 311 137 551l20 86q45 211 70 399l14 17q225 29 441 69l12 -14l-141 -598l-25 -119q-41 -190 -72 -387l-12 -10l-436 -8zM182 1620l10 14h354l13 -10q25 -186 61 -356l-10 -13h-260l-17 9q-61 170 -151 356z" />
<glyph unicode="&#xed;" horiz-adv-x="641" d="M-18 8q84 311 137 551l20 86q45 211 70 399l14 17q225 29 441 69l12 -14l-141 -598l-25 -119q-41 -190 -72 -387l-12 -10l-436 -8zM364 1266q106 170 197 354l12 10q143 -2 377 6l8 -16q-10 -12 -74.5 -85t-123 -140.5t-76.5 -89.5q-25 -29 -37 -45l-17 -7l-256 -4z" />
<glyph unicode="&#xee;" horiz-adv-x="641" d="M-18 8q84 311 137 551l20 86q45 211 70 399l14 17q225 29 441 69l12 -14l-141 -598l-25 -119q-41 -190 -72 -387l-12 -10l-436 -8zM105 1270q96 150 112 176q84 131 113 180l16 10h441l12 -10q37 -178 94 -354l-10 -12q-184 -2 -307 -13l-12 10l-41 218l-127 -211l-15 -9 h-266z" />
<glyph unicode="&#xef;" horiz-adv-x="641" d="M-18 8q84 311 137 551l20 86q45 211 70 399l14 17q225 29 441 69l12 -14l-141 -598l-25 -119q-41 -190 -72 -387l-12 -10l-436 -8zM74 1270l65 315l12 10q172 0 326 9l10 -13l-71 -311l-13 -10l-319 -13zM557 1274l61 311l13 12l323 15l10 -13l-69 -317l-14 -12l-314 -8z " />
<glyph unicode="&#xf0;" horiz-adv-x="1236" d="M43 414q0 170 68.5 320.5t179.5 238.5q162 127 366 127q80 0 146 -33q-14 72 -51 162l-37 -8q-215 -45 -305 -76l-23 14q-29 84 -74 170l13 21q92 16 295 59l28 8q-68 98 -127 150l8 18q55 8 166 29q53 10 160 35l29 -9q72 -80 112 -139l25 6q106 27 158 45l22 -8 q43 -106 78 -180l-12 -18q-82 -16 -168 -35q111 -252 110 -516q0 -143 -30 -285q-59 -254 -209 -385q-174 -150 -445 -150q-223 0 -350 109q-133 111 -133 330zM463 370.5q0 -65.5 26.5 -103.5t79.5 -36q70 4 118 78t67.5 175.5t26.5 163t7 87.5q0 68 -28.5 98.5t-69.5 30.5 q-88 0 -137 -100q-41 -82 -65.5 -205t-24.5 -188.5z" />
<glyph unicode="&#xf1;" d="M-6 8l86 357l31 129q63 291 96 553l16 16q201 25 418 67l12 -14l-24 -115q166 119 319 119q37 0 75 -9t88 -33.5t81 -83t31 -142.5q0 -106 -80 -446l-29 -140l-47 -254l-16 -10l-404 -8l-10 14l76 334l43 201q29 137 28 172q0 47 -25.5 70.5t-62.5 23.5t-110 -37 q-92 -418 -158 -758l-12 -12l-414 -8zM437 1286l55 236l12 18q102 68 193 68q51 0 153 -33l35 -12q84 -31 133 -31q82 0 205 82l10 -10l-49 -252l-12 -17q-127 -82 -227 -82q-53 0 -146 37l-35 15q-68 29 -118 28q-74 0 -197 -57z" />
<glyph unicode="&#xf2;" horiz-adv-x="1236" d="M57 430q0 127 45 263t125 233q166 195 473 194q186 0 291 -59q203 -106 203 -389q0 -119 -23 -215q-35 -137 -94 -230q-164 -254 -528 -254q-233 0 -362.5 116t-129.5 341zM469 373q0 -141 96 -142q137 0 197 314q23 109 22 188q0 131 -96 131q-74 0 -131 -104 q-35 -68 -61.5 -192.5t-26.5 -194.5zM479 1620l10 14h354l13 -10q25 -186 61 -356l-10 -13h-260l-17 9q-61 170 -151 356z" />
<glyph unicode="&#xf3;" horiz-adv-x="1236" d="M57 430q0 127 45 263t125 233q166 195 473 194q186 0 291 -59q203 -106 203 -389q0 -119 -23 -215q-35 -137 -94 -230q-164 -254 -528 -254q-233 0 -362.5 116t-129.5 341zM469 373q0 -141 96 -142q137 0 197 314q23 109 22 188q0 131 -96 131q-74 0 -131 -104 q-35 -68 -61.5 -192.5t-26.5 -194.5zM661 1266q106 170 197 354l12 10q143 -2 377 6l8 -16q-10 -12 -74.5 -85t-123 -140.5t-76.5 -89.5q-25 -29 -37 -45l-17 -7l-256 -4z" />
<glyph unicode="&#xf4;" horiz-adv-x="1236" d="M57 430q0 127 45 263t125 233q166 195 473 194q186 0 291 -59q203 -106 203 -389q0 -119 -23 -215q-35 -137 -94 -230q-164 -254 -528 -254q-233 0 -362.5 116t-129.5 341zM469 373q0 -141 96 -142q137 0 197 314q23 109 22 188q0 131 -96 131q-74 0 -131 -104 q-35 -68 -61.5 -192.5t-26.5 -194.5zM402 1270q96 150 112 176q84 131 113 180l16 10h441l12 -10q37 -178 94 -354l-10 -12q-184 -2 -307 -13l-12 10l-41 218l-127 -211l-15 -9h-266z" />
<glyph unicode="&#xf5;" horiz-adv-x="1236" d="M57 430q0 127 45 263t125 233q166 195 473 194q186 0 291 -59q203 -106 203 -389q0 -119 -23 -215q-35 -137 -94 -230q-164 -254 -528 -254q-233 0 -362.5 116t-129.5 341zM469 373q0 -141 96 -142q137 0 197 314q23 109 22 188q0 131 -96 131q-74 0 -131 -104 q-35 -68 -61.5 -192.5t-26.5 -194.5zM414 1286l55 236l12 18q102 68 193 68q51 0 153 -33l35 -12q84 -31 133 -31q82 0 205 82l10 -10l-49 -252l-12 -17q-127 -82 -227 -82q-53 0 -146 37l-35 15q-68 29 -118 28q-74 0 -197 -57z" />
<glyph unicode="&#xf6;" horiz-adv-x="1236" d="M57 430q0 127 45 263t125 233q166 195 473 194q186 0 291 -59q203 -106 203 -389q0 -119 -23 -215q-35 -137 -94 -230q-164 -254 -528 -254q-233 0 -362.5 116t-129.5 341zM469 373q0 -141 96 -142q137 0 197 314q23 109 22 188q0 131 -96 131q-74 0 -131 -104 q-35 -68 -61.5 -192.5t-26.5 -194.5zM340 1268l65 315l12 10q172 0 326 9l10 -13l-71 -311l-13 -10l-319 -13zM823 1272l61 311l13 12l323 15l10 -13l-69 -317l-14 -12l-314 -8z" />
<glyph unicode="&#xf7;" horiz-adv-x="1366" d="M35 465v260h1366v-260h-1366zM553 227q0 68 46 117t120 49q70 0 117 -49t47 -117q0 -66 -46 -115t-118 -49q-70 0 -118 46t-48 118zM553 961q0 68 46 116.5t120 48.5q70 0 117 -49t47 -116q0 -66 -45 -115t-121 -49q-68 0 -116 46t-48 118z" />
<glyph unicode="&#xf8;" horiz-adv-x="1236" d="M-70 98l2 15q51 33 129 90l31 22q-35 123 -35 197q0 240 115 424q170 276 533 276q86 0 167 -20q80 -20 124 -47t96 -76l28 22q4 2 32 24t57.5 45.5t35.5 27.5l15 -2l59 -84l-2 -17q-86 -61 -133 -94l-29 -22q39 -94 39 -217q0 -244 -109 -418q-166 -270 -542 -271 q-188 0 -312 82q-31 20 -75 66l-31 -23q-14 -10 -121 -92l-14 2zM465 356q8 -131 100 -131q152 0 209 361zM481 522l307 223q-6 127 -98 127q-68 0 -121 -75.5t-88 -274.5z" />
<glyph unicode="&#xf9;" d="M66 246q0 72 49 284l47 201q45 201 69 340l15 12l397 21l14 -17q-92 -383 -98 -409q-57 -229 -57 -289q0 -102 96 -102q49 0 117 43l90 424l65 317l15 12q258 10 403 21l10 -17l-133 -571l-45 -192l-65 -310l-15 -12l-389 -8l-10 12l25 105q-66 -59 -125 -86 q-106 -49 -195 -50q-109 0 -194.5 64t-85.5 207zM502 1620l10 14h354l13 -10q25 -186 61 -356l-10 -13h-260l-17 9q-61 170 -151 356z" />
<glyph unicode="&#xfa;" d="M66 246q0 72 49 284l47 201q45 201 69 340l15 12l397 21l14 -17q-92 -383 -98 -409q-57 -229 -57 -289q0 -102 96 -102q49 0 117 43l90 424l65 317l15 12q258 10 403 21l10 -17l-133 -571l-45 -192l-65 -310l-15 -12l-389 -8l-10 12l25 105q-66 -59 -125 -86 q-106 -49 -195 -50q-109 0 -194.5 64t-85.5 207zM684 1266q106 170 197 354l12 10q143 -2 377 6l8 -16q-10 -12 -74.5 -85t-123 -140.5t-76.5 -89.5q-25 -29 -37 -45l-17 -7l-256 -4z" />
<glyph unicode="&#xfb;" d="M66 246q0 72 49 284l47 201q45 201 69 340l15 12l397 21l14 -17q-92 -383 -98 -409q-57 -229 -57 -289q0 -102 96 -102q49 0 117 43l90 424l65 317l15 12q258 10 403 21l10 -17l-133 -571l-45 -192l-65 -310l-15 -12l-389 -8l-10 12l25 105q-66 -59 -125 -86 q-106 -49 -195 -50q-109 0 -194.5 64t-85.5 207zM424 1270q96 150 112 176q84 131 113 180l16 10h441l12 -10q37 -178 94 -354l-10 -12q-184 -2 -307 -13l-12 10l-41 218l-127 -211l-15 -9h-266z" />
<glyph unicode="&#xfc;" d="M66 246q0 72 49 284l47 201q45 201 69 340l15 12l397 21l14 -17q-92 -383 -98 -409q-57 -229 -57 -289q0 -102 96 -102q49 0 117 43l90 424l65 317l15 12q258 10 403 21l10 -17l-133 -571l-45 -192l-65 -310l-15 -12l-389 -8l-10 12l25 105q-66 -59 -125 -86 q-106 -49 -195 -50q-109 0 -194.5 64t-85.5 207zM392 1268l65 315l12 10q172 0 326 9l10 -13l-71 -311l-13 -10l-319 -13zM875 1272l61 311l13 12l323 15l10 -13l-69 -317l-14 -12l-314 -8z" />
<glyph unicode="&#xfd;" horiz-adv-x="1110" d="M-47 -504q29 45 104.5 162t104.5 162q2 4 23.5 37.5t39 64.5t17.5 33l-37 315l-45 359q-29 246 -62 444l15 19q217 2 415 18l13 -14l8 -256l16 -373l129 268q102 217 160 346l18 15l342 8l9 -19q-59 -94 -121 -206q-39 -70 -232 -402l-157 -278q-115 -207 -219 -410 q-70 -143 -144 -287l-18 -12l-373 -8zM598 1266q106 170 197 354l12 10q143 -2 377 6l8 -16q-10 -12 -74.5 -85t-123 -140.5t-76.5 -89.5q-25 -29 -37 -45l-17 -7l-256 -4z" />
<glyph unicode="&#xfe;" d="M-127 -504q23 72 61 244q18 84 60 248l94 399q213 903 254 1157l8 17q123 18 424 71l12 -14l-6 -25q-4 -14 -23.5 -93t-23.5 -91l-98 -389q133 100 274 100q150 0 244 -106.5t94 -306.5q0 -168 -69.5 -319.5t-190.5 -246.5q-111 -88 -245 -117.5t-324 -29.5l-15 -72 q-12 -61 -24 -119l-12 -57q-16 -88 -50 -248l-14 -12q-55 2 -168 2q-94 0 -252 -6zM479 260q4 0 13.5 -1t15.5 -1q133 0 215 104q51 63 74.5 153.5t23.5 160.5q0 68 -28.5 113t-87.5 45q-45 0 -105 -33z" />
<glyph unicode="&#xff;" horiz-adv-x="1110" d="M-47 -504q29 45 104.5 162t104.5 162q2 4 23.5 37.5t39 64.5t17.5 33l-37 315l-45 359q-29 246 -62 444l15 19q217 2 415 18l13 -14l8 -256l16 -373l129 268q102 217 160 346l18 15l342 8l9 -19q-59 -94 -121 -206q-39 -70 -232 -402l-157 -278q-115 -207 -219 -410 q-70 -143 -144 -287l-18 -12l-373 -8zM308 1270l65 315l12 10q172 0 326 9l10 -13l-71 -311l-13 -10l-319 -13zM791 1274l61 311l13 12l323 15l10 -13l-69 -317l-14 -12l-314 -8z" />
<glyph unicode="&#x131;" horiz-adv-x="641" d="M-18 8q84 311 137 551l20 86q45 211 70 399l14 17q225 29 441 69l12 -14l-141 -598l-25 -119q-41 -190 -72 -387l-12 -10l-436 -8z" />
<glyph unicode="&#x152;" horiz-adv-x="1921" d="M109 571q0 195 69.5 380.5t196.5 305.5q137 129 311 165t449 36q92 0 280 -4h156h444l13 -12l-76 -279l-17 -14h-454l-62 -262h160l270 2l11 -15l-76 -264l-17 -14l-284 4h-129l-29 -121l-37 -164q244 -2 520 9l11 -15q-4 -12 -22.5 -74.5t-27.5 -95.5q-29 -100 -34 -125 l-17 -14h-626q-164 -4 -248 -4q-215 0 -340 23.5t-215 97.5q-180 149 -180 454zM563 569q0 -139 60.5 -199.5t187.5 -60.5h57l58 250l78 338l57 256h-43q-164 0 -246 -57q-98 -68 -153.5 -226t-55.5 -301z" />
<glyph unicode="&#x153;" horiz-adv-x="1878" d="M57 418q0 29 2 63.5t16.5 107.5t37 138.5t70.5 140t112.5 129t167 90t229.5 35.5q209 0 367 -129q49 45 98 70q119 59 258 59q162 0 268 -78q147 -106 148 -348q0 -82 -35 -229l-14 -12l-619 -13q4 -184 232 -184q160 0 329 96l17 -12l-74 -270l-10 -15 q-170 -82 -365 -82q-109 0 -196 23q-53 12 -94 35.5t-55.5 38t-41.5 43.5q-59 -61 -125 -92q-109 -47 -250 -48q-180 0 -288 66q-185 113 -185 377zM463 371q0 -139 96 -140q70 0 123 86q57 109 92 299q14 76 14 129q0 70 -29.5 97.5t-64.5 27.5q-63 0 -112.5 -68.5 t-73 -162.5t-34.5 -164.5t-11 -103.5zM1190 676l287 4q0 6 2 19.5t3 23.5t1 18q0 53 -31 91t-84 38q-68 0 -117 -55q-38 -43 -61 -139z" />
<glyph unicode="&#x178;" horiz-adv-x="1366" d="M219 1425l10 15l457 16l12 -12q66 -274 142 -510l149 233q104 164 168 269l14 12q160 -2 390 6l8 -16q-29 -37 -96.5 -129t-86.5 -115l-432 -588l-77 -342l-52 -250l-14 -12q-244 0 -436 -6l-10 10q74 272 100 377q37 160 53 238l-145 393q-45 126 -154 411zM494 1556 q39 141 69 297l12 13l332 4l6 -12l-75 -302l-13 -10h-321zM1010 1550l67 299l13 13l325 8l10 -12l-69 -308l-13 -10q-150 4 -323 -2z" />
<glyph unicode="&#x2c6;" horiz-adv-x="598" d="M-94 1270q96 150 112 176q84 131 113 180l16 10h441l12 -10q37 -178 94 -354l-10 -12q-184 -2 -307 -13l-12 10l-41 218l-127 -211l-15 -9h-266z" />
<glyph unicode="&#x2da;" horiz-adv-x="598" d="M18 1411q0 113 86 198t232 85q133 0 187.5 -64.5t54.5 -140.5q0 -113 -83 -203t-233 -90q-117 0 -180.5 59.5t-63.5 155.5zM217 1405q0 -82 59 -82q70 0 99 113q8 41 8 59q0 74 -57 74q-43 0 -76 -50.5t-33 -113.5z" />
<glyph unicode="&#x2dc;" horiz-adv-x="598" d="M-98 1286l55 236l12 18q102 68 193 68q51 0 153 -33l35 -12q84 -31 133 -31q82 0 205 82l10 -10l-49 -252l-12 -17q-127 -82 -227 -82q-53 0 -146 37l-35 15q-68 29 -118 28q-74 0 -197 -57z" />
<glyph unicode="&#x3bc;" d="M-127 -504q25 78 61 244q20 84 62 248l166 743q47 205 69 342l15 12q195 6 397 19l12 -17q-16 -63 -53 -227t-53 -225q-47 -188 -47 -246q0 -102 94 -102t133 106q16 49 76 361q4 27 33.5 167t31.5 152l15 12q172 4 403 19l10 -17q-8 -35 -47 -196q-61 -264 -86 -375 l-47 -205q-35 -156 -63 -297l-15 -12q-227 -2 -389 -8l-10 12l16 70q-41 -88 -122 -88q-88 0 -111 90q-10 -51 -36 -175t-46 -228.5t-37 -176.5l-14 -12q-55 2 -166 2q-80 0 -242 -6z" />
<glyph unicode="&#x2000;" horiz-adv-x="997" />
<glyph unicode="&#x2001;" horiz-adv-x="1994" />
<glyph unicode="&#x2002;" horiz-adv-x="997" />
<glyph unicode="&#x2003;" horiz-adv-x="1994" />
<glyph unicode="&#x2004;" horiz-adv-x="663" />
<glyph unicode="&#x2005;" horiz-adv-x="497" />
<glyph unicode="&#x2006;" horiz-adv-x="331" />
<glyph unicode="&#x2007;" horiz-adv-x="331" />
<glyph unicode="&#x2008;" horiz-adv-x="247" />
<glyph unicode="&#x2009;" horiz-adv-x="397" />
<glyph unicode="&#x200a;" horiz-adv-x="110" />
<glyph unicode="&#x2010;" horiz-adv-x="811" d="M53 436l78 285l16 14h637l7 -10l-80 -285l-17 -14q-53 0 -159.5 1t-159.5 1q-94 0 -316 -4z" />
<glyph unicode="&#x2011;" horiz-adv-x="811" d="M53 436l78 285l16 14h637l7 -10l-80 -285l-17 -14q-53 0 -159.5 1t-159.5 1q-94 0 -316 -4z" />
<glyph unicode="&#x2012;" horiz-adv-x="811" d="M53 436l78 285l16 14h637l7 -10l-80 -285l-17 -14q-53 0 -159.5 1t-159.5 1q-94 0 -316 -4z" />
<glyph unicode="&#x2013;" horiz-adv-x="1193" d="M53 444l88 285l17 16q287 -10 516 -10q162 0 493 8l9 -14l-91 -297l-16 -12q-295 12 -485 12q-72 0 -260.5 -1t-262.5 -1z" />
<glyph unicode="&#x2014;" horiz-adv-x="1449" d="M53 444q57 176 88 285l15 14q426 -10 764 -10q295 0 503 10l9 -14q-23 -78 -46.5 -154.5t-44.5 -144.5l-16 -12q-240 14 -520 14q-377 0 -742 -4z" />
<glyph unicode="&#x2018;" horiz-adv-x="555" d="M141 1067q10 14 42 57t67 91.5t63 87.5l172 253l15 9q20 0 63 -1t64 -1q35 0 153 4l8 -15q-12 -27 -60 -129t-66 -147q-37 -80 -87 -207l-18 -10l-410 -8z" />
<glyph unicode="&#x2019;" horiz-adv-x="555" d="M141 1065q117 252 213 483l19 11l407 8l8 -17q-78 -100 -137 -184l-209 -305l-14 -8h-127q-88 0 -154 -2z" />
<glyph unicode="&#x201a;" horiz-adv-x="555" d="M-129 -143q117 252 213 483l18 10l408 8l8 -16q-78 -100 -137 -184l-209 -305l-14 -9h-127q-88 0 -154 -2z" />
<glyph unicode="&#x201c;" horiz-adv-x="1067" d="M141 1067q10 14 28.5 38.5t29.5 39.5q39 49 112 153l174 258l15 9q20 0 63 -1t66 -1q20 0 151 4l8 -15q-45 -98 -67 -145q-80 -170 -146 -338l-18 -10l-410 -8zM651 1067q74 90 129 170l217 319l15 9q20 0 63 -1t64 -1q39 0 153 4l8 -15q-119 -250 -215 -483l-16 -10 l-407 -8z" />
<glyph unicode="&#x201d;" horiz-adv-x="1067" d="M141 1065q117 252 213 483l19 11l407 8l8 -17q-74 -96 -137 -184l-209 -305l-14 -8h-127q-88 0 -154 -2zM651 1065q158 338 215 483l17 11l409 8l8 -17q-127 -166 -174 -237l-172 -252l-14 -8h-127q-88 0 -154 -2z" />
<glyph unicode="&#x201e;" horiz-adv-x="1067" d="M-141 -139q90 176 225 477l16 14l396 8l8 -18q-14 -23 -137 -188q-43 -55 -117 -170l-86 -129l-17 -13q-57 2 -145 2h-133zM369 -141q106 205 227 481l14 12l400 6l8 -16q-184 -248 -287 -403q-47 -68 -57 -84l-15 -13q-49 2 -149 2q-90 0 -135 -2z" />
<glyph unicode="&#x2022;" horiz-adv-x="681" d="M72 723q0 133 93 225t224 92t224.5 -92t93.5 -225t-93.5 -225t-224.5 -92t-224 92t-93 225z" />
<glyph unicode="&#x2026;" horiz-adv-x="2048" d="M100 150q0 70 48.5 116.5t116 46.5t114.5 -46t47 -113q0 -66 -44 -116t-116 -50q-66 0 -116 44t-50 118zM784 150q0 70 48.5 116.5t116 46.5t114.5 -46t47 -113q0 -66 -44 -116t-116 -50q-66 0 -116 44t-50 118zM1468 150q0 70 48.5 116.5t116 46.5t114.5 -46t47 -113 q0 -66 -44 -116t-116 -50q-66 0 -116 44t-50 118z" />
<glyph unicode="&#x202f;" horiz-adv-x="397" />
<glyph unicode="&#x2039;" horiz-adv-x="555" d="M23 582l2 20q31 41 131 178q98 127 139 195l16 8q109 -4 310 -4l8 -16q-63 -78 -152 -197l-40 -53q-34 -45 -60.5 -81t-34.5 -46q20 -78 131 -381l-12 -15q-147 2 -287 0l-14 15q-41 117 -127 346z" />
<glyph unicode="&#x203a;" horiz-adv-x="555" d="M-39 209q72 86 154 194q78 111 133 183q-33 123 -131 379l12 14q154 -2 287 0l14 -14q57 -158 127 -347l10 -30l-2 -19q-23 -31 -131 -180q-96 -125 -139 -192l-16 -9q-213 4 -310 5z" />
<glyph unicode="&#x205f;" horiz-adv-x="497" />
<glyph unicode="&#x2122;" horiz-adv-x="1409" d="M94 1309v137h590v-137h-207v-543h-172v543h-211zM739 766v680h217l156 -492l145 492h220v-680h-168l8 362q0 59 12 138q-23 -88 -29 -109l-114 -391h-154l-121 393q-20 72 -28 105q12 -96 14 -136l8 -362h-166z" />
<glyph unicode="&#xe000;" horiz-adv-x="1110" d="M0 1110h1110v-1110h-1110v1110z" />
<glyph unicode="&#xfb01;" horiz-adv-x="1409" d="M39 8q33 115 80 307l121 510q-84 0 -154 -4l-10 13q31 100 74 251l16 13q55 -2 137 -2l23 98q43 193 73 254q100 205 392 205q111 0 245 -31l6 -18q-45 -145 -75 -258l-21 -9q-57 14 -88 15q-63 0 -86.5 -41t-50.5 -160l-12 -55q102 0 172 2l8 -15q-59 -203 -76 -249 l-14 -13q-74 2 -152 2q-4 -16 -6 -22q-98 -420 -166 -785l-18 -12q-182 0 -406 -8zM750 8q84 311 137 551l20 86q55 268 70 402l14 16q219 27 441 70l12 -17q-16 -61 -51 -211q-14 -63 -46 -198.5t-44 -186.5l-25 -119q-59 -289 -72 -387l-12 -10q-256 -2 -436 -8z M1032 1212q37 156 70 326l16 16q166 20 412 54l12 -15q-6 -29 -20.5 -86t-20.5 -86q-4 -20 -16 -71.5t-19 -77.5l-16 -17q-229 -31 -403 -57z" />
<glyph unicode="&#xfb02;" horiz-adv-x="1409" d="M39 8q45 158 78 307l123 510q-84 0 -154 -4l-10 13q31 100 74 251l16 13q55 -2 135 -2l25 98q43 193 73 254q100 205 392 205q111 0 245 -31l6 -18q-45 -145 -75 -258l-21 -9q-57 14 -88 15q-63 0 -86.5 -41t-50.5 -160l-12 -55q102 0 172 2l8 -15q-27 -86 -76 -249 l-14 -13q-74 2 -152 2q-4 -16 -6 -22q-98 -420 -166 -785l-18 -12q-182 0 -406 -8zM752 8q41 164 71 277q37 152 54 227l90 385q113 492 127 649l14 17q272 43 438 71l10 -14q-4 -18 -90 -365q-49 -209 -73 -315l-90 -397q-63 -276 -113 -529l-14 -10q-262 -2 -414 -8z" />
<glyph unicode="&#xfb03;" horiz-adv-x="2177" d="M1518 8q84 311 137 551l20 86q45 211 70 399l14 17q225 29 441 69l12 -14l-141 -598l-25 -119q-41 -190 -72 -387l-12 -10l-436 -8zM1800 1210l70 328l16 14l412 56l12 -15l-76 -323l-16 -15l-403 -59zM807 6l78 309l123 510l-154 -6l-10 15l74 249l16 15l135 -4l25 100 q39 180 76.5 261t125.5 136q98 61 273 62q100 0 235 -31l6 -18l-75 -258l-23 -9q-61 14 -84 15q-63 0 -89 -41t-50 -162l-12 -55l172 4l8 -17l-76 -247l-14 -13h-152q-94 -397 -172 -807l-18 -12q-244 0 -406 -8zM39 6l78 309l123 510l-154 -6l-10 15l74 249l16 15l135 -4 l25 100q39 180 76.5 261t125.5 136q98 61 273 62q100 0 235 -31l6 -18l-75 -258l-23 -9q-61 14 -84 15q-63 0 -89 -41t-50 -162l-12 -55l172 4l8 -17l-76 -247l-14 -13h-152q-94 -397 -172 -807l-18 -12q-244 0 -406 -8z" />
<glyph unicode="&#xfb04;" horiz-adv-x="2177" d="M1520 8l125 502l90 385q10 41 28.5 124t26.5 124q47 205 72 403l14 15l438 73l13 -16q-100 -393 -166 -680l-93 -397l-112 -529l-12 -10l-414 -8zM807 6l78 309l123 510l-154 -6l-10 15l74 249l16 15l135 -4l25 100q39 180 76.5 261t125.5 136q98 61 273 62 q100 0 235 -31l6 -18l-75 -258l-23 -9q-61 14 -84 15q-63 0 -89 -41t-50 -162l-12 -55l172 4l8 -17l-76 -247l-14 -13h-152q-94 -397 -172 -807l-18 -12q-244 0 -406 -8zM39 6l78 309l123 510l-154 -6l-10 15l74 249l16 15l135 -4l25 100q39 180 76.5 261t125.5 136 q98 61 273 62q100 0 235 -31l6 -18l-75 -258l-23 -9q-61 14 -84 15q-63 0 -89 -41t-50 -162l-12 -55l172 4l8 -17l-76 -247l-14 -13h-152q-94 -397 -172 -807l-18 -12q-244 0 -406 -8z" />
</font>
</defs>
</svg>
